<?xml version="1.0" encoding="UTF-8"?> <!-- Creator: CorelDRAW 2019 (64-Bit) --> <svg xmlns="http://www.w3.org/2000/svg" xmlns:xlink="http://www.w3.org/1999/xlink" xmlns:xodm="http://www.corel.com/coreldraw/odm/2003" xml:space="preserve" width="200px" height="106px" style="shape-rendering:geometricPrecision; text-rendering:geometricPrecision; image-rendering:optimizeQuality; fill-rule:evenodd; clip-rule:evenodd" viewBox="0 0 200 106.03"> <defs> <style type="text/css"> <![CDATA[ .fil1 {fill:#22984F;fill-rule:nonzero} .fil0 {fill:#317ABE;fill-rule:nonzero} .fil3 {fill:#373435;fill-rule:nonzero} .fil2 {fill:#ED3237;fill-rule:nonzero} ]]> </style> </defs> <g id="Слой_x0020_1"> <metadata id="CorelCorpID_0Corel-Layer"></metadata> <g id="_1820226157424"> <path class="fil0" d="M4.75 12.42l32.58 23.89 21.25 15.45c1.65,-2.83 3.56,-5.67 5.8,-8.47 4.25,-5.33 9.67,-10.5 16.55,-15.13 5.47,-3.67 9.82,-4.57 13.7,-5.06 3.75,-0.5 6.71,0.68 10.78,1.27 -0.15,-4.44 -4.4,-7.23 -8.42,-8.96l-6.48 -3.25c-0.98,-2.08 -5.74,-3.84 -8.51,-4.18 -6.46,-0.8 -17.09,0.16 -23.33,-1.7 -3.72,-1.12 -4.3,-2.38 -7.7,-6.28 -5.43,11.94 5.8,20.24 10.24,21.73 -6.07,1.03 -11.5,3.77 -16.26,7.44l-38.28 -28.01 -3.05 4.17c-1.64,2.27 -1.14,5.45 1.13,7.09z"></path> <path class="fil1" d="M10.75 34.12c-1.64,2.27 -1.14,5.45 1.13,7.09l15.15 11.2 24.34 17.71c0.91,-3.18 2.11,-6.55 3.7,-9.99l-22.38 -16.27 -18.9 -13.92 -3.04 4.18z"></path> <polygon class="fil2" points="54.97,60.35 13.66,30.13 13.93,29.75 55.16,59.93 "></polygon> <path class="fil3" d="M15.59 81.64l0.93 0 3.83 8.97 -1.16 0 -1.14 -2.7 -4.07 0 -1.13 2.7 -1.1 0 3.84 -8.97zm-1.18 5.25l0 0 3.22 0 -1.61 -3.81 -1.61 3.81z"></path> <polygon class="fil3" points="28.22,90.61 22.65,83.6 22.65,90.61 21.63,90.61 21.63,81.69 22.49,81.69 28.06,88.72 28.06,81.69 29.08,81.69 29.08,90.61 "></polygon> <polygon class="fil3" points="30.29,81.69 37.62,81.69 37.62,82.71 34.5,82.71 34.5,90.61 33.42,90.61 33.42,82.71 30.29,82.71 "></polygon> <polygon class="fil3" points="39.09,81.69 40.17,81.69 40.17,90.61 39.09,90.61 "></polygon> <polygon class="fil3" points="42.85,81.69 43.94,81.69 47.29,86.27 50.51,81.69 51.54,81.69 51.54,90.61 50.45,90.61 50.45,83.4 47.29,87.83 47.13,87.83 43.93,83.44 43.93,90.61 42.85,90.61 "></polygon> <path class="fil3" d="M57.81 81.56c2.59,0 4.55,1.88 4.55,4.59 0,2.65 -1.96,4.59 -4.55,4.59 -2.59,0 -4.55,-1.88 -4.55,-4.59 0,-2.59 1.9,-4.59 4.55,-4.59zm0 8.16l0 0c2.04,0 3.4,-1.56 3.4,-3.57 0,-2.08 -1.49,-3.57 -3.4,-3.57 -1.94,0 -3.4,1.49 -3.4,3.57 0,2.03 1.49,3.57 3.4,3.57z"></path> <polygon class="fil3" points="70.67,90.61 65.1,83.6 65.1,90.61 64.08,90.61 64.08,81.69 64.95,81.69 70.52,88.72 70.52,81.69 71.53,81.69 71.53,90.61 "></polygon> <path class="fil3" d="M77.81 81.56c2.58,0 4.54,1.88 4.54,4.59 0,2.65 -1.96,4.59 -4.54,4.59 -2.59,0 -4.55,-1.88 -4.55,-4.59 0,-2.59 1.89,-4.59 4.55,-4.59zm0 8.16l0 0c2.03,0 3.4,-1.56 3.4,-3.57 0,-2.08 -1.49,-3.57 -3.4,-3.57 -1.94,0 -3.41,1.49 -3.41,3.57 0,2.03 1.49,3.57 3.41,3.57z"></path> <path class="fil3" d="M84.08 90.61l0 -8.92c0.49,0 1.77,-0.03 2.33,-0.03 2.55,0 3.3,1.38 3.3,2.77 0,1.45 -1.03,2.8 -3.21,2.8 -0.36,0 -0.89,-0.01 -1.34,-0.05l0 3.43 -1.08 0zm1.08 -7.9l0 0 0 3.44c0.43,0.04 0.85,0.06 1.3,0.06 1.31,0 2.1,-0.67 2.1,-1.79 0,-1.06 -0.64,-1.74 -2.05,-1.74 -0.36,0 -0.93,0.02 -1.35,0.03z"></path> <path class="fil3" d="M95.09 81.56c2.58,0 4.55,1.88 4.55,4.59 0,2.65 -1.97,4.59 -4.55,4.59 -2.59,0 -4.55,-1.88 -4.55,-4.59 0,-2.59 1.9,-4.59 4.55,-4.59zm0 8.16l0 0c2.04,0 3.4,-1.56 3.4,-3.57 0,-2.08 -1.49,-3.57 -3.4,-3.57 -1.94,0 -3.41,1.49 -3.41,3.57 0,2.03 1.5,3.57 3.41,3.57z"></path> <polygon class="fil3" points="101.36,81.69 102.44,81.69 102.44,89.59 106.84,89.59 106.84,90.61 101.36,90.61 "></polygon> <polygon class="fil3" points="109.93,86.79 109.93,90.61 108.85,90.61 108.85,86.79 105.69,81.69 106.94,81.69 109.44,85.77 111.95,81.69 113.13,81.69 "></polygon> <path class="fil3" d="M123.6 89.74c-0.6,0.62 -1.71,1 -2.82,1 -2.68,0 -4.52,-1.81 -4.52,-4.59 0,-2.56 1.65,-4.59 4.44,-4.59 1.15,0 2.08,0.32 2.72,0.87l-0.5 0.82c-0.59,-0.44 -1.27,-0.67 -2.2,-0.67 -1.94,0 -3.32,1.46 -3.32,3.57 0,2.13 1.42,3.57 3.48,3.57 0.86,0 1.67,-0.29 2.28,-0.79l0.44 0.81z"></path> <path class="fil3" d="M128.57 81.56c2.58,0 4.55,1.88 4.55,4.59 0,2.65 -1.97,4.59 -4.55,4.59 -2.59,0 -4.55,-1.88 -4.55,-4.59 0,-2.59 1.9,-4.59 4.55,-4.59zm0 8.16l0 0c2.04,0 3.4,-1.56 3.4,-3.57 0,-2.08 -1.49,-3.57 -3.4,-3.57 -1.94,0 -3.41,1.49 -3.41,3.57 0,2.03 1.5,3.57 3.41,3.57z"></path> <polygon class="fil3" points="134.84,81.69 135.93,81.69 139.29,86.27 142.5,81.69 143.53,81.69 143.53,90.61 142.45,90.61 142.45,83.4 139.29,87.83 139.12,87.83 135.92,83.44 135.92,90.61 134.84,90.61 "></polygon> <polygon class="fil3" points="145.95,81.69 147.05,81.69 150.4,86.27 153.61,81.69 154.64,81.69 154.64,90.61 153.56,90.61 153.56,83.4 150.4,87.83 150.23,87.83 147.03,83.44 147.03,90.61 145.95,90.61 "></polygon> <polygon class="fil3" points="157.32,81.69 158.4,81.69 158.4,90.61 157.32,90.61 "></polygon> <polygon class="fil3" points="159.87,81.69 167.2,81.69 167.2,82.71 164.07,82.71 164.07,90.61 162.99,90.61 162.99,82.71 159.87,82.71 "></polygon> <polygon class="fil3" points="167.54,81.69 174.87,81.69 174.87,82.71 171.75,82.71 171.75,90.61 170.66,90.61 170.66,82.71 167.54,82.71 "></polygon> <polygon class="fil3" points="176.08,81.69 181.11,81.69 181.11,82.71 177.16,82.71 177.16,85.59 180.73,85.59 180.73,86.61 177.16,86.61 177.16,89.59 181.24,89.59 181.24,90.61 176.08,90.61 "></polygon> <polygon class="fil3" points="183.15,81.69 188.19,81.69 188.19,82.71 184.24,82.71 184.24,85.59 187.8,85.59 187.8,86.61 184.24,86.61 184.24,89.59 188.31,89.59 188.31,90.61 183.15,90.61 "></polygon> <path class="fil3" d="M4.55 96.86c2.59,0 4.55,1.87 4.55,4.58 0,2.66 -1.96,4.59 -4.55,4.59 -2.59,0 -4.55,-1.87 -4.55,-4.59 0,-2.58 1.9,-4.58 4.55,-4.58zm0 8.15l0 0c2.04,0 3.4,-1.55 3.4,-3.57 0,-2.07 -1.49,-3.56 -3.4,-3.56 -1.94,0 -3.4,1.49 -3.4,3.56 0,2.03 1.49,3.57 3.4,3.57z"></path> <polygon class="fil3" points="10.82,96.98 15.85,96.98 15.85,98 11.9,98 11.9,101.16 15.47,101.16 15.47,102.18 11.9,102.18 11.9,105.9 10.82,105.9 "></polygon> <polygon class="fil3" points="18.85,96.98 26.18,96.98 26.18,98 23.05,98 23.05,105.9 21.97,105.9 21.97,98 18.85,98 "></polygon> <polygon class="fil3" points="33.38,101.86 28.47,101.86 28.47,105.9 27.39,105.9 27.39,96.98 28.47,96.98 28.47,100.85 33.38,100.85 33.38,96.98 34.46,96.98 34.46,105.9 33.38,105.9 "></polygon> <polygon class="fil3" points="36.88,96.98 41.92,96.98 41.92,98 37.97,98 37.97,100.88 41.53,100.88 41.53,101.9 37.97,101.9 37.97,104.89 42.04,104.89 42.04,105.9 36.88,105.9 "></polygon> <path class="fil3" d="M46.57 105.9l0 -8.92c0.5,0 2.14,-0.02 2.39,-0.02 2.44,0 3.18,1.21 3.18,2.65 0,1.39 -0.96,2.27 -1.94,2.52l2.97 3.77 -1.33 0 -2.74 -3.56 -1.45 0 0 3.56 -1.08 0zm1.08 -7.9l0 0 0 3.32 1.31 0c1.04,0 2.03,-0.64 2.03,-1.7 0,-0.92 -0.51,-1.64 -2.09,-1.64 -0.28,0 -0.83,0.01 -1.25,0.02z"></path> <polygon class="fil3" points="54.51,96.98 59.54,96.98 59.54,98 55.59,98 55.59,100.88 59.16,100.88 59.16,101.9 55.59,101.9 55.59,104.89 59.67,104.89 59.67,105.9 54.51,105.9 "></polygon> <path class="fil3" d="M61.58 105.9l0 -8.92c0.5,0 1.77,-0.02 2.33,-0.02 2.55,0 3.3,1.38 3.3,2.76 0,1.46 -1.03,2.81 -3.21,2.81 -0.35,0 -0.89,-0.02 -1.33,-0.05l0 3.42 -1.09 0zm1.09 -7.9l0 0 0 3.44c0.43,0.04 0.85,0.07 1.3,0.07 1.31,0 2.1,-0.68 2.1,-1.8 0,-1.06 -0.64,-1.73 -2.05,-1.73 -0.36,0 -0.93,0.01 -1.35,0.02z"></path> <path class="fil3" d="M75.96 102.18c0,2.73 -1.63,3.84 -3.46,3.84 -2.14,0 -3.69,-1.31 -3.69,-3.93l0 -5.11 1.08 0 0 4.91c0,1.94 0.94,3.11 2.61,3.11 1.47,0 2.37,-1.01 2.37,-3.03l0 -4.99 1.09 0 0 5.2z"></path> <path class="fil3" d="M78.25 97c0.5,-0.02 1.62,-0.05 2.45,-0.05 2.13,0 2.87,0.96 2.87,2.2 0,1.12 -0.68,1.79 -1.53,2.07l0 0.02c1.11,0.18 1.84,0.89 1.84,2.12 0,1.81 -1.38,2.58 -3.23,2.58 -0.79,0 -1.88,-0.02 -2.4,-0.05l0 -8.89zm1.09 1l0 0 0 2.88 1.42 0c0.95,0 1.72,-0.52 1.72,-1.49 0,-0.93 -0.62,-1.42 -1.81,-1.42 -0.47,0 -1.02,0.02 -1.33,0.03zm0 3.84l0 0 0 3.03c0.29,0.03 0.86,0.05 1.37,0.05 1.31,0 2.09,-0.53 2.09,-1.63 0,-0.94 -0.74,-1.45 -2.02,-1.45l-1.44 0z"></path> <polygon class="fil3" points="85.86,96.98 86.94,96.98 86.94,104.89 91.34,104.89 91.34,105.9 85.86,105.9 "></polygon> <polygon class="fil3" points="92.87,96.98 93.95,96.98 93.95,105.9 92.87,105.9 "></polygon> <path class="fil3" d="M103.27 105.04c-0.6,0.61 -1.71,0.99 -2.82,0.99 -2.67,0 -4.52,-1.81 -4.52,-4.59 0,-2.56 1.65,-4.58 4.45,-4.58 1.14,0 2.07,0.32 2.71,0.86l-0.5 0.82c-0.58,-0.43 -1.27,-0.66 -2.2,-0.66 -1.94,0 -3.31,1.45 -3.31,3.56 0,2.13 1.41,3.57 3.47,3.57 0.86,0 1.67,-0.29 2.29,-0.79l0.43 0.82z"></path> <path class="fil3" d="M111.2 96.86c2.58,0 4.55,1.87 4.55,4.58 0,2.66 -1.97,4.59 -4.55,4.59 -2.59,0 -4.55,-1.87 -4.55,-4.59 0,-2.58 1.89,-4.58 4.55,-4.58zm0 8.15l0 0c2.03,0 3.4,-1.55 3.4,-3.57 0,-2.07 -1.49,-3.56 -3.4,-3.56 -1.94,0 -3.41,1.49 -3.41,3.56 0,2.03 1.49,3.57 3.41,3.57z"></path> <polygon class="fil3" points="117.47,96.98 122.5,96.98 122.5,98 118.55,98 118.55,101.16 122.12,101.16 122.12,102.18 118.55,102.18 118.55,105.9 117.47,105.9 "></polygon> <path class="fil3" d="M133.73 102.18c0,2.73 -1.63,3.84 -3.46,3.84 -2.14,0 -3.69,-1.31 -3.69,-3.93l0 -5.11 1.08 0 0 4.91c0,1.94 0.95,3.11 2.61,3.11 1.47,0 2.37,-1.01 2.37,-3.03l0 -4.99 1.09 0 0 5.2z"></path> <polygon class="fil3" points="135.45,96.98 142.14,96.98 142.14,97.71 136.66,104.89 142.27,104.89 142.27,105.9 135.19,105.9 135.19,105.18 140.65,98 135.45,98 "></polygon> <path class="fil3" d="M143.86 97c0.5,-0.02 1.62,-0.05 2.45,-0.05 2.13,0 2.86,0.96 2.86,2.2 0,1.12 -0.67,1.79 -1.52,2.07l0 0.02c1.1,0.18 1.84,0.89 1.84,2.12 0,1.81 -1.39,2.58 -3.23,2.58 -0.79,0 -1.88,-0.02 -2.4,-0.05l0 -8.89zm1.08 1l0 0 0 2.88 1.43 0c0.94,0 1.72,-0.52 1.72,-1.49 0,-0.93 -0.62,-1.42 -1.81,-1.42 -0.47,0 -1.02,0.02 -1.34,0.03zm0 3.84l0 0 0 3.03c0.3,0.03 0.87,0.05 1.38,0.05 1.31,0 2.09,-0.53 2.09,-1.63 0,-0.94 -0.74,-1.45 -2.03,-1.45l-1.44 0z"></path> <polygon class="fil3" points="151.47,96.98 156.5,96.98 156.5,98 152.55,98 152.55,100.88 156.12,100.88 156.12,101.9 152.55,101.9 152.55,104.89 156.63,104.89 156.63,105.9 151.47,105.9 "></polygon> <path class="fil3" d="M158.54 96.98l1.09 0 0 8.92 -1.09 0 0 -8.92zm2.55 4.2l0 0 4.18 4.72 -1.39 0 -4.04 -4.65 3.91 -4.27 1.32 0 -3.98 4.2z"></path> <polygon class="fil3" points="166.86,96.98 167.95,96.98 167.95,105.9 166.86,105.9 "></polygon> <path class="fil3" d="M170.14 99.19c0,-1.29 0.99,-2.33 2.69,-2.33 1.03,0 1.95,0.37 2.46,0.93l-0.59 0.81c-0.47,-0.47 -1.03,-0.72 -1.81,-0.72 -0.99,0 -1.6,0.52 -1.6,1.31 0,2.2 4.35,1.38 4.35,4.42 0,1.47 -1.28,2.42 -2.9,2.42 -1.1,0 -2.37,-0.49 -2.82,-1.34l0.63 -0.74c0.52,0.69 1.45,1.06 2.2,1.06 0.93,0 1.75,-0.48 1.75,-1.39 0,-2.18 -4.36,-1.47 -4.36,-4.43z"></path> <polygon class="fil3" points="176.16,96.98 183.48,96.98 183.48,98 180.36,98 180.36,105.9 179.28,105.9 179.28,98 176.16,98 "></polygon> <path class="fil3" d="M186.5 96.93l0.93 0 3.84 8.97 -1.16 0 -1.15 -2.7 -4.06 0 -1.14 2.7 -1.09 0 3.83 -8.97zm-1.17 5.25l0 0 3.21 0 -1.6 -3.81 -1.61 3.81z"></path> <polygon class="fil3" points="199.13,105.9 193.56,98.9 193.56,105.9 192.55,105.9 192.55,96.98 193.41,96.98 198.98,104.02 198.98,96.98 200,96.98 200,105.9 "></polygon> <polygon class="fil2" points="58.46,51.97 18.92,23.11 19.2,22.73 58.7,51.55 "></polygon> <path class="fil0" d="M83.78 40.79c0.53,0.84 4.04,8.83 10.55,23.99l2.5 0c0.18,0 0.27,0.09 0.27,0.27l0 5.36c0,0.17 -0.09,0.26 -0.27,0.26l-9.75 0c-0.18,0 -0.27,-0.09 -0.27,-0.26l0 -5.36c0,-0.18 0.27,-0.27 0.75,-0.27 -0.18,-0.52 -0.26,-0.83 -0.26,-0.87l-12.53 0c-0.09,0.35 -0.13,0.65 -0.13,0.87 0.35,0 0.48,0.09 0.48,0.27l0 5.36c0,0.17 -0.08,0.26 -0.22,0.26l-9.66 0c-0.18,0 -0.27,-0.09 -0.27,-0.26l0 -5.36c0.05,-0.18 0.09,-0.27 0.27,-0.27l2.63 0c4.93,-11.33 7.52,-17.35 7.78,-18.06l-1.27 0c-0.18,0 -0.27,-0.08 -0.27,-0.26l0 -5.4c0.05,-0.18 0.14,-0.27 0.27,-0.27l9.4 0zm-6.5 17.23l0 0 7.51 0c-2.24,-5.19 -3.47,-8.04 -3.65,-8.57l-0.22 0c-0.17,0.57 -1.4,3.43 -3.64,8.57z"></path> <path class="fil0" d="M113.69 40.79c3.78,0 7.29,1.45 10.54,4.26 0.4,0.22 0.62,0.4 0.62,0.53l0 6.64c0,0.17 -0.09,0.26 -0.26,0.26l-5.37 0c-0.17,0 -0.26,-0.09 -0.26,-0.26l0 -3.25c-1.58,-1.5 -3.51,-2.25 -5.8,-2.25l-0.48 0c-3.74,0 -6.33,2.2 -7.78,6.64 -0.18,1.01 -0.26,1.8 -0.26,2.37 0,4.35 2.1,7.3 6.28,8.79 0.61,0.18 1.23,0.26 1.76,0.26l0.61 0c2.51,0 5.1,-1.27 7.69,-3.78 0.09,0.05 1.45,1.37 4,4.05l0 0.09c-3.21,3.69 -7.03,5.53 -11.56,5.53l-1.36 0c-4.61,0 -8.52,-2.24 -11.69,-6.76 -1.49,-2.51 -2.24,-5.01 -2.24,-7.56l0 -1.23c0,-4.44 1.98,-8.31 6.02,-11.56 2.68,-1.84 5.41,-2.77 8.13,-2.77l1.41 0z"></path> <path class="fil0" d="M142.78 40.71c6.15,0 9.84,2.67 11.03,8.04 0.09,0.48 0.13,1.09 0.13,1.75l0 0.09c0,4.18 -2.11,7.12 -6.28,8.92l0 0.13c2.28,3.12 3.47,4.79 3.51,5.01l4 0c0.18,0.05 0.27,0.13 0.27,0.27l0 5.53c0,0.18 -0.09,0.22 -0.27,0.22l-9.53 0c-0.13,0 -0.22,-0.04 -0.22,-0.22l0 -2.9c0,-0.44 -1.58,-2.77 -4.79,-6.9l-5.01 0 0 4 1.62 0c0.18,0.05 0.27,0.13 0.27,0.27l0 5.53c0,0.18 -0.09,0.22 -0.27,0.22l-9.4 0c-0.17,0 -0.26,-0.04 -0.26,-0.22l0 -5.53c0.04,-0.18 0.13,-0.27 0.26,-0.27l1.36 0 0 -18.06 -1.89 0c-0.13,0 -0.22,-0.09 -0.22,-0.26l0 -5.36c0,-0.18 0.09,-0.26 0.22,-0.26l15.47 0zm-7.16 14.06l0 0 7.16 0c2.11,0 3.6,-0.93 4.53,-2.77 0,-0.18 0,-0.66 0.09,-1.41 0,-2.28 -1.41,-3.6 -4.27,-3.87l-7.51 0 0 8.05z"></path> <path class="fil0" d="M167.22 41.14c0.17,0 0.26,0.09 0.26,0.27l0 5.49c0,0.18 -0.09,0.26 -0.26,0.26l-1.37 0 0 10.29c0,5.09 2.16,7.64 6.51,7.64 4.22,0 6.28,-2.55 6.28,-7.64l0 -10.29 -1.89 0c-0.13,0 -0.22,-0.08 -0.22,-0.26l0 -5.49c0,-0.18 0.09,-0.27 0.22,-0.27l9.54 0c0.17,0 0.26,0.09 0.26,0.27l0 5.49c0,0.18 -0.09,0.26 -0.26,0.26l-1.36 0 0 11.3c0,5.97 -2.64,9.97 -7.91,11.9 -0.84,0.36 -2.42,0.62 -4.75,0.75 -6.55,0 -10.63,-2.99 -12.3,-9.01 -0.36,-1.23 -0.53,-3.38 -0.53,-6.41l0 -8.53 -1.63 0c-0.17,0 -0.26,-0.08 -0.26,-0.26l0 -5.49c0.04,-0.18 0.13,-0.27 0.26,-0.27l9.41 0z"></path> </g> </g> </svg> 