<svg width="15" height="15" viewBox="0 0 15 15" fill="none" xmlns="http://www.w3.org/2000/svg">
<g id="&#208;&#161;&#208;&#187;&#208;&#190;&#208;&#185;_x0020_1">
<g id="_2918120979504">
<path id="Vector" fill-rule="evenodd" clip-rule="evenodd" d="M4.95115 6.28404L5.27341 5.99109C5.24662 5.95686 5.10586 5.84028 5.05585 5.80128C4.51609 5.38038 4.16362 4.59393 4.06303 3.92301C3.88339 2.7246 4.49029 1.69341 5.28994 1.08849L5.80885 0.787108C6.89116 0.327208 8.05471 0.438088 8.96917 1.18482L9.19282 1.37133C9.28348 1.45617 9.30157 1.53108 9.40489 1.59933L9.69787 1.27707C9.48373 0.963808 8.99776 0.624628 8.68147 0.447148C8.58118 0.390838 8.46793 0.348238 8.35819 0.301678C8.25004 0.255778 8.12719 0.217528 8.00878 0.182308C7.25905 -0.0405623 6.33034 0.0282277 5.64412 0.358708C4.32199 0.995428 3.46141 2.21568 3.60265 3.88533C3.66799 4.65798 3.99376 5.31729 4.45996 5.84052C4.54684 5.93805 4.81483 6.25404 4.95115 6.28404Z" fill="#FEFEFE"/>
<path id="Vector_2" fill-rule="evenodd" clip-rule="evenodd" d="M8.34607 10.8571C8.40643 10.9053 8.47444 10.9529 8.55472 10.9743C8.5036 11.0507 8.32726 11.1749 8.24152 11.247C7.7905 11.6266 7.88323 11.5102 7.8808 12.117C7.87936 12.4811 7.85974 12.4083 7.9981 12.615H8.73052C8.73052 13.1972 8.83666 12.9726 8.25466 13.4868C7.80244 13.8863 7.88089 13.7819 7.88089 14.4899H7.29496C7.29496 13.3024 7.42609 13.4938 6.24028 13.4938V11.9701L5.80081 12.3802C5.80081 12.8087 5.79286 13.2442 5.79889 13.6716C5.80234 13.916 5.91619 13.9592 6.151 13.964C6.37285 13.9685 6.60325 13.9626 6.82621 13.9626C6.82621 15.1194 6.69133 14.9178 7.96957 14.9302C8.44969 14.9348 8.34964 14.765 8.34964 13.9919C8.46055 13.9623 8.49937 13.8825 8.57611 13.8082C8.92486 13.4706 9.17122 13.42 9.17161 13.0854C9.17281 12.0929 9.32671 12.1755 8.34964 12.1755V11.736C8.49142 11.6411 9.15313 11.1491 9.1702 10.9704C9.19042 10.7587 8.8075 10.5769 8.64262 10.5327C8.59681 10.562 8.37697 10.8073 8.34607 10.8571Z" fill="#FEFEFE"/>
<path id="Vector_3" fill-rule="evenodd" clip-rule="evenodd" d="M14.1504 12.029C13.6271 12.029 13.6923 11.2673 14.0918 11.2673C14.3399 11.2673 14.5818 11.3586 14.5537 11.672C14.5363 11.8659 14.3814 12.029 14.1504 12.029ZM9.43359 10.945C9.43359 11.2399 9.60567 11.2108 9.84351 11.2089L10.7242 11.2072C11.0052 11.2045 10.9345 11.2301 11.272 11.5676C11.626 11.9216 11.4907 11.8825 12.1582 11.8825C12.5586 11.8825 12.959 11.8825 13.3594 11.8825C13.5784 12.8224 15 12.5888 15 11.6774C15 10.8465 14.1225 10.5829 13.6307 10.982C13.526 11.067 13.373 11.2506 13.3594 11.4137C12.8843 11.4137 12.3274 11.441 11.863 11.416C11.5477 11.399 11.3345 10.7692 11.0156 10.7692H9.60939C9.53883 10.7692 9.43359 10.8745 9.43359 10.945Z" fill="#FEFEFE"/>
<path id="Vector_4" fill-rule="evenodd" clip-rule="evenodd" d="M14.1797 8.16185C13.6647 8.16185 13.6135 7.37084 14.1797 7.37084C14.4318 7.37084 14.7162 7.73246 14.4525 8.02457C14.3999 8.08295 14.2712 8.16185 14.1797 8.16185ZM13.3301 7.54661C12.9394 7.54661 12.5488 7.54661 12.1582 7.54661C11.4243 7.54661 11.6288 7.47542 11.2573 7.84691C10.8153 8.2889 11.0703 8.20211 9.81364 8.19038C9.26542 8.18525 9.42352 8.54159 9.54109 8.61095C9.69241 8.70023 10.6598 8.65991 10.9277 8.65991C11.1735 8.65991 11.2598 8.48888 11.3891 8.35961C11.48 8.26877 11.6992 8.00777 11.8087 7.98812C12.077 7.93997 13.0211 7.98608 13.3594 7.98608C13.3897 8.35028 13.7741 8.60129 14.2382 8.60129C14.6075 8.60129 15 8.2088 15 7.83959C15 7.55345 14.975 7.3928 14.7592 7.17221C14.3713 6.77579 13.7539 6.87275 13.4711 7.27751C13.4112 7.36325 13.3773 7.45724 13.3301 7.54661Z" fill="#FEFEFE"/>
<path id="Vector_5" fill-rule="evenodd" clip-rule="evenodd" d="M11.4258 9.74387C11.4258 9.14129 12.1875 9.22196 12.1875 9.656C12.1875 10.306 11.4258 10.1484 11.4258 9.74387ZM9.5259 9.48023C9.46188 9.58451 9.42147 9.64448 9.32358 9.72221C9.23031 9.79628 9.18489 9.82415 9.11511 9.91967H10.9863C11.0584 10.0699 11.1011 10.2377 11.2958 10.3719C11.4796 10.4986 11.6547 10.5625 11.8759 10.5426C12.5781 10.4794 12.8939 9.7019 12.4567 9.15242C12.1631 8.78336 11.4954 8.71907 11.1272 9.21092C11.0511 9.31253 11.0424 9.3743 10.9863 9.48023H9.5259Z" fill="#FEFEFE"/>
<path id="Vector_6" fill-rule="evenodd" clip-rule="evenodd" d="M0.79101 11.2673C1.44096 11.2673 1.2834 12.029 0.87891 12.029C0.279 12.029 0.35805 11.2673 0.79101 11.2673ZM0 11.7366V11.5707C0.03399 11.215 0.28488 10.8772 0.70995 10.805C1.15152 10.73 1.61322 11.0845 1.64061 11.4138H3.03819C2.90991 11.5685 2.69544 11.7103 2.59872 11.8826H1.64061C1.5573 12.2403 1.16268 12.5657 0.7242 12.4781C0.26169 12.3857 0.03225 12.0702 0 11.7366Z" fill="#FEFEFE"/>
<path id="Vector_7" fill-rule="evenodd" clip-rule="evenodd" d="M10.0489 4.11197C9.94025 4.36889 9.94202 4.70366 9.59255 5.21525C9.45305 5.41946 9.24308 5.66249 9.05996 5.82524C8.44772 6.36929 7.91966 6.32969 7.88261 6.61079C7.85765 6.79988 7.88105 7.18961 7.8809 7.40012C7.88069 7.75202 7.84664 7.85027 8.0567 8.02202C8.11739 7.98662 8.35277 7.77872 8.38565 7.72238C8.29499 7.57403 8.34965 7.01042 8.34965 6.78488L8.7794 6.57008C9.18977 6.35117 9.56762 6.00359 9.84434 5.64284C10.1804 5.20463 10.5469 4.44095 10.5469 3.67163C10.3359 3.77354 10.2235 3.97403 10.0489 4.11197Z" fill="#FEFEFE"/>
<path id="Vector_8" fill-rule="evenodd" clip-rule="evenodd" d="M0.43947 7.78099C0.43947 7.26601 1.23048 7.21486 1.23048 7.78099C1.23048 8.03311 0.86886 8.31751 0.57675 8.05384C0.51834 8.00116 0.43947 7.87249 0.43947 7.78099ZM0 7.90519V7.64707C0.09846 7.05517 0.85155 6.61141 1.43316 7.16815C1.57026 7.2994 1.58799 7.39177 1.66992 7.5466H2.90622C2.84283 7.65265 2.80236 7.71199 2.7039 7.79023C2.61381 7.86181 2.55297 7.91899 2.46678 7.98607H1.64061C1.59759 8.50315 0.67902 8.91307 0.18366 8.30044C0.08076 8.17315 0.02238 8.03851 0 7.90519Z" fill="#FEFEFE"/>
<path id="Vector_9" fill-rule="evenodd" clip-rule="evenodd" d="M3.16408 10.0954C2.8147 10.0954 2.70337 9.6286 2.9209 9.41278C3.12691 9.20842 3.57424 9.29101 3.57424 9.74383C3.57424 9.9526 3.3838 10.0954 3.16408 10.0954ZM4.80409 9.91963L5.21425 9.48019H4.01368C3.94174 9.34417 3.94039 9.27265 3.80632 9.1309C3.62281 8.93689 3.41227 8.8375 3.07672 8.86507C2.17321 8.93932 2.03395 10.4143 3.10081 10.5399C3.40942 10.5762 3.69172 10.4433 3.87646 10.1925C3.96493 10.0724 3.95452 10.0429 4.01368 9.91963H4.80409Z" fill="#FEFEFE"/>
<path id="Vector_10" fill-rule="evenodd" clip-rule="evenodd" d="M8.05663 8.02205L8.59153 8.53514C8.75155 8.69003 8.73412 8.62988 8.73094 8.92307C8.72893 9.10853 8.73046 9.29468 8.73046 9.48023C7.96054 9.48023 7.8781 9.36737 7.88074 9.97817C7.88161 10.1766 7.84057 10.4746 7.93213 10.6008C7.98685 10.6763 8.24914 10.8332 8.34601 10.8572C8.37691 10.8073 8.59675 10.5621 8.64256 10.5328C8.59999 10.4775 8.42746 10.3799 8.34958 10.3591V9.91967H9.11509C9.18487 9.82415 9.23029 9.79628 9.32356 9.72221C9.42145 9.64448 9.46186 9.58451 9.52588 9.48023H9.1699C9.1699 9.27515 9.1696 9.07004 9.16993 8.86496C9.17047 8.4977 9.21343 8.43497 8.72182 8.024L8.38558 7.72241C8.3527 7.77875 8.11732 7.98665 8.05663 8.02205Z" fill="#FEFEFE"/>
<path id="Vector_11" fill-rule="evenodd" clip-rule="evenodd" d="M5.80077 8.74812V9.48021H5.21424L4.80408 9.91965C5.07687 9.91965 5.39136 9.90435 5.65803 9.91593C5.87952 9.92553 5.80077 10.0792 5.80077 10.6521C5.80077 11.2281 5.80077 11.8042 5.80077 12.3802L6.24024 11.9701V8.36658C6.09954 8.46015 5.93652 8.65788 5.80077 8.74812Z" fill="#FEFEFE"/>
<path id="Vector_12" fill-rule="evenodd" clip-rule="evenodd" d="M6.62112 2.18524C6.62112 1.5946 7.50003 1.63273 7.50003 2.12665C7.50003 2.83165 6.62112 2.74396 6.62112 2.18524ZM7.06056 3.09346C7.55616 3.09346 7.96878 2.68243 7.96878 2.18524C7.96878 1.06051 6.36672 1.03393 6.18873 1.98799C6.07236 2.61163 6.53991 3.09346 7.06056 3.09346Z" fill="#FEFEFE"/>
<path id="Vector_13" fill-rule="evenodd" clip-rule="evenodd" d="M6.67969 9.65598V12.9079C6.67969 13.3511 7.14844 13.2727 7.14844 12.9665V9.68526C7.14844 9.25941 6.67969 9.32604 6.67969 9.65598Z" fill="#FEFEFE"/>
<path id="Vector_14" fill-rule="evenodd" clip-rule="evenodd" d="M2.4668 7.98604C3.41327 7.98604 3.11357 7.85407 3.78554 8.53645C3.96581 8.71954 4.20689 8.65986 4.59962 8.65986C4.85594 8.65986 5.34881 8.71096 5.49365 8.58691C5.58854 8.50567 5.5886 8.34205 5.50214 8.25559C5.41226 8.16568 5.26637 8.19028 5.09777 8.191C4.83749 8.19217 4.39901 8.21745 4.15925 8.19201C3.93428 8.16816 3.60071 7.58529 3.39641 7.54863C3.30431 7.5321 3.01826 7.54657 2.90624 7.54657C2.84285 7.65262 2.80238 7.71196 2.70392 7.7902C2.61383 7.86178 2.55299 7.91896 2.4668 7.98604Z" fill="#FEFEFE"/>
<path id="Vector_15" fill-rule="evenodd" clip-rule="evenodd" d="M3.03822 11.4138C2.90994 11.5684 2.69547 11.7103 2.59875 11.8825C3.52791 11.8825 3.27999 12.0194 3.90384 11.3918C4.15176 11.1423 4.05664 11.2087 4.62895 11.2087C4.79437 11.2087 5.39514 11.2449 5.4894 11.1609C5.57196 11.0874 5.60386 10.9487 5.51992 10.8459C5.42959 10.7353 5.3097 10.7682 5.12709 10.7691C4.82466 10.7707 4.52113 10.7705 4.2187 10.7691C3.76561 10.7672 3.83809 10.813 3.59623 11.0549C3.24571 11.4054 3.32268 11.4138 3.03822 11.4138Z" fill="#FEFEFE"/>
<path id="Vector_16" fill-rule="evenodd" clip-rule="evenodd" d="M4.95117 6.28404C5.01516 6.37695 5.22831 6.49881 5.34429 6.56757C5.50422 6.66237 5.63994 6.7077 5.80077 6.78489V8.74812C5.93652 8.65788 6.09954 8.46015 6.24024 8.36658C6.24024 7.80939 6.24216 7.25196 6.24231 6.69489C6.24243 6.36084 6.07947 6.4443 5.54661 6.16014C5.44173 6.10419 5.3742 6.05007 5.27343 5.99109L4.95117 6.28404Z" fill="#FEFEFE"/>
<path id="Vector_17" fill-rule="evenodd" clip-rule="evenodd" d="M9.40491 1.5993C9.68268 2.0229 9.96864 2.43222 10.0479 3.00651C10.0675 3.14925 10.0673 3.22386 10.0804 3.38487C10.0965 3.58143 10.0895 3.54279 10.0789 3.73833C10.0707 3.88851 10.0488 3.99324 10.0488 4.11195C10.2234 3.97401 10.3359 3.77352 10.5469 3.67161C10.5469 3.08385 10.4896 2.724 10.3213 2.29362C10.2384 2.08149 10.155 1.91886 10.0506 1.74405C9.98277 1.63056 9.79182 1.34082 9.69789 1.27704L9.40491 1.5993Z" fill="#FEFEFE"/>
<path id="Vector_18" fill-rule="evenodd" clip-rule="evenodd" d="M6.67973 6.87277C6.67973 7.20022 6.63404 8.68492 6.72866 8.84533C6.82745 9.01273 7.14848 9.02164 7.14848 8.6599V6.81418C7.14848 6.51019 6.67973 6.45778 6.67973 6.87277Z" fill="#FEFEFE"/>
</g>
</g>
</svg>
