<svg xmlns="http://www.w3.org/2000/svg" viewBox="0 0 89.88 109.69"><defs><style>.cls-1{fill:#0f265c;fill-rule:evenodd;}</style></defs><g id="Слой_2" data-name="Слой 2"><g id="_ї_Њ_є_1" data-name="–°–ї–Њ–є 1"><polygon class="cls-1" points="0 81.01 19.32 93.34 19.32 79.91 10.52 74.3 10.52 45.88 16.38 42.13 16.38 28.71 0 39.16 0 81.01"/><polygon class="cls-1" points="33.53 88.67 33.53 9.98 22.26 16.38 22.26 95.22 33.53 102.1 36.6 104.37 36.6 90.94 33.53 88.67"/><polygon class="cls-1" points="67.62 95.22 89.88 81.01 89.88 39.16 73.5 28.71 73.5 42.13 79.36 45.88 79.36 74.3 67.62 81.79 67.62 16.38 56.83 9.98 56.83 102.1 67.62 95.22 67.62 95.22"/><polygon class="cls-1" points="39.55 6.22 39.55 106.25 44.94 109.69 47.39 108.13 53.88 103.98 53.88 90.55 50.33 92.82 50.33 0 39.55 6.22"/></g></g></svg>