<svg width="101" height="100" viewBox="0 0 101 100" fill="none" xmlns="http://www.w3.org/2000/svg">
<g id="&#208;&#161;&#208;&#187;&#208;&#190;&#208;&#185;_x0020_1">
<path id="Vector" d="M44.9961 94.9946C69.8459 97.759 92.2317 79.8552 94.9961 55.0054C97.7605 30.1555 79.8567 7.76977 55.0068 5.00538C30.157 2.24098 7.77122 20.1448 5.00683 44.9946C2.24244 69.8445 20.1462 92.2302 44.9961 94.9946Z" stroke="#FEFEFE" stroke-width="0.226431" stroke-miterlimit="22.9256" stroke-linecap="round"/>
<path id="Vector_2" d="M50.0014 81.1438C67.2017 81.1438 81.1453 67.2002 81.1453 49.9998C81.1453 32.7995 67.2017 18.8559 50.0014 18.8559C32.801 18.8559 18.8574 32.7995 18.8574 49.9998C18.8574 67.2002 32.801 81.1438 50.0014 81.1438Z" stroke="#FEFEFE" stroke-width="0.399874" stroke-miterlimit="22.9256" stroke-linecap="round"/>
<path id="Vector_3" d="M34.7055 48.7672C35.0271 50.3185 35.4563 51.8113 36.0126 53.2584M38.7128 55.1581C39.2006 56.0613 39.4959 56.556 40.1455 57.4081C41.0328 58.5729 38.7848 58.7957 39.8453 60.0532C40.881 61.281 41.9455 62.5827 43.2298 63.8283C44.4084 64.9712 48.7363 68.585 50.0202 68.6505M50.0202 31.2759C47.9115 32.7608 45.7746 33.858 43.399 34.7106M39.28 35.9066C37.6498 36.2867 35.8901 36.6063 33.9551 36.8956C33.8862 38.7546 33.8777 40.5263 33.9462 42.2235C33.9854 43.2036 35.7839 42.9828 35.8792 43.9157C35.9084 44.2046 35.9288 44.8115 35.9332 45.7092" stroke="#FEFEFE" stroke-width="0.466772" stroke-miterlimit="22.9256"/>
<path id="Vector_4" d="M65.3348 48.7672C65.0132 50.3185 64.5835 51.8113 64.0277 53.2584M61.3275 55.1581C60.8397 56.0613 60.5444 56.556 59.8948 57.4081C59.0075 58.5729 61.2555 58.7957 60.195 60.0532C59.1593 61.281 58.0948 62.5827 56.8105 63.8283C55.6314 64.9712 51.304 68.585 50.0201 68.6505M50.0201 31.2759C52.1288 32.7608 54.2657 33.858 56.6413 34.7106M60.7598 35.9066C62.3905 36.2867 64.1502 36.6063 66.0852 36.8956C66.1536 38.7546 66.1626 40.5263 66.0941 42.2235C66.0544 43.2036 64.2564 42.9828 64.1611 43.9157C64.1319 44.2046 64.1115 44.8115 64.1071 45.7092" stroke="#FEFEFE" stroke-width="0.466772" stroke-miterlimit="22.9256"/>
<g id="_2300404855952">
<path id="Vector_5" d="M50.0204 69.2837C50.3702 69.2837 50.6537 69.0002 50.6537 68.6505C50.6537 68.3008 50.3702 68.0173 50.0204 68.0173C49.6707 68.0173 49.3872 68.3008 49.3872 68.6505C49.3872 69.0002 49.6707 69.2837 50.0204 69.2837Z" fill="#FEFEFE" stroke="white" stroke-width="0.333354" stroke-miterlimit="22.9256"/>
<path id="Vector_6" d="M39.2807 36.5399C39.6304 36.5399 39.9139 36.2564 39.9139 35.9067C39.9139 35.5569 39.6304 35.2734 39.2807 35.2734C38.931 35.2734 38.6475 35.5569 38.6475 35.9067C38.6475 36.2564 38.931 36.5399 39.2807 36.5399Z" fill="#FEFEFE" stroke="white" stroke-width="0.333354" stroke-miterlimit="22.9256"/>
<path id="Vector_7" d="M35.9329 46.3421C36.2826 46.3421 36.5661 46.0586 36.5661 45.7089C36.5661 45.3592 36.2826 45.0757 35.9329 45.0757C35.5832 45.0757 35.2997 45.3592 35.2997 45.7089C35.2997 46.0586 35.5832 46.3421 35.9329 46.3421Z" fill="#FEFEFE" stroke="white" stroke-width="0.333354" stroke-miterlimit="22.9256"/>
<path id="Vector_8" d="M34.7031 49.3881C35.0528 49.3881 35.3363 49.1046 35.3363 48.7549C35.3363 48.4052 35.0528 48.1216 34.7031 48.1216C34.3533 48.1216 34.0698 48.4052 34.0698 48.7549C34.0698 49.1046 34.3533 49.3881 34.7031 49.3881Z" fill="#FEFEFE" stroke="white" stroke-width="0.333354" stroke-miterlimit="22.9256"/>
<path id="Vector_9" d="M38.9761 56.2723C39.3259 56.2723 39.6094 55.9888 39.6094 55.639C39.6094 55.2893 39.3259 55.0058 38.9761 55.0058C38.6264 55.0058 38.3429 55.2893 38.3429 55.639C38.3429 55.9888 38.6264 56.2723 38.9761 56.2723Z" fill="#FEFEFE" stroke="white" stroke-width="0.333354" stroke-miterlimit="22.9256"/>
<path id="Vector_10" d="M35.9817 53.8107C36.3315 53.8107 36.615 53.5272 36.615 53.1775C36.615 52.8278 36.3315 52.5443 35.9817 52.5443C35.632 52.5443 35.3485 52.8278 35.3485 53.1775C35.3485 53.5272 35.632 53.8107 35.9817 53.8107Z" fill="#FEFEFE" stroke="white" stroke-width="0.333354" stroke-miterlimit="22.9256"/>
<path id="Vector_11" d="M44.0909 65.2441C44.4406 65.2441 44.7241 64.9606 44.7241 64.6109C44.7241 64.2612 44.4406 63.9777 44.0909 63.9777C43.7411 63.9777 43.4576 64.2612 43.4576 64.6109C43.4576 64.9606 43.7411 65.2441 44.0909 65.2441Z" fill="#FEFEFE" stroke="white" stroke-width="0.333354" stroke-miterlimit="22.9256"/>
<path id="Vector_12" d="M43.3987 35.3439C43.7485 35.3439 44.032 35.0604 44.032 34.7107C44.032 34.361 43.7485 34.0775 43.3987 34.0775C43.049 34.0775 42.7655 34.361 42.7655 34.7107C42.7655 35.0604 43.049 35.3439 43.3987 35.3439Z" fill="#FEFEFE" stroke="white" stroke-width="0.333354" stroke-miterlimit="22.9256"/>
<path id="Vector_13" d="M50.0204 31.9092C50.3702 31.9092 50.6537 31.6257 50.6537 31.2759C50.6537 30.9262 50.3702 30.6427 50.0204 30.6427C49.6707 30.6427 49.3872 30.9262 49.3872 31.2759C49.3872 31.6257 49.6707 31.9092 50.0204 31.9092Z" fill="#FEFEFE" stroke="white" stroke-width="0.333354" stroke-miterlimit="22.9256"/>
<path id="Vector_14" d="M60.7596 36.5399C61.1093 36.5399 61.3928 36.2564 61.3928 35.9067C61.3928 35.5569 61.1093 35.2734 60.7596 35.2734C60.4099 35.2734 60.1263 35.5569 60.1263 35.9067C60.1263 36.2564 60.4099 36.5399 60.7596 36.5399Z" fill="#FEFEFE" stroke="white" stroke-width="0.333354" stroke-miterlimit="22.9256"/>
<path id="Vector_15" d="M64.1074 46.3421C64.4571 46.3421 64.7406 46.0586 64.7406 45.7089C64.7406 45.3592 64.4571 45.0757 64.1074 45.0757C63.7576 45.0757 63.4741 45.3592 63.4741 45.7089C63.4741 46.0586 63.7576 46.3421 64.1074 46.3421Z" fill="#FEFEFE" stroke="white" stroke-width="0.333354" stroke-miterlimit="22.9256"/>
<path id="Vector_16" d="M65.3372 49.3881C65.6869 49.3881 65.9704 49.1046 65.9704 48.7549C65.9704 48.4052 65.6869 48.1216 65.3372 48.1216C64.9875 48.1216 64.704 48.4052 64.704 48.7549C64.704 49.1046 64.9875 49.3881 65.3372 49.3881Z" fill="#FEFEFE" stroke="white" stroke-width="0.333354" stroke-miterlimit="22.9256"/>
<path id="Vector_17" d="M61.0641 56.2723C61.4139 56.2723 61.6974 55.9888 61.6974 55.639C61.6974 55.2893 61.4139 55.0058 61.0641 55.0058C60.7144 55.0058 60.4309 55.2893 60.4309 55.639C60.4309 55.9888 60.7144 56.2723 61.0641 56.2723Z" fill="#FEFEFE" stroke="white" stroke-width="0.333354" stroke-miterlimit="22.9256"/>
<path id="Vector_18" d="M64.0585 53.8104C64.4082 53.8104 64.6918 53.5269 64.6918 53.1772C64.6918 52.8275 64.4082 52.5439 64.0585 52.5439C63.7088 52.5439 63.4253 52.8275 63.4253 53.1772C63.4253 53.5269 63.7088 53.8104 64.0585 53.8104Z" fill="#FEFEFE" stroke="white" stroke-width="0.333354" stroke-miterlimit="22.9256"/>
<path id="Vector_19" d="M55.9494 65.2441C56.2991 65.2441 56.5826 64.9606 56.5826 64.6109C56.5826 64.2612 56.2991 63.9777 55.9494 63.9777C55.5997 63.9777 55.3162 64.2612 55.3162 64.6109C55.3162 64.9606 55.5997 65.2441 55.9494 65.2441Z" fill="#FEFEFE" stroke="white" stroke-width="0.333354" stroke-miterlimit="22.9256"/>
<path id="Vector_20" d="M56.6415 35.3439C56.9913 35.3439 57.2748 35.0604 57.2748 34.7107C57.2748 34.361 56.9913 34.0775 56.6415 34.0775C56.2918 34.0775 56.0083 34.361 56.0083 34.7107C56.0083 35.0604 56.2918 35.3439 56.6415 35.3439Z" fill="#FEFEFE" stroke="white" stroke-width="0.333354" stroke-miterlimit="22.9256"/>
</g>
<path id="Vector_21" d="M49.7748 27.9267C51.4492 27.9267 52.8065 26.5694 52.8065 24.8951C52.8065 23.2207 51.4492 21.8634 49.7748 21.8634C48.1005 21.8634 46.7432 23.2207 46.7432 24.8951C46.7432 26.5694 48.1005 27.9267 49.7748 27.9267Z" fill="#FEFEFE"/>
<path id="Vector_22" d="M28.2801 39.3937C29.9544 39.3937 31.3117 38.0364 31.3117 36.362C31.3117 34.6877 29.9544 33.3304 28.2801 33.3304C26.6057 33.3304 25.2484 34.6877 25.2484 36.362C25.2484 38.0364 26.6057 39.3937 28.2801 39.3937Z" fill="#FEFEFE"/>
<path id="Vector_23" d="M26.8934 65.1185C28.5677 65.1185 29.925 63.7612 29.925 62.0868C29.925 60.4125 28.5677 59.0552 26.8934 59.0552C25.219 59.0552 23.8617 60.4125 23.8617 62.0868C23.8617 63.7612 25.219 65.1185 26.8934 65.1185Z" fill="#FEFEFE"/>
<g id="_2300404852784">
<path id="Vector_24" d="M42.8558 26.4112L47.8378 24.3488" stroke="white" stroke-width="1.00006" stroke-miterlimit="22.9256" stroke-linecap="round"/>
<path id="Vector_25" d="M25.3979 43.3802L26.2917 38.0627" stroke="white" stroke-width="1.00006" stroke-miterlimit="22.9256" stroke-linecap="round"/>
<path id="Vector_26" d="M33.7092 30.6015L29.3182 33.7304" stroke="white" stroke-width="1.00006" stroke-miterlimit="22.9256" stroke-linecap="round"/>
<path id="Vector_27" d="M24.9615 54.8047L25.4335 60.1762" stroke="white" stroke-width="1.00006" stroke-miterlimit="22.9256" stroke-linecap="round"/>
<path id="Vector_28" d="M32.2699 68.3751L28.139 64.9097" stroke="white" stroke-width="1.00006" stroke-miterlimit="22.9256" stroke-linecap="round"/>
<path id="Vector_29" d="M41.8945 73.5516L46.876 75.6141" stroke="white" stroke-width="1.00006" stroke-miterlimit="22.9256" stroke-linecap="round"/>
<path id="Vector_30" d="M56.6946 26.4112L51.7126 24.3488" stroke="white" stroke-width="1.00006" stroke-miterlimit="22.9256" stroke-linecap="round"/>
<path id="Vector_31" d="M74.2092 43.9836L73.3154 38.6667" stroke="white" stroke-width="1.00006" stroke-miterlimit="22.9256" stroke-linecap="round"/>
<path id="Vector_32" d="M65.8759 30.3714L70.2668 33.5008" stroke="white" stroke-width="1.00006" stroke-miterlimit="22.9256" stroke-linecap="round"/>
<path id="Vector_33" d="M74.5888 54.8047L74.1168 60.1762" stroke="white" stroke-width="1.00006" stroke-miterlimit="22.9256" stroke-linecap="round"/>
<path id="Vector_34" d="M67.2803 68.3751L71.4107 64.9097" stroke="white" stroke-width="1.00006" stroke-miterlimit="22.9256" stroke-linecap="round"/>
<path id="Vector_35" d="M57.5192 73.7833L52.5372 75.8457" stroke="white" stroke-width="1.00006" stroke-miterlimit="22.9256" stroke-linecap="round"/>
</g>
<path id="Vector_36" d="M49.7748 78.4303C51.4492 78.4303 52.8065 77.073 52.8065 75.3986C52.8065 73.7243 51.4492 72.3669 49.7748 72.3669C48.1005 72.3669 46.7432 73.7243 46.7432 75.3986C46.7432 77.073 48.1005 78.4303 49.7748 78.4303Z" fill="#FEFEFE"/>
<path id="Vector_37" d="M71.2702 39.3937C72.9445 39.3937 74.3019 38.0364 74.3019 36.362C74.3019 34.6877 72.9445 33.3304 71.2702 33.3304C69.5958 33.3304 68.2385 34.6877 68.2385 36.362C68.2385 38.0364 69.5958 39.3937 71.2702 39.3937Z" fill="#FEFEFE"/>
<path id="Vector_38" d="M72.6563 65.1185C74.3306 65.1185 75.688 63.7612 75.688 62.0868C75.688 60.4125 74.3306 59.0552 72.6563 59.0552C70.982 59.0552 69.6246 60.4125 69.6246 62.0868C69.6246 63.7612 70.982 65.1185 72.6563 65.1185Z" fill="#FEFEFE"/>
<path id="Vector_39" d="M32.3204 23.2902L30.9492 21.1473L32.7348 20.0044L32.2777 19.2903L30.4922 20.4332L29.578 19.0045L31.7209 17.6333L31.2638 16.9192L28.4064 18.7474L31.6063 23.7472L32.3204 23.2902ZM38.8279 19.8987L39.6651 19.5201L34.5853 15.1475L34.5139 21.85L35.3511 21.4714L35.3501 20.0759L37.7808 18.9767L38.8279 19.8987ZM35.3545 19.1429L35.357 16.8542L37.0771 18.3638L35.3545 19.1429ZM41.207 19.2L39.5906 13.4885L38.7748 13.7193L40.3906 19.4313L41.207 19.2ZM46.5979 18.0685L44.7165 16.2443C45.5438 15.8532 45.9061 15.0249 45.7433 14.1207C45.5448 13.0166 44.7026 12.3784 43.1811 12.6523L41.3732 12.9779L42.4248 18.8199L43.2595 18.67L42.8962 16.6532L43.8094 16.4884L45.6242 18.2442L46.5979 18.0685ZM42.3578 13.6622L43.6183 13.4354C44.2272 13.3257 44.7806 13.5585 44.918 14.3232C45.0545 15.0795 44.5979 15.485 43.9895 15.5946L42.7459 15.8185L42.3578 13.6622ZM50.5913 11.9754L50.5268 12.821L52.0771 12.9391L51.691 18.0124L52.5366 18.077L52.9227 13.0032L54.4731 13.1213L54.5371 12.2756L50.5913 11.9754ZM59.5265 14.1059L59.7171 13.2796L56.412 12.5163L55.077 18.3003L58.3821 19.0635L58.5727 18.2367L56.0939 17.6646L56.4755 16.0125L58.5409 16.4889L58.732 15.6626L56.666 15.1862L57.0477 13.5337L59.5265 14.1059ZM62.2778 19.5742C61.1523 19.1285 60.6014 17.8561 61.047 16.7306C61.4922 15.6056 62.7646 15.0547 63.8901 15.4999C64.5144 15.747 64.8683 16.1247 65.0936 16.6601L65.7228 16.0542C65.4315 15.4453 64.8509 14.9684 64.2514 14.7311C62.6663 14.1039 60.8758 14.8582 60.2585 16.4184C59.6406 17.9792 60.4297 19.7543 62.0148 20.3821C62.6142 20.6193 63.3676 20.661 63.9963 20.4158L63.9522 19.5434C63.4182 19.7881 62.9016 19.8208 62.2778 19.5742ZM70.7227 18.1171L69.4557 20.3235L67.0047 18.9161L68.2711 16.7097L67.5357 16.2874L64.5804 21.4357L65.3159 21.8575L66.5824 19.6516L69.0339 21.0585L67.7669 23.2649L68.5024 23.6872L71.4581 18.5395L70.7227 18.1171Z" fill="#FEFEFE"/>
<path id="Vector_40" d="M50.25 89.374C71.9957 89.2367 89.5128 71.4969 89.3754 49.7512C89.238 28.0055 71.4982 10.4885 49.7525 10.6259C28.0068 10.7633 10.4898 28.503 10.6272 50.2487C10.7646 71.9944 28.5043 89.5114 50.25 89.374Z" stroke="#FEFEFE" stroke-width="0.151502" stroke-miterlimit="22.9256" stroke-linecap="round"/>
<path id="Vector_41" d="M20.8592 65.3286L18.1923 65.0706L19.7262 62.8736L19.3868 62.1371L17.4141 65.0328L15.5591 65.8884L15.8613 66.5435L17.7163 65.6874L21.1991 66.0651L20.8592 65.3286ZM18.4012 71.1101L18.7937 71.7855L22.0532 67.1107L16.3779 67.6298L16.7705 68.3052L17.9506 68.1836L19.0905 70.1448L18.4012 71.1101ZM18.7401 68.1072L20.6765 67.9112L19.548 69.4967L18.7401 68.1072ZM24.2159 74.0782L22.5881 72.0143L22.0224 72.4629L23.1891 73.9343C22.4676 74.2951 21.6199 74.1814 21.0507 73.4633C20.4115 72.6569 20.5465 71.4857 21.3549 70.8451C22.1604 70.2069 23.3306 70.3428 23.9697 71.1488C24.3896 71.6788 24.4442 72.3254 24.1975 72.8852L24.8149 73.3254C25.2074 72.4678 25.1692 71.5011 24.5345 70.7011C23.6482 69.5826 22.0244 69.3945 20.9068 70.2803C19.7867 71.1681 19.5992 72.7929 20.4855 73.9115C21.3723 75.0295 22.9226 75.1228 24.0427 74.235C24.1072 74.1834 24.1673 74.1264 24.2159 74.0782ZM27.9041 74.2673C26.8664 73.2877 25.2312 73.3358 24.2521 74.3735C23.273 75.4117 23.3206 77.0464 24.3588 78.026C25.3965 79.0051 27.0317 78.9575 28.0108 77.9193C28.9899 76.8816 28.9423 75.2464 27.9041 74.2673ZM24.8536 77.5014C24.0993 76.7903 24.0655 75.6226 24.7767 74.8683C25.4878 74.1144 26.6555 74.0802 27.4098 74.7913C28.1637 75.503 28.1974 76.6707 27.4863 77.4245C26.7751 78.1783 25.6074 78.2126 24.8536 77.5014ZM30.3383 82.675L33.3025 78.4428L32.7124 78.0295L30.7303 80.8591L29.9269 75.9313L26.9622 80.1634L27.5528 80.5773L29.5348 77.7476L30.3383 82.675ZM34.5367 84.6774L35.2349 85.0282L35.4081 79.3321L30.9402 82.8695L31.638 83.2204L32.56 82.4735L34.5863 83.4923L34.5367 84.6774ZM33.1789 81.9777L34.693 80.7549L34.6151 82.6993L33.1789 81.9777ZM41.4848 86.9974L42.2377 87.2049L41.2953 81.5847L37.6041 85.9265L38.3569 86.1344L39.1152 85.2218L41.3017 85.8247L41.4848 86.9974ZM39.6253 84.6144L40.8715 83.1196L41.1752 85.0421L39.6253 84.6144ZM47.0082 87.8366L45.4966 85.0322L47.4851 82.8109L46.6276 82.7087L45.1155 84.4193L44.0475 82.4015L43.1895 82.2993L44.6014 84.9255L42.4739 87.2972L43.3389 87.3999L44.9815 85.5458L46.1432 87.7339L47.0082 87.8366ZM50.4255 85.2233C50.7585 85.1022 51.0364 84.7245 51.0463 84.2213C51.0637 83.3504 50.4265 82.8869 49.3377 82.8655L47.8286 82.8358L47.7293 87.8818L49.5913 87.9185C50.6051 87.9383 51.226 87.3046 51.2433 86.4337C51.2533 85.9305 51.0161 85.3776 50.4255 85.2233ZM48.5352 83.5707L49.4364 83.5886C50.0071 83.6 50.3332 83.8089 50.3248 84.2372C50.3163 84.6724 49.9823 84.8615 49.4116 84.8501L48.5104 84.8322L48.5352 83.5707ZM49.4856 87.1954L48.4643 87.1751L48.496 85.5533L49.5173 85.5731C50.1406 85.5855 50.5337 85.8486 50.5228 86.4044C50.5118 86.9602 50.1089 87.2073 49.4856 87.1954ZM53.6418 82.6184C52.2274 82.8104 51.2369 84.1121 51.4289 85.526C51.6205 86.9403 52.9222 87.9309 54.336 87.7388C55.7504 87.5473 56.7409 86.2456 56.5494 84.8317C56.3573 83.4174 55.0556 82.4268 53.6418 82.6184ZM54.2393 87.0247C53.2125 87.1637 52.2825 86.456 52.1436 85.4292C52.0041 84.402 52.7113 83.4725 53.7385 83.333C54.7658 83.1936 55.6953 83.9012 55.8348 84.9285C55.9742 85.9553 55.2665 86.8853 54.2393 87.0247ZM61.1602 86.3309L59.4788 84.8694C60.1627 84.4987 60.4321 83.7787 60.252 83.0189C60.0321 82.0909 59.2878 81.5882 58.0089 81.8909L56.4888 82.2512L57.6526 87.1622L58.3543 86.9959L57.9523 85.3007L58.7195 85.1186L60.3418 86.525L61.1602 86.3309ZM57.3563 82.7866L58.4163 82.5355C58.928 82.4139 59.4083 82.5856 59.5607 83.2288C59.7116 83.8645 59.3428 84.2298 58.8312 84.3513L57.7861 84.599L57.3563 82.7866ZM62.0093 80.547C60.6857 81.0805 60.0451 82.5856 60.5785 83.9092C61.112 85.2322 62.6172 85.8729 63.9407 85.3394C65.2642 84.8059 65.9044 83.3008 65.3714 81.9772C64.838 80.6537 63.3328 80.0135 62.0093 80.547ZM63.6712 84.6709C62.71 85.058 61.6346 84.6005 61.2475 83.6392C60.8599 82.6779 61.3175 81.603 62.2787 81.2155C63.24 80.8284 64.3149 81.2854 64.7025 82.2467C65.0901 83.2085 64.6325 84.2834 63.6712 84.6709ZM64.2896 79.6249L64.6216 80.2651L65.7948 79.6557L67.7882 83.4953L68.4279 83.1633L66.4344 79.3237L67.6076 78.7148L67.2756 78.0746L64.2896 79.6249ZM68.9634 76.9163L69.411 77.4811L70.4467 76.6598L73.1345 80.0497L73.6997 79.6021L71.012 76.2121L72.0477 75.3908L71.5995 74.8261L68.9634 76.9163ZM75.8932 77.7307L72.5667 73.9353L72.0243 74.4102L75.3508 78.2061L75.8932 77.7307ZM79.1487 74.3601L78.6246 73.8653L76.8411 75.7556L75.5602 70.8093L72.9216 73.6063L73.4461 74.101L75.2292 72.2108L76.51 77.157L79.1487 74.3601ZM80.1491 73.0013L76.1612 69.9086L75.719 70.4783L79.7075 73.571L80.1491 73.0013ZM82.3317 70.0515L80.5655 67.0298L83.3476 68.2233L83.7416 67.6015L78.9184 65.5599L81.0881 69.2635L76.8123 68.8843L80.7194 72.3726L81.1129 71.7507L78.845 69.7453L82.3317 70.0515ZM84.3356 66.142L79.8325 63.8627L79.507 64.5063L84.0101 66.7851L84.3356 66.142Z" fill="#FEFEFE"/>
<path id="Vector_42" d="M11.6272 70.0158C11.9041 70.5463 12.5587 70.7528 13.0892 70.4759C13.6202 70.1995 13.8262 69.5449 13.5498 69.0139C13.2728 68.4829 12.6188 68.2769 12.0878 68.5538C11.5568 68.8303 11.3508 69.4848 11.6272 70.0158ZM13.2813 69.1538C13.4823 69.5394 13.3354 70.0069 12.9498 70.2079C12.5642 70.4089 12.0967 70.2615 11.8957 69.8759C11.6947 69.4903 11.8416 69.0228 12.2272 68.8218C12.6128 68.6208 13.0803 68.7682 13.2813 69.1538ZM10.7662 68.2119L10.8501 68.3955L11.5468 68.4645L11.3791 68.0978L10.7662 68.2119ZM11.9151 65.6348L11.6396 65.7609L12.0937 66.7519L9.96872 66.4705L10.6402 67.937L10.9151 67.8114L10.4615 66.8199L12.586 67.1018L11.9151 65.6348ZM10.3275 64.6403C10.2263 64.5316 10.0352 64.486 9.8387 64.5644C9.49975 64.6999 9.42482 65.0219 9.59454 65.4458L9.82977 66.0338L11.7955 65.2477L11.5052 64.5222C11.3473 64.1272 11.0009 63.9912 10.6615 64.1267C10.4655 64.2051 10.2908 64.3872 10.3275 64.6403ZM9.998 65.6408L9.85756 65.2899C9.76873 65.0676 9.79652 64.9073 9.96326 64.8403C10.1325 64.7728 10.26 64.8711 10.3494 65.0934L10.4898 65.4443L9.998 65.6408ZM11.2431 64.6815L11.4024 65.079L10.7702 65.3321L10.6114 64.9341C10.5141 64.6914 10.5513 64.4964 10.7682 64.4101C10.9846 64.3232 11.1459 64.4383 11.2431 64.6815ZM9.05758 63.0245L8.77174 63.1237L9.16825 64.2666L11.1687 63.5719L10.7717 62.4295L10.4863 62.5287L10.7836 63.3858L10.2124 63.5838L9.96426 62.8697L9.67841 62.9689L9.92654 63.683L9.35485 63.8815L9.05758 63.0245ZM9.46253 61.7853L8.20699 61.1789L8.31964 61.566L9.43971 62.0806L8.54445 62.3406L8.62832 62.6309L10.662 62.0409L10.5776 61.7506L9.68188 62.0106L10.3389 60.9278L10.2263 60.5402L9.46253 61.7853ZM10.0918 59.9764L8.03231 60.4667L8.10228 60.7605L10.1618 60.2707L10.0918 59.9764ZM8.61144 59.0886C8.62435 59.4286 8.58415 59.5874 8.42485 59.6251C8.24074 59.6688 8.09583 59.5353 8.02883 59.2529C7.9673 58.9953 8.04124 58.8033 8.12014 58.6713L7.81991 58.5939C7.64472 58.904 7.71271 59.2311 7.73306 59.3169C7.8477 59.7983 8.17324 59.9958 8.50723 59.9164C8.78315 59.8509 8.9499 59.6395 8.91119 59.043C8.89332 58.7492 8.9499 58.5383 9.11565 58.4991C9.31167 58.4524 9.47742 58.5909 9.55087 58.9005C9.60844 59.1427 9.55137 59.4057 9.40249 59.6226L9.70074 59.707C9.73052 59.6673 9.96475 59.3333 9.84664 58.8365C9.7325 58.3556 9.39207 58.1224 9.03327 58.2078C8.68688 58.2901 8.58961 58.5755 8.61144 59.0886ZM7.54249 58.2504L7.83976 58.1949L7.73802 57.6495L9.52159 57.316L9.46601 57.0187L7.68244 57.3522L7.58021 56.8073L7.28295 56.8629L7.54249 58.2504ZM7.08246 55.527C7.15988 56.1205 7.70428 56.5383 8.29781 56.4604C8.89134 56.383 9.30919 55.8386 9.23128 55.2456C9.15386 54.652 8.60946 54.2337 8.01593 54.3116C7.4229 54.389 7.00455 54.9334 7.08246 55.527ZM8.93153 55.2843C8.98811 55.7155 8.68936 56.1041 8.2586 56.1607C7.82735 56.2172 7.43878 55.9185 7.3822 55.4877C7.32563 55.0565 7.62438 54.6679 8.05513 54.6113C8.48639 54.5548 8.87496 54.8535 8.93153 55.2843ZM8.95883 52.0834L6.7986 52.261L6.82291 52.5623L8.26753 52.4437L6.89289 54.0233L9.05312 53.8456L9.0283 53.5444L7.58368 53.663L8.95883 52.0834ZM8.88588 49.1138L8.11518 49.6423C8.03677 49.3257 7.77276 49.1405 7.44523 49.1336C7.04524 49.1247 6.76287 49.3743 6.75096 49.9251L6.73706 50.5802L8.85362 50.6259L8.86007 50.3231L8.12908 50.3078L8.13602 49.9767L8.87843 49.4666L8.88588 49.1138ZM7.04574 50.2844L7.05566 49.8279C7.06013 49.607 7.18072 49.4304 7.45763 49.4363C7.73157 49.4418 7.84124 49.6304 7.83628 49.8507L7.82685 50.3013L7.04574 50.2844ZM7.10479 47.5381L6.80207 47.5317L6.77627 48.7411L8.89282 48.7862L8.91913 47.5768L8.61641 47.5704L8.59705 48.4775L7.99211 48.4646L8.00849 47.7088L7.70626 47.7024L7.68988 48.4582L7.08544 48.4448L7.10479 47.5381ZM7.79509 46.3386C7.70576 46.6672 7.62041 46.8061 7.45714 46.7947C7.26856 46.7813 7.1698 46.6106 7.19015 46.3213C7.20851 46.0573 7.33655 45.8955 7.45118 45.7933L7.18816 45.6295C6.92763 45.8736 6.89487 46.2057 6.88892 46.294C6.85418 46.7873 7.10578 47.0736 7.4487 47.0974C7.73157 47.1173 7.9534 46.9654 8.09533 46.3848C8.1658 46.099 8.28292 45.9148 8.45264 45.9263C8.65363 45.9406 8.77025 46.1223 8.74841 46.4399C8.73104 46.688 8.59755 46.9223 8.39061 47.084L8.65015 47.2543C8.69035 47.2255 9.01391 46.9763 9.04964 46.4672C9.08389 45.9739 8.82881 45.6493 8.46108 45.624C8.10575 45.5987 7.92809 45.8424 7.79509 46.3386ZM7.11621 44.4176L7.03879 45.0682L9.14096 45.3188L9.17669 45.0186L8.45065 44.9317L8.50375 44.4876C8.55686 44.0434 8.27845 43.7437 7.88442 43.6965C7.48691 43.6494 7.18122 43.8702 7.11621 44.4176ZM8.20401 44.4489L8.15042 44.896L7.37476 44.8037L7.42587 44.3749C7.45218 44.1561 7.59212 43.9665 7.86705 43.9993C8.1395 44.0315 8.22982 44.23 8.20401 44.4489ZM7.50627 41.9209L8.77323 42.1378C9.09629 42.1929 9.28785 42.4177 9.23475 42.7283C9.18066 43.042 8.92607 43.1869 8.60301 43.1313L7.33605 42.9144L7.28493 43.2127L8.45264 43.4127C9.002 43.5065 9.43673 43.3382 9.53251 42.7795C9.6263 42.2326 9.27445 41.917 8.72459 41.8227L7.55738 41.6227L7.50627 41.9209ZM8.86652 40.255C8.84469 40.1081 8.71268 39.9617 8.50673 39.9155C8.15042 39.8351 7.90626 40.058 7.80601 40.5036L7.66656 41.1214L9.732 41.5864L9.90371 40.8242C9.99701 40.4093 9.78908 40.1011 9.43226 40.0207C9.22631 39.9746 8.97917 40.0252 8.86652 40.255ZM8.02834 40.8932L8.11121 40.5239C8.16382 40.2902 8.27746 40.1741 8.45264 40.2133C8.6308 40.2535 8.68042 40.4068 8.62782 40.6406L8.54445 41.0093L8.02834 40.8932ZM9.59752 40.8073L9.50372 41.2252L8.83972 41.0758L8.93401 40.6579C8.99109 40.4024 9.13252 40.2634 9.35981 40.3145C9.58759 40.3656 9.65508 40.5522 9.59752 40.8073ZM9.92009 39.4709L8.16977 38.991L8.08987 39.2828L10.1315 39.8426L10.4382 38.724L10.1464 38.6441L9.92009 39.4709ZM10.6114 38.0923L8.56976 37.5325L8.48936 37.8243L10.5315 38.3841L10.6114 38.0923ZM9.90768 36.7697L9.21887 35.5573L9.09133 35.94L9.72158 37L8.83675 36.7052L8.74146 36.9925L10.7503 37.6605L10.8456 37.3737L9.96078 37.0794L11.1161 36.5603L11.2436 36.1777L9.90768 36.7697ZM11.8878 34.5082L12.0064 34.203L9.62084 34.3579L11.2764 36.0824L11.395 35.7772L11.0461 35.4219L11.3905 34.535L11.8878 34.5082ZM10.8144 35.1832L10.2432 34.6001L11.0585 34.5549L10.8144 35.1832ZM11.2873 32.7832C11.0913 33.0611 10.9632 33.1629 10.8139 33.0964C10.6412 33.0195 10.6069 32.8249 10.7245 32.5599C10.8322 32.3182 11.0079 32.2101 11.1508 32.153L10.9593 31.9093C10.6312 32.0498 10.4868 32.351 10.4511 32.4314C10.2501 32.8835 10.3886 33.2383 10.7022 33.3778C10.9612 33.4929 11.2218 33.4264 11.5538 32.9291C11.7176 32.6845 11.8907 32.5515 12.0461 32.6205C12.2302 32.7023 12.2778 32.9133 12.1483 33.2041C12.0471 33.4314 11.8421 33.6055 11.592 33.6874L11.7781 33.9356C11.8252 33.9222 12.2148 33.7991 12.4222 33.3326C12.6232 32.881 12.4942 32.489 12.1577 32.3391C11.8322 32.1942 11.5816 32.3619 11.2873 32.7832ZM13.0098 32.0016L11.1181 31.0518L10.9821 31.3217L12.8743 32.2721L13.0098 32.0016ZM14.4108 29.3789L13.4813 29.4771C13.5632 29.161 13.4192 28.8727 13.1349 28.7104C12.787 28.5124 12.4198 28.5968 12.1468 29.0757L11.8223 29.6454L13.6624 30.693L13.8118 30.4305L13.1766 30.0687L13.3403 29.7809L14.2361 29.6856L14.4108 29.3789ZM12.2352 29.5322L12.4614 29.1352C12.5701 28.9437 12.7607 28.8454 13.0014 28.9824C13.2396 29.1178 13.246 29.3357 13.1369 29.5273L12.914 29.9188L12.2352 29.5322ZM15.3691 27.8087L15.5432 27.5313L13.1716 27.232L14.4703 29.2384L14.6445 28.961L14.3696 28.5466L14.8758 27.7407L15.3691 27.8087ZM14.187 28.2682L13.7368 27.5874L14.5458 27.6975L14.187 28.2682ZM16.8345 25.6668L16.3685 25.7313C16.3119 25.4837 16.1646 25.2559 15.9402 25.0976C15.4514 24.7527 14.7755 24.8693 14.4301 25.3582C14.0847 25.8475 14.2013 26.5234 14.6907 26.8688C15.1795 27.2137 15.8559 27.0971 16.2013 26.6082C16.3318 26.4231 16.3948 26.2132 16.3998 26.0043L16.6162 25.976L16.8345 25.6668ZM15.9536 26.4336C15.703 26.7889 15.2202 26.8723 14.8648 26.6216C14.5095 26.371 14.4266 25.8877 14.6773 25.5323C14.9279 25.1775 15.4107 25.0941 15.7661 25.3448C15.9204 25.4539 16.0241 25.6078 16.0683 25.7745L15.7393 25.8197L15.5358 26.108L16.0966 26.041C16.0857 26.176 16.0395 26.3125 15.9536 26.4336ZM15.9264 23.3359C15.5591 23.8088 15.6455 24.4897 16.1184 24.8564C16.5913 25.2232 17.2722 25.1373 17.639 24.6644C18.0057 24.1914 17.9198 23.5106 17.4469 23.1438C16.974 22.7771 16.2931 22.863 15.9264 23.3359ZM17.3998 24.4788C17.1333 24.8227 16.6469 24.8842 16.3035 24.6172C15.9601 24.3507 15.8986 23.8649 16.1651 23.521C16.4315 23.1776 16.9179 23.116 17.2613 23.3825C17.6047 23.649 17.6663 24.1354 17.3998 24.4788ZM18.3655 21.9712C18.4151 21.8307 18.367 21.6402 18.2067 21.5032C17.9293 21.2655 17.6092 21.3484 17.3119 21.6947L16.9 22.1756L18.5079 23.5533L19.0161 22.9597C19.293 22.6372 19.2533 22.2669 18.9754 22.0292C18.8151 21.8918 18.5729 21.8213 18.3655 21.9712ZM17.3268 22.1429L17.5725 21.856C17.7283 21.6739 17.8831 21.6243 18.0196 21.7409C18.158 21.86 18.1303 22.0183 17.9744 22.2004L17.7288 22.4873L17.3268 22.1429ZM18.7536 22.8014L18.4752 23.127L17.9581 22.6843L18.237 22.3587C18.4072 22.1602 18.5972 22.1032 18.7744 22.2545C18.9511 22.4064 18.9238 22.6029 18.7536 22.8014ZM20.7227 21.1057L20.947 20.867L18.6766 20.1181L19.5664 22.3364L19.7912 22.0977L19.6007 21.6382L20.2518 20.9444L20.7227 21.1057ZM19.4751 21.33L19.1635 20.5752L19.9367 20.8387L19.4751 21.33ZM19.3774 19.4606L19.5878 19.6779L19.9863 19.2928L21.2478 20.597L21.4651 20.3871L20.2036 19.0824L20.6026 18.6968L20.3922 18.4795L19.3774 19.4606ZM23.4775 18.6318L22.0517 16.9996L21.8234 17.1986L22.7773 18.2899L20.69 18.1227L22.1162 19.7549L22.3435 19.5559L21.3902 18.4646L23.4775 18.6318ZM24.0278 18.1127L22.7053 16.4597L22.4691 16.6483L23.7916 18.3018L24.0278 18.1127ZM26.3945 16.3133L25.5082 16.017C25.7136 15.7639 25.7022 15.4413 25.5102 15.1758C25.2754 14.8518 24.9062 14.7764 24.4596 15.0994L23.9286 15.4835L25.1687 17.1991L25.4139 17.0219L24.9861 16.4294L25.2541 16.2359L26.1087 16.5197L26.3945 16.3133ZM24.3509 15.5515L24.7211 15.2835C24.8998 15.1545 25.1137 15.1436 25.2759 15.3684C25.4367 15.5907 25.3524 15.7912 25.1737 15.9207L24.809 16.1847L24.3509 15.5515ZM26.9096 15.9505L25.7563 14.1749L25.5027 14.3396L26.656 16.1153L26.9096 15.9505ZM27.9513 15.3337L27.5741 12.9943L27.2992 13.1729L27.5637 14.7367L26.2427 13.8593L25.9677 14.0374L27.9513 15.3337ZM28.6173 12.3744C28.0997 12.6757 27.9245 13.3387 28.2252 13.8563C28.5265 14.3734 29.1895 14.5491 29.7071 14.2478C30.2247 13.9471 30.3998 13.2836 30.0986 12.766C29.7979 12.2489 29.1344 12.0732 28.6173 12.3744ZM29.5552 13.9863C29.179 14.2052 28.7051 14.0801 28.4868 13.7039C28.2679 13.3283 28.3935 12.8543 28.7691 12.636C29.1448 12.4171 29.6187 12.5422 29.8376 12.9183C30.0559 13.294 29.9309 13.7679 29.5552 13.9863ZM30.4693 11.4062L31.0867 12.5908C31.2266 12.8593 31.2132 13.093 30.9621 13.224C30.842 13.2871 30.712 13.2766 30.6242 13.23L30.6093 13.5287C30.7214 13.5809 30.9398 13.5769 31.1021 13.4925C31.4648 13.3029 31.6097 12.9402 31.3432 12.4285L30.7373 11.2663L30.4693 11.4062ZM32.2266 12.564L31.4708 10.9139L31.1959 11.0395L32.0772 12.965L33.1313 12.4821L33.0057 12.2072L32.2266 12.564ZM34.9183 11.7268L35.2225 11.6042L33.4757 9.97204L33.3526 12.3591L33.6563 12.2365L33.6767 11.7392L34.5585 11.3829L34.9183 11.7268ZM33.6921 11.4067L33.7258 10.5909L34.3168 11.1546L33.6921 11.4067ZM37.1371 10.974L36.4309 8.92492L36.1446 9.02368L36.617 10.3934L34.7461 9.45245L35.4528 11.5015L35.7386 11.4028L35.2662 10.0326L37.1371 10.974ZM36.8652 8.77406L36.949 9.06437L37.482 8.91053L37.9862 10.6539L38.2765 10.57L37.7723 8.82666L38.3053 8.67232L38.2209 8.38201L36.8652 8.77406ZM39.4388 10.2341L38.8507 8.19988L38.5604 8.28375L39.1485 10.3179L39.4388 10.2341ZM41.3509 9.777L40.6447 9.16462C40.9315 9.00879 41.0442 8.70657 40.9683 8.38797C40.876 7.9989 40.5633 7.78798 40.0268 7.91552L39.3896 8.06738L39.8795 10.1274L40.1737 10.0569L40.0045 9.34625L40.3266 9.26933L41.0075 9.85839L41.3509 9.777ZM39.7539 8.29169L40.1981 8.18599C40.4124 8.13487 40.6144 8.20683 40.6784 8.4763C40.742 8.74279 40.5876 8.89663 40.3727 8.94725L39.9345 9.05196L39.7539 8.29169ZM41.9692 9.65592L41.5797 7.57509L41.2824 7.63067L41.672 9.7115L41.9692 9.65592ZM42.9275 8.22023C42.5876 8.21626 42.4312 8.16862 42.401 8.00783C42.3662 7.82173 42.5067 7.68327 42.7915 7.63017C43.0521 7.58154 43.2406 7.66442 43.3687 7.74977L43.4605 7.4535C43.1588 7.26343 42.8292 7.31554 42.7424 7.33192C42.2561 7.42274 42.0427 7.73836 42.1057 8.07582C42.1583 8.35472 42.3608 8.53139 42.9588 8.52196C43.2526 8.51799 43.461 8.58498 43.4922 8.75222C43.5295 8.95023 43.3826 9.10904 43.0699 9.16759C42.8253 9.21375 42.5652 9.14377 42.3563 8.98398L42.257 9.27826C42.2953 9.30953 42.6178 9.56014 43.1191 9.46634C43.6054 9.37553 43.855 9.04651 43.787 8.68423C43.7215 8.33437 43.4411 8.22321 42.9275 8.22023ZM45.2793 7.0019L45.3974 7.90163L44.3974 8.03264L44.2798 7.13292L43.9801 7.17212L44.255 9.27131L44.5547 9.23211L44.4371 8.33238L45.4366 8.20137L45.5542 9.1011L45.8545 9.06189L45.5795 6.9627L45.2793 7.0019ZM48.0693 8.9671L48.9536 6.76866L48.6266 6.77958L48.0455 8.25546L47.3671 6.82176L47.0395 6.83268L48.0693 8.9671ZM50.4608 8.8753L50.7883 8.88224L49.827 6.69373L48.7725 8.83907L49.1 8.84651L49.3144 8.3969L50.2657 8.41725L50.4608 8.8753ZM49.4598 8.09765L49.8126 7.36169L50.1337 8.11204L49.4598 8.09765ZM52.3495 8.93981L52.4974 6.82772L52.1962 6.80638L52.0483 8.91847L52.3495 8.93981ZM53.6398 7.79195C53.3113 7.70263 53.1718 7.61677 53.1833 7.4535C53.1967 7.26492 53.3674 7.16666 53.6567 7.18651C53.9207 7.20537 54.0825 7.33341 54.1847 7.44804L54.3485 7.18453C54.1048 6.92449 53.7723 6.89173 53.684 6.88528C53.1907 6.85104 52.9049 7.10265 52.8805 7.44507C52.8607 7.72794 53.0125 7.95026 53.5932 8.0917C53.879 8.16217 54.0636 8.27978 54.0517 8.44901C54.0373 8.65049 53.8557 8.76711 53.5381 8.74478C53.29 8.72741 53.0562 8.59441 52.8939 8.38697L52.7237 8.64701C52.7525 8.68672 53.0016 9.01078 53.5108 9.04651C54.0041 9.08075 54.3286 8.82567 54.3544 8.45794C54.3793 8.10261 54.1356 7.92446 53.6398 7.79195ZM54.7599 7.0158L54.7242 7.31604L55.2745 7.38204L55.0596 9.18397L55.3604 9.2197L55.5747 7.41777L56.1256 7.48328L56.1613 7.18304L54.7599 7.0158ZM57.7583 7.75573L57.8089 7.45747L56.6169 7.25301L56.2596 9.3398L57.4516 9.54426L57.5027 9.246L56.6085 9.09315L56.7107 8.49665L57.4561 8.62419L57.5072 8.32643L56.7618 8.19839L56.864 7.60238L57.7583 7.75573ZM58.0049 8.1046L58.2039 8.13884L58.6541 7.60238L58.2566 7.5339L58.0049 8.1046ZM59.6843 10.0673L60.6287 8.94279L60.5498 10.2102L60.851 10.2782L60.9766 8.08475L59.8198 9.46486L59.3662 7.72198L58.5394 9.75765L58.8407 9.82564L59.3131 8.64652L59.6843 10.0673ZM62.8013 8.64453C62.2331 8.45595 61.6197 8.76413 61.4316 9.33235C61.2431 9.90057 61.5512 10.5135 62.1195 10.702C62.6877 10.8901 63.3006 10.5824 63.4891 10.0137C63.6772 9.446 63.3695 8.83262 62.8013 8.64453ZM62.2147 10.4147C61.8019 10.2777 61.582 9.84003 61.7185 9.42714C61.8554 9.01475 62.2932 8.7949 62.706 8.93137C63.1184 9.06834 63.3388 9.50605 63.2018 9.91894C63.0653 10.3318 62.6271 10.5517 62.2147 10.4147ZM63.8663 10.9278L64.5234 9.23608L64.2415 9.1264L63.4748 11.1L64.5556 11.5199L64.6653 11.238L63.8663 10.9278ZM65.8543 11.7263C65.4519 11.57 65.2524 11.1174 65.4087 10.7154C65.565 10.313 66.0176 10.1135 66.4201 10.2698C66.6429 10.3566 66.7704 10.4906 66.8518 10.6807L67.0746 10.4633C66.9694 10.247 66.7615 10.0782 66.5471 9.99486C65.9799 9.77452 65.3437 10.048 65.1268 10.6058C64.9099 11.1641 65.1953 11.7953 65.7625 12.0151C65.9769 12.0985 66.2454 12.1119 66.4692 12.0226L66.4513 11.7119C66.2618 11.8003 66.0776 11.8132 65.8543 11.7263ZM68.7336 10.9919L68.3649 11.8211L67.4434 11.4112L67.8126 10.5824L67.5362 10.4594L66.6756 12.3938L66.9521 12.5164L67.3208 11.6876L68.2418 12.0975L67.8731 12.9263L68.149 13.0494L69.0101 11.1149L68.7336 10.9919ZM68.813 13.4136L69.7634 11.5214L69.4929 11.3859L68.5431 13.2781L68.813 13.4136ZM69.6358 13.4955L70.5341 11.9184L70.2711 11.769L69.2235 13.6086L70.2304 14.1823L70.3802 13.9198L69.6358 13.4955ZM71.8953 15.1788L72.1727 15.3535L72.4765 12.9824L70.4671 14.2776L70.7445 14.4523L71.1594 14.1779L71.9643 14.686L71.8953 15.1788ZM71.4383 13.9962L72.1201 13.5471L72.0085 14.356L71.4383 13.9962ZM73.6362 16.3381L73.6268 15.4031C73.9335 15.5148 74.2342 15.3992 74.4228 15.1307C74.6531 14.8036 74.6034 14.43 74.1523 14.1129L73.6164 13.7362L72.399 15.4686L72.6462 15.6423L73.0665 15.0443L73.3375 15.2344L73.3474 16.1351L73.6362 16.3381ZM73.6898 14.1575L74.0635 14.42C74.2441 14.5471 74.324 14.7456 74.1647 14.9724C74.0069 15.1967 73.7896 15.1828 73.6089 15.0557L73.2407 14.7967L73.6898 14.1575ZM77.0699 16.2592L76.5155 16.9778L75.7175 16.3619L76.2714 15.6433L76.0322 15.4587L74.7389 17.1351L74.9786 17.3197L75.5324 16.6016L76.3309 17.217L75.7766 17.9356L76.0163 18.1202L77.3096 16.4438L77.0699 16.2592ZM78.6946 17.6368L77.8559 18.611C77.6421 18.8591 77.3507 18.9077 77.112 18.7018C76.8709 18.4944 76.8783 18.2011 77.0922 17.9529L77.9309 16.9788L77.7016 16.7818L76.9284 17.679C76.5647 18.1018 76.4848 18.5613 76.9145 18.9311C77.3349 19.2928 77.787 19.1544 78.1507 18.7321L78.9239 17.8343L78.6946 17.6368ZM79.3581 21.1494L79.3591 20.6794C79.6127 20.6581 79.8584 20.5434 80.0459 20.3434C80.4559 19.9072 80.4345 19.2214 79.9978 18.8115C79.5616 18.4016 78.8758 18.4234 78.4663 18.8596C78.0564 19.2958 78.0778 19.9817 78.514 20.3916C78.6797 20.5469 78.8787 20.6387 79.0847 20.672L79.0827 20.8908L79.3581 21.1494ZM78.7214 20.1712C78.4043 19.8735 78.3889 19.3837 78.6867 19.0665C78.9844 18.7494 79.4743 18.734 79.7909 19.0318C80.108 19.3296 80.1234 19.8194 79.8256 20.1365C79.6961 20.274 79.5293 20.3553 79.3586 20.3762L79.3591 20.0442L79.1021 19.8025L79.0906 20.3668C78.9581 20.3375 78.8291 20.2725 78.7214 20.1712ZM81.9278 20.8119L81.0017 21.7032C80.7655 21.93 80.4712 21.9513 80.2524 21.7245C80.0321 21.4948 80.0663 21.2039 80.3025 20.9767L81.229 20.0854L81.0191 19.8675L80.1656 20.6888C79.7636 21.0754 79.6415 21.5255 80.0345 21.9339C80.4191 22.3334 80.8822 22.2377 81.2841 21.8511L82.1377 21.0298L81.9278 20.8119ZM82.2424 24.387L82.2886 23.919C82.5426 23.922 82.7987 23.8317 83.0047 23.6505C83.4543 23.2555 83.4984 22.5707 83.1034 22.121C82.7084 21.6714 82.0236 21.6273 81.5739 22.0223C81.1243 22.4173 81.0802 23.1021 81.4752 23.5518C81.6246 23.722 81.8141 23.8326 82.0161 23.8857L81.9928 24.1031L82.2424 24.387ZM81.7025 23.3518C81.4156 23.0252 81.4469 22.5364 81.7734 22.2491C82.1005 21.9622 82.5893 21.994 82.8761 22.3205C83.1635 22.6471 83.1317 23.1364 82.8052 23.4232C82.6632 23.5483 82.4891 23.6128 82.3168 23.6173L82.3496 23.2868L82.1169 23.0218L82.0513 23.582C81.9223 23.5403 81.8002 23.4634 81.7025 23.3518ZM82.8081 24.6778L84.2225 23.5413L84.0334 23.3056L82.3829 24.6316L83.1089 25.5353L83.3446 25.3458L82.8081 24.6778ZM84.223 27.1254L84.4146 27.3913L85.5847 25.3065L83.2364 25.7547L83.428 26.0207L83.9158 25.9219L84.4716 26.6941L84.223 27.1254ZM84.2423 25.8574L85.0423 25.6966L84.6359 26.4048L84.2423 25.8574ZM85.3396 28.895L85.682 28.0256C85.9242 28.2439 86.2467 28.2499 86.5217 28.0722C86.8581 27.8554 86.9524 27.4906 86.6537 27.0271L86.2984 26.4767L84.5193 27.6246L84.6835 27.8787L85.2974 27.4822L85.4771 27.7601L85.148 28.5988L85.3396 28.895ZM86.208 26.8946L86.4557 27.2787C86.5753 27.4638 86.5748 27.6782 86.342 27.8281C86.1118 27.9769 85.9152 27.8822 85.7961 27.697L85.5515 27.3184L86.208 26.8946ZM85.6383 29.4508L87.4651 28.3809L87.3122 28.1199L85.4855 29.1903L85.6383 29.4508ZM86.6542 31.4215L88.5767 30.4195L88.4368 30.1511L87.1514 30.821L87.8055 28.8315L85.8835 29.8335L86.0234 30.1019L87.3088 29.432L86.6542 31.4215ZM87.0413 32.0721L88.9668 31.1907L88.8407 30.9158L86.9157 31.7967L87.0413 32.0721ZM90.1201 33.8209L89.2779 34.1594L88.9023 33.2234L89.7444 32.8855L89.6318 32.6051L87.6671 33.3936L87.7797 33.6745L88.6219 33.3366L88.9975 34.272L88.1554 34.61L88.268 34.8909L90.2327 34.1018L90.1201 33.8209ZM88.5499 35.5926L90.5146 34.8035L90.402 34.5226L88.4373 35.3117L88.5499 35.5926ZM89.0075 37.061L90.4605 37.2699L89.3419 37.8719L89.4437 38.1632L91.3731 37.1131L89.5906 36.8585L90.8317 35.5539L88.6665 35.9251L88.7678 36.2169L90.0183 35.996L89.0075 37.061ZM91.8381 38.8625C91.6719 38.2878 91.0714 37.9563 90.4962 38.1225C89.9211 38.2888 89.5896 38.8897 89.7558 39.4644C89.9221 40.0396 90.523 40.3711 91.0982 40.2048C91.6734 40.0386 92.0044 39.4376 91.8381 38.8625ZM90.0466 39.3806C89.926 38.9627 90.1628 38.5334 90.5801 38.4128C90.998 38.2922 91.4272 38.529 91.5478 38.9468C91.6684 39.3642 91.4317 39.7934 91.0143 39.914C90.5965 40.0351 90.1672 39.7979 90.0466 39.3806ZM92.4386 41.4802L91.3632 41.1532L92.1761 40.377L92.0972 40.046L91.0466 41.0733L90.2129 41.2718L90.2829 41.5661L91.1161 41.3676L92.5175 41.8112L92.4386 41.4802ZM90.6809 43.7224L90.7409 44.0444L92.6863 42.6549L90.3702 42.0629L90.4302 42.3844L90.9141 42.5025L91.0893 43.4375L90.6809 43.7224ZM91.2367 42.5829L92.0297 42.7775L91.3607 43.2454L91.2367 42.5829ZM91.059 47.4076L91.3751 47.0592C91.5771 47.2136 91.8367 47.2935 92.1101 47.2706C92.7061 47.222 93.1503 46.6984 93.1011 46.1019C93.052 45.5054 92.5289 45.0613 91.9324 45.1104C91.3354 45.1595 90.8918 45.6831 90.9409 46.2796C90.9593 46.5054 91.0456 46.7069 91.1761 46.8701L91.0277 47.0309L91.059 47.4076ZM91.2426 46.2548C91.2069 45.8215 91.5235 45.4474 91.9567 45.4121C92.3905 45.3764 92.7642 45.6935 92.7999 46.1267C92.8351 46.56 92.5185 46.9337 92.0853 46.9694C91.8967 46.9848 91.7185 46.9332 91.5776 46.8339L91.8009 46.5883L91.7721 46.2364L91.385 46.6473C91.3066 46.5372 91.2545 46.4022 91.2426 46.2548ZM91.0893 47.9867L93.2048 47.9158L93.1949 47.6135L91.0789 47.6845L91.0893 47.9867ZM91.4168 48.7321L93.2302 48.6716L93.2202 48.3694L91.1042 48.4398L91.1429 49.5986L91.4456 49.5887L91.4168 48.7321ZM91.1374 50.2537L93.254 50.2988L93.2604 49.9966L91.1439 49.9514L91.1374 50.2537ZM92.3463 51.4864C92.4198 51.1539 92.4982 51.011 92.6619 51.0144C92.851 51.0184 92.9577 51.1847 92.9513 51.4745C92.9458 51.739 92.8257 51.9067 92.716 52.0144L92.987 52.1653C93.2351 51.9087 93.252 51.5752 93.254 51.4869C93.2644 50.9926 92.9989 50.7192 92.656 50.7117C92.3721 50.7058 92.1577 50.868 92.0446 51.4551C91.988 51.7434 91.8798 51.9335 91.7096 51.9295C91.5081 51.9256 91.3826 51.7494 91.3895 51.4313C91.395 51.1827 91.5166 50.9425 91.7156 50.7703L91.4481 50.6135C91.4094 50.6437 91.0982 50.9082 91.0873 51.4184C91.0764 51.9132 91.3473 52.2248 91.7156 52.2323C92.0719 52.2402 92.2376 51.9886 92.3463 51.4864ZM93.0738 54.0258L92.1686 53.9622L92.2386 52.9568L93.1438 53.0198L93.1651 52.7181L91.0531 52.5702L91.0322 52.8719L91.9369 52.9355L91.8669 53.9414L90.9617 53.8779L90.9404 54.1796L93.0525 54.3275L93.0738 54.0258ZM90.4178 57.7194L90.8109 57.4609C90.9682 57.6604 91.2 57.8023 91.4699 57.8485C92.06 57.9497 92.6202 57.5532 92.721 56.9636C92.8222 56.3736 92.4257 55.8133 91.8357 55.7121C91.2456 55.6113 90.6858 56.0073 90.5846 56.5974C90.5464 56.8212 90.5796 57.0376 90.6655 57.2281L90.4819 57.3472L90.4178 57.7194ZM90.8828 56.6485C90.9563 56.2202 91.3563 55.9369 91.785 56.0103C92.2133 56.0838 92.4962 56.4837 92.4232 56.9125C92.3498 57.3408 91.9493 57.6242 91.521 57.5507C91.3349 57.5184 91.1751 57.4242 91.0635 57.2931L91.3409 57.1105L91.4004 56.7626L90.9235 57.0644C90.8749 56.9378 90.858 56.7944 90.8828 56.6485ZM92.2416 59.4474C92.3736 58.8633 92.0069 58.2837 91.4228 58.1522C90.8387 58.0207 90.259 58.3874 90.1275 58.9715C89.996 59.5551 90.3627 60.1352 90.9464 60.2668C91.5305 60.3983 92.1101 60.0315 92.2416 59.4474ZM90.4223 59.038C90.5181 58.6137 90.932 58.3517 91.3563 58.447C91.7806 58.5427 92.0426 58.9571 91.9468 59.3809C91.8515 59.8052 91.4372 60.0673 91.0129 59.9715C90.589 59.8762 90.327 59.4618 90.4223 59.038ZM91.7369 61.3794L91.791 61.1848L91.3027 60.6826L91.1945 61.0712L91.7369 61.3794ZM89.2541 62.1764L90.2824 63.2245L89.0283 63.024L88.932 63.3173L91.1032 63.6533L89.8407 62.3694L91.6188 62.0851L89.6724 61.0667L89.5757 61.36L90.7037 61.9436L89.2541 62.1764ZM88.7271 63.9396L90.7384 64.6011L90.8327 64.3143L88.8219 63.6523L88.7271 63.9396ZM90.5722 65.0319L90.2903 64.9227L90.0898 65.4398L88.3976 64.7852L88.2884 65.0671L89.9806 65.7222L89.7806 66.2393L90.063 66.3484L90.5722 65.0319ZM87.473 66.9931L87.34 67.2923L89.73 67.2521L88.1593 65.4502L88.0263 65.7495L88.3574 66.1212L87.9708 66.9901L87.473 66.9931ZM88.5772 66.3708L89.1196 66.9807L88.3033 66.9866L88.5772 66.3708ZM88.007 68.7514C88.2159 68.4829 88.3484 68.3871 88.4948 68.4605C88.6635 68.5454 88.6889 68.7414 88.5588 69.0005C88.4402 69.2367 88.2596 69.3364 88.1142 69.3871L88.2943 69.6397C88.6283 69.5146 88.7866 69.2203 88.8263 69.1414C89.0481 68.6997 88.9261 68.339 88.6194 68.1846C88.3658 68.0576 88.1023 68.1122 87.7479 68.593C87.5728 68.8298 87.3936 68.9548 87.2418 68.8784C87.0616 68.7881 87.0239 68.5752 87.1668 68.2908C87.278 68.0685 87.4914 67.9037 87.745 67.8338L87.5708 67.5772C87.5226 67.5881 87.1281 67.6933 86.8993 68.1494C86.677 68.5916 86.7877 68.9891 87.1172 69.1543C87.4353 69.3141 87.6934 69.1583 88.007 68.7514ZM86.2686 69.4615L88.1608 70.4118L88.2963 70.1414L86.4041 69.1915L86.2686 69.4615Z" fill="#FEFEFE"/>
<path id="Vector_43" d="M85.1463 73.9157C77.4944 85.1382 64.6085 92.5062 50.001 92.5062C35.2635 92.5062 22.2778 85.0062 14.6527 73.6145" stroke="white" stroke-width="1.00006" stroke-miterlimit="22.9256" stroke-linecap="round"/>
<path id="Vector_44" fill-rule="evenodd" clip-rule="evenodd" d="M86.0263 54.2525L86.1683 54.0382C86.3112 53.8039 86.3941 53.6387 86.4948 53.3846L86.5146 53.3355C86.5251 53.3156 86.5191 53.3265 86.5256 53.3176C86.6948 53.3776 87.0228 53.5622 87.128 53.6541C87.0367 53.7583 86.7638 53.9464 86.6442 54.0109C86.4854 54.0972 86.2288 54.2198 86.0263 54.2525ZM83.3664 53.6541C83.4745 53.5613 83.7981 53.3781 83.9693 53.3176L83.9976 53.3786C84.0547 53.525 84.1207 53.667 84.1921 53.8064C84.2452 53.9101 84.3281 54.0446 84.3946 54.1404C84.416 54.1717 84.4532 54.2188 84.4686 54.2525C84.2735 54.2213 84.0105 54.1002 83.8572 54.0133C83.6552 53.8997 83.6289 53.8699 83.4775 53.7538C83.4378 53.7235 83.3971 53.6903 83.3664 53.6541ZM85.3817 54.3726V53.0273C85.5479 53.0372 85.7092 53.0615 85.866 53.0958C85.9454 53.1131 86.2392 53.1816 86.2849 53.2193C86.2417 53.3652 86.0328 53.7732 85.9514 53.9062L85.6993 54.2937C85.6775 54.3245 85.674 54.3424 85.6303 54.3513C85.5569 54.3672 85.4591 54.3717 85.3817 54.3726ZM84.21 53.2193C84.2547 53.1826 84.5499 53.1131 84.6289 53.0958C84.7857 53.0615 84.947 53.0372 85.1127 53.0273V54.3726C85.0323 54.3712 84.9494 54.3662 84.8725 54.3533C84.8159 54.3434 84.7951 54.2982 84.7455 54.2243C84.5862 53.9861 84.2874 53.4828 84.21 53.2193ZM84.1147 52.998C84.0884 52.9052 84.0477 52.8074 84.0179 52.7107C83.9217 52.3965 83.8532 52.068 83.8388 51.735H85.1127L85.1112 52.7494C84.8581 52.7628 84.5743 52.8322 84.3375 52.9146C84.271 52.9379 84.1733 52.9846 84.1147 52.998ZM87.3186 53.463C87.0844 53.3221 87.0571 53.3007 86.8079 53.1757C86.7439 53.1434 86.6824 53.1211 86.6218 53.0898C86.6799 52.8824 86.7494 52.7543 86.8189 52.4635C86.8739 52.2318 86.9176 51.9871 86.9251 51.735H88.0119C87.99 52.3002 87.7935 52.869 87.4585 53.3002C87.4159 53.3553 87.3667 53.4223 87.3186 53.463ZM82.484 51.735H83.5644C83.5812 52.0943 83.6606 52.4481 83.7663 52.7831C83.7991 52.8853 83.8448 52.9925 83.873 53.0893L83.5108 53.2635C83.3917 53.3221 83.277 53.398 83.1768 53.463C83.018 53.3374 82.7832 52.9107 82.7038 52.729C82.5778 52.4382 82.4984 52.0898 82.484 51.735ZM85.3817 51.735H86.6556C86.6462 51.9707 86.6089 52.1965 86.5568 52.4164C86.533 52.5191 86.5047 52.6174 86.4749 52.7166L86.4025 52.934C86.3985 52.9459 86.3936 52.9613 86.3886 52.9717C86.3787 52.993 86.3861 52.9826 86.3722 52.997C86.0253 52.8749 85.7841 52.7717 85.3832 52.7494L85.3817 52.7166V51.735ZM85.3837 50.4512C85.5688 50.4403 85.7449 50.406 85.9162 50.3599C85.999 50.337 86.0769 50.3137 86.1573 50.2859C86.2243 50.2621 86.3211 50.215 86.3807 50.2025C86.4045 50.2924 86.4481 50.3931 86.4784 50.4889C86.5757 50.7971 86.6437 51.1365 86.6536 51.4655H85.3817L85.3837 50.4512ZM83.8388 51.4655C83.8537 51.1137 83.9187 50.8164 84.0165 50.4884C84.0462 50.3896 84.0869 50.2968 84.1147 50.2025C84.1753 50.2164 84.277 50.2651 84.344 50.2879C84.5867 50.3708 84.8502 50.4358 85.1127 50.4512L85.1067 51.4655H83.8388ZM86.6218 50.1107C86.6844 50.0795 86.7434 50.0571 86.8079 50.0249C87.0511 49.9028 87.0853 49.881 87.3186 49.7375C87.3871 49.7951 87.5275 49.9887 87.5816 50.0755C87.6595 50.2006 87.7265 50.3236 87.7905 50.4715C87.9171 50.7638 87.998 51.1097 88.0109 51.4655H86.9251C86.9102 51.1127 86.8243 50.745 86.7236 50.414C86.6928 50.3137 86.6462 50.2045 86.6218 50.1107ZM82.484 51.4655C82.4984 51.1107 82.5773 50.7623 82.7038 50.4715C82.7818 50.2924 83.0195 49.8606 83.1768 49.7375C83.277 49.8026 83.3917 49.8785 83.5108 49.937L83.873 50.1107C83.8467 50.208 83.8016 50.3172 83.7693 50.4204C83.7356 50.5266 83.7063 50.6388 83.6795 50.7479C83.6239 50.9723 83.5807 51.2239 83.5688 51.4655H82.484ZM85.3817 48.8279C85.4586 48.8289 85.5579 48.8334 85.6303 48.8487C85.6715 48.8577 85.6755 48.8731 85.6988 48.9078C85.8779 49.1733 85.9812 49.3222 86.1345 49.6224C86.1787 49.7088 86.2685 49.882 86.2933 49.9723C86.1846 50.0571 85.5683 50.1633 85.3817 50.1728V48.8279ZM84.2011 49.9723C84.2696 49.7241 84.5991 49.2041 84.747 48.9778C84.7648 48.9505 84.7817 48.9306 84.8006 48.9033C84.8239 48.8686 84.8189 48.8562 84.8725 48.8473C84.9494 48.8344 85.0323 48.8289 85.1127 48.8279V50.1728C84.945 50.1643 84.7802 50.1385 84.6249 50.1018C84.537 50.081 84.2542 50.0135 84.2011 49.9723ZM86.5261 49.8735C86.4928 49.746 86.3613 49.4944 86.2998 49.3802C86.2571 49.3018 86.2124 49.2244 86.1678 49.1544L86.0268 48.9396C86.2139 48.9723 86.4933 49.1018 86.6387 49.1862C86.8283 49.2969 86.86 49.3257 87.0174 49.4467C87.0585 49.4785 87.0943 49.5088 87.128 49.546C87.0551 49.609 86.6486 49.8502 86.5261 49.8735ZM83.3664 49.5465C83.3981 49.5098 83.4373 49.477 83.4775 49.4467C83.5187 49.415 83.5559 49.3852 83.5971 49.3534C83.7981 49.1966 84.215 48.9842 84.4681 48.9396C84.4512 48.9773 84.4164 49.017 84.3941 49.0507L84.1921 49.3857L83.9604 49.8735C83.7951 49.8174 83.4745 49.6353 83.3664 49.5465ZM85.0631 48.5555C84.4249 48.5956 83.7386 48.8487 83.2825 49.2517C83.2453 49.285 83.214 49.3137 83.1783 49.3435L83.0344 49.481C83.016 49.5003 83.0036 49.5152 82.9872 49.5361L82.8994 49.6353C82.8726 49.6651 82.8448 49.7043 82.8165 49.7405C82.7644 49.8085 82.7058 49.8894 82.6597 49.9668C82.088 50.9201 82.0428 51.9856 82.5247 52.9935C82.6408 53.2352 82.8488 53.5225 83.0344 53.7196C83.0522 53.7384 83.0666 53.7454 83.0845 53.7632C83.1306 53.8094 83.1058 53.7965 83.1827 53.861C83.2175 53.8893 83.2468 53.9171 83.2825 53.9483C83.8373 54.4357 84.6775 54.6912 85.4363 54.6456C87.0769 54.5458 88.398 53.1757 88.2928 51.4114C88.2645 50.94 88.1478 50.5777 87.9702 50.207C87.8541 49.9648 87.6466 49.678 87.4605 49.481C87.4427 49.4621 87.4283 49.4552 87.4104 49.4373C87.3925 49.4189 87.3861 49.4051 87.3667 49.3872C86.7509 48.8115 85.9355 48.5004 85.0631 48.5555Z" fill="#FEFEFE"/>
<path id="Vector_45" fill-rule="evenodd" clip-rule="evenodd" d="M15.4263 54.2525L15.5683 54.0382C15.7112 53.8039 15.7941 53.6387 15.8948 53.3846L15.9147 53.3355C15.9251 53.3156 15.9191 53.3265 15.9261 53.3176C16.0948 53.3776 16.4228 53.5622 16.5281 53.6541C16.4367 53.7583 16.1638 53.9464 16.0442 54.0109C15.8854 54.0972 15.6293 54.2198 15.4263 54.2525ZM12.7664 53.6541C12.8746 53.5613 13.1981 53.3781 13.3693 53.3176L13.3976 53.3786C13.4547 53.525 13.5207 53.667 13.5922 53.8064C13.6453 53.9101 13.7281 54.0446 13.7946 54.1404C13.816 54.1717 13.8532 54.2188 13.8686 54.2525C13.674 54.2213 13.4105 54.1002 13.2572 54.0133C13.0552 53.8997 13.0289 53.8699 12.8775 53.7538C12.8378 53.7235 12.7972 53.6903 12.7664 53.6541ZM14.7817 54.3726V53.0273C14.948 53.0372 15.1092 53.0615 15.2661 53.0958C15.3455 53.1131 15.6392 53.1816 15.6849 53.2193C15.6417 53.3652 15.4328 53.7732 15.3514 53.9062L15.0993 54.2937C15.0775 54.3245 15.074 54.3424 15.0303 54.3513C14.9569 54.3672 14.8591 54.3717 14.7817 54.3726ZM13.61 53.2193C13.6547 53.1826 13.95 53.1131 14.0289 53.0958C14.1857 53.0615 14.347 53.0372 14.5127 53.0273V54.3726C14.4323 54.3712 14.3495 54.3662 14.2725 54.3533C14.216 54.3434 14.1951 54.2982 14.1455 54.2243C13.9862 53.9861 13.6879 53.4828 13.61 53.2193ZM13.5147 52.998C13.4884 52.9052 13.4478 52.8074 13.418 52.7107C13.3217 52.3965 13.2532 52.068 13.2388 51.735H14.5127L14.5112 52.7494C14.2581 52.7628 13.9748 52.8322 13.7381 52.9146C13.6711 52.9379 13.5733 52.9846 13.5147 52.998ZM16.7186 53.463C16.4844 53.3221 16.4571 53.3007 16.208 53.1757C16.1439 53.1434 16.0824 53.1211 16.0219 53.0898C16.0799 52.8824 16.1494 52.7543 16.2189 52.4635C16.274 52.2318 16.3176 51.9871 16.3251 51.735H17.4119C17.3901 52.3002 17.1935 52.869 16.8586 53.3002C16.8159 53.3553 16.7668 53.4223 16.7186 53.463ZM11.884 51.735H12.9644C12.9813 52.0943 13.0607 52.4481 13.1664 52.7831C13.1991 52.8853 13.2448 52.9925 13.2731 53.0893L12.9108 53.2635C12.7917 53.3221 12.6771 53.398 12.5768 53.463C12.418 53.3374 12.1833 52.9107 12.1044 52.729C11.9778 52.4382 11.8984 52.0898 11.884 51.735ZM14.7817 51.735H16.0556C16.0462 51.9707 16.009 52.1965 15.9569 52.4164C15.933 52.5191 15.9047 52.6174 15.875 52.7166L15.8025 52.934C15.7985 52.9459 15.7936 52.9613 15.7886 52.9717C15.7787 52.993 15.7861 52.9826 15.7722 52.997C15.4259 52.8749 15.1842 52.7717 14.7832 52.7494L14.7817 52.7166V51.735ZM14.7837 50.4512C14.9693 50.4403 15.145 50.406 15.3162 50.3599C15.3996 50.337 15.477 50.3137 15.5574 50.2859C15.6244 50.2621 15.7211 50.215 15.7807 50.2025C15.805 50.2924 15.8482 50.3931 15.8784 50.4889C15.9757 50.7971 16.0437 51.1365 16.0536 51.4655H14.7817L14.7837 50.4512ZM13.2388 51.4655C13.2542 51.1137 13.3187 50.8164 13.4165 50.4884C13.4463 50.3896 13.4875 50.2968 13.5147 50.2025C13.5753 50.2164 13.677 50.2651 13.744 50.2879C13.9867 50.3708 14.2502 50.4358 14.5127 50.4512L14.5068 51.4655H13.2388ZM16.0219 50.1107C16.0844 50.0795 16.1434 50.0571 16.208 50.0249C16.4511 49.9028 16.4859 49.881 16.7186 49.7375C16.7871 49.7951 16.9275 49.9887 16.9816 50.0755C17.0596 50.2006 17.1265 50.3236 17.1906 50.4715C17.3171 50.7638 17.398 51.1097 17.4109 51.4655H16.3251C16.3102 51.1127 16.2243 50.745 16.1236 50.414C16.0928 50.3137 16.0462 50.2045 16.0219 50.1107ZM11.884 51.4655C11.8984 51.1107 11.9778 50.7623 12.1044 50.4715C12.1818 50.2924 12.4195 49.8606 12.5768 49.7375C12.6771 49.8026 12.7917 49.8785 12.9108 49.937L13.2731 50.1107C13.2468 50.208 13.2016 50.3172 13.1693 50.4204C13.1356 50.5266 13.1063 50.6388 13.0795 50.7479C13.0239 50.9723 12.9808 51.2239 12.9689 51.4655H11.884ZM14.7817 48.8279C14.8586 48.8289 14.9579 48.8334 15.0303 48.8487C15.0715 48.8577 15.0755 48.8731 15.0988 48.9078C15.278 49.1733 15.3812 49.3222 15.5345 49.6224C15.5787 49.7088 15.6685 49.882 15.6933 49.9723C15.5847 50.0571 14.9683 50.1633 14.7817 50.1728V48.8279ZM13.6011 49.9723C13.6701 49.7241 13.9991 49.2041 14.147 48.9778C14.1649 48.9505 14.1817 48.9306 14.2006 48.9033C14.2244 48.8686 14.2194 48.8562 14.2725 48.8473C14.3495 48.8344 14.4323 48.8289 14.5127 48.8279V50.1728C14.345 50.1643 14.1807 50.1385 14.0249 50.1018C13.9376 50.081 13.6542 50.0135 13.6011 49.9723ZM15.9261 49.8735C15.8928 49.746 15.7613 49.4944 15.6998 49.3802C15.6571 49.3018 15.6124 49.2244 15.5678 49.1544L15.4268 48.9396C15.6139 48.9723 15.8933 49.1018 16.0387 49.1862C16.2283 49.2969 16.2601 49.3257 16.4174 49.4467C16.4586 49.4785 16.4943 49.5088 16.5281 49.546C16.4551 49.609 16.0487 49.8502 15.9261 49.8735ZM12.7664 49.5465C12.7981 49.5098 12.8373 49.477 12.8775 49.4467C12.9187 49.415 12.956 49.3852 12.9971 49.3534C13.1981 49.1966 13.615 48.9842 13.8681 48.9396C13.8512 48.9773 13.817 49.017 13.7941 49.0507L13.5922 49.3857L13.3609 49.8735C13.1952 49.8174 12.8746 49.6353 12.7664 49.5465ZM14.4631 48.5555C13.8249 48.5956 13.1386 48.8487 12.6825 49.2517C12.6453 49.285 12.614 49.3137 12.5783 49.3435L12.4344 49.481C12.4165 49.5003 12.4036 49.5152 12.3872 49.5361L12.2994 49.6353C12.2731 49.6651 12.2448 49.7043 12.217 49.7405C12.1644 49.8085 12.1059 49.8894 12.0597 49.9668C11.488 50.9201 11.4429 51.9856 11.9247 52.9935C12.0408 53.2352 12.2488 53.5225 12.4344 53.7196C12.4522 53.7384 12.4666 53.7454 12.4845 53.7632C12.5307 53.8094 12.5058 53.7965 12.5833 53.861C12.6175 53.8893 12.6468 53.9171 12.6825 53.9483C13.2378 54.4357 14.0775 54.6912 14.8363 54.6456C16.4769 54.5458 17.7985 53.1757 17.6928 51.4114C17.6645 50.94 17.5479 50.5777 17.3702 50.207C17.2541 49.9648 17.0466 49.678 16.8605 49.481C16.8427 49.4621 16.8283 49.4552 16.8104 49.4373C16.7926 49.4189 16.7861 49.4051 16.7668 49.3872C16.1509 48.8115 15.3355 48.5004 14.4631 48.5555Z" fill="#FEFEFE"/>
<g id="_2300404909712">
<path id="Vector_46" fill-rule="evenodd" clip-rule="evenodd" d="M24.2896 22.5254L27.1148 22.4991L27.0885 25.3501H24.3159L24.2896 22.5254Z" stroke="#FEFEFE" stroke-width="0.466772" stroke-miterlimit="22.9256"/>
<path id="Vector_47" fill-rule="evenodd" clip-rule="evenodd" d="M24.3031 23.9378L22.8515 23.9839L20.791 26.3446L21.3831 29.2056L24.2599 28.8111L25.8673 26.8459L25.7025 23.9249L24.3031 23.9378Z" stroke="#FEFEFE" stroke-width="0.466772" stroke-miterlimit="22.9256"/>
<path id="Vector_48" fill-rule="evenodd" clip-rule="evenodd" d="M24.3159 25.35L23.2479 25.5391L22.45 26.5058L22.5006 27.5391L23.6107 27.413L24.2956 26.4597L24.3159 25.35Z" stroke="#FEFEFE" stroke-width="0.466772" stroke-miterlimit="22.9256"/>
<path id="Vector_49" fill-rule="evenodd" clip-rule="evenodd" d="M20.014 29.4964L18.6006 29.8304L17.0508 32.5534L18.1996 35.2392L21.003 34.1628L22.1251 32.0353L21.3827 29.2056L20.014 29.4964Z" stroke="#FEFEFE" stroke-width="0.466772" stroke-miterlimit="22.9256"/>
<path id="Vector_50" fill-rule="evenodd" clip-rule="evenodd" d="M19.7314 28.0987L22.5006 27.5385L23.0559 30.2069L20.2912 30.8674L19.7314 28.0987Z" stroke="#FEFEFE" stroke-width="0.466772" stroke-miterlimit="22.9256"/>
<path id="Vector_51" fill-rule="evenodd" clip-rule="evenodd" d="M20.323 30.8704L19.3578 31.2396L18.6829 32.5606L18.9394 33.4931L19.9424 33.2241L20.5637 31.9537L20.323 30.8704Z" stroke="#FEFEFE" stroke-width="0.466772" stroke-miterlimit="22.9256"/>
<path id="Vector_52" fill-rule="evenodd" clip-rule="evenodd" d="M17.4166 37.1826L16.3502 37.5667L15.9283 39.1002L16.4668 39.8669L17.4871 39.5344L18.0027 38.1558L17.4166 37.1826Z" stroke="#FEFEFE" stroke-width="0.466772" stroke-miterlimit="22.9256"/>
<path id="Vector_53" fill-rule="evenodd" clip-rule="evenodd" d="M16.3318 34.5802L18.9392 33.4933L20.1103 36.0491L17.4186 37.1875L16.3318 34.5802Z" stroke="#FEFEFE" stroke-width="0.466772" stroke-miterlimit="22.9256"/>
<path id="Vector_54" fill-rule="evenodd" clip-rule="evenodd" d="M16.913 35.7894L15.5909 36.3909L14.4073 39.5278L16.2515 41.8542L18.7477 40.3044L19.4757 37.8722L18.1998 35.2396L16.913 35.7894Z" stroke="#FEFEFE" stroke-width="0.466772" stroke-miterlimit="22.9256"/>
<path id="Vector_55" fill-rule="evenodd" clip-rule="evenodd" d="M14.2761 41.6507L16.4666 39.8666L18.2259 42.1102L16.0602 43.8412L14.2761 41.6507Z" stroke="#FEFEFE" stroke-width="0.466772" stroke-miterlimit="22.9256"/>
</g>
<g id="_2300404907600">
<path id="Vector_56" fill-rule="evenodd" clip-rule="evenodd" d="M75.9252 22.5254L73.1 22.4991L73.1263 25.3501H75.8989L75.9252 22.5254Z" stroke="#FEFEFE" stroke-width="0.466772" stroke-miterlimit="22.9256"/>
<path id="Vector_57" fill-rule="evenodd" clip-rule="evenodd" d="M75.9124 23.9378L77.3639 23.9839L79.4244 26.3446L78.8324 29.2056L75.9555 28.8111L74.3481 26.8459L74.5129 23.9249L75.9124 23.9378Z" stroke="#FEFEFE" stroke-width="0.466772" stroke-miterlimit="22.9256"/>
<path id="Vector_58" fill-rule="evenodd" clip-rule="evenodd" d="M75.899 25.35L76.967 25.5391L77.765 26.5058L77.7144 27.5391L76.6042 27.413L75.9194 26.4597L75.899 25.35Z" stroke="#FEFEFE" stroke-width="0.466772" stroke-miterlimit="22.9256"/>
<path id="Vector_59" fill-rule="evenodd" clip-rule="evenodd" d="M80.2007 29.4964L81.6141 29.8304L83.1639 32.5534L82.015 35.2392L79.2116 34.1628L78.0896 32.0353L78.832 29.2056L80.2007 29.4964Z" stroke="#FEFEFE" stroke-width="0.466772" stroke-miterlimit="22.9256"/>
<path id="Vector_60" fill-rule="evenodd" clip-rule="evenodd" d="M80.4839 28.0987L77.7147 27.5385L77.1594 30.2069L79.9241 30.8674L80.4839 28.0987Z" stroke="#FEFEFE" stroke-width="0.466772" stroke-miterlimit="22.9256"/>
<path id="Vector_61" fill-rule="evenodd" clip-rule="evenodd" d="M79.8916 30.8704L80.8568 31.2396L81.5317 32.5606L81.2751 33.4931L80.2722 33.2241L79.6509 31.9537L79.8916 30.8704Z" stroke="#FEFEFE" stroke-width="0.466772" stroke-miterlimit="22.9256"/>
<path id="Vector_62" fill-rule="evenodd" clip-rule="evenodd" d="M82.798 37.1826L83.8645 37.5667L84.2863 39.1002L83.7479 39.8669L82.7275 39.5344L82.2119 38.1558L82.798 37.1826Z" stroke="#FEFEFE" stroke-width="0.466772" stroke-miterlimit="22.9256"/>
<path id="Vector_63" fill-rule="evenodd" clip-rule="evenodd" d="M83.8829 34.5802L81.2755 33.4933L80.1044 36.0491L82.7961 37.1875L83.8829 34.5802Z" stroke="#FEFEFE" stroke-width="0.466772" stroke-miterlimit="22.9256"/>
<path id="Vector_64" fill-rule="evenodd" clip-rule="evenodd" d="M83.3018 35.7894L84.6239 36.3909L85.8075 39.5278L83.9634 41.8542L81.4671 40.3044L80.7391 37.8722L82.015 35.2396L83.3018 35.7894Z" stroke="#FEFEFE" stroke-width="0.466772" stroke-miterlimit="22.9256"/>
<path id="Vector_65" fill-rule="evenodd" clip-rule="evenodd" d="M85.9389 41.6507L83.7484 39.8666L81.9891 42.1102L84.1548 43.8412L85.9389 41.6507Z" stroke="#FEFEFE" stroke-width="0.466772" stroke-miterlimit="22.9256"/>
</g>
<path id="Vector_66" fill-rule="evenodd" clip-rule="evenodd" d="M48.4556 40.6549C48.7608 40.3382 49.2695 40.3293 49.5856 40.6345L50.8084 41.8141C51.1245 42.1193 51.1335 42.628 50.8282 42.9441C50.523 43.2607 50.0144 43.2697 49.6983 42.9645L48.4755 41.7849C48.1593 41.4796 48.1504 40.971 48.4556 40.6549Z" fill="#FEFEFE"/>
<path id="Vector_67" d="M48.1504 41.5848C47.6886 41.1393 47.0658 41.0357 46.7593 41.3535C46.4527 41.6712 46.5785 42.2899 47.0403 42.7354L48.3181 43.9682C48.7798 44.4137 49.4026 44.5173 49.7092 44.1996C50.0157 43.8819 49.8899 43.2632 49.4282 42.8177L48.1504 41.5848Z" fill="#FEFEFE"/>
<path id="Vector_68" fill-rule="evenodd" clip-rule="evenodd" d="M45.7157 42.7044C46.0209 42.3878 46.5296 42.3789 46.8462 42.6841L48.4938 44.2741C48.8104 44.5793 48.8193 45.088 48.5141 45.4041C48.2089 45.7207 47.7002 45.7296 47.3836 45.4244L45.736 43.8349C45.4194 43.5292 45.4105 43.021 45.7157 42.7044Z" fill="#FEFEFE"/>
<path id="Vector_69" fill-rule="evenodd" clip-rule="evenodd" d="M44.7977 44.1768C45.1029 43.8606 45.6116 43.8517 45.9282 44.1569L47.3565 45.535C47.6731 45.8402 47.682 46.3489 47.3768 46.6655C47.0716 46.9816 46.5629 46.9911 46.2463 46.6854L44.8181 45.3072C44.5015 45.002 44.4925 44.4934 44.7977 44.1768Z" fill="#FEFEFE"/>
<path id="Vector_70" fill-rule="evenodd" clip-rule="evenodd" d="M61.3568 51.6654C61.129 51.4584 60.5881 51.0162 60.144 50.5979C60.87 47.863 61.0427 44.8661 60.9161 41.4314C56.2523 40.7332 53.0921 39.7828 50.0202 37.6201C46.9483 39.7828 43.7876 40.7332 39.1243 41.4314C38.9724 45.5395 39.2493 49.0203 40.3997 52.182C41.3584 51.2798 42.3063 50.3731 43.2542 49.4664C43.9385 48.7687 44.2045 47.993 44.1608 47.1608C44.0164 46.3281 44.0794 45.5946 44.4834 45.0244C46.5409 43.8165 49.7934 41.159 50.6549 41.4007C51.3815 41.9525 52.0782 42.5545 52.7809 43.1371C53.3462 44.1862 53.9119 45.2348 54.4776 46.2834C54.4479 46.9548 54.4186 47.6268 54.3893 48.2982C53.5938 49.3175 52.7983 50.3369 52.0028 51.3562C51.5492 51.4212 51.0956 51.4857 50.642 51.5507C50.5482 51.5299 50.4544 51.5095 50.3606 51.4892C50.0361 51.7408 49.7115 51.7462 49.3319 51.7924C48.5508 51.8286 48.0798 51.8842 47.4689 52.5834C46.7608 53.4008 43.1509 57.3535 42.2785 58.4011C38.1759 53.1849 37.2251 47.5355 37.499 40.1094C42.8581 39.3069 46.4903 38.2147 50.0202 35.7294C53.5501 38.2147 57.1823 39.3069 62.5414 40.1094C62.7027 44.4889 62.4407 48.2481 61.3568 51.6654Z" stroke="#FEFEFE" stroke-width="0.466772" stroke-miterlimit="22.9256"/>
<path id="Vector_71" fill-rule="evenodd" clip-rule="evenodd" d="M42.8241 59.0706C43.3134 58.4687 43.296 58.5327 43.7705 57.9451C44.2732 58.5401 44.8096 59.1113 45.4146 59.6979C46.2141 60.4731 49.149 62.9241 50.0199 62.9683C50.8908 62.9241 53.8257 60.4731 54.6252 59.6979C55.6694 58.6855 56.5557 57.6647 57.2857 56.6459C56.2738 55.5953 54.5046 53.7472 53.5101 52.6718C52.9851 51.9433 52.1474 52.2947 51.466 52.1061C51.0477 51.9716 50.672 51.8297 50.3603 51.4892C52.0367 50.4317 53.5617 48.992 54.0664 47.271C54.3979 46.139 52.8605 45.0259 52.5419 44.2894C51.9985 42.893 52.9732 42.2066 53.4749 42.6567C54.325 43.4399 55.0992 44.2572 56.0252 45.0061C57.3691 46.2894 56.7363 47.21 57.0073 48.2625C57.2638 48.9796 57.5621 49.3295 57.9993 49.7935C58.9343 50.7632 60.1456 51.7637 61.0047 52.6847C59.8762 55.6906 58.0752 58.4215 55.312 61.1003C54.3935 61.9916 51.0204 64.8079 50.0199 64.859C49.0194 64.8079 45.6463 61.9916 44.7278 61.1003C43.9804 60.3758 43.4345 59.8041 42.8241 59.0706Z" fill="#FEFEFE"/>
</g>
</svg>
