<svg width="210" height="64" viewBox="0 0 210 64" fill="none" xmlns="http://www.w3.org/2000/svg">
<g id="&#208;&#161;&#208;&#187;&#208;&#190;&#208;&#185;_x0020_1">
<path id="Vector" d="M193.957 0H143.796C135.283 0 128.381 6.85034 128.381 15.3007V47.8235C128.381 56.2738 135.283 63.1242 143.796 63.1242H193.957C202.471 63.1242 209.372 56.2738 209.372 47.8235V15.3007C209.372 6.85034 202.471 0 193.957 0Z" fill="#2C675B"/>
<path id="Vector_2" d="M154.926 13.9186H144.693V49.2863H154.926V13.9186Z" fill="#FEFEFE"/>
<path id="Vector_3" fill-rule="evenodd" clip-rule="evenodd" d="M160.56 14.0103V48.8092C166.707 48.8092 172.854 48.8092 179.001 48.8092C188.519 47.5957 193.567 38.2249 192.602 29.7143C191.745 22.1505 185.813 15.3532 179.001 14.223L160.56 14.0103ZM174.758 32.7946C170.644 30.0144 169.811 22.4748 176.612 22.1057C182.344 21.9272 183.552 28.5369 179.046 32.6419C178.738 33.1645 178.81 33.9545 179.144 34.1748C180.879 35.0244 182.615 35.8737 184.35 36.7233C185.301 37.241 185.114 37.9381 184.279 38.5993C182.317 40.0387 179.477 42.9328 178.395 42.9173C174.734 42.9173 171.073 42.9173 167.412 42.9173C166.453 42.0251 166.614 39.0005 167.947 37.7143C170.158 35.3393 172.352 35.1833 174.678 34.2984C174.926 34.0733 175.039 32.9399 174.758 32.7946Z" fill="#FEFEFE"/>
<path id="Vector_4" fill-rule="evenodd" clip-rule="evenodd" d="M19.1527 13.1982C24.6826 13.1982 29.285 14.9352 32.9597 18.4178C36.6433 21.8919 38.4807 26.2603 38.4807 31.4973C38.4807 36.7428 36.6258 41.0853 32.916 44.5157C29.1973 47.9549 24.5163 49.6744 18.8727 49.6744C13.4743 49.6744 8.98587 47.9549 5.38974 44.5157C1.79361 41.0853 0 36.7777 0 31.6015C0 26.2863 1.81116 21.8919 5.42457 18.4178C9.04689 14.9352 13.6231 13.1982 19.1527 13.1982ZM19.3452 18.0445C15.2504 18.0445 11.8905 19.3124 9.25695 21.8571C6.62337 24.4017 5.30226 27.6499 5.30226 31.6015C5.30226 35.4401 6.62337 38.6274 9.26586 41.1721C11.9081 43.7167 15.2156 44.9847 19.1878 44.9847C23.1776 44.9847 26.5113 43.6907 29.18 41.0938C31.8484 38.4972 33.1784 35.2664 33.1784 31.4016C33.1784 27.6325 31.8484 24.4711 29.18 21.9005C26.5113 19.3298 23.2303 18.0445 19.3452 18.0445ZM73.2429 13.7195H78.1253V49.2576H73.7068L49.7764 21.8919V49.2576H44.9466V13.7195H49.1114L73.2429 41.3198V13.7195ZM85.7812 13.7195H110.429V18.253H90.9257V29.0914H109.904V33.6249H90.9257V44.7242H110.901V49.2576H85.7812V13.7195Z" fill="#2C675B"/>
</g>
</svg>
