<svg width="13" height="13" viewBox="0 0 13 13" fill="none" xmlns="http://www.w3.org/2000/svg">
<g id="&#208;&#161;&#208;&#187;&#208;&#190;&#208;&#185;_x0020_1">
<path id="Vector" fill-rule="evenodd" clip-rule="evenodd" d="M1.00136 2.18554C0.987751 1.75845 1.07241 1.67152 1.43714 1.51694C2.12539 1.36198 2.81289 1.20664 3.50152 1.05168C4.08999 0.930355 4.35644 0.991583 4.69282 1.57476C5.01295 2.27284 5.33232 2.97017 5.65207 3.66787C5.7492 4.05527 5.72917 4.25936 5.36142 4.65659C5.14826 4.84028 4.93509 5.02472 4.72192 5.20878C4.40671 5.48355 4.299 5.83732 4.58662 6.21036C5.27449 6.96777 6.22542 8.06346 7.04785 8.55177C7.51424 8.79895 7.95871 8.95165 8.27014 8.75171C8.85144 8.2101 9.10504 7.42245 9.86737 7.82497C10.4199 8.05741 10.9718 8.29023 11.5243 8.52229C11.9624 8.78686 12.3222 8.92859 12.3384 9.48191C12.2798 10.1698 12.2216 10.8577 12.1642 11.5455C12.0285 12.0422 11.5387 12.3717 11.0591 12.3014C4.96835 11.7167 1.43449 8.52947 1.00136 2.18554Z" stroke="#FEFEFE" stroke-width="1.00006" stroke-miterlimit="22.9256"/>
</g>
</svg>
