<svg width="16" height="16" viewBox="0 0 16 16" fill="none" xmlns="http://www.w3.org/2000/svg">
<g id="delete 1">
<g id="&#208;&#161;&#208;&#187;&#208;&#190;&#208;&#185;_x0020_1">
<path id="Vector" d="M11.064 4.0675H3.89011C3.66279 4.0675 3.47852 4.25178 3.47852 4.4791V13.0284C3.47852 13.2557 3.66279 13.44 3.89011 13.44H11.064C11.2913 13.44 11.4756 13.2557 11.4756 13.0284V4.4791C11.4756 4.25178 11.2913 4.0675 11.064 4.0675Z" stroke="#88A6A0" stroke-width="1.00006" stroke-miterlimit="22.9256"/>
<path id="Vector_2" d="M9.28658 6.3905H5.66843C5.55384 6.3905 5.46094 6.4834 5.46094 6.598V10.9101C5.46094 11.0247 5.55384 11.1176 5.66843 11.1176H9.28658C9.40117 11.1176 9.49407 11.0247 9.49407 10.9101V6.598C9.49407 6.4834 9.40117 6.3905 9.28658 6.3905Z" stroke="#88A6A0" stroke-width="1.00006" stroke-miterlimit="22.9256"/>
<path id="Vector_3" d="M9.85156 3.07349H5.10258C3.65874 3.07349 2.48828 3.21783 2.48828 3.39588V4.19298C2.48828 4.37104 3.65874 4.51538 5.10258 4.51538H9.85156C11.2954 4.51538 12.4659 4.37104 12.4659 4.19298V3.39588C12.4659 3.21783 11.2954 3.07349 9.85156 3.07349Z" fill="#FEFEFE" stroke="#88A6A0" stroke-width="1.00006" stroke-miterlimit="22.9256"/>
<path id="Vector_4" d="M8.24124 1.677H6.71279C6.24794 1.677 5.87109 1.81677 5.87109 1.98919V2.76135C5.87109 2.93377 6.24794 3.07354 6.71279 3.07354H8.24124C8.70609 3.07354 9.08294 2.93377 9.08294 2.76135V1.98919C9.08294 1.81677 8.70609 1.677 8.24124 1.677Z" fill="#FEFEFE" stroke="#88A6A0" stroke-width="1.00006" stroke-miterlimit="22.9256"/>
</g>
</g>
</svg>
