<svg width="358" height="358" viewBox="0 0 358 358" fill="none" xmlns="http://www.w3.org/2000/svg">
<g filter="url(#filter0_d_26_20053)">
<path d="M161.08 340.081C250.043 349.977 330.184 285.882 340.08 196.919C349.977 107.957 285.881 27.8156 196.919 17.9192C107.956 8.02268 27.8152 72.1184 17.9187 161.081C8.02225 250.043 72.1179 330.184 161.08 340.081Z" stroke="white" stroke-width="0.855583" stroke-miterlimit="22.9256" stroke-linecap="round"/>
<path d="M179.001 290.496C240.578 290.496 290.496 240.578 290.496 179C290.496 117.423 240.578 67.5044 179.001 67.5044C117.423 67.5044 67.5049 117.423 67.5049 179C67.5049 240.578 117.423 290.496 179.001 290.496Z" stroke="white" stroke-miterlimit="22.9256" stroke-linecap="round"/>
<path d="M124.241 174.586C125.392 180.14 126.93 185.483 128.921 190.665M138.587 197.466C140.334 200.699 141.391 202.471 143.716 205.521C146.893 209.69 138.846 210.489 142.642 214.99C146.35 219.386 150.16 224.046 154.758 228.504C158.978 232.597 174.471 245.533 179.067 245.769M179.067 111.968C171.519 117.284 163.868 121.212 155.363 124.264M140.619 128.546C134.782 129.906 128.482 131.05 121.554 132.087C121.309 138.741 121.277 145.084 121.523 151.16C121.664 154.669 128.101 153.878 128.442 157.218C128.548 158.251 128.62 160.425 128.636 163.638" stroke="white" stroke-miterlimit="22.9256"/>
<path d="M233.894 174.586C232.743 180.14 231.205 185.483 229.214 190.665M219.547 197.466C217.801 200.699 216.744 202.471 214.419 205.521C211.241 209.69 219.289 210.489 215.493 214.99C211.785 219.386 207.975 224.046 203.377 228.504C199.156 232.597 183.663 245.533 179.067 245.769M179.067 111.968C186.616 117.284 194.267 121.212 202.771 124.264M217.516 128.546C223.353 129.906 229.653 131.05 236.581 132.087C236.826 138.741 236.858 145.084 236.612 151.16C236.47 154.669 230.033 153.878 229.693 157.218C229.587 158.251 229.515 160.425 229.498 163.638" stroke="white" stroke-miterlimit="22.9256"/>
<path d="M179.066 248.035C180.318 248.035 181.333 247.02 181.333 245.768C181.333 244.516 180.318 243.501 179.066 243.501C177.814 243.501 176.799 244.516 176.799 245.768C176.799 247.02 177.814 248.035 179.066 248.035Z" fill="white" stroke="white" stroke-width="0.333354" stroke-miterlimit="22.9256"/>
<path d="M140.619 130.813C141.871 130.813 142.886 129.798 142.886 128.546C142.886 127.294 141.871 126.279 140.619 126.279C139.367 126.279 138.352 127.294 138.352 128.546C138.352 129.798 139.367 130.813 140.619 130.813Z" fill="white" stroke="white" stroke-width="0.333354" stroke-miterlimit="22.9256"/>
<path d="M128.635 165.905C129.888 165.905 130.903 164.89 130.903 163.638C130.903 162.386 129.888 161.371 128.635 161.371C127.383 161.371 126.368 162.386 126.368 163.638C126.368 164.89 127.383 165.905 128.635 165.905Z" fill="white" stroke="white" stroke-width="0.333354" stroke-miterlimit="22.9256"/>
<path d="M124.232 176.809C125.484 176.809 126.499 175.794 126.499 174.542C126.499 173.29 125.484 172.275 124.232 172.275C122.98 172.275 121.965 173.29 121.965 174.542C121.965 175.794 122.98 176.809 124.232 176.809Z" fill="white" stroke="white" stroke-width="0.333354" stroke-miterlimit="22.9256"/>
<path d="M139.531 201.454C140.783 201.454 141.798 200.439 141.798 199.187C141.798 197.935 140.783 196.92 139.531 196.92C138.279 196.92 137.264 197.935 137.264 199.187C137.264 200.439 138.279 201.454 139.531 201.454Z" fill="white" stroke="white" stroke-width="0.333354" stroke-miterlimit="22.9256"/>
<path d="M128.809 192.642C130.061 192.642 131.076 191.627 131.076 190.375C131.076 189.123 130.061 188.107 128.809 188.107C127.557 188.107 126.542 189.123 126.542 190.375C126.542 191.627 127.557 192.642 128.809 192.642Z" fill="white" stroke="white" stroke-width="0.333354" stroke-miterlimit="22.9256"/>
<path d="M157.84 233.574C159.093 233.574 160.108 232.559 160.108 231.307C160.108 230.055 159.093 229.04 157.84 229.04C156.588 229.04 155.573 230.055 155.573 231.307C155.573 232.559 156.588 233.574 157.84 233.574Z" fill="white" stroke="white" stroke-width="0.333354" stroke-miterlimit="22.9256"/>
<path d="M155.363 126.531C156.615 126.531 157.63 125.516 157.63 124.264C157.63 123.012 156.615 121.997 155.363 121.997C154.111 121.997 153.096 123.012 153.096 124.264C153.096 125.516 154.111 126.531 155.363 126.531Z" fill="white" stroke="white" stroke-width="0.333354" stroke-miterlimit="22.9256"/>
<path d="M179.066 114.236C180.318 114.236 181.333 113.221 181.333 111.968C181.333 110.716 180.318 109.701 179.066 109.701C177.814 109.701 176.799 110.716 176.799 111.968C176.799 113.221 177.814 114.236 179.066 114.236Z" fill="white" stroke="white" stroke-width="0.333354" stroke-miterlimit="22.9256"/>
<path d="M217.515 130.813C218.767 130.813 219.783 129.798 219.783 128.546C219.783 127.293 218.767 126.278 217.515 126.278C216.263 126.278 215.248 127.293 215.248 128.546C215.248 129.798 216.263 130.813 217.515 130.813Z" fill="white" stroke="white" stroke-width="0.333354" stroke-miterlimit="22.9256"/>
<path d="M229.499 165.904C230.751 165.904 231.766 164.889 231.766 163.637C231.766 162.385 230.751 161.37 229.499 161.37C228.247 161.37 227.231 162.385 227.231 163.637C227.231 164.889 228.247 165.904 229.499 165.904Z" fill="white" stroke="white" stroke-width="0.333354" stroke-miterlimit="22.9256"/>
<path d="M233.902 176.809C235.154 176.809 236.169 175.794 236.169 174.542C236.169 173.289 235.154 172.274 233.902 172.274C232.65 172.274 231.635 173.289 231.635 174.542C231.635 175.794 232.65 176.809 233.902 176.809Z" fill="white" stroke="white" stroke-width="0.333354" stroke-miterlimit="22.9256"/>
<path d="M218.604 201.454C219.856 201.454 220.871 200.439 220.871 199.187C220.871 197.934 219.856 196.919 218.604 196.919C217.352 196.919 216.337 197.934 216.337 199.187C216.337 200.439 217.352 201.454 218.604 201.454Z" fill="white" stroke="white" stroke-width="0.333354" stroke-miterlimit="22.9256"/>
<path d="M229.325 192.641C230.577 192.641 231.592 191.626 231.592 190.374C231.592 189.122 230.577 188.106 229.325 188.106C228.073 188.106 227.058 189.122 227.058 190.374C227.058 191.626 228.073 192.641 229.325 192.641Z" fill="white" stroke="white" stroke-width="0.333354" stroke-miterlimit="22.9256"/>
<path d="M200.294 233.574C201.546 233.574 202.561 232.559 202.561 231.307C202.561 230.055 201.546 229.04 200.294 229.04C199.041 229.04 198.026 230.055 198.026 231.307C198.026 232.559 199.041 233.574 200.294 233.574Z" fill="white" stroke="white" stroke-width="0.333354" stroke-miterlimit="22.9256"/>
<path d="M202.772 126.531C204.024 126.531 205.039 125.515 205.039 124.263C205.039 123.011 204.024 121.996 202.772 121.996C201.52 121.996 200.505 123.011 200.505 124.263C200.505 125.515 201.52 126.531 202.772 126.531Z" fill="white" stroke="white" stroke-width="0.333354" stroke-miterlimit="22.9256"/>
<path d="M178.19 99.9776C184.184 99.9776 189.043 95.1186 189.043 89.1248C189.043 83.1309 184.184 78.272 178.19 78.272C172.196 78.272 167.337 83.1309 167.337 89.1248C167.337 95.1186 172.196 99.9776 178.19 99.9776Z" fill="white"/>
<path d="M101.237 141.03C107.23 141.03 112.089 136.171 112.089 130.177C112.089 124.183 107.23 119.324 101.237 119.324C95.2427 119.324 90.3838 124.183 90.3838 130.177C90.3838 136.171 95.2427 141.03 101.237 141.03Z" fill="white"/>
<path d="M96.2747 233.124C102.268 233.124 107.127 228.265 107.127 222.271C107.127 216.277 102.268 211.418 96.2747 211.418C90.2808 211.418 85.4219 216.277 85.4219 222.271C85.4219 228.265 90.2808 233.124 96.2747 233.124Z" fill="white"/>
<path d="M153.419 94.5527L171.254 87.1685" stroke="white" stroke-width="3" stroke-miterlimit="22.9256" stroke-linecap="round"/>
<path d="M90.9199 155.301L94.12 136.265" stroke="white" stroke-width="3" stroke-miterlimit="22.9256" stroke-linecap="round"/>
<path d="M120.672 109.553L104.953 120.756" stroke="white" stroke-width="3" stroke-miterlimit="22.9256" stroke-linecap="round"/>
<path d="M89.3555 196.202L91.0458 215.43" stroke="white" stroke-width="3" stroke-miterlimit="22.9256" stroke-linecap="round"/>
<path d="M115.522 244.783L100.733 232.377" stroke="white" stroke-width="3" stroke-miterlimit="22.9256" stroke-linecap="round"/>
<path d="M149.977 263.314L167.811 270.699" stroke="white" stroke-width="3" stroke-miterlimit="22.9256" stroke-linecap="round"/>
<path d="M202.96 94.5527L185.125 87.1685" stroke="white" stroke-width="3" stroke-miterlimit="22.9256" stroke-linecap="round"/>
<path d="M265.665 157.462L262.466 138.426" stroke="white" stroke-width="3" stroke-miterlimit="22.9256" stroke-linecap="round"/>
<path d="M235.83 108.73L251.549 119.933" stroke="white" stroke-width="3" stroke-miterlimit="22.9256" stroke-linecap="round"/>
<path d="M267.023 196.202L265.333 215.43" stroke="white" stroke-width="3" stroke-miterlimit="22.9256" stroke-linecap="round"/>
<path d="M240.857 244.783L255.645 232.377" stroke="white" stroke-width="3" stroke-miterlimit="22.9256" stroke-linecap="round"/>
<path d="M205.913 264.144L188.078 271.528" stroke="white" stroke-width="3" stroke-miterlimit="22.9256" stroke-linecap="round"/>
<path d="M178.19 280.779C184.184 280.779 189.043 275.92 189.043 269.927C189.043 263.933 184.184 259.074 178.19 259.074C172.196 259.074 167.337 263.933 167.337 269.927C167.337 275.92 172.196 280.779 178.19 280.779Z" fill="white"/>
<path d="M255.142 141.03C261.136 141.03 265.995 136.171 265.995 130.177C265.995 124.183 261.136 119.324 255.142 119.324C249.148 119.324 244.289 124.183 244.289 130.177C244.289 136.171 249.148 141.03 255.142 141.03Z" fill="white"/>
<path d="M260.106 233.124C266.1 233.124 270.959 228.265 270.959 222.271C270.959 216.277 266.1 211.418 260.106 211.418C254.112 211.418 249.253 216.277 249.253 222.271C249.253 228.265 254.112 233.124 260.106 233.124Z" fill="white"/>
<path d="M115.703 83.3785L110.794 75.7074L117.186 71.6163L115.55 69.0595L109.157 73.1505L105.884 68.0359L113.556 63.1267L111.919 60.5698L101.69 67.1157L113.146 85.0152L115.703 83.3785ZM139 71.2378L141.996 69.8828L123.811 54.2285L123.555 78.2224L126.551 76.8669L126.549 71.8712L135.251 67.9357L139 71.2378ZM126.566 68.5315L126.573 60.3371L132.732 65.7428L126.566 68.5315ZM147.516 68.7369L141.73 48.2886L138.809 49.1157L144.595 69.563L147.516 68.7369ZM166.816 64.6863L160.081 58.155C163.042 56.7543 164.34 53.7893 163.757 50.5526C163.045 46.6002 160.031 44.3151 154.585 45.2959L148.111 46.4615L151.877 67.3757L154.865 66.8379L153.564 59.6177L156.833 59.029L163.33 65.3135L166.816 64.6863ZM151.637 48.9111L156.15 48.0987C158.328 47.7065 160.31 48.5388 160.803 51.2776C161.291 53.9849 159.656 55.4359 157.477 55.8285L153.027 56.6297L151.637 48.9111ZM181.113 42.8726L180.882 45.8996L186.432 46.3218L185.05 64.4846L188.076 64.715L189.459 46.5522L195.008 46.9744L195.239 43.9479L181.113 42.8726ZM213.1 50.4985L213.783 47.5406L201.951 44.8088L197.17 65.5152L209.003 68.2465L209.686 65.2886L200.811 63.24L202.177 57.3241L209.572 59.0309L210.255 56.073L202.86 54.3662L204.226 48.4499L213.1 50.4985ZM222.95 70.0746C218.921 68.4802 216.95 63.9246 218.543 59.8965C220.138 55.8675 224.693 53.896 228.722 55.4904C230.956 56.3748 232.224 57.7266 233.03 59.644L235.282 57.4751C234.241 55.2939 232.162 53.5871 230.015 52.7375C224.341 50.4914 217.932 53.1922 215.72 58.7789C213.509 64.3656 216.334 70.7211 222.008 72.9672C224.155 73.8168 226.851 73.9658 229.103 73.0885L228.945 69.965C227.034 70.841 225.184 70.959 222.95 70.0746ZM253.183 64.8593L248.648 72.758L239.872 67.7194L244.407 59.8208L241.773 58.3092L231.193 76.739L233.826 78.2506L238.361 70.352L247.137 75.3905L242.602 83.2887L245.234 84.8008L255.815 66.371L253.183 64.8593Z" fill="white"/>
<path d="M179.891 319.959C257.74 319.467 320.451 255.959 319.959 178.11C319.467 100.26 255.959 37.5492 178.109 38.0411C100.26 38.5329 37.5491 102.041 38.041 179.891C38.5328 257.74 102.041 320.451 179.891 319.959Z" stroke="white" stroke-miterlimit="22.9256" stroke-linecap="round"/>
<path d="M74.6716 233.876L65.1245 232.952L70.6157 225.087L69.3994 222.451L62.3372 232.816L55.6973 235.881L56.7787 238.224L63.4191 235.16L75.8884 236.513L74.6716 233.876ZM65.8711 254.574L67.277 256.991L78.9451 240.257L58.6284 242.115L60.0333 244.532L64.2593 244.098L68.3401 251.117L65.8711 254.574ZM67.0856 243.822L74.0171 243.121L69.9772 248.797L67.0856 243.822ZM86.6881 265.2L80.862 257.81L78.836 259.417L83.0122 264.684C80.4294 265.977 77.3949 265.569 75.3571 262.998C73.0682 260.112 73.553 255.919 76.446 253.625C79.3292 251.34 83.5185 251.826 85.8069 254.713C87.3106 256.609 87.5052 258.925 86.6236 260.928L88.8335 262.504C90.2375 259.435 90.1016 255.974 87.8297 253.109C84.6559 249.106 78.8421 248.431 74.8427 251.603C70.8325 254.782 70.1606 260.599 73.3344 264.602C76.5081 268.605 82.0582 268.94 86.0684 265.76C86.3002 265.577 86.515 265.372 86.6881 265.2ZM99.8932 265.876C96.1773 262.37 90.3235 262.541 86.8183 266.257C83.3126 269.973 83.4833 275.826 87.1996 279.332C90.916 282.838 96.7688 282.667 100.275 278.951C103.78 275.235 103.61 269.382 99.8932 265.876ZM88.9708 277.455C86.2715 274.909 86.1502 270.728 88.6962 268.028C91.2423 265.329 95.4231 265.207 98.122 267.753C100.821 270.3 100.943 274.481 98.3966 277.18C95.8505 279.879 91.6701 280.001 88.9708 277.455ZM108.606 295.977L119.219 280.825L117.105 279.345L110.009 289.475L107.134 271.835L96.5206 286.985L98.635 288.466L105.731 278.336L108.606 295.977ZM123.638 303.146L126.136 304.401L126.757 284.01L110.761 296.673L113.26 297.929L116.56 295.254L123.815 298.902L123.638 303.146ZM118.776 293.48L124.197 289.102L123.917 296.064L118.776 293.48ZM148.51 311.45L151.206 312.194L147.832 292.073L134.618 307.617L137.313 308.36L140.028 305.093L147.856 307.253L148.51 311.45ZM141.855 302.919L146.316 297.568L147.402 304.45L141.855 302.919ZM168.285 314.455L162.873 304.415L169.993 296.462L166.923 296.097L161.509 302.222L157.685 294.997L154.614 294.632L159.669 304.034L152.051 312.522L155.149 312.891L161.029 306.253L165.188 314.086L168.285 314.455ZM180.519 305.098C181.711 304.665 182.706 303.313 182.742 301.512C182.803 298.393 180.523 296.735 176.625 296.658L171.221 296.552L170.866 314.617L177.533 314.748C181.162 314.819 183.385 312.551 183.446 309.432C183.482 307.631 182.633 305.651 180.519 305.098ZM173.752 299.184L176.977 299.247C179.02 299.287 180.189 300.036 180.159 301.569C180.128 303.128 178.932 303.803 176.888 303.763L173.663 303.699L173.752 299.184ZM177.154 312.159L173.498 312.087L173.612 306.28L177.268 306.352C179.499 306.396 180.905 307.338 180.867 309.328C180.827 311.317 179.385 312.203 177.154 312.159ZM192.032 295.775C186.97 296.461 183.424 301.121 184.111 306.183C184.798 311.245 189.457 314.792 194.519 314.105C199.582 313.418 203.128 308.759 202.441 303.696C201.754 298.634 197.095 295.088 192.032 295.775ZM194.172 311.547C190.496 312.046 187.167 309.513 186.669 305.836C186.17 302.159 188.703 298.831 192.38 298.332C196.057 297.833 199.385 300.366 199.884 304.043C200.382 307.72 197.85 311.048 194.172 311.547ZM218.95 309.064L212.929 303.832C215.378 302.505 216.342 299.928 215.698 297.207C214.91 293.884 212.245 292.085 207.666 293.169L202.225 294.459L206.391 312.041L208.904 311.445L207.465 305.376L210.212 304.724L216.02 309.759L218.95 309.064ZM205.332 296.375L209.125 295.476C210.957 295.042 212.678 295.657 213.223 297.959C213.762 300.235 212.442 301.543 210.611 301.977L206.87 302.863L205.332 296.375ZM221.988 288.357C217.25 290.267 214.957 295.656 216.867 300.394C218.776 305.132 224.165 307.424 228.903 305.515C233.641 303.605 235.934 298.217 234.025 293.479C232.115 288.741 226.726 286.448 221.988 288.357ZM227.938 303.121C224.497 304.508 220.648 302.87 219.261 299.429C217.874 295.988 219.512 292.139 222.953 290.752C226.395 289.365 230.243 291.002 231.63 294.444C233.017 297.885 231.38 301.734 227.938 303.121ZM230.152 285.058L231.341 287.348L235.54 285.168L242.677 298.913L244.968 297.723L237.832 283.979L242.031 281.798L240.842 279.508L230.152 285.058ZM246.884 275.36L248.487 277.383L252.195 274.442L261.817 286.578L263.84 284.974L254.218 272.839L257.926 269.899L256.322 267.877L246.884 275.36ZM271.693 278.276L259.784 264.688L257.843 266.389L269.752 279.977L271.693 278.276ZM283.348 266.208L281.471 264.437L275.087 271.204L270.501 253.497L261.054 263.51L262.932 265.282L269.316 258.515L273.902 276.222L283.348 266.208ZM286.93 261.345L272.652 250.272L271.07 252.312L285.348 263.384L286.93 261.345ZM294.744 250.784L288.419 239.966L298.381 244.239L299.79 242.013L282.523 234.703L290.292 247.964L274.984 246.605L288.971 259.094L290.38 256.868L282.261 249.688L294.744 250.784ZM301.917 236.788L285.796 228.628L284.63 230.931L300.751 239.091L301.917 236.788Z" fill="white"/>
<path d="M41.6215 250.656C42.6122 252.556 44.9551 253.294 46.8552 252.304C48.7561 251.313 49.4934 248.97 48.5027 247.069C47.5125 245.169 45.1695 244.432 43.2686 245.423C41.3686 246.413 40.6313 248.756 41.6215 250.656ZM47.5426 247.57C48.2615 248.95 47.7349 250.624 46.3549 251.344C44.9744 252.063 43.301 251.536 42.5816 250.155C41.8623 248.775 42.3889 247.102 43.7689 246.382C45.1493 245.663 46.8232 246.19 47.5426 247.57ZM38.5376 244.199L38.8376 244.856L41.3324 245.103L40.7319 243.79L38.5376 244.199ZM42.6503 234.973L41.6657 235.424L43.2902 238.972L35.6836 237.964L38.0872 243.215L39.0717 242.764L37.4477 239.216L45.0539 240.224L42.6503 234.973ZM36.9677 231.412C36.6051 231.022 35.9205 230.86 35.2186 231.14C34.0041 231.626 33.7361 232.778 34.3431 234.296L35.1852 236.401L42.2224 233.586L41.1838 230.989C40.6182 229.575 39.3783 229.087 38.1633 229.574C37.4613 229.854 36.8355 230.505 36.9677 231.412ZM35.7889 234.994L35.2858 233.738C34.9675 232.941 35.0662 232.367 35.6629 232.129C36.2699 231.886 36.7269 232.238 37.0452 233.034L37.5479 234.29L35.7889 234.994ZM40.2453 231.559L40.8152 232.983L38.5531 233.888L37.9832 232.464C37.6358 231.594 37.7698 230.897 38.5446 230.587C39.3195 230.277 39.8974 230.689 40.2453 231.559ZM32.421 225.627L31.3978 225.982L32.8183 230.074L39.9782 227.588L38.5578 223.496L37.5356 223.851L38.6006 226.92L36.5548 227.63L35.6671 225.073L34.644 225.428L35.5317 227.986L33.4864 228.696L32.421 225.627ZM33.8705 221.192L29.377 219.019L29.779 220.406L33.7901 222.249L30.5835 223.179L30.8853 224.219L38.1647 222.107L37.8629 221.067L34.6567 221.997L37.0081 218.12L36.6056 216.734L33.8705 221.192ZM36.1241 214.715L28.7507 216.47L29.0013 217.523L36.3752 215.768L36.1241 214.715ZM30.8238 211.537C30.8698 212.755 30.7264 213.322 30.1566 213.458C29.4978 213.614 28.9778 213.135 28.738 212.126C28.5184 211.204 28.7836 210.515 29.0653 210.042L27.9909 209.765C27.3623 210.876 27.6063 212.047 27.6796 212.354C28.0896 214.077 29.2547 214.785 30.4514 214.501C31.4383 214.266 32.0349 213.509 31.8976 211.374C31.8332 210.322 32.0364 209.567 32.6288 209.426C33.3308 209.259 33.9241 209.755 34.1879 210.864C34.3943 211.731 34.1893 212.672 33.6552 213.448L34.7244 213.75C34.8297 213.609 35.6695 212.413 35.2468 210.635C34.8368 208.912 33.6181 208.077 32.334 208.383C31.0941 208.678 30.7462 209.7 30.8238 211.537ZM26.9979 208.536L28.0624 208.337L27.6975 206.385L34.0831 205.19L33.8837 204.126L27.4981 205.321L27.1328 203.37L26.0683 203.569L26.9979 208.536ZM25.3503 198.786C25.6282 200.911 27.5762 202.407 29.7009 202.129C31.8257 201.851 33.3223 199.903 33.044 197.778C32.7656 195.653 30.8176 194.156 28.6929 194.435C26.5681 194.713 25.0715 196.661 25.3503 198.786ZM31.9705 197.918C32.1722 199.462 31.1035 200.853 29.5604 201.055C28.0168 201.258 26.6255 200.188 26.4233 198.645C26.2211 197.102 27.2903 195.71 28.8335 195.508C30.3771 195.306 31.7679 196.375 31.9705 197.918ZM32.0669 186.458L24.3333 187.094L24.4217 188.173L29.5928 187.748L24.6709 193.404L32.405 192.768L32.3161 191.688L27.145 192.114L32.0669 186.458ZM31.8064 175.827L29.0474 177.72C28.7667 176.586 27.8221 175.923 26.6495 175.897C25.2173 175.867 24.2054 176.759 24.1636 178.732L24.1133 181.077L31.6903 181.24L31.7138 180.157L29.0977 180.101L29.1231 178.917L31.7792 177.09L31.8064 175.827ZM25.2187 180.018L25.2539 178.383C25.2709 177.594 25.702 176.96 26.6937 176.981C27.6749 177.002 28.0666 177.677 28.0497 178.465L28.0153 180.078L25.2187 180.018ZM25.4298 170.186L24.3474 170.162L24.2543 174.492L31.8318 174.654L31.9249 170.325L30.8426 170.301L30.773 173.549L28.6078 173.503L28.6661 170.796L27.5828 170.773L27.5249 173.479L25.3602 173.433L25.4298 170.186ZM27.9025 165.891C27.5823 167.067 27.2762 167.566 26.6913 167.525C26.0161 167.478 25.6635 166.865 25.7354 165.83C25.8022 164.885 26.2606 164.306 26.6711 163.94L25.7284 163.353C24.7965 164.226 24.6794 165.416 24.6573 165.732C24.5336 167.498 25.434 168.522 26.6607 168.608C27.6735 168.679 28.4686 168.136 28.9759 166.057C29.2284 165.034 29.6478 164.374 30.2553 164.416C30.9752 164.467 31.3936 165.118 31.3137 166.254C31.2516 167.143 30.7744 167.98 30.0329 168.562L30.9629 169.169C31.1059 169.066 32.2649 168.176 32.3928 166.353C32.5159 164.586 31.6024 163.425 30.2859 163.333C29.0145 163.244 28.3769 164.115 27.9025 165.891ZM25.4712 159.014L25.1933 161.343L32.7195 162.241L32.8479 161.166L30.2492 160.856L30.4391 159.265C30.6282 157.675 29.6318 156.602 28.2208 156.434C26.798 156.264 25.7044 157.054 25.4712 159.014ZM29.3648 159.126L29.1743 160.728L26.397 160.396L26.5799 158.863C26.6734 158.078 27.1742 157.4 28.1592 157.517C29.1339 157.633 29.4583 158.343 29.3648 159.126ZM26.8671 150.076L31.4035 150.853C32.5592 151.051 33.2457 151.855 33.0548 152.967C32.8629 154.089 31.9498 154.608 30.7937 154.41L26.2578 153.633L26.0754 154.701L30.2548 155.417C32.2225 155.754 33.7793 155.15 34.1221 153.149C34.4573 151.193 33.1977 150.062 31.23 149.725L27.0501 149.009L26.8671 150.076ZM31.7364 144.112C31.6583 143.586 31.1863 143.063 30.449 142.897C29.1729 142.61 28.2993 143.408 27.9401 145.003L27.4417 147.215L34.8363 148.88L35.4508 146.151C35.7851 144.666 35.0399 143.562 33.7633 143.274C33.0261 143.108 32.1412 143.29 31.7364 144.112ZM28.7361 146.397L29.0338 145.076C29.2218 144.239 29.6281 143.823 30.2553 143.964C30.8933 144.107 31.0706 144.655 30.8821 145.492L30.5854 146.813L28.7361 146.397ZM34.3548 146.09L34.0182 147.586L31.6409 147.05L31.9781 145.554C32.1835 144.641 32.6894 144.142 33.5038 144.325C34.3177 144.509 34.5608 145.176 34.3548 146.09ZM35.5091 141.305L29.243 139.588L28.9567 140.632L36.2666 142.636L37.3635 138.632L36.3197 138.346L35.5091 141.305ZM37.9842 136.37L30.6742 134.366L30.3879 135.41L37.6978 137.414L37.9842 136.37ZM35.4654 131.635L32.9979 127.295L32.5423 128.665L34.7987 132.459L31.6306 131.405L31.2892 132.433L38.4812 134.824L38.823 133.797L35.6549 132.743L39.7916 130.886L40.2467 129.516L35.4654 131.635ZM42.553 123.539L42.9775 122.446L34.4371 123.002L40.3643 129.175L40.7893 128.081L39.5405 126.81L40.7733 123.635L42.553 123.539ZM38.7106 125.956L36.6663 123.867L39.5842 123.706L38.7106 125.956ZM40.4042 117.363C39.7022 118.359 39.2438 118.722 38.7083 118.484C38.09 118.209 37.9677 117.513 38.3895 116.565C38.7746 115.699 39.4037 115.313 39.9143 115.108L39.2288 114.235C38.0547 114.737 37.538 115.815 37.4091 116.104C36.6898 117.722 37.1858 118.992 38.3091 119.492C39.2368 119.905 40.1696 119.666 41.3568 117.885C41.9436 117.011 42.5638 116.533 43.12 116.782C43.7797 117.074 43.9499 117.829 43.4868 118.87C43.1247 119.684 42.3903 120.308 41.4946 120.6L42.1604 121.49C42.3301 121.442 43.7242 121 44.4666 119.331C45.1869 117.713 44.7247 116.31 43.5192 115.773C42.3546 115.255 41.4579 115.856 40.4042 117.363ZM46.5712 114.566L39.7972 111.164L39.3115 112.132L46.085 115.533L46.5712 114.566ZM51.5852 105.177L48.2577 105.527C48.5511 104.396 48.0367 103.363 47.0174 102.783C45.7728 102.074 44.4577 102.376 43.4811 104.091L42.3198 106.13L48.9056 109.881L49.4416 108.94L47.1678 107.645L47.7541 106.616L50.9603 106.274L51.5852 105.177ZM43.7971 105.725L44.6063 104.304C44.997 103.618 45.6778 103.266 46.5401 103.757C47.3926 104.243 47.4161 105.022 47.0254 105.708L46.2275 107.109L43.7971 105.725ZM55.0157 99.5554L55.6396 98.5624L47.149 97.4899L51.7991 104.674L52.4231 103.681L51.438 102.196L53.2501 99.3118L55.0157 99.5554ZM50.7854 101.2L49.1736 98.7617L52.0695 99.1562L50.7854 101.2ZM60.2625 91.8876L58.5942 92.1185C58.3925 91.2308 57.8636 90.416 57.0619 89.8498C55.3114 88.6142 52.8909 89.0317 51.6553 90.7822C50.4191 92.5332 50.8367 94.9537 52.5872 96.1893C54.3386 97.4255 56.7591 97.0079 57.9948 95.257C58.4631 94.5935 58.6892 93.8422 58.7061 93.0951L59.4819 92.9935L60.2625 91.8876ZM57.1099 94.6321C56.2123 95.9044 54.4834 96.2025 53.2116 95.3049C51.9397 94.4073 51.6421 92.678 52.5392 91.4062C53.4368 90.1352 55.1661 89.8367 56.4375 90.7343C56.9904 91.1245 57.3605 91.676 57.5199 92.2718L56.3421 92.434L55.6138 93.4665L57.62 93.2258C57.5819 93.7096 57.4155 94.1991 57.1099 94.6321ZM57.0111 83.5418C55.6974 85.2355 56.0054 87.6724 57.6985 88.9856C59.3917 90.2993 61.8291 89.9914 63.1423 88.2982C64.456 86.6046 64.1481 84.1681 62.4545 82.8544C60.7613 81.5412 58.3244 81.8487 57.0111 83.5418ZM62.2866 87.6343C61.3326 88.8643 59.592 89.0844 58.362 88.1304C57.132 87.1764 56.9129 85.4353 57.8664 84.2053C58.8204 82.9758 60.5615 82.7557 61.791 83.7097C63.021 84.6642 63.2406 86.4048 62.2866 87.6343ZM65.7443 78.6562C65.9216 78.1545 65.7486 77.4722 65.1749 76.9804C64.1814 76.1294 63.0361 76.4261 61.9725 77.6678L60.4976 79.3892L66.2535 84.32L68.0736 82.1962C69.0638 81.04 68.9214 79.715 67.9279 78.864C67.3543 78.3722 66.4868 78.1192 65.7443 78.6562ZM62.0242 79.2716L62.9049 78.2438C63.4625 77.5926 64.0164 77.4144 64.5045 77.8324C65.0014 78.2579 64.9018 78.8254 64.3441 79.4766L63.4635 80.5045L62.0242 79.2716ZM67.1337 81.6291L66.136 82.7938L64.2854 81.2088L65.2836 80.0442C65.8924 79.3328 66.5728 79.1282 67.2066 79.6713C67.8404 80.2144 67.7426 80.9178 67.1337 81.6291ZM74.1823 75.5581L74.9853 74.7029L66.8582 72.0219L70.0437 79.9647L70.8473 79.1094L70.165 77.4638L72.4962 74.9807L74.1823 75.5581ZM69.7155 76.3607L68.6007 73.6586L71.3677 74.6013L69.7155 76.3607ZM69.3666 69.6691L70.1194 70.4477L71.5464 69.0677L76.0625 73.7376L76.8407 72.9853L72.325 68.3149L73.752 66.9354L72.9993 66.1563L69.3666 69.6691ZM84.0453 66.7013L78.9396 60.8583L78.1238 61.5706L81.5378 65.4774L74.0647 64.8779L79.1709 70.7213L79.9858 70.009L76.5722 66.1022L84.0453 66.7013ZM86.0149 64.844L81.2806 58.9249L80.4348 59.601L85.1691 65.5202L86.0149 64.844ZM94.4876 58.4011L91.3134 57.3408C92.0493 56.4338 92.0084 55.28 91.3214 54.3293C90.4821 53.1684 89.16 52.8995 87.5609 54.0557L85.6595 55.43L90.1004 61.5725L90.9777 60.9382L89.4444 58.8172L90.4041 58.1237L93.464 59.1407L94.4876 58.4011ZM87.1716 55.6736L88.497 54.7153C89.1365 54.2527 89.9019 54.2141 90.4836 55.0181C91.0586 55.8137 90.7572 56.5326 90.1168 56.9952L88.8106 57.9403L87.1716 55.6736ZM96.3308 57.1024L92.2035 50.7455L91.2951 51.3356L95.4233 57.6921L96.3308 57.1024ZM100.061 54.8949L98.7108 46.5195L97.7272 47.158L98.6732 52.757L93.9436 49.6152L92.96 50.2542L100.061 54.8949ZM102.445 44.3003C100.592 45.3779 99.9644 47.7524 101.042 49.6049C102.119 51.4574 104.494 52.0851 106.347 51.0074C108.199 49.9298 108.827 47.5553 107.749 45.7028C106.671 43.8503 104.297 43.2226 102.445 44.3003ZM105.802 50.0713C104.456 50.8542 102.76 50.4056 101.977 49.0604C101.194 47.7152 101.643 46.0188 102.989 45.2359C104.334 44.4535 106.03 44.9016 106.813 46.2468C107.596 47.5925 107.147 49.2889 105.802 50.0713ZM109.075 40.8345L111.285 45.0751C111.786 46.0352 111.739 46.8736 110.839 47.3424C110.409 47.5666 109.944 47.529 109.629 47.363L109.576 48.4337C109.978 48.6184 110.76 48.6053 111.34 48.3029C112.64 47.6249 113.157 46.3249 112.203 44.4945L110.035 40.3338L109.075 40.8345ZM115.366 44.9787L112.661 39.0713L111.677 39.5218L114.832 46.4137L118.605 44.6858L118.155 43.7013L115.366 44.9787ZM125.003 41.9818L126.091 41.5426L119.839 35.6987L119.398 44.2453L120.486 43.8061L120.557 42.026L123.716 40.7504L125.003 41.9818ZM120.612 40.8359L120.734 37.9156L122.85 39.9327L120.612 40.8359ZM132.946 39.2867L130.417 31.9504L129.393 32.3035L131.084 37.208L124.387 33.8387L126.917 41.1745L127.94 40.8218L126.249 35.9169L132.946 39.2867ZM131.973 31.4102L132.274 32.4511L134.181 31.8992L135.985 38.1404L137.025 37.8395L135.221 31.5987L137.128 31.0472L136.827 30.0067L131.973 31.4102ZM141.186 36.6367L139.081 29.3555L138.04 29.6564L140.146 36.9372L141.186 36.6367ZM148.031 35.0014L145.503 32.809C146.53 32.2513 146.933 31.1699 146.662 30.0288C146.33 28.6351 145.212 27.8814 143.292 28.338L141.01 28.881L142.764 36.2549L143.818 36.0043L143.211 33.4583L144.364 33.1842L146.802 35.2934L148.031 35.0014ZM142.313 29.6841L143.904 29.3051C144.672 29.1227 145.395 29.3799 145.624 30.3452C145.852 31.2997 145.298 31.8488 144.53 32.0317L142.961 32.4051L142.313 29.6841ZM150.244 34.5684L148.85 27.1183L147.786 27.3172L149.18 34.7673L150.244 34.5684ZM153.676 29.4274C152.458 29.4147 151.898 29.2436 151.79 28.6676C151.666 28.0023 152.169 27.5062 153.19 27.3153C154.121 27.1414 154.796 27.439 155.255 27.7437L155.584 26.6839C154.504 26.0026 153.323 26.1892 153.013 26.2471C151.272 26.5729 150.508 27.7023 150.734 28.9111C150.921 29.9089 151.647 30.5417 153.787 30.5083C154.84 30.4947 155.585 30.734 155.697 31.333C155.83 32.0421 155.305 32.611 154.185 32.8202C153.31 32.9843 152.379 32.7337 151.63 32.1629L151.276 33.2157C151.412 33.3285 152.566 34.2252 154.362 33.889C156.102 33.5636 156.996 32.3867 156.753 31.0895C156.519 29.836 155.515 29.4391 153.676 29.4274ZM162.095 25.0669L162.518 28.2877L158.939 28.7564L158.517 25.5357L157.443 25.6763L158.428 33.1917L159.501 33.0511L159.079 29.8303L162.658 29.3616L163.08 32.5823L164.153 32.4417L163.169 24.9263L162.095 25.0669ZM172.083 32.1013L175.25 24.2309L174.078 24.2704L171.998 29.5539L169.569 24.4213L168.397 24.4604L172.083 32.1013ZM180.645 31.7736L181.818 31.7985L178.376 23.9634L174.601 31.6443L175.774 31.6692L176.541 30.0612L179.946 30.1341L180.645 31.7736ZM177.06 28.9892L178.324 26.3543L179.474 29.0414L177.06 28.9892ZM187.407 32.004L187.937 24.4434L186.857 24.3673L186.327 31.9283L187.407 32.004ZM192.025 27.8951C190.849 27.5753 190.351 27.2688 190.392 26.6839C190.439 26.0087 191.051 25.656 192.086 25.728C193.031 25.7947 193.61 26.2532 193.977 26.6637L194.563 25.7209C193.689 24.789 192.499 24.672 192.184 24.6499C190.418 24.5262 189.394 25.4266 189.308 26.6533C189.237 27.6661 189.78 28.4612 191.86 28.9685C192.882 29.221 193.542 29.6404 193.5 30.2479C193.449 30.9677 192.798 31.3862 191.662 31.3062C190.773 31.2442 189.936 30.7669 189.355 30.0255L188.747 30.9555C188.85 31.0984 189.741 32.2574 191.564 32.3853C193.33 32.5085 194.491 31.5949 194.583 30.2789C194.672 29.007 193.801 28.3695 192.025 27.8951ZM196.035 25.1163L195.907 26.1921L197.878 26.4267L197.11 32.8776L198.184 33.006L198.953 26.555L200.925 26.7901L201.053 25.7143L196.035 25.1163ZM206.769 27.7648L206.952 26.697L202.684 25.9664L201.404 33.4371L205.673 34.1683L205.855 33.1009L202.654 32.5527L203.019 30.4181L205.687 30.8751L205.87 29.8073L203.202 29.3503L203.568 27.2161L206.769 27.7648ZM207.653 29.015L208.365 29.1368L209.976 27.2156L208.553 26.9716L207.653 29.015ZM213.664 36.0401L217.045 32.0153L216.763 36.5526L217.841 36.7957L218.292 28.9431L214.15 33.8838L212.526 27.6445L209.567 34.9323L210.645 35.1749L212.336 30.9546L213.664 36.0401ZM224.823 30.9466C222.789 30.2723 220.594 31.3744 219.92 33.4089C219.246 35.4434 220.348 37.6382 222.382 38.3125C224.416 38.9867 226.611 37.8846 227.286 35.8496C227.96 33.8156 226.857 31.6208 224.823 30.9466ZM222.723 37.2842C221.246 36.7947 220.458 35.2266 220.947 33.7493C221.437 32.2715 223.005 31.4844 224.483 31.9744C225.96 32.4638 226.748 34.0319 226.258 35.5092C225.768 36.987 224.2 37.7741 222.723 37.2842ZM228.636 39.1207L230.988 33.0647L229.979 32.6726L227.235 39.7381L231.104 41.2403L231.496 40.2313L228.636 39.1207ZM235.754 41.9808C234.313 41.4209 233.599 39.8011 234.158 38.3609C234.718 36.9203 236.338 36.2065 237.779 36.7656C238.578 37.0759 239.033 37.5555 239.324 38.2372L240.123 37.4581C239.746 36.6833 239.001 36.0791 238.233 35.7815C236.204 34.993 233.925 35.9709 233.149 37.9688C232.373 39.9666 233.395 42.2268 235.424 43.0143C236.192 43.3129 237.154 43.3594 237.955 43.0411L237.892 41.9277C237.212 42.2446 236.552 42.2912 235.754 41.9808ZM246.062 39.3511L244.741 42.3189L241.443 40.8515L242.764 37.8841L241.775 37.444L238.693 44.3684L239.683 44.8085L241.003 41.8412L244.301 43.3086L242.98 46.276L243.969 46.7161L247.051 39.7917L246.062 39.3511ZM246.346 48.0208L249.747 41.2469L248.78 40.7612L245.379 47.5347L246.346 48.0208ZM249.291 48.3138L252.507 42.6683L251.566 42.1327L247.814 48.7181L251.421 50.7728L251.957 49.832L249.291 48.3138ZM257.381 54.3396L258.373 54.965L259.461 46.4767L252.268 51.1137L253.26 51.74L254.747 50.7568L257.627 52.575L257.381 54.3396ZM255.744 50.1061L258.185 48.499L257.785 51.3944L255.744 50.1061ZM263.613 58.4895L263.579 55.1437C264.677 55.5428 265.754 55.1277 266.429 54.1685C267.253 52.9963 267.076 51.6591 265.461 50.5246L263.542 49.1751L259.183 55.3769L260.069 55.9989L261.574 53.8582L262.543 54.5395L262.579 57.7631L263.613 58.4895ZM263.805 50.684L265.142 51.6243C265.788 52.078 266.075 52.7894 265.504 53.6014C264.94 54.4041 264.162 54.3537 263.516 53.8995L262.196 52.9723L263.805 50.684ZM275.905 58.2074L273.921 60.7793L271.063 58.5751L273.047 56.0032L272.19 55.3416L267.561 61.3435L268.418 62.0046L270.402 59.4327L273.26 61.6369L271.276 64.2093L272.134 64.8704L276.763 58.8685L275.905 58.2074ZM281.722 63.1396L278.719 66.6265C277.953 67.5151 276.911 67.6886 276.056 66.9528C275.193 66.2094 275.219 65.16 275.984 64.2713L278.988 60.7845L278.167 60.0778L275.4 63.291C274.097 64.8036 273.811 66.4488 275.349 67.7733C276.854 69.0691 278.472 68.5721 279.775 67.0595L282.543 63.8463L281.722 63.1396ZM284.097 75.7152L284.101 74.0314C285.008 73.9548 285.888 73.5443 286.56 72.8287C288.027 71.2672 287.95 68.8119 286.388 67.3449C284.826 65.8775 282.371 65.9546 280.904 67.5166C279.437 69.079 279.514 71.5338 281.076 73.0013C281.668 73.557 282.38 73.8857 283.118 74.006L283.111 74.7884L284.097 75.7152ZM281.818 72.2118C280.683 71.1464 280.628 69.3926 281.693 68.258C282.759 67.1235 284.513 67.0685 285.647 68.1339C286.781 69.1993 286.837 70.9531 285.771 72.0877C285.308 72.5814 284.711 72.871 284.098 72.9458L284.101 71.7572L283.18 70.8925L283.14 72.9124C282.666 72.8075 282.204 72.5748 281.818 72.2118ZM293.297 74.5058L289.981 77.697C289.135 78.5099 288.081 78.5852 287.299 77.7727C286.509 76.9517 286.633 75.9094 287.479 75.0964L290.795 71.9053L290.044 71.1248L286.988 74.0648C285.549 75.4495 285.111 77.0604 286.519 78.5236C287.896 79.9539 289.553 79.6111 290.992 78.2264L294.048 75.2863L293.297 74.5058ZM294.423 87.3057L294.588 85.6299C295.498 85.6408 296.414 85.3163 297.152 84.6689C298.761 83.2546 298.92 80.803 297.506 79.1931C296.091 77.5832 293.64 77.4247 292.03 78.8386C290.42 80.2534 290.262 82.7044 291.676 84.3148C292.212 84.9247 292.889 85.3196 293.613 85.511L293.53 86.2887L294.423 87.3057ZM292.49 83.5997C291.462 82.4308 291.575 80.6794 292.745 79.652C293.914 78.6251 295.665 78.7384 296.692 79.9078C297.72 81.0771 297.606 82.8281 296.437 83.8555C295.929 84.3021 295.306 84.5335 294.69 84.5495L294.806 83.366L293.973 82.4172L293.739 84.4239C293.277 84.2739 292.839 83.9984 292.49 83.5997ZM296.447 88.3462L301.512 84.2772L300.834 83.4332L294.925 88.1802L297.525 91.416L298.368 90.738L296.447 88.3462ZM301.513 97.1081L302.199 98.0602L306.388 90.5974L297.982 92.2012L298.667 93.1529L300.413 92.7993L302.403 95.564L301.513 97.1081ZM301.582 92.5694L304.447 91.9944L302.992 94.5286L301.582 92.5694ZM305.51 103.445L306.736 100.331C307.603 101.114 308.758 101.134 309.743 100.498C310.947 99.7209 311.285 98.4152 310.215 96.7569L308.943 94.7858L302.575 98.8957L303.162 99.8055L305.361 98.3865L306.003 99.3814L304.826 102.383L305.51 103.445ZM308.62 96.2824L309.507 97.6573C309.935 98.3207 309.933 99.0866 309.099 99.625C308.275 100.157 307.572 99.8178 307.144 99.1543L306.27 97.7992L308.62 96.2824ZM306.579 105.434L313.12 101.604L312.573 100.669L306.032 104.5L306.579 105.434ZM310.218 112.488L317.099 108.901L316.598 107.941L311.998 110.339L314.339 103.217L307.458 106.804L307.959 107.764L312.56 105.365L310.218 112.488ZM311.604 114.817L318.495 111.662L318.045 110.678L311.153 113.833L311.604 114.817ZM322.625 121.079L319.61 122.29L318.266 118.94L321.28 117.73L320.877 116.725L313.843 119.55L314.247 120.554L317.261 119.344L318.606 122.693L315.591 123.903L315.995 124.908L323.028 122.084L322.625 121.079ZM317.004 127.42L324.037 124.596L323.634 123.591L316.6 126.416L317.004 127.42ZM318.641 132.678L323.844 133.426L319.84 135.58L320.203 136.625L327.111 132.865L320.729 131.953L325.172 127.282L317.42 128.612L317.783 129.657L322.26 128.866L318.641 132.678ZM328.776 139.128C328.181 137.069 326.03 135.883 323.971 136.478C321.913 137.073 320.727 139.224 321.322 141.283C321.917 143.342 324.068 144.528 326.127 143.933C328.185 143.338 329.372 141.186 328.776 139.128ZM322.362 140.982C321.93 139.487 322.777 137.95 324.272 137.518C325.768 137.085 327.304 137.933 327.737 139.429C328.168 140.924 327.321 142.46 325.826 142.892C324.331 143.325 322.794 142.477 322.362 140.982ZM330.925 148.5L327.076 147.329L329.986 144.55L329.703 143.365L325.941 147.042L322.957 147.753L323.207 148.806L326.191 148.096L331.207 149.685L330.925 148.5ZM324.633 156.526L324.848 157.679L331.811 152.704L323.52 150.584L323.736 151.737L325.467 152.158L326.094 155.506L324.633 156.526ZM326.623 152.447L329.461 153.143L327.067 154.819L326.623 152.447ZM325.986 169.72L327.117 168.473C327.842 169.024 328.771 169.31 329.749 169.229C331.884 169.054 333.472 167.181 333.297 165.045C333.122 162.908 331.248 161.32 329.113 161.496C326.976 161.671 325.388 163.545 325.563 165.681C325.63 166.49 325.938 167.211 326.405 167.795L325.875 168.371L325.986 169.72ZM326.643 165.592C326.515 164.04 327.65 162.702 329.201 162.575C330.752 162.447 332.091 163.582 332.218 165.133C332.345 166.684 331.211 168.023 329.66 168.15C328.985 168.206 328.347 168.02 327.843 167.665L328.642 166.785L328.538 165.526L327.154 166.998C326.873 166.602 326.686 166.12 326.643 165.592ZM326.094 171.792L333.669 171.538L333.633 170.456L326.058 170.71L326.094 171.792ZM327.267 174.46L333.76 174.243L333.724 173.161L326.148 173.415L326.287 177.563L327.369 177.527L327.267 174.46ZM326.266 179.908L333.844 180.07L333.867 178.988L326.289 178.826L326.266 179.908ZM330.594 184.321C330.857 183.131 331.139 182.618 331.725 182.631C332.401 182.645 332.784 183.24 332.762 184.277C332.741 185.225 332.311 185.825 331.919 186.211L332.889 186.751C333.777 185.833 333.836 184.639 333.843 184.323C333.881 182.553 332.932 181.573 331.703 181.547C330.688 181.525 329.92 182.107 329.514 184.208C329.311 185.241 328.924 185.921 328.315 185.908C327.594 185.893 327.145 185.263 327.169 184.124C327.188 183.233 327.624 182.374 328.337 181.757L327.378 181.195C327.241 181.305 326.126 182.251 326.087 184.078C326.049 185.848 327.018 186.964 328.338 186.992C329.612 187.02 330.206 186.118 330.594 184.321ZM333.199 193.412L329.958 193.185L330.21 189.584L333.45 189.811L333.527 188.731L325.965 188.202L325.89 189.282L329.13 189.509L328.878 193.109L325.638 192.882L325.562 193.962L333.123 194.492L333.199 193.412ZM323.692 206.636L325.098 205.71C325.662 206.424 326.49 206.932 327.457 207.098C329.569 207.46 331.575 206.041 331.936 203.929C332.298 201.816 330.88 199.811 328.768 199.45C326.655 199.088 324.65 200.506 324.288 202.619C324.151 203.419 324.27 204.194 324.577 204.876L323.92 205.302L323.692 206.636ZM325.356 202.802C325.618 201.268 327.051 200.254 328.585 200.517C330.119 200.779 331.132 202.212 330.87 203.746C330.607 205.28 329.174 206.293 327.64 206.031C326.974 205.917 326.402 205.578 326.002 205.109L326.995 204.455L327.208 203.21L325.501 204.291C325.327 203.838 325.266 203.324 325.356 202.802ZM330.221 212.822C330.692 210.731 329.379 208.655 327.289 208.184C325.198 207.714 323.122 209.026 322.651 211.117C322.18 213.207 323.493 215.284 325.584 215.754C327.674 216.225 329.75 214.913 330.221 212.822ZM323.708 211.355C324.049 209.836 325.532 208.898 327.051 209.24C328.569 209.582 329.507 211.066 329.165 212.584C328.823 214.102 327.34 215.04 325.822 214.698C324.303 214.356 323.366 212.873 323.708 211.355ZM328.412 219.737L328.606 219.042L326.859 217.243L326.471 218.634L328.412 219.737ZM319.525 222.591L323.206 226.342L318.717 225.625L318.371 226.676L326.144 227.879L321.625 223.282L327.991 222.265L321.021 218.619L320.676 219.669L324.715 221.757L319.525 222.591ZM317.638 228.904L324.838 231.272L325.177 230.244L317.977 227.875L317.638 228.904ZM324.244 232.814L323.234 232.424L322.517 234.275L316.458 231.931L316.068 232.941L322.126 235.285L321.41 237.136L322.42 237.527L324.244 232.814ZM313.148 239.835L312.671 240.906L321.228 240.763L315.606 234.312L315.129 235.383L316.315 236.713L314.93 239.825L313.148 239.835ZM317.102 237.607L319.044 239.791L316.121 239.812L317.102 237.607ZM315.06 246.13C315.808 245.168 316.283 244.826 316.807 245.089C317.411 245.392 317.502 246.094 317.036 247.021C316.611 247.868 315.964 248.225 315.445 248.405L316.089 249.309C317.285 248.862 317.852 247.809 317.993 247.527C318.788 245.944 318.351 244.652 317.253 244.101C316.345 243.645 315.401 243.84 314.133 245.564C313.506 246.41 312.865 246.858 312.32 246.584C311.676 246.26 311.54 245.499 312.051 244.481C312.451 243.684 313.214 243.096 314.122 242.845L313.499 241.926C313.326 241.966 311.914 242.341 311.094 243.975C310.299 245.557 310.695 246.981 311.875 247.572C313.014 248.144 313.938 247.586 315.06 246.13ZM308.836 248.672L315.61 252.073L316.096 251.106L309.322 247.705L308.836 248.672Z" fill="white"/>
<path d="M304.819 264.618C277.427 304.794 231.294 331.173 179 331.173C126.24 331.173 79.7506 304.322 52.4521 263.541" stroke="white" stroke-width="1.00006" stroke-miterlimit="22.9256" stroke-linecap="round"/>
<path fill-rule="evenodd" clip-rule="evenodd" d="M307.97 194.223L308.479 193.456C308.99 192.617 309.287 192.026 309.648 191.116L309.719 190.94C309.756 190.87 309.734 190.908 309.758 190.877C310.363 191.091 311.538 191.752 311.914 192.082C311.587 192.454 310.61 193.126 310.182 193.359C309.613 193.668 308.696 194.107 307.97 194.223ZM298.448 192.08C298.834 191.749 299.993 191.094 300.606 190.877L300.707 191.095C300.912 191.619 301.147 192.127 301.404 192.626C301.594 192.998 301.891 193.48 302.128 193.822C302.205 193.934 302.339 194.103 302.393 194.223C301.696 194.111 300.753 193.678 300.204 193.368C299.481 192.96 299.388 192.855 298.845 192.439C298.703 192.329 298.558 192.211 298.448 192.08ZM305.663 194.654V189.838C306.257 189.873 306.835 189.959 307.397 190.082C307.681 190.145 308.732 190.39 308.896 190.525C308.741 191.047 307.994 192.507 307.702 192.984L306.8 194.37C306.722 194.481 306.71 194.545 306.553 194.578C306.289 194.633 305.94 194.649 305.663 194.654ZM301.468 190.525C301.628 190.392 302.685 190.145 302.968 190.082C303.528 189.959 304.107 189.873 304.699 189.838V194.654C304.412 194.649 304.116 194.63 303.84 194.584C303.638 194.549 303.563 194.387 303.386 194.122C302.814 193.269 301.746 191.469 301.468 190.525ZM301.126 189.732C301.032 189.4 300.887 189.051 300.781 188.703C300.436 187.58 300.191 186.403 300.139 185.21H304.699L304.694 188.842C303.788 188.89 302.773 189.138 301.925 189.434C301.687 189.518 301.336 189.685 301.126 189.732ZM312.596 191.397C311.759 190.892 311.66 190.816 310.769 190.368C310.54 190.253 310.318 190.173 310.102 190.061C310.31 189.318 310.559 188.859 310.807 187.819C311.005 186.99 311.16 186.113 311.188 185.21H315.079C315 187.235 314.297 189.27 313.098 190.814C312.945 191.011 312.768 191.252 312.596 191.397ZM295.288 185.21H299.156C299.217 186.496 299.501 187.764 299.88 188.962C299.996 189.329 300.16 189.712 300.261 190.06L298.964 190.683C298.538 190.892 298.127 191.164 297.768 191.397C297.2 190.948 296.359 189.42 296.077 188.769C295.624 187.728 295.339 186.481 295.288 185.21ZM305.663 185.21H310.224C310.189 186.054 310.055 186.863 309.87 187.65C309.784 188.017 309.683 188.37 309.576 188.725L309.317 189.504C309.302 189.546 309.285 189.601 309.268 189.638C309.232 189.714 309.259 189.678 309.209 189.729C307.967 189.292 307.104 188.922 305.667 188.842L305.663 188.725V185.21ZM305.67 180.615C306.333 180.576 306.963 180.453 307.576 180.287C307.873 180.207 308.152 180.122 308.439 180.022C308.679 179.938 309.025 179.769 309.238 179.724C309.325 180.045 309.481 180.407 309.589 180.749C309.938 181.853 310.181 183.067 310.216 184.246H305.663L305.67 180.615ZM300.139 184.246C300.193 182.987 300.424 181.922 300.775 180.749C300.881 180.394 301.028 180.061 301.126 179.725C301.343 179.774 301.708 179.948 301.948 180.03C302.816 180.327 303.76 180.56 304.699 180.615L304.679 184.246H300.139ZM310.102 179.395C310.326 179.284 310.537 179.204 310.769 179.088C311.639 178.652 311.762 178.574 312.596 178.059C312.842 178.267 313.345 178.959 313.538 179.27C313.817 179.717 314.058 180.158 314.287 180.688C314.739 181.734 315.029 182.971 315.075 184.246H311.187C311.135 182.982 310.827 181.667 310.466 180.482C310.356 180.123 310.189 179.731 310.102 179.395ZM295.288 184.246C295.34 182.975 295.624 181.729 296.077 180.687C296.355 180.046 297.205 178.5 297.768 178.06C298.128 178.293 298.538 178.564 298.964 178.773L300.261 179.397C300.168 179.744 300.005 180.135 299.89 180.504C299.77 180.885 299.665 181.285 299.568 181.677C299.37 182.48 299.216 183.38 299.172 184.246H295.288ZM305.663 174.802C305.938 174.807 306.293 174.824 306.553 174.879C306.7 174.91 306.713 174.965 306.797 175.089C307.439 176.04 307.808 176.573 308.357 177.647C308.516 177.957 308.836 178.576 308.927 178.901C308.537 179.204 306.33 179.585 305.663 179.619V174.802ZM301.437 178.901C301.682 178.011 302.86 176.15 303.39 175.339C303.455 175.242 303.515 175.172 303.582 175.074C303.666 174.949 303.648 174.905 303.84 174.873C304.115 174.826 304.412 174.807 304.699 174.802V179.619C304.1 179.587 303.51 179.495 302.953 179.363C302.639 179.289 301.625 179.048 301.437 178.901ZM309.759 178.547C309.64 178.089 309.169 177.189 308.949 176.781C308.797 176.501 308.637 176.223 308.476 175.973L307.972 175.203C308.641 175.32 309.643 175.784 310.162 176.086C310.841 176.482 310.955 176.585 311.518 177.018C311.666 177.132 311.794 177.241 311.914 177.374C311.653 177.599 310.198 178.463 309.759 178.547ZM298.448 177.376C298.56 177.244 298.702 177.128 298.845 177.018C298.992 176.905 299.127 176.798 299.273 176.684C299.993 176.124 301.485 175.362 302.392 175.203C302.331 175.338 302.208 175.479 302.126 175.6L301.404 176.8L300.575 178.547C299.982 178.346 298.834 177.693 298.448 177.376ZM304.521 173.828C302.236 173.972 299.781 174.878 298.148 176.322C298.014 176.44 297.902 176.542 297.775 176.65L297.259 177.141C297.194 177.21 297.149 177.264 297.09 177.338L296.775 177.694C296.681 177.801 296.58 177.941 296.48 178.071C296.292 178.314 296.083 178.604 295.917 178.88C293.871 182.293 293.709 186.108 295.435 189.715C295.85 190.582 296.594 191.611 297.259 192.315C297.323 192.383 297.374 192.408 297.438 192.472C297.604 192.637 297.514 192.591 297.791 192.821C297.914 192.923 298.019 193.023 298.148 193.135C300.134 194.879 303.142 195.795 305.857 195.63C311.732 195.274 316.461 190.367 316.084 184.053C315.983 182.364 315.566 181.069 314.929 179.741C314.513 178.873 313.77 177.846 313.104 177.141C313.04 177.073 312.99 177.048 312.926 176.985C312.861 176.92 312.838 176.87 312.769 176.806C310.563 174.744 307.644 173.63 304.521 173.828Z" fill="white"/>
<path fill-rule="evenodd" clip-rule="evenodd" d="M55.2215 194.223L55.7293 193.456C56.2408 192.617 56.538 192.026 56.8986 191.116L56.9696 190.94C57.0067 190.87 56.9851 190.908 57.0091 190.877C57.6138 191.091 58.7887 191.752 59.1654 192.082C58.8376 192.454 57.8611 193.126 57.4332 193.359C56.8643 193.668 55.947 194.107 55.2215 194.223ZM45.6988 192.08C46.0848 191.749 47.2434 191.094 47.8565 190.877L47.958 191.095C48.1631 191.619 48.3981 192.127 48.6544 192.626C48.8453 192.998 49.142 193.48 49.3789 193.822C49.4561 193.934 49.5896 194.103 49.6441 194.223C48.9468 194.111 48.0046 193.678 47.4554 193.368C46.7323 192.96 46.6387 192.855 46.0957 192.439C45.9541 192.329 45.8088 192.211 45.6988 192.08ZM52.9138 194.654V189.838C53.5081 189.873 54.086 189.959 54.6474 190.082C54.9318 190.145 55.9832 190.39 56.1468 190.525C55.9921 191.047 55.245 192.507 54.953 192.984L54.0507 194.37C53.9727 194.481 53.9604 194.545 53.8039 194.578C53.5401 194.633 53.1907 194.649 52.9138 194.654ZM48.7188 190.525C48.8791 190.392 49.9361 190.145 50.2182 190.082C50.7792 189.959 51.3575 189.873 51.9499 189.838V194.654C51.6626 194.649 51.3664 194.63 51.0909 194.584C50.8882 194.549 50.8135 194.387 50.6362 194.122C50.0654 193.269 48.9967 191.469 48.7188 190.525ZM48.377 189.732C48.2829 189.4 48.1381 189.051 48.0314 188.703C47.6872 187.58 47.4413 186.403 47.3901 185.21H51.9504L51.9443 188.842C51.0392 188.89 50.0236 189.138 49.1763 189.434C48.9374 189.518 48.5876 189.685 48.377 189.732ZM59.8467 191.397C59.0093 190.892 58.9115 190.816 58.0195 190.368C57.7905 190.253 57.5691 190.173 57.3528 190.061C57.5606 189.318 57.8098 188.859 58.0581 187.819C58.256 186.99 58.4112 186.113 58.4389 185.21H62.3292C62.2507 187.235 61.5478 189.27 60.3488 190.814C60.1955 191.011 60.0192 191.252 59.8467 191.397ZM42.5387 185.21H46.4074C46.468 186.496 46.752 187.764 47.131 188.962C47.2467 189.329 47.4108 189.712 47.5123 190.06L46.2155 190.683C45.7886 190.892 45.3781 191.164 45.0189 191.397C44.4509 190.948 43.6103 189.42 43.3272 188.769C42.8749 187.728 42.5904 186.481 42.5387 185.21ZM52.9138 185.21H57.4746C57.4398 186.054 57.3062 186.863 57.121 187.65C57.0345 188.017 56.9339 188.37 56.8262 188.725L56.5676 189.504C56.5535 189.546 56.5356 189.601 56.5187 189.638C56.483 189.714 56.5098 189.678 56.4599 189.729C55.2182 189.292 54.3549 188.922 52.9185 188.842L52.9138 188.725V185.21ZM52.9204 180.615C53.5838 180.576 54.2143 180.453 54.827 180.287C55.1241 180.207 55.4025 180.122 55.6893 180.022C55.9296 179.938 56.2765 179.769 56.4891 179.724C56.5756 180.045 56.7322 180.407 56.8398 180.749C57.1887 181.853 57.4318 183.067 57.4671 184.246H52.9138L52.9204 180.615ZM47.3901 184.246C47.4441 182.987 47.675 181.922 48.0258 180.749C48.132 180.394 48.2787 180.061 48.377 179.725C48.5937 179.774 48.9591 179.948 49.1984 180.03C50.0668 180.327 51.011 180.56 51.9499 180.615L51.9292 184.246H47.3901ZM57.3523 179.395C57.5766 179.284 57.7882 179.204 58.0195 179.088C58.8894 178.652 59.013 178.574 59.8467 178.059C60.0926 178.267 60.5961 178.959 60.7894 179.27C61.0673 179.717 61.3085 180.158 61.5374 180.688C61.9893 181.734 62.2799 182.971 62.3255 184.246H58.438C58.3858 182.982 58.0783 181.667 57.7167 180.482C57.6072 180.123 57.4398 179.731 57.3523 179.395ZM42.5387 184.246C42.5904 182.975 42.8744 181.729 43.3272 180.687C43.606 180.046 44.4561 178.5 45.0189 178.06C45.3786 178.293 45.7891 178.564 46.2155 178.773L47.5123 179.397C47.4183 179.744 47.2556 180.135 47.1404 180.504C47.021 180.885 46.9161 181.285 46.8188 181.677C46.6208 182.48 46.4666 183.38 46.4224 184.246H42.5387ZM52.9138 174.802C53.1884 174.807 53.5434 174.824 53.8039 174.879C53.9506 174.91 53.9642 174.965 54.0479 175.089C54.6901 176.04 55.0588 176.573 55.6084 177.647C55.7669 177.957 56.0875 178.576 56.1778 178.901C55.788 179.204 53.5814 179.585 52.9138 179.619V174.802ZM48.6873 178.901C48.9327 178.011 50.1106 176.15 50.6409 175.339C50.7053 175.242 50.766 175.172 50.8323 175.074C50.9174 174.949 50.8995 174.905 51.0909 174.873C51.3659 174.826 51.6626 174.807 51.9499 174.802V179.619C51.3504 179.587 50.7608 179.495 50.2037 179.363C49.8905 179.289 48.8763 179.048 48.6873 178.901ZM57.0096 178.547C56.8911 178.089 56.42 177.189 56.1994 176.781C56.0476 176.501 55.8877 176.223 55.7269 175.973L55.2229 175.203C55.8919 175.32 56.8934 175.784 57.4134 176.086C58.0919 176.482 58.2057 176.585 58.7695 177.018C58.9166 177.132 59.0445 177.241 59.1654 177.374C58.9039 177.599 57.4483 178.463 57.0096 178.547ZM45.6988 177.376C45.8112 177.244 45.9532 177.128 46.0961 177.018C46.2428 176.905 46.3773 176.798 46.524 176.684C47.2438 176.124 48.7357 175.362 49.6427 175.203C49.5821 175.338 49.4584 175.479 49.3771 175.6L48.6549 176.8L47.8259 178.547C47.2326 178.346 46.0848 177.693 45.6988 177.376ZM51.7722 173.828C49.4871 173.972 47.0318 174.878 45.3988 176.322C45.2648 176.44 45.1529 176.542 45.0255 176.65L44.5107 177.141C44.4448 177.21 44.4002 177.264 44.3404 177.338L44.0264 177.694C43.9314 177.801 43.8308 177.941 43.7306 178.071C43.543 178.314 43.3338 178.604 43.1683 178.88C41.122 182.293 40.9594 186.108 42.6859 189.715C43.1006 190.582 43.8449 191.611 44.5107 192.315C44.5741 192.383 44.6249 192.408 44.6889 192.472C44.8544 192.637 44.765 192.591 45.042 192.821C45.1647 192.923 45.27 193.023 45.3984 193.135C47.3854 194.879 50.3927 195.795 53.108 195.63C58.9825 195.274 63.7125 190.367 63.335 184.053C63.2339 182.364 62.8163 181.069 62.1802 179.741C61.7645 178.873 61.0216 177.846 60.3554 177.141C60.2915 177.073 60.2407 177.048 60.1763 176.985C60.1118 176.92 60.0888 176.87 60.0202 176.806C57.8141 174.744 54.8951 173.63 51.7722 173.828Z" fill="white"/>
<path fill-rule="evenodd" clip-rule="evenodd" d="M86.9521 80.6409L97.0653 80.5474L96.9722 90.7541H87.0462L86.9521 80.6409Z" stroke="white" stroke-width="0.466772" stroke-miterlimit="22.9256"/>
<path fill-rule="evenodd" clip-rule="evenodd" d="M86.999 85.6979L81.8021 85.8634L74.4268 94.3136L76.5464 104.556L86.8453 103.144L92.5999 96.1087L92.0088 85.6509L86.999 85.6979Z" stroke="white" stroke-width="0.466772" stroke-miterlimit="22.9256"/>
<path fill-rule="evenodd" clip-rule="evenodd" d="M87.0461 90.7544L83.2221 91.4305L80.3652 94.8911L80.5462 98.5895L84.5217 98.1396L86.9732 94.7256L87.0461 90.7544Z" stroke="white" stroke-width="0.466772" stroke-miterlimit="22.9256"/>
<path fill-rule="evenodd" clip-rule="evenodd" d="M71.6454 105.597L66.5853 106.793L61.0371 116.541L65.1508 126.157L75.1859 122.303L79.2046 114.687L76.5457 104.555L71.6454 105.597Z" stroke="white" stroke-width="0.466772" stroke-miterlimit="22.9256"/>
<path fill-rule="evenodd" clip-rule="evenodd" d="M70.6328 100.594L80.5462 98.5894L82.5351 108.142L72.6372 110.507L70.6328 100.594Z" stroke="white" stroke-width="0.466772" stroke-miterlimit="22.9256"/>
<path fill-rule="evenodd" clip-rule="evenodd" d="M72.7521 110.518L69.2967 111.839L66.8809 116.568L67.7987 119.906L71.3904 118.944L73.6153 114.395L72.7521 110.518Z" stroke="white" stroke-width="0.466772" stroke-miterlimit="22.9256"/>
<path fill-rule="evenodd" clip-rule="evenodd" d="M62.3467 133.113L58.5297 134.488L57.0186 139.979L58.9458 142.724L62.5982 141.533L64.4451 136.597L62.3467 133.113Z" stroke="white" stroke-width="0.466772" stroke-miterlimit="22.9256"/>
<path fill-rule="evenodd" clip-rule="evenodd" d="M58.4639 123.796L67.7989 119.905L71.9911 129.056L62.3551 133.131L58.4639 123.796Z" stroke="white" stroke-width="0.466772" stroke-miterlimit="22.9256"/>
<path fill-rule="evenodd" clip-rule="evenodd" d="M60.5444 128.127L55.8111 130.279L51.5742 141.51L58.1751 149.838L67.1129 144.291L69.7186 135.583L65.1513 126.157L60.5444 128.127Z" stroke="white" stroke-width="0.466772" stroke-miterlimit="22.9256"/>
<path fill-rule="evenodd" clip-rule="evenodd" d="M51.1045 149.111L58.9462 142.724L65.2453 150.755L57.4915 156.952L51.1045 149.111Z" stroke="white" stroke-width="0.466772" stroke-miterlimit="22.9256"/>
<path fill-rule="evenodd" clip-rule="evenodd" d="M271.809 80.6409L261.695 80.5474L261.789 90.7541H271.714L271.809 80.6409Z" stroke="white" stroke-width="0.466772" stroke-miterlimit="22.9256"/>
<path fill-rule="evenodd" clip-rule="evenodd" d="M271.762 85.6979L276.959 85.8634L284.335 94.3136L282.215 104.556L271.916 103.144L266.161 96.1087L266.752 85.6509L271.762 85.6979Z" stroke="white" stroke-width="0.466772" stroke-miterlimit="22.9256"/>
<path fill-rule="evenodd" clip-rule="evenodd" d="M271.715 90.7544L275.539 91.4305L278.396 94.8911L278.215 98.5895L274.239 98.1396L271.788 94.7256L271.715 90.7544Z" stroke="white" stroke-width="0.466772" stroke-miterlimit="22.9256"/>
<path fill-rule="evenodd" clip-rule="evenodd" d="M287.115 105.597L292.174 106.793L297.723 116.541L293.609 126.157L283.574 122.303L279.556 114.687L282.214 104.555L287.115 105.597Z" stroke="white" stroke-width="0.466772" stroke-miterlimit="22.9256"/>
<path fill-rule="evenodd" clip-rule="evenodd" d="M288.127 100.594L278.214 98.5894L276.226 108.142L286.123 110.507L288.127 100.594Z" stroke="white" stroke-width="0.466772" stroke-miterlimit="22.9256"/>
<path fill-rule="evenodd" clip-rule="evenodd" d="M286.009 110.518L289.464 111.839L291.88 116.568L290.962 119.906L287.37 118.944L285.146 114.395L286.009 110.518Z" stroke="white" stroke-width="0.466772" stroke-miterlimit="22.9256"/>
<path fill-rule="evenodd" clip-rule="evenodd" d="M296.414 133.113L300.231 134.488L301.742 139.979L299.815 142.724L296.162 141.533L294.315 136.597L296.414 133.113Z" stroke="white" stroke-width="0.466772" stroke-miterlimit="22.9256"/>
<path fill-rule="evenodd" clip-rule="evenodd" d="M300.297 123.796L290.962 119.905L286.77 129.056L296.405 133.131L300.297 123.796Z" stroke="white" stroke-width="0.466772" stroke-miterlimit="22.9256"/>
<path fill-rule="evenodd" clip-rule="evenodd" d="M298.216 128.127L302.95 130.279L307.186 141.51L300.585 149.838L291.648 144.291L289.042 135.583L293.61 126.157L298.216 128.127Z" stroke="white" stroke-width="0.466772" stroke-miterlimit="22.9256"/>
<path fill-rule="evenodd" clip-rule="evenodd" d="M307.656 149.111L299.815 142.724L293.516 150.755L301.269 156.952L307.656 149.111Z" stroke="white" stroke-width="0.466772" stroke-miterlimit="22.9256"/>
<path fill-rule="evenodd" clip-rule="evenodd" d="M173.467 145.544L173.467 145.544C174.56 144.411 176.38 144.379 177.513 145.472L181.89 149.694C183.022 150.787 183.055 152.608 181.962 153.74V153.741C180.869 154.873 179.048 154.906 177.916 153.813L173.539 149.59C172.406 148.498 172.374 146.677 173.467 145.544Z" fill="white" stroke="white" stroke-width="0.288" stroke-miterlimit="22.9256"/>
<path d="M172.374 148.874C170.721 147.279 168.492 146.908 167.394 148.046C166.297 149.183 166.747 151.398 168.4 152.993L172.975 157.407C174.628 159.001 176.858 159.372 177.955 158.235C179.052 157.098 178.602 154.883 176.949 153.288L172.374 148.874Z" fill="white" stroke="white" stroke-width="0.130775" stroke-miterlimit="22.9256"/>
<path fill-rule="evenodd" clip-rule="evenodd" d="M163.657 152.882H163.658C164.75 151.749 166.571 151.717 167.704 152.81L173.603 158.501C174.735 159.594 174.768 161.415 173.675 162.547L173.674 162.547C172.582 163.68 170.761 163.713 169.629 162.62L163.73 156.928C162.597 155.836 162.564 154.015 163.657 152.882Z" fill="white" stroke="white" stroke-width="0.288" stroke-miterlimit="22.9256"/>
<path fill-rule="evenodd" clip-rule="evenodd" d="M160.372 158.154L160.372 158.153C161.465 157.021 163.286 156.989 164.419 158.082L169.533 163.016C170.666 164.108 170.698 165.93 169.605 167.062V167.063C168.512 168.195 166.692 168.228 165.559 167.134L160.445 162.2C159.312 161.107 159.279 159.287 160.372 158.154Z" fill="white" stroke="white" stroke-width="0.288" stroke-miterlimit="22.9256"/>
<path fill-rule="evenodd" clip-rule="evenodd" d="M219.653 184.962C218.837 184.222 216.9 182.638 215.311 181.141C217.909 171.35 218.529 160.621 218.075 148.325C201.38 145.825 190.065 142.422 179.068 134.679C168.071 142.422 156.756 145.825 140.061 148.325C139.518 163.031 140.509 175.492 144.627 186.811C148.059 183.581 151.452 180.335 154.845 177.089C157.295 174.591 158.247 171.816 158.092 168.835C157.574 165.855 157.801 163.229 159.247 161.188C166.611 156.863 178.256 147.35 181.341 148.214C183.941 150.191 186.435 152.345 188.95 154.432C190.975 158.186 193 161.94 195.025 165.695C194.919 168.099 194.814 170.504 194.708 172.908C191.861 176.557 189.013 180.206 186.166 183.855C184.542 184.087 182.918 184.319 181.294 184.551C180.958 184.478 180.623 184.404 180.287 184.331C179.124 185.233 177.964 185.252 176.604 185.417C173.808 185.547 172.121 185.745 169.935 188.249C167.398 191.174 154.476 205.326 151.353 209.076C136.664 190.402 133.261 170.176 134.242 143.591C153.428 140.719 166.431 136.809 179.068 127.911C191.705 136.809 204.708 140.719 223.894 143.591C224.472 159.271 223.533 172.729 219.653 184.962Z" stroke="white" stroke-miterlimit="22.9256"/>
<path fill-rule="evenodd" clip-rule="evenodd" d="M153.308 211.473C155.058 209.318 154.996 209.547 156.695 207.444C158.494 209.574 160.415 211.618 162.581 213.718C165.443 216.494 175.95 225.268 179.068 225.428C182.185 225.268 192.693 216.494 195.555 213.718C199.293 210.094 202.465 206.439 205.08 202.793C201.456 199.032 195.123 192.416 191.564 188.565C189.684 185.957 186.685 187.215 184.246 186.54C182.748 186.058 181.403 185.551 180.287 184.331C186.289 180.547 191.747 175.393 193.554 169.23C194.742 165.178 189.237 161.192 188.097 158.557C186.152 153.557 189.64 151.1 191.437 152.711C194.48 155.515 197.252 158.441 200.566 161.122C205.378 165.717 203.112 169.012 204.082 172.78C205.001 175.348 206.069 176.6 207.634 178.261C210.981 181.732 215.317 185.314 218.393 188.611C214.353 199.373 207.905 209.149 198.015 218.74C194.725 221.93 182.65 232.012 179.068 232.196C175.485 232.012 163.41 221.93 160.121 218.74C157.447 216.146 155.492 214.1 153.308 211.473Z" fill="white"/>
</g>
<defs>
<filter id="filter0_d_26_20053" x="12.4834" y="16.4834" width="333.033" height="333.033" filterUnits="userSpaceOnUse" color-interpolation-filters="sRGB">
<feFlood flood-opacity="0" result="BackgroundImageFix"/>
<feColorMatrix in="SourceAlpha" type="matrix" values="0 0 0 0 0 0 0 0 0 0 0 0 0 0 0 0 0 0 127 0" result="hardAlpha"/>
<feOffset dy="4"/>
<feGaussianBlur stdDeviation="2"/>
<feComposite in2="hardAlpha" operator="out"/>
<feColorMatrix type="matrix" values="0 0 0 0 0 0 0 0 0 0 0 0 0 0 0 0 0 0 0.25 0"/>
<feBlend mode="normal" in2="BackgroundImageFix" result="effect1_dropShadow_26_20053"/>
<feBlend mode="normal" in="SourceGraphic" in2="effect1_dropShadow_26_20053" result="shape"/>
</filter>
</defs>
</svg>
