<?xml version="1.0" encoding="UTF-8"?>
<!DOCTYPE svg PUBLIC "-//W3C//DTD SVG 1.1//EN" "http://www.w3.org/Graphics/SVG/1.1/DTD/svg11.dtd">
<!-- Creator: CorelDRAW -->
<svg xmlns="http://www.w3.org/2000/svg" xml:space="preserve" width="16.8146mm" height="16.6134mm" version="1.1" style="shape-rendering:geometricPrecision; text-rendering:geometricPrecision; image-rendering:optimizeQuality; fill-rule:evenodd; clip-rule:evenodd"
viewBox="0 0 1681.46 1661.34"
 xmlns:xlink="http://www.w3.org/1999/xlink"
 xmlns:xodm="http://www.corel.com/coreldraw/odm/2003">
 <defs>
  <style type="text/css">
   <![CDATA[
    .str0 {stroke:#366F64;stroke-width:24.99;stroke-miterlimit:10}
    .str1 {stroke:#086351;stroke-width:20;stroke-miterlimit:10}
    .str2 {stroke:#086351;stroke-width:20;stroke-miterlimit:10}
    .fil2 {fill:#00A0E3;fill-rule:nonzero}
    .fil1 {fill:#086351;fill-rule:nonzero}
    .fil0 {fill:#366F64;fill-rule:nonzero}
   ]]>
  </style>
 </defs>
 <g id="Слой_x0020_1">
  <metadata id="CorelCorpID_0Corel-Layer"/>
  <path class="fil0 str0" d="M1617.95 349.08l-1566.33 0 0 -283.96 1566.33 0 0 283.96zm0 1262.14l-1566.33 0 0 -1217.07 1566.33 0 0 1217.07zm22.53 -1591.19l-1611.39 0c-12.42,0 -22.53,10.12 -22.53,22.56l0 1591.16c0,12.51 10.11,22.62 22.53,22.62l1611.39 0c12.44,0 22.55,-10.11 22.55,-22.62l0 -1591.16c0,-12.44 -10.11,-22.56 -22.55,-22.56z"/>
  <path class="fil0" d="M177.95 173.68c16.09,0 29.08,12.98 29.08,29.08 0,16.09 -12.99,29.08 -29.08,29.08 -16.08,0 -29.06,-12.99 -29.06,-29.08 0,-16.1 12.98,-29.08 29.06,-29.08zm0 103.31c40.95,0 74.23,-33.3 74.23,-74.23 0,-40.94 -33.28,-74.24 -74.23,-74.24 -40.85,0 -74.24,33.3 -74.24,74.24 0,40.93 33.39,74.23 74.24,74.23z"/>
  <path class="fil0" d="M365.61 173.68c16.01,0 29.06,12.98 29.06,29.08 0,16.09 -13.05,29.08 -29.06,29.08 -16,0 -29.08,-12.99 -29.08,-29.08 0,-16.1 13.08,-29.08 29.08,-29.08zm0 103.31c40.94,0 74.24,-33.3 74.24,-74.23 0,-40.94 -33.3,-74.24 -74.24,-74.24 -40.93,0 -74.23,33.3 -74.23,74.24 0,40.93 33.3,74.23 74.23,74.23z"/>
  <path class="fil0" d="M553.19 173.68c16.17,0 29.15,12.98 29.15,29.08 0,16.09 -12.98,29.08 -29.15,29.08 -16.01,0 -29.08,-12.99 -29.08,-29.08 0,-16.1 13.07,-29.08 29.08,-29.08zm0 103.31c40.94,0 74.24,-33.3 74.24,-74.23 0,-40.94 -33.3,-74.24 -74.24,-74.24 -40.86,0 -74.17,33.3 -74.17,74.24 0,40.93 33.31,74.23 74.17,74.23z"/>
  <path class="fil1" d="M149.25 505.39l706.19 0 0 968.19 -706.19 0 0 -968.19zm-45.16 -22.55l0 1013.28c0,12.5 10.12,22.62 22.54,22.62l751.44 0c12.5,0 22.55,-10.12 22.55,-22.62l0 -1013.28c0,-12.42 -10.05,-22.53 -22.55,-22.53l-751.44 0c-12.42,0 -22.54,10.11 -22.54,22.53z"/>
  <path class="fil1" d="M742.08 820.98l-101.71 0 0 -101.76 101.71 0 0 101.76zm15.04 -131.84l-131.79 0c-8.35,0 -15.1,6.75 -15.1,15.04l0 131.85c0,8.35 6.75,15.1 15.1,15.1l131.79 0c8.31,0 15.06,-6.75 15.06,-15.1l0 -131.85c0,-8.29 -6.75,-15.04 -15.06,-15.04z"/>
  <path class="fil1" d="M249.52 1061.99l512.09 0c12.44,0 22.55,-10.12 22.55,-22.56 0,-12.58 -10.11,-22.62 -22.55,-22.62l-512.09 0c-12.58,0 -22.63,10.04 -22.63,22.62 0,12.44 10.05,22.56 22.63,22.56z"/>
  <path class="fil1" d="M767.28 1236.9l-512.19 0c-12.41,0 -22.53,10.11 -22.53,22.53 0,12.42 10.12,22.53 22.53,22.53l512.19 0c12.41,0 22.53,-10.11 22.53,-22.53 0,-12.42 -10.12,-22.53 -22.53,-22.53z"/>
  <g>
   <path class="fil0" d="M359.47 665.7l0 38.76 -82.09 0 -7.25 -38.76 89.34 0zm-61.43 148.78l-6.72 -35.82 0.81 0.18 67.34 0 0 34.48 0.23 1.16 -61.66 0zm72.98 -1.16l0 -34.48 77.69 0 0 35.64 -77.92 0 0.23 -1.16zm0 -96.49l77.69 0 0 49.61 -77.69 0 0 -49.61zm0 -51.13l77.69 0 0 38.76 -77.69 0 0 -38.76zm-81.8 101.72l-9.48 -50.59 79.73 0 0 49.61 -67.34 0 -2.91 0.98zm170.99 11.42l13.32 0 -13.32 22.96 0 -22.96zm0 -62.01l49.24 0 -28.74 49.61 -20.5 0 0 -49.61zm0 -51.13l78.89 0 -22.55 38.9 -0.79 -0.14 -55.55 0 0 -38.76zm-172.62 161.48l168.48 -0.31c1.97,0 3.83,-1.09 4.86,-2.91l93.41 -161.17c1.12,-1.92 1.17,-4.3 0.17,-6.3 -1.02,-1.96 -2.94,-3.19 -5.03,-3.19l-281.68 0 -9.84 -52.38c-0.54,-2.88 -2.92,-4.98 -5.63,-4.98l-30.11 0c-3.17,0 -5.75,2.78 -5.75,6.18 0,3.46 2.58,6.21 5.75,6.21l25.41 0 39.96 212.97c0,1.97 0,3.94 0,5.88z"/>
   <path id="_1" class="fil0" d="M353.71 704.46l0 -38.76 11.52 0 0 38.76 -5.76 5.77 -5.76 -5.77zm11.52 0l0 5.77 -5.76 0 5.76 -5.77zm-87.85 -5.77l82.09 0 0 11.54 -82.09 0 -5.66 -4.71 5.66 -6.83zm0 11.54l-4.78 0 -0.88 -4.71 5.66 4.71zm-1.59 -45.59l7.25 38.76 -11.32 2.12 -7.25 -38.76 5.66 -6.83 5.66 4.71zm-11.32 2.12l-1.28 -6.83 6.94 0 -5.66 6.83zm95 4.71l-89.34 0 0 -11.54 89.34 0 5.76 5.77 -5.76 5.77zm0 -11.54l5.76 0 0 5.77 -5.76 -5.77zm-62.49 117.66l6.72 35.82 -11.32 2.14 -6.72 -35.82 6.91 -6.7 4.41 4.56zm-11.32 2.14l-1.61 -8.59 8.52 1.89 -6.91 6.7zm5.22 4.74l-0.81 -0.18 2.5 -11.26 0.81 0.18 -1.25 11.4 -1.25 -0.14zm1.25 0.14l-0.62 0 -0.63 -0.14 1.25 0.14zm67.34 0l-67.34 0 0 -11.54 67.34 0 5.76 5.77 -5.76 5.77zm0 -11.54l5.76 0 0 5.77 -5.76 -5.77zm-5.76 40.25l0 -34.48 11.52 0 0 34.48 -11.41 1.12 -0.11 -1.12zm0.11 1.12l-0.11 -0.55 0 -0.57 0.11 1.12zm0.23 1.16l-0.23 -1.16 11.3 -2.24 0.23 1.16 -5.65 6.89 -5.65 -4.65zm11.3 -2.24l1.37 6.89 -7.02 0 5.65 -6.89zm-67.31 -4.65l61.66 0 0 11.54 -61.66 0 -5.66 -4.7 5.66 -6.84zm0 11.54l-4.78 0 -0.88 -4.7 5.66 4.7zm78.74 -41.41l0 34.48 -11.52 0 0 -34.48 5.76 -5.77 5.76 5.77zm-11.52 0l0 -5.77 5.76 0 -5.76 5.77zm83.45 5.77l-77.69 0 0 -11.54 77.69 0 5.76 5.77 -5.76 5.77zm0 -11.54l5.76 0 0 5.77 -5.76 -5.77zm-5.76 41.41l0 -35.64 11.52 0 0 35.64 -5.76 5.77 -5.76 -5.77zm11.52 0l0 5.77 -5.76 0 5.76 -5.77zm-83.68 -5.77l77.92 0 0 11.54 -77.92 0 -5.65 -6.89 5.65 -4.65zm0 11.54l-7.02 0 1.37 -6.89 5.65 6.89zm5.88 -5.81l-0.23 1.16 -11.3 -2.24 0.23 -1.16 11.41 1.12 -0.11 1.12zm0.11 -1.12l0 0.57 -0.11 0.55 0.11 -1.12zm71.93 -90.72l-77.69 0 0 -11.54 77.69 0 5.76 5.77 -5.76 5.77zm0 -11.54l5.76 0 0 5.77 -5.76 -5.77zm-5.76 55.38l0 -49.61 11.52 0 0 49.61 -5.76 5.77 -5.76 -5.77zm11.52 0l0 5.77 -5.76 0 5.76 -5.77zm-83.45 -5.77l77.69 0 0 11.54 -77.69 0 -5.76 -5.77 5.76 -5.77zm0 11.54l-5.76 0 0 -5.77 5.76 5.77zm5.76 -55.38l0 49.61 -11.52 0 0 -49.61 5.76 -5.77 5.76 5.77zm-11.52 0l0 -5.77 5.76 0 -5.76 5.77zm83.45 -45.36l-77.69 0 0 -11.54 77.69 0 5.76 5.77 -5.76 5.77zm0 -11.54l5.76 0 0 5.77 -5.76 -5.77zm-5.76 44.53l0 -38.76 11.52 0 0 38.76 -5.76 5.77 -5.76 -5.77zm11.52 0l0 5.77 -5.76 0 5.76 -5.77zm-83.45 -5.77l77.69 0 0 11.54 -77.69 0 -5.76 -5.77 5.76 -5.77zm0 11.54l-5.76 0 0 -5.77 5.76 5.77zm5.76 -44.53l0 38.76 -11.52 0 0 -38.76 5.76 -5.77 5.76 5.77zm-11.52 0l0 -5.77 5.76 0 -5.76 5.77zm-79.86 50.07l9.48 50.59 -11.32 2.12 -9.48 -50.59 5.66 -6.83 5.66 4.71zm-11.32 2.12l-1.28 -6.83 6.94 0 -5.66 6.83zm85.39 4.71l-79.73 0 0 -11.54 79.73 0 5.76 5.77 -5.76 5.77zm0 -11.54l5.76 0 0 5.77 -5.76 -5.77zm-5.76 55.38l0 -49.61 11.52 0 0 49.61 -5.76 5.77 -5.76 -5.77zm11.52 0l0 5.77 -5.76 0 5.76 -5.77zm-73.1 -5.77l67.34 0 0 11.54 -67.34 0 -1.83 -11.24 1.83 -0.3zm-1.83 0.3l0.89 -0.3 0.94 0 -1.83 0.3zm-2.91 0.98l2.91 -0.98 3.66 10.94 -2.91 0.98 -7.49 -4.41 3.83 -6.53zm3.66 10.94l-6.27 2.11 -1.22 -6.52 7.49 4.41zm182.48 11.72l-13.32 0 0 -11.54 13.32 0 4.98 8.67 -4.98 2.87zm0 -11.54l10.01 0 -5.03 8.67 -4.98 -8.67zm-18.3 25.83l13.32 -22.96 9.96 5.8 -13.32 22.96 -10.74 -2.9 0.78 -2.9zm9.96 5.8l-10.74 18.51 0 -21.41 10.74 2.9zm0.78 -25.86l0 22.96 -11.52 0 0 -22.96 5.76 -5.77 5.76 5.77zm-11.52 0l0 -5.77 5.76 0 -5.76 5.77zm55 -56.24l-49.24 0 0 -11.54 49.24 0 4.98 8.67 -4.98 2.87zm0 -11.54l10 0 -5.02 8.67 -4.98 -8.67zm-33.72 52.48l28.74 -49.61 9.96 5.8 -28.74 49.61 -4.98 2.87 -4.98 -8.67zm9.96 5.8l-1.66 2.87 -3.32 0 4.98 -2.87zm-25.48 -8.67l20.5 0 0 11.54 -20.5 0 -5.76 -5.77 5.76 -5.77zm0 11.54l-5.76 0 0 -5.77 5.76 5.77zm5.76 -55.38l0 49.61 -11.52 0 0 -49.61 5.76 -5.77 5.76 5.77zm-11.52 0l0 -5.77 5.76 0 -5.76 5.77zm84.65 -45.36l-78.89 0 0 -11.54 78.89 0 4.98 8.67 -4.98 2.87zm0 -11.54l10.01 0 -5.03 8.67 -4.98 -8.67zm-27.53 41.77l22.55 -38.9 9.96 5.8 -22.55 38.9 -5.98 2.78 -3.98 -8.58zm9.96 5.8l-2.02 3.48 -3.96 -0.7 5.98 -2.78zm-4.77 -8.72l0.79 0.14 -2 11.36 -0.79 -0.14 1 -11.45 1 0.09zm-1 -0.09l0.49 0 0.51 0.09 -1 -0.09zm-55.55 0l55.55 0 0 11.54 -55.55 0 -5.76 -5.77 5.76 -5.77zm0 11.54l-5.76 0 0 -5.77 5.76 5.77zm5.76 -44.53l0 38.76 -11.52 0 0 -38.76 5.76 -5.77 5.76 5.77zm-11.52 0l0 -5.77 5.76 0 -5.76 5.77zm1.63 166.94l-168.48 0.31 -0.02 -11.54 168.48 -0.31 0.01 0 0.01 11.54zm-0.02 -11.54l0 0 0.01 0 -0.01 0zm-0.11 -0.04l9.96 5.8 0.03 -0.05 -0.19 0.31 -0.21 0.34 -0.18 0.26 -0.23 0.33 -0.31 0.39 -0.19 0.23 -0.27 0.31 -0.28 0.28 -0.21 0.21 -0.3 0.28 -0.23 0.19 -0.31 0.26 -0.32 0.25 -0.25 0.18 -0.33 0.22 -0.34 0.21 -0.4 0.23 -0.29 0.14 -0.22 0.11 -0.36 0.17 -0.44 0.18 -0.31 0.11 -0.31 0.11 -0.36 0.11 -0.37 0.1 -0.47 0.1 -0.34 0.06 -0.33 0.05 -0.34 0.04 -0.35 0.04 -0.49 0.03 -0.34 0 0 -11.54 0.02 0 -0.11 0.01 0.01 0 0.02 0 0.03 -0.01 0.02 0 -0.11 0.02 -0.01 0 -0.02 0.01 0.03 -0.01 0.03 -0.01 -0.1 0.04 -0.02 0.01 0.1 -0.05 0.03 -0.02 -0.08 0.05 -0.02 0.01 -0.03 0.02 0.05 -0.04 -0.02 0.03 -0.03 0.02 0.05 -0.05 -0.02 0.02 0.05 -0.05 -0.02 0.02 -0.01 0.01 0.05 -0.05 -0.07 0.09 -0.01 0.01 0.04 -0.06 -0.01 0.02 0.01 -0.03 0.03 -0.05zm-0.03 0.05l0.03 -0.05 -0.07 0.12 0.04 -0.07zm103.4 -155.42l-93.41 161.17 -9.96 -5.8 93.41 -161.17 0.01 -0.01 9.95 5.81zm-9.96 -5.8l0.01 -0.01 -0.65 1.12 0.64 -1.11zm0.04 -0.73l10.22 -5.34 0.04 0.09 0.14 0.3 0.2 0.42 0.13 0.36 0.13 0.32 0.14 0.44 0.07 0.24 0.14 0.46 0.1 0.47 0.04 0.2 0.06 0.33 0.08 0.5 0.03 0.35 0.03 0.33 0.03 0.49 0 0.35 0 0.34 -0.02 0.34 -0.02 0.35 -0.05 0.5 -0.05 0.34 -0.05 0.34 -0.09 0.47 -0.08 0.33 -0.1 0.37 -0.1 0.32 -0.1 0.33 -0.18 0.48 -0.12 0.31 -0.16 0.36 -0.2 0.41 -0.16 0.3 -0.19 0.34 -9.94 -5.82 0.01 -0.02 0.04 -0.08 -0.02 0.05 0 -0.02 0.04 -0.07 -0.04 0.1 0.02 -0.07 0.02 -0.06 0 -0.03 0.02 -0.07 -0.01 0.07 0.01 -0.06 0.01 -0.06 -0.01 0.1 0 -0.07 0 -0.06 0 -0.06 0 -0.07 0.01 0.09 -0.01 -0.07 -0.01 -0.07 0.02 0.1 -0.02 -0.07 -0.04 -0.2 0.02 0.07 0.02 0.06 -0.05 -0.16 0.02 0.06 -0.03 -0.08 -0.01 -0.02 0.02 0.04 -0.04 -0.08 0.04 0.09zm10.22 -5.34l0.04 0.09 -0.17 -0.34 0.13 0.25zm-10.14 5.25l0 -11.54 0 0 0.35 0 0.49 0.03 0.49 0.05 0.34 0.05 0.33 0.06 0.33 0.06 0.37 0.08 0.46 0.13 0.46 0.15 0.35 0.13 0.23 0.09 0.49 0.21 0.29 0.15 0.29 0.14 0.4 0.22 0.34 0.21 0.33 0.22 0.33 0.23 0.31 0.25 0.24 0.19 0.31 0.27 0.29 0.27 0.22 0.22 0.28 0.28 0.33 0.38 0.25 0.31 0.19 0.25 0.24 0.33 0.22 0.33 0.21 0.34 0.2 0.34 0.18 0.32 -10.22 5.34 -0.02 -0.04 0 -0.02 -0.01 0 0 -0.01 0 0.01 -0.05 -0.07 -0.01 -0.01 0.07 0.08 0 0 -0.06 -0.06 0.01 0.01 0.01 0.01 -0.06 -0.05 0.01 0.01 0.01 0.01 0.01 0 0 0.01 0.06 0.02 -0.05 -0.02 -0.05 -0.03 0.15 0.07 -0.13 -0.05 -0.01 -0.01 0.08 0.03 0.1 0.03 -0.01 0 -0.05 -0.02 -0.05 0 -0.04 -0.01 0.11 0.01 0.11 0.01 -0.05 0 0 0zm-281.68 -11.54l281.68 0 0 11.54 -281.68 0 -5.66 -4.7 5.66 -6.84zm0 11.54l-4.78 0 -0.88 -4.7 5.66 4.7zm-4.18 -59.22l9.84 52.38 -11.32 2.14 -9.84 -52.38 0 0 11.32 -2.14zm-11.29 1.86l0 -11.54 0 0 0.48 0.02 0.48 0.02 0.7 0.08 0.49 0.1 0.37 0.08 0.57 0.14 0.48 0.16 0.51 0.18 0.42 0.19 0.42 0.18 0.59 0.32 0.35 0.21 0.42 0.27 0.41 0.3 0.33 0.25 0.44 0.37 0.36 0.34 0.29 0.29 0.34 0.36 0.37 0.44 0.3 0.4 0.25 0.34 0.3 0.47 0.24 0.41 0.22 0.4 0.22 0.45 0.23 0.51 0.18 0.47 0.13 0.38 0.18 0.59 0.12 0.48 0.1 0.48 -11.32 2.14 -0.02 -0.06 0 -0.04 0.02 0.07 -0.05 -0.12 0 -0.03 0.01 0.03 0 -0.01 -0.04 -0.06 -0.02 -0.05 0.02 0.05 -0.05 -0.08 0 0 0.03 0.04 0 0 -0.07 -0.07 0 0 0.06 0.05 -0.07 -0.05 0.01 0 0 0.01 -0.07 -0.05 0.15 0.08 -0.04 -0.02 -0.02 -0.01 0.05 0.02 0 0 0.09 0.02 -0.11 -0.02 -0.01 0 0.2 0.02 -0.02 0 -0.02 0 0 0zm-30.11 -11.54l30.11 0 0 11.54 -30.11 0 0 0 0 -11.54zm0.01 11.95l-11.52 0 0 0 0.02 -0.59 0.04 -0.6 0.07 -0.59 0.09 -0.5 0.12 -0.59 0.16 -0.59 0.15 -0.49 0.22 -0.6 0.24 -0.55 0.18 -0.39 0.26 -0.49 0.33 -0.56 0.28 -0.42 0.38 -0.53 0.37 -0.44 0.32 -0.37 0.4 -0.4 0.36 -0.34 0.49 -0.42 0.47 -0.35 0.41 -0.29 0.48 -0.3 0.53 -0.29 0.57 -0.28 0.48 -0.2 0.53 -0.19 0.61 -0.19 0.51 -0.13 0.58 -0.11 0.67 -0.1 0.6 -0.04 0.59 -0.02 0 11.54 -0.01 0 0.02 0 0.11 -0.02 0 0.01 -0.05 0.01 0.07 -0.03 0.01 0.01 -0.06 0.02 0.07 -0.04 0.03 -0.01 0 0 -0.05 0.03 0.01 -0.01 0.05 -0.04 -0.04 0.04 0 0 -0.06 0.07 -0.01 0 0.04 -0.05 -0.04 0.06 0.03 -0.06 0 0.03 -0.08 0.15 0 -0.01 0.02 -0.04 -0.03 0.09 0 -0.01 0 0.01 -0.01 0.1 -0.01 0.03 0 0.02 0 0.05 0 0zm-0.01 0.44l0 11.54 0 0 -0.59 -0.02 -0.6 -0.04 -0.58 -0.08 -0.57 -0.1 -0.71 -0.18 -0.51 -0.17 -0.44 -0.15 -0.65 -0.27 -0.49 -0.25 -0.45 -0.24 -0.56 -0.34 -0.41 -0.29 -0.47 -0.35 -0.49 -0.42 -0.41 -0.39 -0.35 -0.36 -0.32 -0.36 -0.37 -0.45 -0.35 -0.47 -0.34 -0.52 -0.33 -0.56 -0.21 -0.42 -0.2 -0.41 -0.26 -0.6 -0.2 -0.56 -0.16 -0.52 -0.16 -0.59 -0.12 -0.58 -0.08 -0.51 -0.07 -0.59 -0.04 -0.6 -0.02 -0.59 11.52 0 0 0.05 0 0.04 0.01 0.03 0.02 0.11 0 0.02 0 0.01 0.02 0.06 0 0 -0.02 -0.04 0.06 0.11 0.05 0.1 -0.03 -0.04 -0.02 -0.04 -0.01 -0.01 0.01 0.01 0.06 0.06 0.05 0.06 -0.01 -0.01 -0.05 -0.04 -0.01 -0.01 0.05 0.03 -0.08 -0.04 0.05 0.02 0.01 0.01 -0.11 -0.05 0.08 0.03 0.03 0.01 -0.15 -0.04 0.01 0 -0.02 0 -0.02 0 0.01 0 0 0zm25.41 11.54l-25.41 0 0 -11.54 25.41 0 5.66 4.7 -5.66 6.84zm0 -11.54l4.78 0 0.88 4.7 -5.66 -4.7zm34.3 219.81l-39.96 -212.97 11.32 -2.14 39.96 212.97 0.1 1.07 -11.42 1.07zm11.32 -2.14l0.1 0.53 0 0.54 -0.1 -1.07zm-5.67 1.18l0.02 11.54 -5.77 -5.77 0 -0.73 0 -0.73 0 -0.73 0 -0.74 0 -0.74 0 -0.73 0 -0.74 0 -0.74 11.52 0 0 0.74 0 0.74 0 0.73 0 0.74 0 0.74 0 0.73 0 0.73 0 0.73 -5.77 -5.77zm0.02 11.54l-5.77 0.01 0 -5.78 5.77 5.77z"/>
  </g>
  <path class="fil2 str1" d="M1092.77 833.28l68.83 76.77c8.75,9.77 24.76,6.67 29.28,-5.65l84.35 -229.73 69.42 141.61c5.08,10.37 19.83,10.34 24.91,-0.04l159.28 -327.3c2.43,-4.94 0.42,-10.87 -4.48,-13.3 -4.98,-2.51 -11.04,-0.46 -13.44,4.55l-153.6 316.51 -68.58 -139.91c-6.07,-12.38 -24.03,-11.43 -28.79,1.52l-86.32 235.16 -65.27 -72.78c-9.63,-10.73 -27.06,-8.57 -33.76,4.23l-77.29 147.04 0 -492.65c0,-5.54 -4.48,-10.02 -9.99,-10.02 -5.5,0 -9.98,4.48 -9.98,10.02l0 520.66c0,12.45 10.09,22.54 22.51,22.54l520.66 0c5.51,0 9.99,-4.48 9.99,-10.02 0,-5.5 -4.48,-9.98 -9.99,-9.98l-516.64 0 88.9 -169.23z"/>
  <path class="fil2 str2" d="M1208.33 1206.99c0,-27.65 22.57,-50.15 50.16,-50.15 27.8,0 50.14,22.5 50.14,50.15 0,27.65 -22.34,50.15 -50.14,50.15 -27.59,0 -50.16,-22.5 -50.16,-50.15zm113.29 0c0,-34.76 -28.26,-63.05 -63.13,-63.05 -34.66,0 -62.92,28.29 -62.92,63.05 0,34.79 28.26,63.08 62.92,63.08 34.87,0 63.13,-28.29 63.13,-63.08z"/>
  <path class="fil2 str2" d="M1032.58 1502.3l121.73 -164.72 38.75 0 59.73 127.54c0.91,2.28 3.18,3.75 5.7,3.75 2.5,0 4.78,-1.47 5.92,-3.75l59.73 -127.54 35.55 0 116.03 164.72 -443.14 0zm140.42 -348.45c17.55,-28.95 46.73,-46.52 80.01,-48.21l5.48 -0.13 5.69 0.13c33.28,1.69 62.46,19.26 80.01,48.21 18.01,29.68 20.29,66.18 5.93,97.55l-91.63 195.74 -91.42 -195.68c-14.36,-31.43 -12.31,-67.93 5.93,-97.61zm320.5 351.19l-125.15 -177.67c-1.36,-1.71 -3.18,-2.71 -5.46,-2.71l-32.83 0 31.92 -67.82c15.95,-35.35 13.67,-76.36 -6.61,-109.69 -19.84,-32.66 -52.89,-52.49 -90.51,-54.39 -4.1,-0.22 -8.43,-0.22 -12.53,0 -37.62,1.9 -70.67,21.73 -90.5,54.39 -20.29,33.33 -22.57,74.34 -6.61,109.74l31.68 67.77 -35.78 0 -5.25 2.62 -131.3 177.65c-1.36,1.96 -1.6,4.58 -0.45,6.74 0.91,2.19 3.19,3.56 5.7,3.56l468.44 0c2.28,0 4.56,-1.35 5.7,-3.49 1.14,-2.14 0.91,-4.72 -0.46,-6.7z"/>
 </g>
</svg>
