<svg width="18" height="18" viewBox="0 0 18 18" fill="none" xmlns="http://www.w3.org/2000/svg">
<path d="M4.25835 8.3444C4.20888 8.02562 4.18322 7.69904 4.18322 7.3665C4.18322 3.85038 7.05236 1 10.5916 1C14.1309 1 17 3.85038 17 7.3665C17 8.16078 16.8536 8.92109 16.5861 9.62224C16.5306 9.76786 16.5028 9.84067 16.4902 9.89752C16.4777 9.95384 16.4729 9.99346 16.4715 10.0511C16.4701 10.1094 16.478 10.1735 16.4938 10.3017L16.8142 12.9042C16.8489 13.1859 16.8662 13.3268 16.8194 13.4292C16.7783 13.5189 16.7054 13.5902 16.6147 13.6292C16.5113 13.6736 16.3708 13.6531 16.09 13.6119L13.5551 13.2403C13.4228 13.2209 13.3566 13.2112 13.2963 13.2116C13.2367 13.2119 13.1954 13.2163 13.1371 13.2286C13.0781 13.241 13.0027 13.2692 12.852 13.3257C12.1491 13.5889 11.3873 13.733 10.5916 13.733C10.2588 13.733 9.93194 13.7078 9.61281 13.6592M5.48168 16.9163C7.84119 16.9163 9.75394 14.9566 9.75394 12.5393C9.75394 10.122 7.84119 8.16232 5.48168 8.16232C3.12218 8.16232 1.20942 10.122 1.20942 12.5393C1.20942 13.0252 1.28671 13.4926 1.42938 13.9294C1.48969 14.114 1.51984 14.2063 1.52974 14.2693C1.54007 14.3352 1.54188 14.3721 1.53803 14.4387C1.53435 14.5024 1.5184 14.5744 1.48652 14.7185L1 16.9163L3.3833 16.5908C3.51339 16.573 3.57843 16.5641 3.63523 16.5645C3.69504 16.5649 3.72678 16.5682 3.78543 16.5798C3.84114 16.591 3.92394 16.6202 4.08956 16.6786C4.52592 16.8326 4.99427 16.9163 5.48168 16.9163Z" stroke="#2C665A" stroke-linecap="round" stroke-linejoin="round"/>
</svg>
