<svg width="18" height="15" viewBox="0 0 18 15" fill="none" xmlns="http://www.w3.org/2000/svg">
<path d="M16.6 12.2L11.2857 7.4M6.71429 7.4L1.40003 12.2M1 3.4L7.53194 7.97235C8.06087 8.34261 8.32534 8.52774 8.61301 8.59945C8.86712 8.66279 9.13288 8.66279 9.38699 8.59945C9.67466 8.52774 9.93913 8.34261 10.4681 7.97236L17 3.4M4.84 13.8H13.16C14.5041 13.8 15.1762 13.8 15.6896 13.5384C16.1412 13.3083 16.5083 12.9412 16.7384 12.4896C17 11.9762 17 11.3041 17 9.96V4.84C17 3.49587 17 2.82381 16.7384 2.31042C16.5083 1.85883 16.1412 1.49168 15.6896 1.26158C15.1762 1 14.5041 1 13.16 1H4.84C3.49587 1 2.82381 1 2.31042 1.26158C1.85883 1.49168 1.49168 1.85883 1.26158 2.31042C1 2.82381 1 3.49587 1 4.84V9.96C1 11.3041 1 11.9762 1.26158 12.4896C1.49168 12.9412 1.85883 13.3083 2.31042 13.5384C2.82381 13.8 3.49587 13.8 4.84 13.8Z" stroke="#2C665A" stroke-linecap="round" stroke-linejoin="round"/>
</svg>
