<?xml version="1.0" encoding="UTF-8"?>
<!DOCTYPE svg PUBLIC "-//W3C//DTD SVG 1.1//EN" "http://www.w3.org/Graphics/SVG/1.1/DTD/svg11.dtd">
<!-- Creator: CorelDRAW -->
<svg xmlns="http://www.w3.org/2000/svg" xml:space="preserve" width="19.71mm" height="19.6126mm" version="1.1" style="shape-rendering:geometricPrecision; text-rendering:geometricPrecision; image-rendering:optimizeQuality; fill-rule:evenodd; clip-rule:evenodd"
viewBox="0 0 1971 1961.26"
 xmlns:xlink="http://www.w3.org/1999/xlink"
 xmlns:xodm="http://www.corel.com/coreldraw/odm/2003">
 <defs>
  <style type="text/css">
   <![CDATA[
    .str0 {stroke:#366F64;stroke-width:20.56;stroke-miterlimit:10}
    .str2 {stroke:#366F64;stroke-width:20.56;stroke-miterlimit:10}
    .str1 {stroke:#366F64;stroke-width:24.99;stroke-miterlimit:10}
    .fil0 {fill:#366F64;fill-rule:nonzero}
   ]]>
  </style>
 </defs>
 <g id="Слой_x0020_1">
  <metadata id="CorelCorpID_0Corel-Layer"/>
  <path class="fil0 str0" d="M944.93 1647.19l-636.21 0c-7.93,0 -13.87,-6.29 -13.87,-14.07l0 -893.31c0,-7.73 5.94,-14.02 13.87,-14.02l383.21 0c7.92,0 14.36,6.29 14.36,14.02 0,7.76 -6.44,14.05 -14.36,14.05l-369.36 0 0 865.26 608 0 0 -865.26 -116.85 0c-7.91,0 -13.86,-6.29 -13.86,-14.05 0,-7.73 5.95,-14.02 13.86,-14.02l131.21 0c7.43,0 13.85,6.29 13.85,14.02l0 893.31c0,7.78 -6.42,14.07 -13.85,14.07z"/>
  <path class="fil0 str0" d="M706.29 847.39l93.57 0 0 -200.96 -93.57 0 0 200.96zm107.43 28.08l-121.79 0c-7.44,0 -13.86,-6.29 -13.86,-14.06l0 -229.05c0,-7.72 6.42,-14 13.86,-14l121.79 0c7.92,0 13.87,6.28 13.87,14l0 229.05c0,7.77 -5.95,14.06 -13.87,14.06z"/>
  <path class="fil0 str0" d="M813.72 1024.29l-376.77 0c-7.44,0 -13.86,-6.29 -13.86,-14 0,-7.78 6.42,-14.07 13.86,-14.07l376.77 0c7.92,0 13.87,6.29 13.87,14.07 0,7.71 -5.95,14 -13.87,14z"/>
  <path class="fil0 str0" d="M813.72 1266.46l-376.77 0c-7.44,0 -13.86,-6.3 -13.86,-14.12 0,-7.72 6.42,-14.01 13.86,-14.01l376.77 0c7.92,0 13.87,6.29 13.87,14.01 0,7.82 -5.95,14.12 -13.87,14.12z"/>
  <path class="fil0 str0" d="M813.72 1522.48l-376.77 0c-7.44,0 -13.86,-6.29 -13.86,-14.07 0,-7.73 6.42,-14.02 13.86,-14.02l376.77 0c7.92,0 13.87,6.29 13.87,14.02 0,7.78 -5.95,14.07 -13.87,14.07z"/>
  <path class="fil0 str1" d="M1763.53 492.01l-1566.17 0 0 -283.86 1566.17 0 0 283.86zm0 1262.17l-1566.17 0 0 -1216.93 1566.17 0 0 1216.93zm22.56 -1591.19l-1611.35 0c-12.42,0 -22.53,10.12 -22.53,22.63l0 1591.09c0,12.51 10.11,22.62 22.53,22.62l1611.35 0c12.41,0 22.53,-10.11 22.53,-22.62l0 -1591.09c0,-12.51 -10.12,-22.63 -22.53,-22.63z"/>
  <path class="fil0" d="M332.44 323.16c16.1,0 29.08,13.07 29.08,29.07 0,16.1 -12.98,29.15 -29.08,29.15 -16.01,0 -28.99,-13.05 -28.99,-29.15 0,-16 12.98,-29.07 28.99,-29.07zm0 103.31c41.02,0 74.32,-33.3 74.32,-74.24 0,-40.86 -33.3,-74.14 -74.32,-74.14 -40.93,0 -74.23,33.28 -74.23,74.14 0,40.94 33.3,74.24 74.23,74.24z"/>
  <path class="fil0" d="M520.1 323.16c16.08,0 29.15,13.07 29.15,29.07 0,16.1 -13.07,29.15 -29.15,29.15 -16.1,0 -29.08,-13.05 -29.08,-29.15 0,-16 12.98,-29.07 29.08,-29.07zm0 103.31c40.93,0 74.23,-33.3 74.23,-74.24 0,-40.86 -33.3,-74.14 -74.23,-74.14 -40.86,0 -74.17,33.28 -74.17,74.14 0,40.94 33.31,74.24 74.17,74.24z"/>
  <path class="fil0" d="M707.74 323.16c16.01,0 29.08,13.07 29.08,29.07 0,16.1 -13.07,29.15 -29.08,29.15 -16.01,0 -29.06,-13.05 -29.06,-29.15 0,-16 13.05,-29.07 29.06,-29.07zm0 103.31c40.95,0 74.16,-33.3 74.16,-74.24 0,-40.86 -33.21,-74.14 -74.16,-74.14 -40.93,0 -74.24,33.28 -74.24,74.14 0,40.94 33.31,74.24 74.24,74.24z"/>
  <path class="fil0 str2" d="M1666.46 1647.19l-636.21 0c-7.93,0 -13.87,-6.29 -13.87,-14.07l0 -893.31c0,-7.73 5.94,-14.02 13.87,-14.02l383.21 0c7.92,0 14.36,6.29 14.36,14.02 0,7.76 -6.44,14.05 -14.36,14.05l-369.36 0 0 865.26 608 0 0 -865.26 -116.85 0c-7.91,0 -13.86,-6.29 -13.86,-14.05 0,-7.73 5.95,-14.02 13.86,-14.02l131.21 0c7.43,0 13.85,6.29 13.85,14.02l0 893.31c0,7.78 -6.42,14.07 -13.85,14.07z"/>
  <path class="fil0 str2" d="M1427.82 847.39l93.57 0 0 -200.96 -93.57 0 0 200.96zm107.43 28.08l-121.79 0c-7.44,0 -13.86,-6.29 -13.86,-14.06l0 -229.05c0,-7.72 6.42,-14 13.86,-14l121.79 0c7.92,0 13.87,6.28 13.87,14l0 229.05c0,7.77 -5.95,14.06 -13.87,14.06z"/>
  <path class="fil0 str2" d="M1535.25 1024.29l-376.77 0c-7.44,0 -13.86,-6.29 -13.86,-14 0,-7.78 6.42,-14.07 13.86,-14.07l376.77 0c7.92,0 13.87,6.29 13.87,14.07 0,7.71 -5.95,14 -13.87,14z"/>
  <path class="fil0 str2" d="M1535.25 1266.46l-376.77 0c-7.44,0 -13.86,-6.3 -13.86,-14.12 0,-7.72 6.42,-14.01 13.86,-14.01l376.77 0c7.92,0 13.87,6.29 13.87,14.01 0,7.82 -5.95,14.12 -13.87,14.12z"/>
  <path class="fil0 str2" d="M1535.25 1522.48l-376.77 0c-7.44,0 -13.86,-6.29 -13.86,-14.07 0,-7.73 6.42,-14.02 13.86,-14.02l376.77 0c7.92,0 13.87,6.29 13.87,14.02 0,7.78 -5.95,14.07 -13.87,14.07z"/>
 </g>
</svg>
