<?xml version="1.0" encoding="UTF-8"?>
<!DOCTYPE svg PUBLIC "-//W3C//DTD SVG 1.1//EN" "http://www.w3.org/Graphics/SVG/1.1/DTD/svg11.dtd">
<!-- Creator: CorelDRAW -->
<svg xmlns="http://www.w3.org/2000/svg" xml:space="preserve" width="16.814mm" height="16.6134mm" version="1.1" style="shape-rendering:geometricPrecision; text-rendering:geometricPrecision; image-rendering:optimizeQuality; fill-rule:evenodd; clip-rule:evenodd"
viewBox="0 0 1681.4 1661.34"
 xmlns:xlink="http://www.w3.org/1999/xlink"
 xmlns:xodm="http://www.corel.com/coreldraw/odm/2003">
 <defs>
  <style type="text/css">
   <![CDATA[
    .str2 {stroke:#366F64;stroke-width:31.67;stroke-miterlimit:10}
    .str0 {stroke:#366F64;stroke-width:24.99;stroke-miterlimit:10}
    .str1 {stroke:#366F64;stroke-width:25;stroke-miterlimit:10}
    .fil0 {fill:#366F64;fill-rule:nonzero}
   ]]>
  </style>
 </defs>
 <g id="Слой_x0020_1">
  <metadata id="CorelCorpID_0Corel-Layer"/>
  <path class="fil0 str0" d="M1616.68 342.05l-1566.17 0 0 -283.86 1566.17 0 0 283.86zm0 1262.17l-1566.17 0 0 -1216.93 1566.17 0 0 1216.93zm22.56 -1591.19l-1611.35 0c-12.42,0 -22.53,10.12 -22.53,22.63l0 1591.09c0,12.51 10.11,22.62 22.53,22.62l1611.35 0c12.41,0 22.53,-10.11 22.53,-22.62l0 -1591.09c0,-12.51 -10.12,-22.63 -22.53,-22.63z"/>
  <path class="fil0" d="M185.59 173.2c16.1,0 29.08,13.07 29.08,29.07 0,16.1 -12.98,29.15 -29.08,29.15 -16.01,0 -28.99,-13.05 -28.99,-29.15 0,-16 12.98,-29.07 28.99,-29.07zm0 103.31c41.02,0 74.32,-33.3 74.32,-74.24 0,-40.86 -33.3,-74.14 -74.32,-74.14 -40.93,0 -74.23,33.28 -74.23,74.14 0,40.94 33.3,74.24 74.23,74.24z"/>
  <path class="fil0" d="M373.25 173.2c16.08,0 29.15,13.07 29.15,29.07 0,16.1 -13.07,29.15 -29.15,29.15 -16.1,0 -29.08,-13.05 -29.08,-29.15 0,-16 12.98,-29.07 29.08,-29.07zm0 103.31c40.93,0 74.23,-33.3 74.23,-74.24 0,-40.86 -33.3,-74.14 -74.23,-74.14 -40.86,0 -74.17,33.28 -74.17,74.14 0,40.94 33.31,74.24 74.17,74.24z"/>
  <path class="fil0" d="M560.89 173.2c16.01,0 29.08,13.07 29.08,29.07 0,16.1 -13.07,29.15 -29.08,29.15 -16.01,0 -29.06,-13.05 -29.06,-29.15 0,-16 13.05,-29.07 29.06,-29.07zm0 103.31c40.95,0 74.16,-33.3 74.16,-74.24 0,-40.86 -33.21,-74.14 -74.16,-74.14 -40.93,0 -74.24,33.28 -74.24,74.14 0,40.94 33.31,74.24 74.24,74.24z"/>
  <path class="fil0 str1" d="M808.87 1490.99l-351.9 -233.73c-13.25,-8.78 -21.21,-23.61 -21.21,-39.48l0 -569.06c0,-21.72 13.31,-41.21 33.55,-49.07l3.48 -1.37c232.06,-90.71 489.65,-90.71 721.65,0l15.18 5.95c7.17,2.74 10.7,10.84 7.91,18.01 -2.8,7.13 -10.91,10.71 -18.02,7.87l-10.12 -3.94c-228.72,-89.38 -482.77,-89.38 -711.55,0 -8.59,3.34 -14.18,11.59 -14.18,20.82l0 569.31c0,7.47 3.73,14.5 9.96,18.62l347.63 230.87c7.46,4.97 17.23,4.97 24.75,0l347.61 -230.87c6.23,-4.12 9.97,-11.15 9.97,-18.62l0 -303.17c0,-7.65 6.23,-13.89 13.95,-13.89 7.67,0 13.9,6.24 13.9,13.89l0 303.27c0,16.71 -8.41,32.37 -22.3,41.6l-350.75 232.99c-15.04,9.97 -34.49,9.97 -49.51,0z"/>
  <g>
   <path class="fil0" d="M595.97 989.63c143.18,-152.83 332.37,-152.61 475.27,0 -141.24,153.19 -334.04,153.23 -475.27,0zm-12.42 -12.22l-3.34 3.73 -2.85 8.3 2.73 8.43c74.62,84.98 164.05,127.52 253.51,127.52 89.43,0 178.86,-42.54 253.49,-127.52l2.75 -8.4 -2.8 -8.26c-150.03,-167.95 -352.37,-169.45 -503.49,-3.8z"/>
   <path id="_1" class="fil0" d="M1078.53 1004.96l-14.58 -30.66 0.07 30.74 -13.13 -13.45 -13.36 -12.58 -13.61 -11.71 -13.81 -10.84 -14.01 -9.98 -14.18 -9.11 -14.36 -8.24 -14.49 -7.37 -14.63 -6.52 -14.75 -5.64 -14.85 -4.77 -14.92 -3.91 -15 -3.04 -15.04 -2.17 -15.08 -1.31 -15.09 -0.44 -15.1 0.43 -15.08 1.3 -15.05 2.16 -14.99 3.03 -14.94 3.9 -14.86 4.77 -14.75 5.63 -14.64 6.51 -14.52 7.38 -14.37 8.24 -14.2 9.11 -14.02 9.98 -13.83 10.85 -13.63 11.73 -13.39 12.59 -13.15 13.47 -14.44 -30.82 13.97 -14.29 14.21 -13.37 14.47 -12.45 14.69 -11.53 14.9 -10.6 15.1 -9.69 15.27 -8.76 15.42 -7.84 15.56 -6.91 15.69 -5.99 15.8 -5.07 15.86 -4.14 15.95 -3.23 15.99 -2.3 16.04 -1.38 16.04 -0.45 16.05 0.46 16.02 1.39 16 2.31 15.94 3.24 15.86 4.15 15.79 5.07 15.67 6 15.55 6.92 15.41 7.83 15.26 8.76 15.08 9.69 14.87 10.6 14.67 11.52 14.45 12.43 14.2 13.36 13.93 14.27 0.07 30.74zm-0.07 -30.74l14.32 15.29 -14.25 15.45 -0.07 -30.74zm-489.71 0l14.44 30.82 0.07 -30.74 12.98 13.49 13.24 12.61 13.51 11.74 13.74 10.89 13.97 9.99 14.16 9.14 14.35 8.27 14.51 7.39 14.66 6.53 14.78 5.65 14.92 4.79 14.99 3.92 15.06 3.04 15.13 2.17 15.17 1.31 15.17 0.44 15.18 -0.44 15.16 -1.31 15.13 -2.17 15.06 -3.05 15 -3.92 14.91 -4.79 14.79 -5.65 14.65 -6.52 14.52 -7.41 14.35 -8.26 14.17 -9.14 13.96 -10 13.74 -10.87 13.51 -11.74 13.24 -12.62 12.98 -13.48 14.58 30.66 -13.8 14.34 -14.1 13.42 -14.37 12.5 -14.62 11.57 -14.86 10.64 -15.07 9.72 -15.25 8.78 -15.44 7.87 -15.59 6.94 -15.73 6.01 -15.83 5.09 -15.94 4.16 -16.02 3.25 -16.07 2.31 -16.1 1.39 -16.14 0.46 -16.13 -0.46 -16.11 -1.39 -16.07 -2.31 -16.02 -3.24 -15.93 -4.16 -15.84 -5.09 -15.72 -6.01 -15.6 -6.93 -15.43 -7.87 -15.27 -8.79 -15.06 -9.72 -14.85 -10.65 -14.62 -11.57 -14.37 -12.5 -14.1 -13.41 -13.8 -14.35 0.07 -30.74zm-0.07 30.74l-14.25 -15.46 14.32 -15.28 -0.07 30.74zm-15.9 -38.99l3.34 -3.73 14.86 30.34 -3.34 3.73 -18.53 -23.86 3.67 -6.48zm-3.67 6.48l1.33 -3.86 2.34 -2.62 -3.67 6.48zm-2.85 8.3l2.85 -8.3 22.2 17.38 -2.85 8.3 -22.33 -0.4 0.13 -16.98zm-0.13 16.98l-2.77 -8.54 2.9 -8.44 -0.13 16.98zm2.73 8.43l-2.73 -8.43 22.46 -16.58 2.73 8.43 -18.76 23.36 -3.7 -6.78zm3.7 6.78l-2.38 -2.71 -1.32 -4.07 3.7 6.78zm261.04 93.58l0 37.74 0 0 -8.64 -0.12 -8.62 -0.39 -8.63 -0.64 -8.62 -0.9 -8.6 -1.16 -8.58 -1.41 -8.57 -1.67 -8.56 -1.91 -8.54 -2.19 -8.51 -2.44 -8.46 -2.69 -8.46 -2.95 -8.41 -3.21 -8.38 -3.46 -8.34 -3.71 -8.3 -3.98 -8.26 -4.23 -8.2 -4.49 -8.16 -4.75 -8.1 -5 -8.05 -5.26 -8 -5.52 -7.91 -5.76 -7.87 -6.03 -7.8 -6.3 -7.72 -6.53 -7.66 -6.79 -7.58 -7.06 -7.5 -7.31 -7.42 -7.56 -7.34 -7.83 -7.25 -8.07 15.06 -30.14 6.83 7.61 6.9 7.37 7 7.12 7.06 6.89 7.14 6.64 7.2 6.39 7.28 6.17 7.34 5.92 7.41 5.67 7.47 5.44 7.52 5.2 7.59 4.94 7.62 4.72 7.7 4.47 7.72 4.23 7.78 3.99 7.82 3.74 7.86 3.51 7.9 3.26 7.93 3.03 7.96 2.77 8 2.55 8.01 2.3 8.04 2.05 8.06 1.81 8.09 1.57 8.1 1.33 8.12 1.1 8.12 0.84 8.13 0.6 8.14 0.37 8.14 0.12 0 0zm242.28 -117.01l22.42 16.72 -3.68 6.71 -7.25 8.07 -7.34 7.83 -7.42 7.56 -7.5 7.31 -7.58 7.06 -7.66 6.79 -7.73 6.54 -7.79 6.29 -7.87 6.03 -7.93 5.76 -7.99 5.52 -8.04 5.26 -8.11 5 -8.15 4.75 -8.21 4.49 -8.25 4.23 -8.3 3.98 -8.34 3.71 -8.38 3.46 -8.41 3.21 -8.46 2.95 -8.46 2.69 -8.51 2.44 -8.54 2.19 -8.55 1.91 -8.57 1.67 -8.59 1.41 -8.59 1.16 -8.62 0.9 -8.63 0.64 -8.62 0.39 -8.63 0.12 0 -37.74 8.13 -0.12 8.14 -0.37 8.13 -0.6 8.12 -0.84 8.11 -1.1 8.11 -1.33 8.07 -1.57 8.07 -1.81 8.04 -2.05 8.01 -2.3 8 -2.55 7.96 -2.77 7.93 -3.03 7.9 -3.26 7.86 -3.51 7.82 -3.74 7.77 -3.99 7.73 -4.23 7.69 -4.47 7.63 -4.72 7.58 -4.94 7.53 -5.2 7.47 -5.44 7.39 -5.67 7.35 -5.93 7.29 -6.16 7.2 -6.39 7.14 -6.64 7.06 -6.89 7 -7.12 6.9 -7.37 6.83 -7.61 -3.68 6.71zm22.42 16.72l-1.32 4.02 -2.36 2.69 3.68 -6.71zm2.75 -8.4l-2.75 8.4 -22.42 -16.72 2.75 -8.4 22.34 -0.24 0.08 16.96zm-0.08 -16.96l2.87 8.45 -2.79 8.51 -0.08 -16.96zm-2.8 -8.26l2.8 8.26 -22.26 17.2 -2.8 -8.26 18.57 -23.76 3.69 6.56zm-3.69 -6.56l2.36 2.65 1.33 3.91 -3.69 -6.56zm-503.5 26.53l-14.86 -30.34 0.09 -0.1 14.72 -15.47 15.02 -14.47 15.29 -13.46 15.54 -12.45 15.77 -11.46 15.99 -10.44 16.18 -9.44 16.36 -8.43 16.5 -7.42 16.64 -6.41 16.75 -5.41 16.85 -4.41 16.93 -3.38 16.97 -2.39 17.01 -1.39 17.03 -0.37 17.03 0.63 17.01 1.63 16.96 2.65 16.9 3.64 16.82 4.67 16.71 5.65 16.6 6.67 16.46 7.67 16.3 8.67 16.11 9.69 15.92 10.68 15.7 11.68 15.46 12.69 15.2 13.7 14.92 14.69 14.62 15.7 -14.88 30.32 -13.82 -14.82 -14.08 -13.87 -14.34 -12.92 -14.58 -11.97 -14.8 -11.02 -15.02 -10.08 -15.19 -9.13 -15.36 -8.17 -15.52 -7.23 -15.64 -6.29 -15.77 -5.33 -15.84 -4.39 -15.94 -3.44 -15.98 -2.49 -16.03 -1.55 -16.05 -0.59 -16.05 0.35 -16.03 1.31 -16.01 2.25 -15.95 3.2 -15.89 4.15 -15.79 5.09 -15.68 6.05 -15.56 7 -15.42 7.95 -15.26 8.9 -15.07 9.84 -14.87 10.8 -14.66 11.75 -14.43 12.7 -14.18 13.65 -13.9 14.61 0.09 -0.1zm-14.86 -30.34l0.09 -0.1 -0.02 0.03 -0.07 0.07z"/>
  </g>
  <path class="fil0 str2" d="M904.72 990.21c0,39.22 -31.9,71.12 -71.12,71.12 -39.21,0 -71.17,-31.9 -71.17,-71.12 0,-39.24 31.96,-71.14 71.17,-71.14 39.22,0 71.12,31.9 71.12,71.14zm-159.75 0c0,48.87 39.77,88.64 88.63,88.64 48.84,0 88.61,-39.77 88.61,-88.64 0,-48.86 -39.77,-88.6 -88.61,-88.6 -48.86,0 -88.63,39.74 -88.63,88.6z"/>
 </g>
</svg>
