<?xml version="1.0" encoding="UTF-8"?>
<!DOCTYPE svg PUBLIC "-//W3C//DTD SVG 1.1//EN" "http://www.w3.org/Graphics/SVG/1.1/DTD/svg11.dtd">
<!-- Creator: CorelDRAW -->
<svg xmlns="http://www.w3.org/2000/svg" xml:space="preserve" width="16.8146mm" height="16.6134mm" version="1.1" style="shape-rendering:geometricPrecision; text-rendering:geometricPrecision; image-rendering:optimizeQuality; fill-rule:evenodd; clip-rule:evenodd"
viewBox="0 0 1681.46 1661.34"
 xmlns:xlink="http://www.w3.org/1999/xlink"
 xmlns:xodm="http://www.corel.com/coreldraw/odm/2003">
 <defs>
  <style type="text/css">
   <![CDATA[
    .str1 {stroke:#086351;stroke-width:34.89;stroke-miterlimit:10}
    .str0 {stroke:#366F64;stroke-width:24.99;stroke-miterlimit:10}
    .fil1 {fill:#00A0E3;fill-rule:nonzero}
    .fil0 {fill:#366F64;fill-rule:nonzero}
   ]]>
  </style>
 </defs>
 <g id="Слой_x0020_1">
  <metadata id="CorelCorpID_0Corel-Layer"/>
  <path class="fil0 str0" d="M1616.75 342.08l-1566.33 0 0 -283.96 1566.33 0 0 283.96zm0 1262.14l-1566.33 0 0 -1217.07 1566.33 0 0 1217.07zm22.53 -1591.19l-1611.39 0c-12.42,0 -22.53,10.12 -22.53,22.56l0 1591.16c0,12.51 10.11,22.62 22.53,22.62l1611.39 0c12.44,0 22.55,-10.11 22.55,-22.62l0 -1591.16c0,-12.44 -10.11,-22.56 -22.55,-22.56z"/>
  <path class="fil0" d="M176.75 166.68c16.09,0 29.08,12.98 29.08,29.08 0,16.09 -12.99,29.08 -29.08,29.08 -16.08,0 -29.06,-12.99 -29.06,-29.08 0,-16.1 12.98,-29.08 29.06,-29.08zm0 103.31c40.95,0 74.23,-33.3 74.23,-74.23 0,-40.94 -33.28,-74.24 -74.23,-74.24 -40.85,0 -74.24,33.3 -74.24,74.24 0,40.93 33.39,74.23 74.24,74.23z"/>
  <path class="fil0" d="M364.41 166.68c16.01,0 29.06,12.98 29.06,29.08 0,16.09 -13.05,29.08 -29.06,29.08 -16,0 -29.08,-12.99 -29.08,-29.08 0,-16.1 13.08,-29.08 29.08,-29.08zm0 103.31c40.94,0 74.24,-33.3 74.24,-74.23 0,-40.94 -33.3,-74.24 -74.24,-74.24 -40.93,0 -74.23,33.3 -74.23,74.24 0,40.93 33.3,74.23 74.23,74.23z"/>
  <path class="fil0" d="M551.99 166.68c16.17,0 29.15,12.98 29.15,29.08 0,16.09 -12.98,29.08 -29.15,29.08 -16.01,0 -29.08,-12.99 -29.08,-29.08 0,-16.1 13.07,-29.08 29.08,-29.08zm0 103.31c40.94,0 74.24,-33.3 74.24,-74.23 0,-40.94 -33.3,-74.24 -74.24,-74.24 -40.86,0 -74.17,33.3 -74.17,74.24 0,40.93 33.31,74.23 74.17,74.23z"/>
  <path class="fil1 str1" d="M821.3 575.1c-236.3,0 -428.6,192.34 -428.6,428.51 0,236.19 192.3,428.53 428.6,428.53 236.31,0 428.56,-192.34 428.56,-428.53 0,-236.17 -192.25,-428.51 -428.56,-428.51zm0 881.78c-249.89,0 -453.17,-203.19 -453.17,-453.27 0,-249.63 203.28,-453.25 453.17,-453.25 249.9,0 453.22,203.62 453.22,453.25 0,250.08 -203.32,453.27 -453.22,453.27z"/>
  <path class="fil1 str1" d="M819.74 1452.55c-5.86,0 -11.07,-4.35 -12.06,-10.44 -1.19,-6.51 3.33,-13.03 10.03,-14.32 174.48,-29.52 306.03,-212.31 306.03,-424.18 0,-208.81 -124.04,-385.95 -294.97,-421.99 -6.6,-1.32 -10.89,-7.83 -9.5,-14.75 1.38,-6.52 7.99,-10.86 14.58,-9.55 182.22,38.63 314.5,226.18 314.5,446.29 0,224.03 -140.36,416.79 -326.48,448.49l-2.13 0.45z"/>
  <path class="fil1 str1" d="M821.3 1452.55l-2.08 -0.45c-185.29,-31.7 -325.05,-224.46 -325.05,-448.49 0,-220.11 131.67,-407.66 313.06,-446.29 6.73,-1.31 13.16,3.03 14.6,9.55 1.43,6.92 -2.87,13.43 -9.47,14.75 -170.15,36.04 -293.62,213.18 -293.62,421.99 0,211.87 130.99,394.66 304.65,424.18 6.68,1.29 11.2,7.81 10.03,14.32 -1,6.09 -6.21,10.44 -12.12,10.44z"/>
  <path class="fil1 str1" d="M821.3 839.52c-121.04,0 -234.83,-47.34 -320.44,-132.86l17.41 -17.37c80.92,81.18 188.55,125.46 303.03,125.46 116.05,0 224.68,-45.59 305.96,-128.5l17.57 17.37c-85.91,87.7 -200.83,135.9 -323.53,135.9z"/>
  <path class="fil1 str1" d="M515.23 1320.99l-17.55 -17.37c85.93,-87.7 200.88,-135.89 323.62,-135.89 121.05,0 234.89,47.33 320.46,132.85l-17.37 17.37c-80.98,-80.76 -188.6,-125.48 -303.09,-125.48 -116.09,0 -224.76,45.58 -306.07,128.52z"/>
  <polygon class="fil1 str1" points="380.42,1015.77 1262.2,1015.77 1262.2,991.47 380.42,991.47 "/>
  <path class="fil1 str1" d="M821.3 1456.88c-6.77,0 -12.28,-5.65 -12.28,-12.16l0 -881.78c0,-6.93 5.51,-12.58 12.28,-12.58 6.78,0 12.29,5.65 12.29,12.58l0 881.78c0,6.51 -5.51,12.16 -12.29,12.16z"/>
 </g>
</svg>
