<svg width="16" height="18" viewBox="0 0 16 18" fill="none" xmlns="http://www.w3.org/2000/svg">
<path d="M12.0783 17.0667C11.2358 17.0667 10.3486 16.8523 9.4315 16.4396C8.53681 16.0347 7.63467 15.4791 6.75489 14.8043C5.88257 14.1217 5.04007 13.3596 4.24231 12.5261C3.452 11.6768 2.73625 10.7798 2.10252 9.85898C1.46132 8.90642 0.946878 7.95386 0.581547 7.03305C0.193849 6.04874 0 5.09619 0 4.19919C0 3.58003 0.10438 2.99262 0.305685 2.4449C0.514445 1.8813 0.849953 1.3574 1.30475 0.90493C1.87884 0.301644 2.53495 0 3.23579 0C3.52656 0 3.82479 0.0714419 4.07829 0.19845C4.36906 0.341333 4.6151 0.555659 4.79404 0.841426L6.52377 3.43715C6.68034 3.66735 6.79963 3.88961 6.88164 4.11188C6.97856 4.35002 7.03076 4.58816 7.03076 4.81836C7.03076 5.12 6.94874 5.41371 6.79217 5.69154C6.68034 5.90586 6.50885 6.13606 6.29264 6.36626L5.78565 6.92986C5.7931 6.95367 5.80056 6.96955 5.80801 6.98543C5.89748 7.15212 6.07642 7.43789 6.41938 7.86654C6.78472 8.31107 7.12768 8.71591 7.47064 9.08899C7.91053 9.5494 8.27586 9.91454 8.61883 10.2162C9.0438 10.5972 9.31966 10.7877 9.48369 10.875L9.46878 10.9147L10.013 10.3432C10.2442 10.0971 10.4678 9.91454 10.6841 9.79547C11.0941 9.52558 11.616 9.47795 12.1379 9.70816C12.3318 9.79547 12.5405 9.91454 12.7642 10.0812L15.2395 11.9546C15.5154 12.1531 15.7167 12.4071 15.836 12.7087C15.9478 13.0104 16 13.2882 16 13.566C16 13.947 15.918 14.3281 15.7614 14.6853C15.6048 15.0425 15.411 15.3521 15.165 15.6378C14.74 16.1379 14.2777 16.4951 13.7409 16.7253C13.2265 16.9476 12.6673 17.0667 12.0783 17.0667ZM3.23579 1.1907C2.82572 1.1907 2.44548 1.38121 2.08015 1.76223C1.73719 2.10357 1.4986 2.47665 1.34949 2.88149C1.19292 3.29426 1.11836 3.73085 1.11836 4.19919C1.11836 4.93743 1.28239 5.73916 1.61044 6.56471C1.94595 7.40614 2.41566 8.27932 3.01212 9.1525C3.60857 10.0257 4.28705 10.875 5.03262 11.6768C5.77819 12.4626 6.58341 13.1929 7.411 13.8359C8.21622 14.463 9.0438 14.971 9.86393 15.3362C11.1389 15.9157 12.3318 16.0506 13.3159 15.614C13.6962 15.4473 14.0317 15.1933 14.3374 14.8282C14.5089 14.6297 14.6431 14.4154 14.7549 14.1614C14.8444 13.9629 14.8891 13.7565 14.8891 13.5501C14.8891 13.4231 14.8667 13.2961 14.8071 13.1532C14.7847 13.1056 14.74 13.0183 14.5983 12.9151L12.123 11.0417C11.9739 10.9306 11.8397 10.8512 11.713 10.7957C11.5489 10.7242 11.4818 10.6528 11.2283 10.8195C11.0792 10.8989 10.945 11.0179 10.7959 11.1767L10.2293 11.772C9.93849 12.0737 9.49115 12.1451 9.14818 12.0102L8.94688 11.9149C8.64119 11.7403 8.28332 11.4704 7.88816 11.1132C7.53029 10.7877 7.14259 10.4067 6.67288 9.91454C6.30755 9.51764 5.94222 9.09693 5.56198 8.62859C5.21156 8.192 4.95806 7.81892 4.80149 7.50933L4.71202 7.27119C4.66729 7.08862 4.65238 6.98543 4.65238 6.87429C4.65238 6.58853 4.7493 6.33451 4.93569 6.13606L5.49487 5.5169C5.64399 5.35814 5.75582 5.20732 5.83038 5.07237C5.89003 4.96918 5.9124 4.88186 5.9124 4.80248C5.9124 4.73898 5.89003 4.64372 5.85275 4.54847C5.80056 4.42146 5.71855 4.27857 5.61417 4.12775L3.88444 1.52409C3.80988 1.41296 3.72041 1.33358 3.60857 1.27802C3.48928 1.22245 3.36254 1.1907 3.23579 1.1907ZM9.46878 10.9227L9.34949 11.4625L9.55079 10.9068C9.51351 10.8989 9.48369 10.9068 9.46878 10.9227Z" fill="#246256"/>
</svg>
