<?xml version="1.0" encoding="UTF-8"?>
<!DOCTYPE svg PUBLIC "-//W3C//DTD SVG 1.1//EN" "http://www.w3.org/Graphics/SVG/1.1/DTD/svg11.dtd">
<!-- Creator: CorelDRAW -->
<svg xmlns="http://www.w3.org/2000/svg" xml:space="preserve" width="16.814mm" height="16.6134mm" version="1.1" style="shape-rendering:geometricPrecision; text-rendering:geometricPrecision; image-rendering:optimizeQuality; fill-rule:evenodd; clip-rule:evenodd"
viewBox="0 0 1681.4 1661.34"
 xmlns:xlink="http://www.w3.org/1999/xlink"
 xmlns:xodm="http://www.corel.com/coreldraw/odm/2003">
 <defs>
  <style type="text/css">
   <![CDATA[
    .str0 {stroke:#366F64;stroke-width:24.99;stroke-miterlimit:10}
    .str1 {stroke:#366F64;stroke-width:20;stroke-miterlimit:10}
    .str2 {stroke:#366F64;stroke-width:20;stroke-miterlimit:10}
    .fil1 {fill:#00A0E3;fill-rule:nonzero}
    .fil0 {fill:#366F64;fill-rule:nonzero}
   ]]>
  </style>
 </defs>
 <g id="Слой_x0020_1">
  <metadata id="CorelCorpID_0Corel-Layer"/>
  <path class="fil0 str0" d="M1616.68 342.05l-1566.17 0 0 -283.86 1566.17 0 0 283.86zm0 1262.17l-1566.17 0 0 -1216.93 1566.17 0 0 1216.93zm22.56 -1591.19l-1611.35 0c-12.42,0 -22.53,10.12 -22.53,22.63l0 1591.09c0,12.51 10.11,22.62 22.53,22.62l1611.35 0c12.41,0 22.53,-10.11 22.53,-22.62l0 -1591.09c0,-12.51 -10.12,-22.63 -22.53,-22.63z"/>
  <path class="fil0" d="M185.59 173.2c16.1,0 29.08,13.07 29.08,29.07 0,16.1 -12.98,29.15 -29.08,29.15 -16.01,0 -28.99,-13.05 -28.99,-29.15 0,-16 12.98,-29.07 28.99,-29.07zm0 103.31c41.02,0 74.32,-33.3 74.32,-74.24 0,-40.86 -33.3,-74.14 -74.32,-74.14 -40.93,0 -74.23,33.28 -74.23,74.14 0,40.94 33.3,74.24 74.23,74.24z"/>
  <path class="fil0" d="M373.25 173.2c16.08,0 29.15,13.07 29.15,29.07 0,16.1 -13.07,29.15 -29.15,29.15 -16.1,0 -29.08,-13.05 -29.08,-29.15 0,-16 12.98,-29.07 29.08,-29.07zm0 103.31c40.93,0 74.23,-33.3 74.23,-74.24 0,-40.86 -33.3,-74.14 -74.23,-74.14 -40.86,0 -74.17,33.28 -74.17,74.14 0,40.94 33.31,74.24 74.17,74.24z"/>
  <path class="fil0" d="M560.89 173.2c16.01,0 29.08,13.07 29.08,29.07 0,16.1 -13.07,29.15 -29.08,29.15 -16.01,0 -29.06,-13.05 -29.06,-29.15 0,-16 13.05,-29.07 29.06,-29.07zm0 103.31c40.95,0 74.16,-33.3 74.16,-74.24 0,-40.86 -33.21,-74.14 -74.16,-74.14 -40.93,0 -74.24,33.28 -74.24,74.14 0,40.94 33.31,74.24 74.24,74.24z"/>
  <path class="fil0 str1" d="M170.55 1212.82l145.45 0c5.57,0 10.05,4.23 10.05,9.87l0 122.06 141.4 -129.47 6.77 -2.46 303.64 0 0 -463.56 -607.31 0 0 463.56zm145.45 164.74l-3.99 -0.7c-3.63,-1.76 -6,-5.29 -6,-9.18l0 -135.12 -145.48 0c-5.5,0 -9.98,-4.23 -9.98,-9.87l0 -483.66c0,-5.29 4.48,-9.88 9.98,-9.88l627.31 0c5.57,0 10.02,4.59 10.02,9.88l0 483.66c0,5.64 -4.45,9.87 -10.02,9.87l-309.74 0 -155.29 142.54 -6.81 2.46z"/>
  <path class="fil0 str1" d="M875.86 1181.07l-88.02 0c-5.5,0 -9.98,-4.59 -9.98,-9.88 0,-5.65 4.48,-10.24 9.98,-10.24l78 0 0 -480.12 -607.27 0 0 58.2c0,5.66 -4.48,10.23 -10.02,10.23 -5.54,0 -10.02,-4.57 -10.02,-10.23l0 -68.43c0,-5.29 4.48,-9.88 10.02,-9.88l627.31 0c5.54,0 9.98,4.59 9.98,9.88l0 500.59c0,5.29 -4.44,9.88 -9.98,9.88z"/>
  <path class="fil0 str1" d="M720.35 1326.05l-6.74 -2.81 -101.84 -93.14c-4.06,-3.87 -4.34,-10.23 -0.6,-14.11 3.7,-4.23 10.05,-4.23 14.11,-0.71l85.09 77.96 0 -70.55c0,-5.64 4.48,-9.87 9.98,-9.87 5.58,0 10.06,4.23 10.06,9.87l0 93.48c0,3.89 -2.37,7.41 -6,9.18l-4.06 0.7z"/>
  <path class="fil0 str1" d="M695.38 884.37l-446.83 0c-5.54,0 -10.02,-4.22 -10.02,-9.88 0,-5.63 4.48,-9.86 10.02,-9.86l446.83 0c5.53,0 10.01,4.23 10.01,9.86 0,5.66 -4.48,9.88 -10.01,9.88z"/>
  <path class="fil0 str1" d="M695.38 973.99l-446.83 0c-5.54,0 -10.02,-4.59 -10.02,-9.88 0,-5.65 4.48,-10.24 10.02,-10.24l446.83 0c5.53,0 10.01,4.59 10.01,10.24 0,5.29 -4.48,9.88 -10.01,9.88z"/>
  <path class="fil0 str1" d="M427.12 1063.23l-178.57 0c-5.54,0 -10.02,-4.23 -10.02,-9.86 0,-5.66 4.48,-9.89 10.02,-9.89l178.57 0c5.51,0 9.99,4.23 9.99,9.89 0,5.63 -4.48,9.86 -9.99,9.86z"/>
  <path class="fil1 str2" d="M1469.88 978.12c-4.37,0 -7.93,-3.55 -7.93,-7.95l0 -252.62 -421.44 0 0 198.41c0,4.37 -3.56,7.92 -7.93,7.92 -4.43,0 -7.96,-3.55 -7.96,-7.92l0 -206.35c0,-4.4 3.53,-7.96 7.96,-7.96l437.3 0c4.36,0 7.92,3.56 7.92,7.96l0 260.56c0,4.4 -3.56,7.95 -7.92,7.95z"/>
  <path class="fil1 str2" d="M1469.88 1288.88l-437.3 0c-4.43,0 -7.96,-3.36 -7.96,-7.85l0 -250.01c0,-4.4 3.53,-7.95 7.96,-7.95 4.37,0 7.93,3.55 7.93,7.95l0 242.04 421.44 0 0 -183.87c0,-4.37 3.56,-7.93 7.93,-7.93 4.36,0 7.92,3.56 7.92,7.93l0 191.84c0,4.49 -3.56,7.85 -7.92,7.85z"/>
  <path class="fil1 str2" d="M1469.88 988.74l0 0c-2.58,0 -4.99,-1.23 -6.47,-3.33l-58.84 -82.55c-2.55,-3.59 -1.73,-8.55 1.85,-11.07 3.56,-2.55 8.52,-1.71 11.07,1.85l52.39 73.51 52.4 -73.51c2.54,-3.58 7.5,-4.4 11.03,-1.85 3.58,2.52 4.42,7.48 1.87,11.07l-58.86 82.55c-1.46,2.1 -3.86,3.33 -6.44,3.33z"/>
  <path class="fil1 str2" d="M1091.41 1112.2l-6.47 -3.35 -52.36 -73.51 -52.39 73.51c-2.55,3.55 -7.51,4.42 -11.09,1.87 -3.56,-2.55 -4.4,-7.53 -1.85,-11.09l58.83 -82.55c1.51,-2.1 3.92,-3.33 6.5,-3.33 2.54,0 4.96,1.23 6.44,3.33l58.86 82.55c2.55,3.56 1.71,8.54 -1.87,11.09l-4.6 1.48z"/>
  <path class="fil1 str1" d="M1324.52 932.77l-122.42 122.38 -21.41 -31.36c-3.07,-4.55 -9.31,-5.75 -13.87,-2.61 -4.58,3.07 -5.75,9.31 -2.64,13.86l28.19 41.35 7.3 4.34 0.95 0.03 7.09 -2.92 130.95 -130.95c3.88,-3.89 3.88,-10.24 0,-14.12 -3.91,-3.95 -10.23,-3.95 -14.14,0z"/>
 </g>
</svg>
