<?xml version="1.0" encoding="UTF-8"?>
<!DOCTYPE svg PUBLIC "-//W3C//DTD SVG 1.1//EN" "http://www.w3.org/Graphics/SVG/1.1/DTD/svg11.dtd">
<!-- Creator: CorelDRAW -->
<svg xmlns="http://www.w3.org/2000/svg" xml:space="preserve" width="19.177mm" height="16.5634mm" version="1.1" style="shape-rendering:geometricPrecision; text-rendering:geometricPrecision; image-rendering:optimizeQuality; fill-rule:evenodd; clip-rule:evenodd"
viewBox="0 0 1917.7 1656.34"
 xmlns:xlink="http://www.w3.org/1999/xlink"
 xmlns:xodm="http://www.corel.com/coreldraw/odm/2003">
 <defs>
  <style type="text/css">
   <![CDATA[
    .str2 {stroke:#086351;stroke-width:20;stroke-miterlimit:10}
    .str0 {stroke:#086351;stroke-width:20;stroke-miterlimit:10}
    .str1 {stroke:#086351;stroke-width:20;stroke-miterlimit:10}
    .fil0 {fill:#086351;fill-rule:nonzero}
   ]]>
  </style>
 </defs>
 <g id="Слой_x0020_1">
  <metadata id="CorelCorpID_0Corel-Layer"/>
  <path class="fil0 str0" d="M1243.98 740.04l-86.15 -192.58 179.85 -191.09c4.38,-4.66 4.16,-11.96 -0.48,-16.32 -4.66,-4.42 -11.97,-4.22 -16.38,0.48l-179.4 190.68 -187.24 -86.09 547.25 -276.01 -257.45 570.93zm283.82 -596.15c-3.84,-3.77 -9.77,-4.33 -14.3,-1.47l-589.66 294.65c-3.55,2.28 -5.63,6.3 -5.31,10.55 0.29,4.21 2.86,7.93 6.7,9.68l210.11 96.57 96.59 215.86c1.76,3.92 5.52,6.53 9.85,6.82l0.73 0c4.01,0 7.8,-2.09 9.89,-5.56l277.27 -612.85c2.75,-4.62 2,-10.51 -1.87,-14.25z"/>
  <path class="fil0 str1" d="M1340.89 1263.97l-302.22 0 0 -186.37 302.22 0 0 186.37zm498.46 -1253.44l-1305.31 0c-30.9,0 -55.96,25.06 -55.96,55.96l0 202.06c0,14.21 11.57,25.78 25.89,25.78 14.31,0 25.88,-11.57 25.88,-25.78l0 -206.35 1319.06 0 0 786.73 -1005.27 0c-14.31,0 -25.88,11.57 -25.88,25.78 0,14.32 11.57,25.89 25.88,25.89l1005.27 0 0 125.33 -1022.21 0c-14.42,0 -25.89,11.57 -25.89,25.78 0,14.31 11.47,25.89 25.89,25.89l160.2 0 0 186.37 -118.84 0c-14.21,0 -25.78,11.57 -25.78,25.89 0,14.31 11.57,25.81 25.78,25.81l640.17 0c14.31,0 25.8,-11.5 25.8,-25.81 0,-14.32 -11.49,-25.89 -25.8,-25.89l-115.56 0 0 -186.37 454.33 0c29.63,0 53.58,-23.98 53.58,-53.59l0 -952.22c0,-33.93 -27.43,-61.26 -61.23,-61.26z"/>
  <path class="fil0 str1" d="M671.3 1390.59l-616.84 0 0 -919.16 616.84 0 0 919.16zm0 204.59l-616.84 0 0 -152.92 616.84 0 0 152.92zm-0.18 -1175.42l-616.48 0c-28.52,0 -51.77,23.22 -51.77,51.85l0 1123.38c0,28.73 23.25,51.88 51.77,51.88l616.48 0c28.52,0 51.75,-23.15 51.75,-51.88l0 -1123.38c0,-28.63 -23.23,-51.85 -51.75,-51.85z"/>
  <path class="fil0 str1" d="M319.22 1544.23l87.12 0c14.41,0 25.99,-11.58 25.99,-25.89 0,-14.21 -11.58,-25.78 -25.99,-25.78l-87.12 0c-14.21,0 -25.78,11.57 -25.78,25.78 0,14.31 11.57,25.89 25.78,25.89z"/>
  <path class="fil0 str2" d="M356.95 1129.08l-57.6 -128.74 120.23 -127.74c2.93,-3.12 2.78,-8 -0.32,-10.91 -3.11,-2.95 -8,-2.82 -10.95,0.32l-119.93 127.47 -125.17 -57.55 367.19 -184.42 -173.45 381.57zm189.73 -398.52c-2.57,-2.52 -6.53,-2.89 -9.56,-0.98l-394.19 196.96c-2.37,1.53 -3.76,4.22 -3.55,7.06 0.2,2.82 1.91,5.3 4.48,6.47l140.46 64.56 64.57 144.3c1.18,2.62 3.69,4.36 6.59,4.55l0.48 0c2.68,0 5.22,-1.39 6.61,-3.71l185.35 -409.69c1.85,-3.08 1.34,-7.02 -1.24,-9.52z"/>
 </g>
</svg>
