<svg width="101" height="101" viewBox="0 0 101 101" fill="none" xmlns="http://www.w3.org/2000/svg">
<path d="M45.4441 95.9446C70.5425 98.7366 93.1521 80.6538 95.9441 55.5554C98.7362 30.4571 80.6533 7.84743 55.5549 5.05541C30.4566 2.26338 7.84697 20.3462 5.05495 45.4446C2.26292 70.543 20.3458 93.1526 45.4441 95.9446Z" stroke="#2C665A" stroke-width="0.855583" stroke-miterlimit="22.9256" stroke-linecap="round"/>
<path d="M50.5004 81.9554C67.8728 81.9554 81.9559 67.8723 81.9559 50.4999C81.9559 33.1275 67.8728 19.0444 50.5004 19.0444C33.128 19.0444 19.0449 33.1275 19.0449 50.4999C19.0449 67.8723 33.128 81.9554 50.5004 81.9554Z" stroke="#2C665A" stroke-miterlimit="22.9256" stroke-linecap="round"/>
<path d="M35.051 49.2548C35.3757 50.8216 35.8096 52.3292 36.3713 53.791M39.0984 55.7096C39.5911 56.6219 39.8894 57.1217 40.5452 57.9822C41.4417 59.1584 39.1712 59.3838 40.2422 60.6538C41.2883 61.8939 42.3633 63.2085 43.6605 64.4664C44.8512 65.621 49.222 69.2706 50.5187 69.337M50.5187 31.5889C48.3892 33.0885 46.2307 34.1968 43.8312 35.0578M39.6716 36.2658C38.0247 36.6495 36.2474 36.9722 34.2929 37.2647C34.2237 39.1421 34.2148 40.9317 34.2841 42.6459C34.3239 43.6359 36.1399 43.4125 36.2362 44.3548C36.2659 44.6464 36.2864 45.2595 36.291 46.1661" stroke="#2C665A" stroke-width="0.7" stroke-miterlimit="22.9256"/>
<path d="M65.9863 49.2548C65.6616 50.8216 65.2277 52.3292 64.666 53.791M61.9388 55.7096C61.4462 56.6219 61.1479 57.1217 60.4921 57.9822C59.5955 59.1584 61.8661 59.3838 60.7951 60.6538C59.749 61.8939 58.674 63.2085 57.3768 64.4664C56.1861 65.621 51.8152 69.2706 50.5186 69.337M50.5186 31.5889C52.6481 33.0885 54.8066 34.1968 57.206 35.0578M61.3657 36.2658C63.0126 36.6495 64.7899 36.9722 66.7444 37.2647C66.8136 39.1421 66.8225 40.9317 66.7532 42.6459C66.7132 43.6359 64.8973 43.4125 64.8011 44.3548C64.7714 44.6464 64.7509 45.2595 64.7462 46.1661" stroke="#2C665A" stroke-width="0.7" stroke-miterlimit="22.9256"/>
<path d="M50.5185 69.9765C50.8718 69.9765 51.1582 69.6902 51.1582 69.3369C51.1582 68.9836 50.8718 68.6973 50.5185 68.6973C50.1653 68.6973 49.8789 68.9836 49.8789 69.3369C49.8789 69.6902 50.1653 69.9765 50.5185 69.9765Z" fill="#2C665A" stroke="#2C665A" stroke-width="0.333354" stroke-miterlimit="22.9256"/>
<path d="M39.6719 36.9055C40.0251 36.9055 40.3115 36.6191 40.3115 36.2659C40.3115 35.9126 40.0251 35.6262 39.6719 35.6262C39.3186 35.6262 39.0322 35.9126 39.0322 36.2659C39.0322 36.6191 39.3186 36.9055 39.6719 36.9055Z" fill="#2C665A" stroke="#2C665A" stroke-width="0.333354" stroke-miterlimit="22.9256"/>
<path d="M36.291 46.8056C36.6443 46.8056 36.9306 46.5193 36.9306 46.166C36.9306 45.8127 36.6443 45.5264 36.291 45.5264C35.9377 45.5264 35.6514 45.8127 35.6514 46.166C35.6514 46.5193 35.9377 46.8056 36.291 46.8056Z" fill="#2C665A" stroke="#2C665A" stroke-width="0.333354" stroke-miterlimit="22.9256"/>
<path d="M35.0488 49.8818C35.4021 49.8818 35.6885 49.5954 35.6885 49.2422C35.6885 48.8889 35.4021 48.6025 35.0488 48.6025C34.6956 48.6025 34.4092 48.8889 34.4092 49.2422C34.4092 49.5954 34.6956 49.8818 35.0488 49.8818Z" fill="#2C665A" stroke="#2C665A" stroke-width="0.333354" stroke-miterlimit="22.9256"/>
<path d="M39.3652 56.8349C39.7185 56.8349 40.0049 56.5486 40.0049 56.1953C40.0049 55.842 39.7185 55.5557 39.3652 55.5557C39.012 55.5557 38.7256 55.842 38.7256 56.1953C38.7256 56.5486 39.012 56.8349 39.3652 56.8349Z" fill="#2C665A" stroke="#2C665A" stroke-width="0.333354" stroke-miterlimit="22.9256"/>
<path d="M36.3398 54.3486C36.6931 54.3486 36.9795 54.0622 36.9795 53.709C36.9795 53.3557 36.6931 53.0693 36.3398 53.0693C35.9866 53.0693 35.7002 53.3557 35.7002 53.709C35.7002 54.0622 35.9866 54.3486 36.3398 54.3486Z" fill="#2C665A" stroke="#2C665A" stroke-width="0.333354" stroke-miterlimit="22.9256"/>
<path d="M44.5303 65.8967C44.8835 65.8967 45.1699 65.6103 45.1699 65.2571C45.1699 64.9038 44.8835 64.6174 44.5303 64.6174C44.177 64.6174 43.8906 64.9038 43.8906 65.2571C43.8906 65.6103 44.177 65.8967 44.5303 65.8967Z" fill="#2C665A" stroke="#2C665A" stroke-width="0.333354" stroke-miterlimit="22.9256"/>
<path d="M43.831 35.6972C44.1843 35.6972 44.4707 35.4109 44.4707 35.0576C44.4707 34.7043 44.1843 34.418 43.831 34.418C43.4778 34.418 43.1914 34.7043 43.1914 35.0576C43.1914 35.4109 43.4778 35.6972 43.831 35.6972Z" fill="#2C665A" stroke="#2C665A" stroke-width="0.333354" stroke-miterlimit="22.9256"/>
<path d="M50.5185 32.2285C50.8718 32.2285 51.1582 31.9421 51.1582 31.5889C51.1582 31.2356 50.8718 30.9492 50.5185 30.9492C50.1653 30.9492 49.8789 31.2356 49.8789 31.5889C49.8789 31.9421 50.1653 32.2285 50.5185 32.2285Z" fill="#2C665A" stroke="#2C665A" stroke-width="0.333354" stroke-miterlimit="22.9256"/>
<path d="M61.3662 36.9053C61.7195 36.9053 62.0058 36.6189 62.0058 36.2656C62.0058 35.9124 61.7195 35.626 61.3662 35.626C61.0129 35.626 60.7266 35.9124 60.7266 36.2656C60.7266 36.6189 61.0129 36.9053 61.3662 36.9053Z" fill="#2C665A" stroke="#2C665A" stroke-width="0.333354" stroke-miterlimit="22.9256"/>
<path d="M64.7471 46.8054C65.1003 46.8054 65.3867 46.519 65.3867 46.1658C65.3867 45.8125 65.1003 45.5261 64.7471 45.5261C64.3938 45.5261 64.1074 45.8125 64.1074 46.1658C64.1074 46.519 64.3938 46.8054 64.7471 46.8054Z" fill="#2C665A" stroke="#2C665A" stroke-width="0.333354" stroke-miterlimit="22.9256"/>
<path d="M65.9892 49.8818C66.3425 49.8818 66.6289 49.5954 66.6289 49.2422C66.6289 48.8889 66.3425 48.6025 65.9892 48.6025C65.636 48.6025 65.3496 48.8889 65.3496 49.2422C65.3496 49.5954 65.636 49.8818 65.9892 49.8818Z" fill="#2C665A" stroke="#2C665A" stroke-width="0.333354" stroke-miterlimit="22.9256"/>
<path d="M61.6728 56.8347C62.0261 56.8347 62.3125 56.5483 62.3125 56.1951C62.3125 55.8418 62.0261 55.5554 61.6728 55.5554C61.3196 55.5554 61.0332 55.8418 61.0332 56.1951C61.0332 56.5483 61.3196 56.8347 61.6728 56.8347Z" fill="#2C665A" stroke="#2C665A" stroke-width="0.333354" stroke-miterlimit="22.9256"/>
<path d="M64.6982 54.3484C65.0515 54.3484 65.3379 54.062 65.3379 53.7087C65.3379 53.3555 65.0515 53.0691 64.6982 53.0691C64.345 53.0691 64.0586 53.3555 64.0586 53.7087C64.0586 54.062 64.345 54.3484 64.6982 54.3484Z" fill="#2C665A" stroke="#2C665A" stroke-width="0.333354" stroke-miterlimit="22.9256"/>
<path d="M56.5078 65.8965C56.8611 65.8965 57.1474 65.6101 57.1474 65.2568C57.1474 64.9036 56.8611 64.6172 56.5078 64.6172C56.1545 64.6172 55.8682 64.9036 55.8682 65.2568C55.8682 65.6101 56.1545 65.8965 56.5078 65.8965Z" fill="#2C665A" stroke="#2C665A" stroke-width="0.333354" stroke-miterlimit="22.9256"/>
<path d="M57.207 35.6972C57.5603 35.6972 57.8467 35.4109 57.8467 35.0576C57.8467 34.7043 57.5603 34.418 57.207 34.418C56.8538 34.418 56.5674 34.7043 56.5674 35.0576C56.5674 35.4109 56.8538 35.6972 57.207 35.6972Z" fill="#2C665A" stroke="#2C665A" stroke-width="0.333354" stroke-miterlimit="22.9256"/>
<path d="M50.2718 28.2059C51.9628 28.2059 53.3336 26.8351 53.3336 25.1441C53.3336 23.4531 51.9628 22.0823 50.2718 22.0823C48.5808 22.0823 47.21 23.4531 47.21 25.1441C47.21 26.8351 48.5808 28.2059 50.2718 28.2059Z" fill="#2C665A"/>
<path d="M28.5608 39.7877C30.2518 39.7877 31.6227 38.4169 31.6227 36.7259C31.6227 35.0349 30.2518 33.6641 28.5608 33.6641C26.8698 33.6641 25.499 35.0349 25.499 36.7259C25.499 38.4169 26.8698 39.7877 28.5608 39.7877Z" fill="#2C665A"/>
<path d="M27.1614 65.7696C28.8524 65.7696 30.2233 64.3988 30.2233 62.7078C30.2233 61.0168 28.8524 59.646 27.1614 59.646C25.4704 59.646 24.0996 61.0168 24.0996 62.7078C24.0996 64.3988 25.4704 65.7696 27.1614 65.7696Z" fill="#2C665A"/>
<path d="M43.2822 26.6755L48.3138 24.5923" stroke="#2C665A" stroke-width="1.5" stroke-miterlimit="22.9256" stroke-linecap="round"/>
<path d="M25.6504 43.8141L26.5532 38.4436" stroke="#2C665A" stroke-width="1.5" stroke-miterlimit="22.9256" stroke-linecap="round"/>
<path d="M34.0441 30.9075L29.6094 34.068" stroke="#2C665A" stroke-width="1.5" stroke-miterlimit="22.9256" stroke-linecap="round"/>
<path d="M25.209 55.353L25.6859 60.7779" stroke="#2C665A" stroke-width="1.5" stroke-miterlimit="22.9256" stroke-linecap="round"/>
<path d="M32.591 69.0588L28.4189 65.5588" stroke="#2C665A" stroke-width="1.5" stroke-miterlimit="22.9256" stroke-linecap="round"/>
<path d="M42.3115 74.2871L47.3431 76.3704" stroke="#2C665A" stroke-width="1.5" stroke-miterlimit="22.9256" stroke-linecap="round"/>
<path d="M57.2592 26.6755L52.2275 24.5923" stroke="#2C665A" stroke-width="1.5" stroke-miterlimit="22.9256" stroke-linecap="round"/>
<path d="M74.9496 44.4239L74.0469 39.0535" stroke="#2C665A" stroke-width="1.5" stroke-miterlimit="22.9256" stroke-linecap="round"/>
<path d="M66.5332 30.6753L70.968 33.8358" stroke="#2C665A" stroke-width="1.5" stroke-miterlimit="22.9256" stroke-linecap="round"/>
<path d="M75.3333 55.353L74.8564 60.7779" stroke="#2C665A" stroke-width="1.5" stroke-miterlimit="22.9256" stroke-linecap="round"/>
<path d="M67.9512 69.0588L72.1231 65.5588" stroke="#2C665A" stroke-width="1.5" stroke-miterlimit="22.9256" stroke-linecap="round"/>
<path d="M58.0922 74.521L53.0605 76.6043" stroke="#2C665A" stroke-width="1.5" stroke-miterlimit="22.9256" stroke-linecap="round"/>
<path d="M50.2718 79.2142C51.9628 79.2142 53.3336 77.8434 53.3336 76.1524C53.3336 74.4614 51.9628 73.0906 50.2718 73.0906C48.5808 73.0906 47.21 74.4614 47.21 76.1524C47.21 77.8434 48.5808 79.2142 50.2718 79.2142Z" fill="#2C665A"/>
<path d="M71.9817 39.7877C73.6727 39.7877 75.0436 38.4169 75.0436 36.7259C75.0436 35.0349 73.6727 33.6641 71.9817 33.6641C70.2907 33.6641 68.9199 35.0349 68.9199 36.7259C68.9199 38.4169 70.2907 39.7877 71.9817 39.7877Z" fill="#2C665A"/>
<path d="M73.3821 65.7696C75.0731 65.7696 76.444 64.3988 76.444 62.7078C76.444 61.0168 75.0731 59.646 73.3821 59.646C71.6911 59.646 70.3203 61.0168 70.3203 62.7078C70.3203 64.3988 71.6911 65.7696 73.3821 65.7696Z" fill="#2C665A"/>
<path d="M32.6427 23.5229L31.2577 21.3587L33.0612 20.2045L32.5996 19.4831L30.7961 20.6373L29.8727 19.1944L32.0369 17.8094L31.5752 17.088L28.6895 18.9348L31.9212 23.9846L32.6427 23.5229ZM39.2152 20.0977L40.0606 19.7154L34.9301 15.299L34.8581 22.0682L35.7033 21.6858L35.7025 20.2764L38.1576 19.1661L39.2152 20.0977ZM35.7073 19.3342L35.7094 17.0224L37.4469 18.5474L35.7073 19.3342ZM41.6179 19.3921L39.9855 13.6232L39.1614 13.8565L40.7937 19.6252L41.6179 19.3921ZM47.0629 18.2494L45.1627 16.4067C45.9983 16.0116 46.3642 15.1751 46.1999 14.2619C45.999 13.1469 45.1486 12.5022 43.6121 12.7789L41.7857 13.1077L42.8482 19.0081L43.6912 18.8564L43.3243 16.8194L44.2463 16.6533L46.0794 18.4263L47.0629 18.2494ZM42.7806 13.7988L44.0537 13.5696C44.6683 13.459 45.2273 13.6938 45.3664 14.4665C45.504 15.2303 45.0428 15.6396 44.4282 15.7504L43.1726 15.9764L42.7806 13.7988ZM51.0963 12.0952L51.0311 12.9492L52.5971 13.0683L52.2071 18.1925L53.0609 18.2575L53.4509 13.1333L55.0166 13.2525L55.0817 12.3986L51.0963 12.0952ZM60.1207 14.2467L60.3133 13.4122L56.9752 12.6415L55.6265 18.4832L58.9648 19.2538L59.1574 18.4193L56.6537 17.8413L57.0391 16.1723L59.1254 16.6539L59.3181 15.8194L57.2317 15.3378L57.617 13.6687L60.1207 14.2467ZM62.8994 19.7695C61.7629 19.3197 61.2067 18.0345 61.6564 16.8981C62.1063 15.7614 63.3914 15.2052 64.5278 15.655C65.1583 15.9045 65.5159 16.2859 65.7433 16.8268L66.3788 16.2149C66.085 15.5996 65.4984 15.118 64.8929 14.8783C63.2919 14.2447 61.4838 15.0066 60.8599 16.5828C60.2361 18.1589 61.0329 19.9519 62.6339 20.5856C63.2395 20.8253 64 20.8673 64.6354 20.6198L64.5908 19.7386C64.0516 19.9858 63.5298 20.019 62.8994 19.7695ZM71.4289 18.2982L70.1495 20.5266L67.6736 19.1051L68.953 16.8767L68.2101 16.4502L65.225 21.6497L65.9679 22.0762L67.2473 19.8478L69.7232 21.2693L68.4438 23.4975L69.1865 23.9241L72.1715 18.7247L71.4289 18.2982Z" fill="#2C665A"/>
<path d="M50.7517 90.2677C72.7149 90.1289 90.407 72.2118 90.2682 50.2487C90.1295 28.2855 72.2123 10.5934 50.2492 10.7321C28.2861 10.8709 10.5939 28.788 10.7327 50.7512C10.8715 72.7143 28.7886 90.4064 50.7517 90.2677Z" stroke="#2C665A" stroke-miterlimit="22.9256" stroke-linecap="round"/>
<path d="M21.0669 65.9819L18.3735 65.7211L19.9227 63.5024L19.5795 62.7585L17.5872 65.6829L15.7139 66.5476L16.019 67.2087L17.8924 66.3442L21.4102 66.7258L21.0669 65.9819ZM18.5841 71.8213L18.9808 72.5033L22.2726 67.782L16.5408 68.3062L16.9372 68.9883L18.1294 68.8656L19.2807 70.8461L18.5841 71.8213ZM18.9268 68.788L20.8823 68.5902L19.7426 70.1914L18.9268 68.788ZM24.4571 74.8192L22.8134 72.7342L22.2418 73.1875L23.42 74.6734C22.6914 75.0383 21.8353 74.9232 21.2604 74.198C20.6146 73.3837 20.7514 72.2008 21.5676 71.5535C22.381 70.9088 23.5629 71.0461 24.2085 71.8604C24.6327 72.3954 24.6876 73.0489 24.4389 73.6139L25.0624 74.0586C25.4585 73.1928 25.4201 72.2163 24.7792 71.408C23.8838 70.2786 22.2436 70.0882 21.1152 70.983C19.9839 71.8799 19.7943 73.5211 20.6897 74.6503C21.5851 75.7797 23.1509 75.8742 24.2822 74.9772C24.3476 74.9254 24.4083 74.8676 24.4571 74.8192ZM28.1826 75.0098C27.1342 74.0208 25.4827 74.0691 24.4938 75.1174C23.5048 76.1657 23.5529 77.8171 24.6014 78.8061C25.6499 79.7952 27.3011 79.747 28.2901 78.6987C29.279 77.6502 29.231 75.9988 28.1826 75.0098ZM25.1011 78.2764C24.3396 77.5581 24.3053 76.3786 25.0236 75.6171C25.7419 74.8555 26.9214 74.8212 27.6829 75.5395C28.4444 76.2579 28.4788 77.4374 27.7603 78.1988C27.042 78.9603 25.8626 78.9947 25.1011 78.2764ZM30.6405 83.5019L33.6349 79.2274L33.0385 78.8097L31.0365 81.6676L30.2252 76.6909L27.2311 80.9653L27.8276 81.3831L29.8295 78.5252L30.6405 83.5019ZM34.8814 85.5244L35.5863 85.8787L35.7615 80.1257L31.2486 83.6984L31.9535 84.0527L32.8846 83.2982L34.9315 84.3271L34.8814 85.5244ZM33.5099 82.7974L35.0392 81.5624L34.9603 83.5265L33.5099 82.7974ZM41.8985 87.8673L42.6592 88.0771L41.7073 82.4007L37.9791 86.7858L38.7396 86.9956L39.5055 86.0739L41.7139 86.6831L41.8985 87.8673ZM40.0209 85.4605L41.2796 83.9508L41.5859 85.8924L40.0209 85.4605ZM47.4774 88.7151L45.9506 85.8824L47.9593 83.6389L47.0931 83.5359L45.5658 85.2638L44.4869 83.2256L43.6206 83.1225L45.0467 85.775L42.8975 88.1699L43.7714 88.2739L45.4305 86.4011L46.6036 88.6111L47.4774 88.7151ZM50.9291 86.0753C51.2653 85.9532 51.546 85.5718 51.556 85.0635C51.5732 84.1837 50.93 83.7159 49.8303 83.6943L48.3058 83.6643L48.2056 88.7608L50.0865 88.7978C51.1103 88.8179 51.7376 88.1778 51.7548 87.2981C51.7649 86.7899 51.5253 86.2312 50.9291 86.0753ZM49.0197 84.4067L49.9297 84.4245C50.506 84.4358 50.8358 84.6472 50.8273 85.0795C50.8187 85.5194 50.4811 85.71 49.9046 85.6987L48.9946 85.6807L49.0197 84.4067ZM49.9796 88.0672L48.9481 88.047L48.9803 86.4088L50.0118 86.4291C50.6412 86.4416 51.038 86.7073 51.0271 87.2686C51.016 87.8297 50.609 88.0797 49.9796 88.0672ZM54.1771 83.4449C52.749 83.6385 51.7486 84.9534 51.9422 86.3815C52.136 87.8096 53.4506 88.8102 54.8787 88.6164C56.307 88.4226 57.3075 87.108 57.1137 85.6798C56.9199 84.2516 55.6054 83.2511 54.1771 83.4449ZM54.7808 87.8947C53.7436 88.0355 52.8046 87.3208 52.664 86.2836C52.5231 85.2461 53.2378 84.3072 54.2752 84.1665C55.3125 84.0258 56.2514 84.7403 56.3921 85.7777C56.5329 86.8151 55.8183 87.754 54.7808 87.8947ZM61.7711 87.1942L60.0726 85.718C60.7636 85.3438 61.0355 84.6167 60.8537 83.8491C60.6315 82.9116 59.8796 82.4038 58.5879 82.7099L57.0527 83.0737L58.2281 88.0339L58.9369 87.866L58.531 86.1536L59.306 85.9699L60.9445 87.3901L61.7711 87.1942ZM57.9291 83.6143L58.9995 83.3608C59.5162 83.2383 60.0016 83.4117 60.1555 84.0612C60.3077 84.7033 59.9352 85.0722 59.4187 85.1947L58.363 85.4448L57.9291 83.6143ZM62.6284 81.3523C61.2915 81.891 60.6447 83.4113 61.1836 84.7482C61.7222 86.0847 63.2424 86.7315 64.5791 86.1928C65.916 85.6542 66.5629 84.134 66.0241 82.7973C65.4854 81.4604 63.9651 80.8136 62.6284 81.3523ZM64.3071 85.5175C63.3361 85.9088 62.2503 85.4467 61.859 84.4758C61.4677 83.505 61.9297 82.4191 62.9004 82.0278C63.8716 81.6366 64.9573 82.0985 65.3486 83.0695C65.7399 84.0403 65.2779 85.1262 64.3071 85.5175ZM64.9314 80.4214L65.2669 81.0675L66.4517 80.4524L68.4651 84.3303L69.1115 83.9947L67.0981 80.117L68.2828 79.5017L67.9474 78.8556L64.9314 80.4214ZM69.6519 77.6855L70.1044 78.2562L71.1505 77.4266L73.865 80.8504L74.4357 80.3979L71.7211 76.9742L72.7672 76.1448L72.3147 75.5742L69.6519 77.6855ZM76.6513 78.508L73.2914 74.6746L72.7437 75.1545L76.1036 78.9881L76.6513 78.508ZM79.9394 75.1036L79.4098 74.6039L77.6088 76.513L76.3148 71.5174L73.6497 74.3425L74.1795 74.8421L75.9805 72.933L77.2745 77.9288L79.9394 75.1036ZM80.9498 73.7316L76.9218 70.6076L76.4754 71.183L80.5036 74.3069L80.9498 73.7316ZM83.1543 70.7519L81.3701 67.7001L84.1804 68.9054L84.5781 68.2776L79.7065 66.2153L81.8983 69.9564L77.5796 69.5732L81.5257 73.0965L81.9233 72.4685L79.6328 70.4428L83.1543 70.7519ZM85.178 66.8033L80.6299 64.5014L80.301 65.1512L84.8492 67.453L85.178 66.8033Z" fill="#2C665A"/>
<path d="M11.7422 70.7158C12.0217 71.252 12.6827 71.4601 13.2187 71.1808C13.755 70.9013 13.963 70.2402 13.6835 69.704C13.4042 69.168 12.7432 68.96 12.2069 69.2395C11.6708 69.5188 11.4629 70.1798 11.7422 70.7158ZM13.4127 69.8453C13.6155 70.2346 13.4669 70.707 13.0776 70.9099C12.6881 71.1127 12.216 70.9642 12.0131 70.5747C11.8101 70.1854 11.9587 69.7131 12.348 69.5102C12.7375 69.3072 13.2097 69.4559 13.4127 69.8453ZM10.8722 68.8943L10.9568 69.0795L11.6606 69.1493L11.4912 68.7789L10.8722 68.8943ZM12.0325 66.2914L11.7547 66.4185L12.213 67.4196L10.067 67.1352L10.7451 68.6165L11.0229 68.4894L10.5647 67.4883L12.7106 67.7727L12.0325 66.2914ZM10.4292 65.2868C10.327 65.1768 10.1338 65.1309 9.93579 65.2099C9.59315 65.3471 9.51754 65.6722 9.68879 66.1004L9.92637 66.6943L11.9117 65.9001L11.6187 65.1674C11.4591 64.7686 11.1093 64.6309 10.7666 64.7681C10.5685 64.8473 10.392 65.031 10.4292 65.2868ZM10.0967 66.2973L9.95476 65.9428C9.86495 65.7181 9.89281 65.5563 10.0611 65.4889C10.2324 65.4205 10.3613 65.5197 10.4511 65.7443L10.5929 66.0987L10.0967 66.2973ZM11.3539 65.3281L11.5147 65.7299L10.8765 65.9853L10.7158 65.5835C10.6177 65.3382 10.6555 65.1415 10.8742 65.054C11.0928 64.9665 11.2558 65.0829 11.3539 65.3281ZM9.14652 63.6546L8.85788 63.7549L9.25861 64.9092L11.2786 64.2078L10.8779 63.0536L10.5895 63.1537L10.8899 64.0194L10.3128 64.2199L10.0623 63.4985L9.77369 63.5987L10.0241 64.3201L9.44711 64.5204L9.14652 63.6546ZM9.55548 62.4033L8.28775 61.7905L8.40116 62.1817L9.5328 62.7015L8.62813 62.9641L8.71329 63.2573L10.767 62.6615L10.6818 62.3681L9.77727 62.6307L10.4407 61.5369L10.3271 61.1457L9.55548 62.4033ZM10.1913 60.5762L8.11106 61.0713L8.18176 61.3684L10.2621 60.8734L10.1913 60.5762ZM8.69591 59.6795C8.70891 60.0231 8.66845 60.1832 8.50768 60.2214C8.32184 60.2656 8.17513 60.1305 8.10748 59.8456C8.04553 59.5856 8.12034 59.3911 8.1998 59.2578L7.8967 59.1796C7.71934 59.4931 7.78819 59.8234 7.80888 59.9102C7.92455 60.3961 8.25326 60.596 8.59085 60.5157C8.86928 60.4494 9.03762 60.236 8.99888 59.6335C8.98071 59.3369 9.03802 59.1238 9.20515 59.084C9.4032 59.037 9.5706 59.1768 9.64502 59.4896C9.70325 59.7342 9.64542 59.9997 9.49473 60.2187L9.79637 60.3039C9.82609 60.2641 10.063 59.9266 9.94375 59.4251C9.82808 58.9391 9.48425 58.7035 9.12198 58.7897C8.77218 58.873 8.67402 59.1613 8.69591 59.6795ZM7.61654 58.8329L7.91686 58.7767L7.81392 58.2262L9.61544 57.889L9.5592 57.5888L7.75768 57.9259L7.65461 57.3754L7.35429 57.4316L7.61654 58.8329ZM7.15174 56.0822C7.23013 56.6816 7.7797 57.1039 8.37914 57.0253C8.97859 56.9468 9.40081 56.3972 9.32228 55.7978C9.24375 55.1983 8.69419 54.7761 8.09474 54.8546C7.4953 54.9332 7.07307 55.4827 7.15174 56.0822ZM9.01944 55.8374C9.07635 56.2728 8.77484 56.6654 8.33948 56.7225C7.90399 56.7795 7.51148 56.4779 7.45444 56.0425C7.3974 55.6072 7.69905 55.2145 8.13441 55.1575C8.56989 55.1004 8.96227 55.4021 9.01944 55.8374ZM9.04664 52.6042L6.86481 52.7836L6.88975 53.0881L8.34863 52.9681L6.96006 54.5637L9.14201 54.3843L9.11694 54.0798L7.65806 54.1999L9.04664 52.6042ZM8.97315 49.605L8.19476 50.1389C8.11557 49.819 7.84907 49.632 7.51825 49.6248C7.1142 49.6162 6.82873 49.8678 6.81693 50.4245L6.80273 51.0862L8.94039 51.132L8.94702 50.8266L8.20895 50.8108L8.21612 50.4767L8.96546 49.9613L8.97315 49.605ZM7.11459 50.7873L7.12454 50.3261C7.12932 50.1034 7.25096 49.9246 7.53072 49.9306C7.80756 49.9365 7.91805 50.1267 7.91328 50.3493L7.90359 50.8042L7.11459 50.7873ZM7.17415 48.0134L6.86879 48.0069L6.84253 49.2283L8.98031 49.2741L9.00658 48.0526L8.70122 48.046L8.68159 48.9622L8.07073 48.9492L8.08718 48.1857L7.78156 48.1792L7.76524 48.9426L7.15452 48.9296L7.17415 48.0134ZM7.87176 46.8019C7.78142 47.1336 7.69507 47.2742 7.53005 47.2627C7.33957 47.2494 7.24008 47.0766 7.26038 46.7845C7.27921 46.5179 7.40855 46.3547 7.52435 46.2512L7.25839 46.0858C6.99547 46.3322 6.96244 46.6679 6.95621 46.7569C6.92132 47.2553 7.17535 47.5442 7.52143 47.5683C7.80716 47.5884 8.03147 47.4351 8.1746 46.8486C8.24583 46.5601 8.36415 46.3738 8.53554 46.3858C8.73863 46.3999 8.85668 46.5837 8.83413 46.9043C8.81662 47.155 8.68198 47.3912 8.4728 47.5552L8.73518 47.7267C8.7755 47.6977 9.10248 47.4463 9.13856 46.932C9.17332 46.4336 8.91558 46.106 8.54416 46.0801C8.18547 46.0549 8.0056 46.3009 7.87176 46.8019ZM7.18583 44.8616L7.10743 45.5188L9.23075 45.772L9.26697 45.4686L8.53381 45.3812L8.5874 44.9324C8.64073 44.484 8.35964 44.1812 7.96156 44.1338C7.56016 44.0859 7.25162 44.3087 7.18583 44.8616ZM8.2843 44.8933L8.23058 45.3451L7.44701 45.2516L7.49861 44.8189C7.52501 44.5976 7.66628 44.4062 7.94418 44.4394C8.21917 44.472 8.3107 44.6722 8.2843 44.8933ZM7.57966 42.3401L8.85947 42.5592C9.18552 42.615 9.37919 42.8419 9.32533 43.1556C9.27121 43.4722 9.01361 43.6187 8.68742 43.5627L7.40775 43.3436L7.35628 43.6448L8.53541 43.8468C9.09054 43.9418 9.52975 43.7716 9.62645 43.2071C9.72103 42.6551 9.36566 42.336 8.81052 42.241L7.63126 42.039L7.57966 42.3401ZM8.95339 40.6575C8.93137 40.509 8.79818 40.3616 8.59019 40.3148C8.23018 40.2336 7.98372 40.4587 7.88237 40.9088L7.74176 41.5328L9.82794 42.0026L10.0013 41.2326C10.0956 40.8137 9.88538 40.5022 9.52524 40.421C9.31724 40.3742 9.0676 40.4255 8.95339 40.6575ZM8.10695 41.3019L8.19091 40.9295C8.24397 40.6934 8.35858 40.5758 8.53554 40.6156C8.71554 40.6561 8.76555 40.8107 8.71236 41.0469L8.62866 41.4193L8.10695 41.3019ZM9.69211 41.2153L9.59713 41.6376L8.92646 41.4863L9.02157 41.0644C9.07954 40.8066 9.22227 40.6659 9.45202 40.7175C9.68163 40.7694 9.75021 40.9576 9.69211 41.2153ZM10.0178 39.8655L8.24994 39.381L8.16916 39.6755L10.2315 40.2409L10.5409 39.1115L10.2465 39.0307L10.0178 39.8655ZM10.716 38.4732L8.65373 37.908L8.57294 38.2025L10.6353 38.7678L10.716 38.4732ZM10.0054 37.1373L9.30928 35.9131L9.18075 36.2996L9.81733 37.3698L8.92354 37.0725L8.82724 37.3624L10.8562 38.0372L10.9527 37.7473L10.0589 37.4501L11.2259 36.9261L11.3543 36.5396L10.0054 37.1373ZM12.005 34.8534L12.1248 34.5449L9.71532 34.7017L11.3875 36.4434L11.5074 36.1348L11.1551 35.7762L11.5029 34.8804L12.005 34.8534ZM10.921 35.5351L10.3442 34.9459L11.1674 34.9004L10.921 35.5351ZM11.3988 33.111C11.2007 33.3918 11.0714 33.4945 10.9203 33.4272C10.7459 33.3496 10.7114 33.1533 10.8304 32.8857C10.939 32.6415 11.1165 32.5325 11.2606 32.4746L11.0672 32.2284C10.7359 32.3701 10.5901 32.6743 10.5538 32.7559C10.3508 33.2123 10.4908 33.5706 10.8077 33.7116C11.0694 33.8279 11.3326 33.7605 11.6675 33.2582C11.8331 33.0116 12.008 32.8768 12.165 32.9469C12.3511 33.0295 12.3991 33.2424 12.2684 33.5361C12.1663 33.7657 11.9591 33.9417 11.7064 34.0242L11.8942 34.2752C11.9421 34.2617 12.3354 34.1371 12.5449 33.6661C12.7481 33.2096 12.6177 32.8138 12.2776 32.6625C11.949 32.5163 11.6961 32.6858 11.3988 33.111ZM13.1386 32.3217L11.2275 31.3621L11.0905 31.6351L13.0015 32.5947L13.1386 32.3217ZM14.5532 29.6729L13.6144 29.7718C13.6972 29.4527 13.5521 29.1613 13.2645 28.9975C12.9134 28.7975 12.5424 28.8829 12.2668 29.3667L11.9392 29.9417L13.7972 31.0001L13.9484 30.7347L13.3069 30.3692L13.4724 30.0788L14.3769 29.9825L14.5532 29.6729ZM12.356 29.8275L12.5843 29.4266C12.6945 29.2331 12.8866 29.1337 13.1299 29.2723C13.3704 29.4094 13.377 29.6293 13.2668 29.8227L13.0417 30.2181L12.356 29.8275ZM15.521 28.087L15.697 27.8068L13.3016 27.5043L14.6135 29.531L14.7896 29.2509L14.5117 28.8321L15.0229 28.0183L15.521 28.087ZM14.3276 28.551L13.8728 27.8631L14.6898 27.9744L14.3276 28.551ZM17.0012 25.9237L16.5306 25.9889C16.4737 25.7384 16.3245 25.5085 16.0983 25.3488C15.6044 25.0002 14.9216 25.118 14.573 25.6119C14.2242 26.1059 14.342 26.7887 14.8359 27.1373C15.33 27.4861 16.0129 27.3683 16.3615 26.8743C16.4936 26.6871 16.5574 26.4752 16.5622 26.2644L16.781 26.2357L17.0012 25.9237ZM16.1118 26.698C15.8586 27.057 15.3708 27.1411 15.012 26.8878C14.6532 26.6346 14.5692 26.1467 14.8223 25.7879C15.0756 25.4293 15.5635 25.3451 15.9221 25.5983C16.0781 25.7084 16.1825 25.864 16.2275 26.0321L15.8952 26.0779L15.6897 26.3692L16.2558 26.3012C16.245 26.4377 16.1981 26.5758 16.1118 26.698ZM16.084 23.5692C15.7134 24.047 15.8002 24.7345 16.2779 25.105C16.7556 25.4756 17.4432 25.3888 17.8137 24.9111C18.1843 24.4333 18.0975 23.7459 17.6197 23.3753C17.142 23.0048 16.4545 23.0915 16.084 23.5692ZM17.5723 24.7238C17.3032 25.0708 16.8121 25.1329 16.4651 24.8637C16.1181 24.5946 16.0562 24.1034 16.3253 23.7564C16.5944 23.4095 17.0856 23.3474 17.4325 23.6166C17.7795 23.8858 17.8414 24.3769 17.5723 24.7238ZM18.5478 22.1908C18.5978 22.0493 18.549 21.8568 18.3872 21.7181C18.1069 21.478 17.7837 21.5617 17.4837 21.912L17.0676 22.3976L18.6915 23.7887L19.205 23.1896C19.4843 22.8634 19.4441 22.4896 19.1638 22.2495C19.002 22.1107 18.7573 22.0393 18.5478 22.1908ZM17.4983 22.3645L17.7467 22.0745C17.9041 21.8908 18.0603 21.8405 18.198 21.9584C18.3382 22.0785 18.3101 22.2386 18.1528 22.4223L17.9043 22.7123L17.4983 22.3645ZM18.9398 23.0296L18.6583 23.3581L18.1362 22.911L18.4178 22.5824C18.5896 22.3817 18.7815 22.324 18.9603 22.4772C19.1392 22.6304 19.1116 22.8289 18.9398 23.0296ZM20.9283 21.3168L21.1549 21.0755L18.8621 20.3191L19.7608 22.56L19.9875 22.3187L19.795 21.8544L20.4527 21.1539L20.9283 21.3168ZM19.6682 21.5432L19.3537 20.7809L20.1343 21.0469L19.6682 21.5432ZM19.5697 19.6554L19.7821 19.875L20.1847 19.4857L21.4588 20.8032L21.6783 20.5909L20.4044 19.2733L20.807 18.8841L20.5946 18.6643L19.5697 19.6554ZM23.7109 18.8181L22.2705 17.1696L22.0403 17.3706L23.0035 18.4728L20.8952 18.3037L22.3358 19.9522L22.5656 19.7513L21.6026 18.6491L23.7109 18.8181ZM24.2666 18.2941L22.931 16.6242L22.6923 16.8149L24.028 18.4849L24.2666 18.2941ZM26.657 16.4764L25.7614 16.1773C25.969 15.9214 25.9575 15.5959 25.7637 15.3277C25.5269 15.0002 25.1539 14.9243 24.7028 15.2505L24.1663 15.6382L25.4192 17.3711L25.6667 17.1922L25.2342 16.5938L25.5049 16.3981L26.3682 16.6851L26.657 16.4764ZM24.5929 15.7069L24.9669 15.4366C25.1473 15.306 25.3632 15.2952 25.5273 15.522C25.6895 15.7464 25.6045 15.9493 25.4238 16.0798L25.0553 16.3464L24.5929 15.7069ZM27.1769 16.11L26.0125 14.3166L25.7563 14.4831L26.9209 16.2764L27.1769 16.11ZM28.2294 15.4872L27.8484 13.1244L27.5709 13.3045L27.8378 14.8841L26.5035 13.9977L26.226 14.178L28.2294 15.4872ZM28.9018 12.4982C28.379 12.8023 28.2021 13.4722 28.506 13.9948C28.81 14.5174 29.4799 14.6945 30.0026 14.3905C30.5252 14.0865 30.7024 13.4166 30.3982 12.8939C30.0942 12.3713 29.4243 12.1942 28.9018 12.4982ZM29.849 14.1264C29.4694 14.3473 28.9908 14.2207 28.7699 13.8412C28.5491 13.4617 28.6758 12.9831 29.0554 12.7622C29.4348 12.5415 29.9134 12.6679 30.1342 13.0474C30.3551 13.4271 30.2286 13.9057 29.849 14.1264ZM30.7723 11.5205L31.3959 12.7169C31.5371 12.9877 31.524 13.2242 31.27 13.3565C31.1487 13.4198 31.0175 13.4091 30.9287 13.3623L30.9137 13.6644C31.0271 13.7165 31.2477 13.7128 31.4113 13.6275C31.7782 13.4362 31.9241 13.0694 31.6549 12.553L31.0432 11.3792L30.7723 11.5205ZM32.5471 12.6897L31.7841 11.023L31.5064 11.1501L32.3964 13.0945L33.4611 12.607L33.334 12.3292L32.5471 12.6897ZM35.2661 11.8441L35.573 11.7203L33.8092 10.0715L33.6846 12.4827L33.9916 12.3588L34.0117 11.8566L34.9029 11.4967L35.2661 11.8441ZM34.0272 11.5209L34.0617 10.697L34.6585 11.2661L34.0272 11.5209ZM37.507 11.0838L36.7935 9.01406L36.5046 9.11368L36.9817 10.4974L35.0923 9.54679L35.8059 11.6164L36.0947 11.5169L35.6176 10.1331L37.507 11.0838ZM37.2323 8.86165L37.3172 9.15534L37.8552 8.99961L38.3642 10.7604L38.6578 10.6755L38.1487 8.91484L38.6867 8.75924L38.6018 8.46569L37.2323 8.86165ZM39.8316 10.3362L39.2377 8.28197L38.9442 8.36687L39.5382 10.4209L39.8316 10.3362ZM41.7628 9.87483L41.0496 9.25628C41.3393 9.09896 41.4531 8.79387 41.3766 8.47192C41.2829 8.07875 40.9673 7.86611 40.4257 7.99492L39.7819 8.14813L40.2769 10.2285L40.574 10.1578L40.403 9.43947L40.7282 9.36214L41.416 9.95721L41.7628 9.87483ZM40.1497 8.37469L40.5986 8.26778C40.8152 8.21631 41.0191 8.28887 41.0838 8.5612C41.1479 8.83048 40.9917 8.98541 40.775 9.03701L40.3325 9.14234L40.1497 8.37469ZM42.3872 9.75266L41.9938 7.65082L41.6936 7.70693L42.0869 9.80877L42.3872 9.75266ZM43.3554 8.30227C43.0116 8.29868 42.8538 8.2504 42.8232 8.0879C42.7882 7.9002 42.9303 7.76026 43.2181 7.7064C43.4808 7.65732 43.6714 7.74129 43.8007 7.82725L43.8937 7.52825C43.589 7.33604 43.2558 7.38871 43.1683 7.40502C42.6771 7.49695 42.4615 7.81557 42.5254 8.15662C42.5781 8.4381 42.7831 8.61665 43.3867 8.60723C43.6837 8.60338 43.8939 8.6709 43.9256 8.83989C43.963 9.03993 43.8149 9.20044 43.499 9.25947C43.252 9.30576 42.9893 9.23506 42.778 9.07402L42.6781 9.37103C42.7166 9.40286 43.0423 9.65582 43.549 9.56098C44.0399 9.46919 44.2919 9.13716 44.2235 8.77118C44.1573 8.41754 43.8741 8.30558 43.3554 8.30227ZM45.7307 7.07207L45.8498 7.98072L44.8401 8.11297L44.7211 7.20432L44.4182 7.24399L44.6959 9.36426L44.9988 9.3246L44.8797 8.41595L45.8894 8.2837L46.0084 9.19235L46.3113 9.15268L46.0336 7.03241L45.7307 7.07207ZM48.5484 9.05665L49.4418 6.83622L49.1111 6.84736L48.5243 8.33795L47.8391 6.88994L47.5084 6.90095L48.5484 9.05665ZM50.9638 8.96419L51.2948 8.97122L50.3237 6.76074L49.2587 8.92771L49.5896 8.93474L49.8062 8.48108L50.7668 8.50164L50.9638 8.96419ZM49.9526 8.17864L50.3091 7.43527L50.6335 8.19336L49.9526 8.17864ZM52.8717 9.02919L53.0211 6.89618L52.7164 6.87469L52.567 9.00783L52.8717 9.02919ZM54.1745 7.86996C53.8426 7.77976 53.7021 7.69327 53.7137 7.52825C53.7269 7.33777 53.8998 7.23828 54.1917 7.25858C54.4584 7.27741 54.6215 7.40675 54.7251 7.52255L54.8904 7.25659C54.6441 6.99368 54.3083 6.96065 54.2193 6.95441C53.7211 6.91953 53.4322 7.17355 53.4079 7.51963C53.3879 7.80536 53.5412 8.02967 54.1278 8.1728C54.4163 8.24403 54.6025 8.36236 54.5905 8.53374C54.5763 8.73683 54.3927 8.85488 54.0721 8.83233C53.8212 8.81482 53.585 8.68019 53.4212 8.471L53.2496 8.73338C53.2787 8.7737 53.5301 9.10068 54.0444 9.13677C54.5426 9.17152 54.8702 8.91378 54.8962 8.54249C54.9213 8.18368 54.6755 8.0038 54.1745 7.86996ZM55.3059 7.086L55.2696 7.3895L55.8258 7.45569L55.609 9.27565L55.9122 9.31186L56.1291 7.49191L56.6853 7.55823L56.7215 7.25473L55.3059 7.086ZM58.3341 7.83322L58.3857 7.53197L57.1815 7.32583L56.8204 9.4335L58.0248 9.63977L58.0762 9.33866L57.173 9.18399L57.2762 8.58176L58.0289 8.71069L58.0805 8.40945L57.3278 8.28051L57.4309 7.67841L58.3341 7.83322ZM58.5836 8.18593L58.7843 8.22029L59.2388 7.67828L58.8374 7.60944L58.5836 8.18593ZM60.2794 10.1679L61.2332 9.03237L61.1536 10.3124L61.4579 10.381L61.585 8.16564L60.4165 9.55952L59.9584 7.79926L59.1235 9.85533L59.4277 9.92378L59.9047 8.73311L60.2794 10.1679ZM63.4276 8.73086C62.8538 8.54064 62.2344 8.85157 62.0442 9.42554C61.8541 9.99952 62.165 10.6187 62.739 10.8089C63.3129 10.9992 63.9321 10.6882 64.1223 10.1141C64.3125 9.54029 64.0014 8.92108 63.4276 8.73086ZM62.8351 10.5188C62.4183 10.3808 62.1961 9.93837 62.3342 9.52158C62.4724 9.10466 62.9146 8.88261 63.3316 9.02083C63.7482 9.15892 63.9705 9.60131 63.8324 10.0181C63.6942 10.435 63.2518 10.6571 62.8351 10.5188ZM64.5034 11.037L65.1669 9.32844L64.8822 9.21782L64.1081 11.2111L65.1997 11.635L65.3102 11.3503L64.5034 11.037ZM66.5113 11.8439C66.1049 11.6859 65.9035 11.2289 66.0612 10.8226C66.2191 10.4162 66.6762 10.2148 67.0826 10.3725C67.308 10.4601 67.4364 10.5954 67.5186 10.7877L67.744 10.5679C67.6378 10.3493 67.4275 10.1789 67.2109 10.0949C66.6384 9.87244 65.9953 10.1484 65.7766 10.712C65.5577 11.2756 65.8459 11.9133 66.4185 12.1354C66.6351 12.2197 66.9063 12.2328 67.1324 12.143L67.1145 11.8289C66.9227 11.9183 66.7367 11.9314 66.5113 11.8439ZM69.4195 11.102L69.0469 11.9393L68.1165 11.5253L68.4891 10.6881L68.21 10.5639L67.3406 12.5175L67.6199 12.6416L67.9923 11.8045L68.9227 12.2185L68.5501 13.0556L68.8291 13.1798L69.6985 11.2263L69.4195 11.102ZM69.4998 13.5479L70.4592 11.6368L70.1864 11.4998L69.2268 13.4107L69.4998 13.5479ZM70.3306 13.6305L71.2378 12.0378L70.9723 11.8867L69.9139 13.7446L70.9313 14.3243L71.0826 14.0589L70.3306 13.6305ZM72.6128 15.3306L72.8927 15.507L73.1996 13.1123L71.1705 14.4205L71.4503 14.5972L71.8697 14.3198L72.6824 14.8327L72.6128 15.3306ZM72.151 14.1362L72.8398 13.6828L72.7269 14.4997L72.151 14.1362ZM74.3711 16.5013L74.3615 15.5574C74.6713 15.67 74.9752 15.5529 75.1655 15.2823C75.3979 14.9516 75.348 14.5743 74.8924 14.2543L74.351 13.8736L73.1214 15.6232L73.3713 15.7987L73.7958 15.1947L74.0692 15.387L74.0794 16.2964L74.3711 16.5013ZM74.4252 14.2992L74.8026 14.5645C74.9848 14.6925 75.0656 14.8932 74.9046 15.1223C74.7454 15.3488 74.5259 15.3346 74.3436 15.2064L73.9714 14.9448L74.4252 14.2992ZM77.8389 16.4218L77.2793 17.1474L76.473 16.5255L77.0327 15.7999L76.7909 15.6133L75.4849 17.3065L75.7268 17.493L76.2864 16.7674L77.0928 17.3893L76.533 18.115L76.775 18.3015L78.0809 16.6083L77.8389 16.4218ZM79.4801 17.8133L78.6327 18.797C78.4168 19.0477 78.1227 19.0966 77.8816 18.889C77.6381 18.6793 77.6454 18.3833 77.8614 18.1325L78.7086 17.1488L78.4771 16.9494L77.6963 17.856C77.3288 18.2827 77.2482 18.7468 77.6821 19.1205C78.1066 19.4861 78.5632 19.3459 78.9308 18.9192L79.7116 18.0126L79.4801 17.8133ZM80.1502 21.3611L80.1512 20.8861C80.4072 20.8645 80.6555 20.7487 80.845 20.5468C81.2589 20.1062 81.2372 19.4135 80.7965 18.9997C80.3558 18.5857 79.6631 18.6074 79.2493 19.0481C78.8353 19.4889 78.857 20.1815 79.2978 20.5955C79.4648 20.7522 79.6658 20.845 79.8739 20.8789L79.8719 21.0997L80.1502 21.3611ZM79.507 20.3727C79.1868 20.0721 79.1713 19.5774 79.4719 19.2573C79.7726 18.9372 80.2674 18.9217 80.5874 19.2223C80.9074 19.5228 80.923 20.0176 80.6225 20.3377C80.4917 20.477 80.3232 20.5587 80.1505 20.5798L80.1513 20.2445L79.8914 20.0005L79.88 20.5704C79.7463 20.5408 79.616 20.4751 79.507 20.3727ZM82.7457 21.0199L81.8101 21.9202C81.5716 22.1496 81.2742 22.1708 81.0536 21.9416C80.8307 21.71 80.8656 21.4159 81.1041 21.1865L82.0397 20.2862L81.8278 20.066L80.9656 20.8955C80.5598 21.2862 80.4362 21.7406 80.8334 22.1534C81.2218 22.5569 81.6895 22.4602 82.0953 22.0696L82.9575 21.2401L82.7457 21.0199ZM83.0633 24.6311L83.1098 24.1583C83.3667 24.1613 83.6251 24.0698 83.8331 23.8872C84.2872 23.4881 84.332 22.7965 83.933 22.3423C83.5339 21.8881 82.8425 21.8434 82.3883 22.2423C81.934 22.6414 81.8893 23.3329 82.2884 23.7873C82.4395 23.9593 82.6306 24.0707 82.8347 24.1247L82.8114 24.3441L83.0633 24.6311ZM82.5179 23.5855C82.2281 23.2557 82.2599 22.7616 82.5898 22.4718C82.9197 22.1821 83.4137 22.214 83.7035 22.5439C83.9934 22.8738 83.9614 23.3678 83.6316 23.6577C83.4881 23.7837 83.3125 23.849 83.1386 23.8535L83.1715 23.5196L82.9363 23.2519L82.8702 23.818C82.7399 23.7757 82.6165 23.698 82.5179 23.5855ZM83.6344 24.9246L85.0633 23.7767L84.872 23.5386L83.205 24.8778L83.9384 25.7907L84.1764 25.5994L83.6344 24.9246ZM85.0636 27.3965L85.257 27.6652L86.4389 25.5597L84.0672 26.0122L84.2606 26.2807L84.7533 26.1809L85.3147 26.9609L85.0636 27.3965ZM85.0829 26.1161L85.8914 25.9538L85.4808 26.6688L85.0829 26.1161ZM86.1912 29.1843L86.537 28.3057C86.7818 28.5266 87.1074 28.5323 87.3855 28.3529C87.7251 28.1337 87.8206 27.7653 87.5187 27.2974L87.1598 26.7414L85.3631 27.9009L85.5288 28.1576L86.149 27.7572L86.3302 28.0379L85.9981 28.8847L86.1912 29.1843ZM87.0687 27.1636L87.3189 27.5515C87.4396 27.7386 87.4391 27.9547 87.2039 28.1066C86.9713 28.2566 86.773 28.161 86.6523 27.9738L86.4057 27.5915L87.0687 27.1636ZM86.4929 29.7455L88.338 28.6648L88.1838 28.4012L86.3386 29.4821L86.4929 29.7455ZM87.5194 31.7355L89.4608 30.7237L89.3195 30.4528L88.0215 31.1292L88.6821 29.1201L86.7408 30.1319L86.8821 30.4028L88.18 29.7261L87.5194 31.7355ZM87.9104 32.3927L89.8546 31.5024L89.7275 31.2248L87.7832 32.1149L87.9104 32.3927ZM91.0197 34.1593L90.1693 34.5009L89.7899 33.5559L90.6403 33.2144L90.5265 32.931L88.5422 33.7278L88.656 34.0113L89.5063 33.6698L89.8858 34.6147L89.0354 34.9561L89.1492 35.2396L91.1335 34.4428L91.0197 34.1593ZM89.4339 35.9483L91.4182 35.1515L91.3043 34.868L89.3199 35.6649L89.4339 35.9483ZM89.8957 37.4316L91.3636 37.6427L90.234 38.2505L90.3364 38.5451L92.2854 37.4843L90.4848 37.2271L91.7384 35.9092L89.5514 36.2846L89.6537 36.5792L90.9169 36.3562L89.8957 37.4316ZM92.7551 39.2513C92.5873 38.6704 91.9805 38.3358 91.3996 38.5037C90.8188 38.6716 90.4842 39.2785 90.6521 39.8592C90.8199 40.4401 91.4268 40.7748 92.0077 40.6069C92.5884 40.4389 92.9231 39.8321 92.7551 39.2513ZM90.9457 39.7745C90.8238 39.3527 91.0627 38.919 91.4845 38.7971C91.9064 38.6751 92.3398 38.9143 92.4619 39.3362C92.5836 39.7579 92.3446 40.1914 91.9228 40.3133C91.5009 40.4354 91.0674 40.1962 90.9457 39.7745ZM93.3615 41.8953L92.2755 41.565L93.0963 40.7809L93.0167 40.4466L91.9553 41.4841L91.1133 41.6845L91.184 41.9816L92.0258 41.7813L93.4409 42.2296L93.3615 41.8953ZM91.5861 44.1596L91.647 44.4849L93.6114 43.0813L91.2722 42.4833L91.3333 42.8086L91.8216 42.9274L91.9984 43.872L91.5861 44.1596ZM92.1476 43.0089L92.9484 43.2053L92.273 43.6781L92.1476 43.0089ZM91.968 47.8819L92.2871 47.5301C92.4914 47.6856 92.7535 47.7662 93.0295 47.7436C93.6318 47.6941 94.08 47.1656 94.0306 46.563C93.9811 45.9603 93.4525 45.5121 92.8501 45.5617C92.2474 45.6113 91.7991 46.1398 91.8487 46.7424C91.8674 46.9707 91.9545 47.1742 92.0862 47.339L91.9367 47.5013L91.968 47.8819ZM92.1533 46.7174C92.1172 46.2796 92.4374 45.9021 92.8751 45.8662C93.3127 45.8301 93.6902 46.1504 93.7263 46.588C93.7621 47.0255 93.442 47.4032 93.0044 47.4391C92.8142 47.4548 92.6342 47.4025 92.4918 47.3024L92.7173 47.054L92.688 46.6988L92.2975 47.114C92.2182 47.0024 92.1655 46.8663 92.1533 46.7174ZM91.9984 48.4665L94.1355 48.395L94.1253 48.0898L91.9882 48.1613L91.9984 48.4665ZM92.3293 49.2194L94.1611 49.1581L94.1509 48.8529L92.0138 48.9244L92.0529 50.0946L92.3583 50.0844L92.3293 49.2194ZM92.0471 50.7563L94.185 50.8021L94.1913 50.4967L92.0536 50.4511L92.0471 50.7563ZM93.2681 52.0013C93.3421 51.6656 93.4217 51.5209 93.587 51.5245C93.7779 51.5286 93.8857 51.6964 93.8795 51.989C93.8738 52.2563 93.7524 52.4256 93.6418 52.5345L93.9154 52.6867C94.166 52.4279 94.1827 52.091 94.1847 52.0019C94.1953 51.5025 93.9275 51.2261 93.5807 51.2187C93.2945 51.2126 93.0777 51.3766 92.9633 51.9695C92.9061 52.2609 92.7969 52.4528 92.6251 52.449C92.4217 52.4448 92.2948 52.267 92.3017 51.9458C92.3072 51.6944 92.4301 51.452 92.6311 51.278L92.3608 51.1195C92.3219 51.1504 92.0075 51.4174 91.9964 51.9328C91.9858 52.4322 92.2592 52.7468 92.6314 52.7548C92.9909 52.7626 93.1585 52.5083 93.2681 52.0013ZM94.0028 54.566L93.0886 54.5019L93.1597 53.4862L94.0738 53.5502L94.0953 53.2455L91.9622 53.0962L91.9408 53.4008L92.8549 53.4649L92.7839 54.4807L91.8697 54.4166L91.8483 54.7213L93.9814 54.8707L94.0028 54.566ZM91.3207 58.2969L91.7174 58.0356C91.8766 58.2371 92.1102 58.3805 92.3831 58.4272C92.9789 58.5293 93.5447 58.129 93.6467 57.5331C93.7488 56.9371 93.3486 56.3714 92.7527 56.2695C92.1568 56.1673 91.591 56.5676 91.489 57.1635C91.4503 57.3893 91.4838 57.6081 91.5703 57.8004L91.3851 57.9206L91.3207 58.2969ZM91.7901 57.2151C91.8643 56.7823 92.2683 56.4963 92.7012 56.5705C93.134 56.6446 93.4197 57.0487 93.3457 57.4816C93.2715 57.9143 92.8675 58.2002 92.4347 58.1262C92.2466 58.094 92.0853 57.9984 91.9724 57.8661L92.2525 57.6817L92.3127 57.3304L91.8311 57.6353C91.782 57.5074 91.7648 57.3625 91.7901 57.2151ZM93.1626 60.042C93.2955 59.4522 92.9252 58.8665 92.3354 58.7337C91.7455 58.6009 91.1599 58.9712 91.027 59.5611C90.8942 60.1508 91.2646 60.7366 91.8544 60.8694C92.4442 61.0022 93.0299 60.6319 93.1626 60.042ZM91.3252 59.6283C91.4216 59.1997 91.84 58.9351 92.2683 59.0317C92.6968 59.1281 92.9613 59.5466 92.8648 59.9749C92.7684 60.4033 92.3499 60.6679 91.9216 60.5715C91.4932 60.4749 91.2287 60.0565 91.3252 59.6283ZM92.6525 61.9931L92.7071 61.7969L92.2142 61.2895L92.1049 61.6819L92.6525 61.9931ZM90.1453 62.7981L91.1838 63.8565L89.9172 63.6542L89.8196 63.9506L92.0126 64.29L90.7375 62.993L92.5336 62.7062L90.5673 61.6776L90.47 61.9738L91.6093 62.5629L90.1453 62.7981ZM89.6128 64.5792L91.6441 65.2474L91.7396 64.9573L89.7083 64.289L89.6128 64.5792ZM91.4764 65.6823L91.1915 65.5722L90.9893 66.0945L89.28 65.4331L89.1697 65.718L90.8791 66.3794L90.6769 66.9016L90.962 67.012L91.4764 65.6823ZM88.3461 67.663L88.2116 67.9654L90.6257 67.9249L89.0395 66.1048L88.9048 66.4071L89.2395 66.7822L88.8489 67.6603L88.3461 67.663ZM89.4616 67.0344L90.0094 67.6507L89.1849 67.6565L89.4616 67.0344ZM88.8855 69.439C89.0965 69.1676 89.2305 69.0711 89.3783 69.1453C89.5489 69.231 89.5743 69.4287 89.4429 69.6905C89.323 69.9294 89.1406 70.03 88.994 70.081L89.1757 70.3359C89.5132 70.2099 89.673 69.9128 89.713 69.8331C89.9371 69.3867 89.8139 69.0222 89.504 68.8666C89.248 68.738 88.9818 68.7931 88.6239 69.2792C88.4471 69.518 88.2661 69.6443 88.1125 69.5672C87.9307 69.4758 87.8925 69.2611 88.0367 68.9738C88.1494 68.749 88.3647 68.583 88.6208 68.5123L88.4449 68.2529C88.3964 68.2642 87.9978 68.3702 87.7666 68.831C87.5424 69.2774 87.6541 69.6791 87.9868 69.8459C88.3082 70.0074 88.5688 69.8498 88.8855 69.439ZM87.1296 70.1562L89.0407 71.1158L89.1777 70.8428L87.2668 69.8833L87.1296 70.1562Z" fill="#2C665A"/>
<path d="M85.9964 74.6549C78.2684 85.9895 65.2532 93.4314 50.4999 93.4314C35.615 93.4314 22.4994 85.8562 14.7979 74.3508" stroke="#2C665A" stroke-width="1.00006" stroke-miterlimit="22.9256" stroke-linecap="round"/>
<path fill-rule="evenodd" clip-rule="evenodd" d="M86.8852 54.7947L87.0286 54.5783C87.1729 54.3417 87.2567 54.1749 87.3585 53.9183L87.3785 53.8686C87.3889 53.8487 87.3829 53.8594 87.3896 53.8508C87.5602 53.911 87.8917 54.0975 87.9978 54.1906C87.9055 54.2957 87.6299 54.4854 87.5093 54.5509C87.3487 54.6381 87.0899 54.762 86.8852 54.7947ZM84.1988 54.1903C84.3077 54.0969 84.6345 53.9119 84.8075 53.8508L84.8361 53.9122C84.8938 54.0601 84.9603 54.2034 85.0326 54.3443C85.0863 54.4492 85.17 54.585 85.237 54.6817C85.2586 54.7132 85.2964 54.7608 85.3118 54.7947C85.1151 54.7633 84.8491 54.6409 84.6942 54.5534C84.4902 54.4384 84.4639 54.4087 84.3107 54.2913C84.2707 54.2606 84.2298 54.2271 84.1988 54.1903ZM86.2343 54.9164V53.5575C86.4018 53.5676 86.565 53.5919 86.7233 53.6266C86.8036 53.6443 87.1002 53.7132 87.1464 53.7514C87.1027 53.8987 86.8918 54.3107 86.8094 54.4451L86.555 54.8363C86.533 54.8674 86.5295 54.8855 86.4852 54.8949C86.411 54.9105 86.3124 54.915 86.2343 54.9164ZM85.0508 53.7514C85.0959 53.714 85.3942 53.6441 85.4738 53.6266C85.6319 53.5919 85.7952 53.5676 85.9623 53.5575V54.9164C85.8813 54.9149 85.7977 54.9096 85.72 54.8965C85.6628 54.8868 85.6417 54.8409 85.5917 54.7662C85.4305 54.5256 85.1292 54.0177 85.0508 53.7514ZM84.9542 53.5278C84.9278 53.434 84.8869 53.3356 84.8568 53.2374C84.7596 52.9205 84.6904 52.5886 84.6758 52.2521H85.9623L85.9607 53.2767C85.7054 53.2902 85.4189 53.3603 85.1797 53.4437C85.1125 53.4673 85.0136 53.5144 84.9542 53.5278ZM88.1902 53.9974C87.9539 53.855 87.9262 53.8337 87.6747 53.7073C87.6101 53.6748 87.5476 53.6522 87.4866 53.6205C87.5452 53.4111 87.6156 53.2815 87.6855 52.9882C87.7414 52.7541 87.7852 52.5068 87.793 52.2521H88.8906C88.8684 52.8233 88.6701 53.3975 88.3319 53.8329C88.2886 53.8886 88.2387 53.9565 88.1902 53.9974ZM83.3072 52.2521H84.3985C84.4158 52.6149 84.4958 52.9725 84.6028 53.3105C84.6354 53.414 84.6816 53.5222 84.7103 53.6203L84.3444 53.7962C84.2241 53.855 84.1083 53.9318 84.0069 53.9975C83.8467 53.8707 83.6094 53.4396 83.5297 53.2561C83.4021 52.9623 83.3217 52.6105 83.3072 52.2521ZM86.2343 52.2521H87.521C87.5112 52.4901 87.4734 52.7182 87.4212 52.9403C87.3968 53.0439 87.3684 53.1435 87.338 53.2437L87.2651 53.4633C87.261 53.4751 87.2561 53.4908 87.2513 53.5011C87.2412 53.5228 87.2488 53.5124 87.2347 53.5269C86.8844 53.4036 86.6407 53.2992 86.2355 53.2767L86.2343 53.2437V52.2521ZM86.2361 50.9556C86.4233 50.9446 86.601 50.9098 86.774 50.8631C86.8579 50.8404 86.9364 50.8166 87.0173 50.7883C87.0851 50.7647 87.1828 50.7171 87.2428 50.7043C87.2673 50.7949 87.3114 50.897 87.3419 50.9934C87.4402 51.305 87.5089 51.6475 87.5187 51.98H86.2343L86.2361 50.9556ZM84.6758 51.98C84.691 51.6248 84.7563 51.3245 84.8552 50.9934C84.8852 50.8932 84.9266 50.7995 84.9542 50.7045C85.0155 50.7183 85.1186 50.7675 85.1861 50.7906C85.4311 50.8744 85.6974 50.9402 85.9622 50.9556L85.9565 51.98H84.6758ZM87.4865 50.6115C87.5498 50.5801 87.6093 50.5576 87.6747 50.5249C87.9201 50.4018 87.955 50.3799 88.1902 50.2346C88.2596 50.2931 88.4016 50.4885 88.456 50.5761C88.5345 50.7024 88.6026 50.8268 88.6672 50.9763C88.7947 51.2714 88.8767 51.6204 88.8895 51.98H87.7928C87.778 51.6235 87.6912 51.2525 87.5893 50.918C87.5584 50.8168 87.5112 50.7063 87.4865 50.6115ZM83.3072 51.98C83.3218 51.6214 83.4019 51.27 83.5297 50.976C83.6083 50.7951 83.8482 50.3591 84.0069 50.2348C84.1084 50.3004 84.2241 50.3771 84.3444 50.436L84.7103 50.6119C84.6839 50.7098 84.638 50.8202 84.6055 50.9243C84.5718 51.0319 84.5421 51.1447 84.5147 51.2554C84.4589 51.4817 84.4154 51.7357 84.4029 51.98H83.3072ZM86.2343 49.3158C86.3117 49.317 86.4119 49.3217 86.4854 49.3373C86.5268 49.346 86.5306 49.3617 86.5542 49.3966C86.7353 49.665 86.8394 49.8153 86.9944 50.1183C87.0391 50.2057 87.1295 50.3804 87.155 50.4721C87.0452 50.5576 86.4225 50.6649 86.2343 50.6746V49.3158ZM85.0419 50.4721C85.1111 50.221 85.4434 49.6961 85.593 49.4673C85.6112 49.4397 85.6282 49.4199 85.647 49.3923C85.6709 49.357 85.6659 49.3448 85.7199 49.3357C85.7976 49.3225 85.8813 49.3171 85.9623 49.3158V50.6746C85.7932 50.6657 85.6269 50.6396 85.4697 50.6025C85.3812 50.5815 85.0951 50.5135 85.0419 50.4721ZM87.3898 50.3723C87.3564 50.2431 87.2234 49.989 87.1612 49.874C87.1184 49.7949 87.0731 49.7166 87.0278 49.6461L86.8857 49.4287C87.0745 49.4618 87.357 49.5926 87.5036 49.678C87.6951 49.7896 87.7271 49.8188 87.8862 49.9409C87.9278 49.9729 87.9639 50.0038 87.9978 50.0414C87.9241 50.1048 87.5135 50.3486 87.3898 50.3723ZM84.1988 50.0418C84.2305 50.0046 84.2705 49.9719 84.3107 49.9409C84.3522 49.909 84.3902 49.8787 84.4316 49.8466C84.6345 49.6886 85.0554 49.4736 85.3114 49.4287C85.2943 49.4669 85.2594 49.5068 85.2365 49.5409L85.0327 49.8794L84.7989 50.3722C84.6315 50.3156 84.3077 50.1313 84.1988 50.0418ZM85.9122 49.0408C85.2675 49.0815 84.5747 49.3371 84.114 49.7444C84.0763 49.7777 84.0446 49.8066 84.0088 49.837L83.8634 49.9754C83.845 49.9951 83.8324 50.0103 83.8155 50.031L83.7268 50.1316C83.7001 50.1617 83.6717 50.2012 83.6435 50.2378C83.5906 50.3064 83.5314 50.3882 83.4847 50.4661C82.9074 51.429 82.8617 52.5053 83.3486 53.523C83.4657 53.7676 83.6757 54.0579 83.8634 54.2566C83.8815 54.2757 83.8958 54.2827 83.9138 54.3008C83.9605 54.3474 83.9353 54.3343 84.0134 54.3992C84.0481 54.428 84.0778 54.4561 84.114 54.4878C84.6744 54.9799 85.523 55.2382 86.2891 55.1918C87.9464 55.0913 89.2807 53.707 89.1742 51.9257C89.1458 51.4492 89.028 51.0836 88.8485 50.709C88.7311 50.4643 88.5215 50.1745 88.3336 49.9754C88.3155 49.9563 88.3012 49.9494 88.2832 49.9314C88.265 49.9132 88.2585 49.899 88.2391 49.881C87.6167 49.2993 86.7933 48.9849 85.9122 49.0408Z" fill="#2C665A"/>
<path fill-rule="evenodd" clip-rule="evenodd" d="M15.5796 54.7947L15.7228 54.5783C15.8672 54.3417 15.951 54.1749 16.0527 53.9183L16.0728 53.8686C16.0832 53.8487 16.0771 53.8594 16.0839 53.8508C16.2545 53.911 16.586 54.0975 16.6922 54.1906C16.5998 54.2957 16.3243 54.4854 16.2036 54.5509C16.043 54.6381 15.7842 54.762 15.5796 54.7947ZM12.893 54.1903C13.0019 54.0969 13.3288 53.9119 13.5017 53.8508L13.5304 53.9122C13.5882 54.0601 13.6546 54.2034 13.7269 54.3443C13.7807 54.4492 13.8644 54.585 13.9313 54.6817C13.953 54.7132 13.9907 54.7608 14.0061 54.7947C13.8094 54.7633 13.5435 54.6409 13.3886 54.5534C13.1846 54.4384 13.1582 54.4087 13.005 54.2913C12.965 54.2606 12.9241 54.2271 12.893 54.1903ZM14.9285 54.9164V53.5575C15.0962 53.5676 15.2592 53.5919 15.4176 53.6266C15.4979 53.6443 15.7945 53.7132 15.8406 53.7514C15.797 53.8987 15.5862 54.3107 15.5038 54.4451L15.2493 54.8363C15.2273 54.8674 15.2238 54.8855 15.1796 54.8949C15.1052 54.9105 15.0067 54.915 14.9285 54.9164ZM13.745 53.7514C13.7903 53.714 14.0885 53.6441 14.168 53.6266C14.3263 53.5919 14.4895 53.5676 14.6566 53.5575V54.9164C14.5755 54.9149 14.492 54.9096 14.4142 54.8965C14.3571 54.8868 14.336 54.8409 14.286 54.7662C14.1249 54.5256 13.8234 54.0177 13.745 53.7514ZM13.6486 53.5278C13.6221 53.434 13.5812 53.3356 13.5511 53.2374C13.454 52.9205 13.3846 52.5886 13.3702 52.2521H14.6567L14.655 53.2767C14.3997 53.2902 14.1131 53.3603 13.8741 53.4437C13.8067 53.4673 13.708 53.5144 13.6486 53.5278ZM16.8844 53.9974C16.6482 53.855 16.6206 53.8337 16.369 53.7073C16.3044 53.6748 16.2419 53.6522 16.1809 53.6205C16.2395 53.4111 16.3098 53.2815 16.3798 52.9882C16.4357 52.7541 16.4795 52.5068 16.4873 52.2521H17.5848C17.5627 52.8233 17.3644 53.3975 17.0261 53.8329C16.9829 53.8886 16.9331 53.9565 16.8844 53.9974ZM12.0015 52.2521H13.0929C13.11 52.6149 13.1901 52.9725 13.2971 53.3105C13.3297 53.414 13.376 53.5222 13.4046 53.6203L13.0388 53.7962C12.9184 53.855 12.8025 53.9318 12.7012 53.9975C12.541 53.8707 12.3038 53.4396 12.2239 53.2561C12.0963 52.9623 12.0161 52.6105 12.0015 52.2521ZM14.9285 52.2521H16.2152C16.2054 52.4901 16.1677 52.7182 16.1155 52.9403C16.0911 53.0439 16.0627 53.1435 16.0323 53.2437L15.9593 53.4633C15.9554 53.4751 15.9503 53.4908 15.9456 53.5011C15.9355 53.5228 15.943 53.5124 15.929 53.5269C15.5786 53.4036 15.3351 53.2992 14.9299 53.2767L14.9285 53.2437V52.2521ZM14.9304 50.9556C15.1176 50.9446 15.2954 50.9098 15.4683 50.8631C15.5521 50.8404 15.6306 50.8166 15.7116 50.7883C15.7793 50.7647 15.8772 50.7171 15.9372 50.7043C15.9616 50.7949 16.0058 50.897 16.0361 50.9934C16.1346 51.305 16.2032 51.6475 16.2131 51.98H14.9285L14.9304 50.9556ZM13.3702 51.98C13.3854 51.6248 13.4505 51.3245 13.5495 50.9934C13.5795 50.8932 13.6209 50.7995 13.6486 50.7045C13.7097 50.7183 13.8128 50.7675 13.8803 50.7906C14.1253 50.8744 14.3917 50.9402 14.6566 50.9556L14.6508 51.98H13.3702ZM16.1807 50.6115C16.244 50.5801 16.3037 50.5576 16.369 50.5249C16.6144 50.4018 16.6493 50.3799 16.8844 50.2346C16.9538 50.2931 17.0959 50.4885 17.1504 50.5761C17.2288 50.7024 17.2969 50.8268 17.3615 50.9763C17.4889 51.2714 17.5709 51.6204 17.5838 51.98H16.487C16.4723 51.6235 16.3856 51.2525 16.2835 50.918C16.2526 50.8168 16.2054 50.7063 16.1807 50.6115ZM12.0015 51.98C12.0161 51.6214 12.0962 51.27 12.2239 50.976C12.3026 50.7951 12.5424 50.3591 12.7012 50.2348C12.8027 50.3004 12.9185 50.3771 13.0388 50.436L13.4046 50.6119C13.3781 50.7098 13.3322 50.8202 13.2997 50.9243C13.266 51.0319 13.2364 51.1447 13.209 51.2554C13.1531 51.4817 13.1096 51.7357 13.0972 51.98H12.0015ZM14.9285 49.3158C15.006 49.317 15.1061 49.3217 15.1796 49.3373C15.221 49.346 15.2249 49.3617 15.2485 49.3966C15.4297 49.665 15.5337 49.8153 15.6887 50.1183C15.7334 50.2057 15.8239 50.3804 15.8494 50.4721C15.7394 50.5576 15.1169 50.6649 14.9285 50.6746V49.3158ZM13.7361 50.4721C13.8054 50.221 14.1377 49.6961 14.2873 49.4673C14.3055 49.4397 14.3226 49.4199 14.3413 49.3923C14.3653 49.357 14.3603 49.3448 14.4142 49.3357C14.4918 49.3225 14.5755 49.3171 14.6566 49.3158V50.6746C14.4875 50.6657 14.3211 50.6396 14.1639 50.6025C14.0756 50.5815 13.7895 50.5135 13.7361 50.4721ZM16.084 50.3723C16.0506 50.2431 15.9177 49.989 15.8555 49.874C15.8126 49.7949 15.7675 49.7166 15.7222 49.6461L15.58 49.4287C15.7687 49.4618 16.0513 49.5926 16.198 49.678C16.3894 49.7896 16.4215 49.8188 16.5805 49.9409C16.6221 49.9729 16.6581 50.0038 16.6922 50.0414C16.6185 50.1048 16.2078 50.3486 16.084 50.3723ZM12.893 50.0418C12.9247 50.0046 12.9648 49.9719 13.0051 49.9409C13.0465 49.909 13.0844 49.8787 13.1258 49.8466C13.3289 49.6886 13.7498 49.4736 14.0057 49.4287C13.9886 49.4669 13.9537 49.5068 13.9307 49.5409L13.727 49.8794L13.4931 50.3722C13.3257 50.3156 13.0019 50.1313 12.893 50.0418ZM14.6065 49.0408C13.9618 49.0815 13.2691 49.3371 12.8084 49.7444C12.7706 49.7777 12.739 49.8066 12.7031 49.837L12.5578 49.9754C12.5392 49.9951 12.5266 50.0103 12.5098 50.031L12.4212 50.1316C12.3944 50.1617 12.366 50.2012 12.3377 50.2378C12.2848 50.3064 12.2258 50.3882 12.1791 50.4661C11.6018 51.429 11.5559 52.5053 12.043 53.523C12.16 53.7676 12.37 54.0579 12.5578 54.2566C12.5757 54.2757 12.59 54.2827 12.6081 54.3008C12.6548 54.3474 12.6296 54.3343 12.7077 54.3992C12.7423 54.428 12.772 54.4561 12.8083 54.4878C13.3688 54.9799 14.2173 55.2382 14.9833 55.1918C16.6406 55.0913 17.9751 53.707 17.8686 51.9257C17.8401 51.4492 17.7223 51.0836 17.5428 50.709C17.4255 50.4643 17.2159 50.1745 17.028 49.9754C17.0099 49.9563 16.9956 49.9494 16.9774 49.9314C16.9593 49.9132 16.9528 49.899 16.9334 49.881C16.311 49.2993 15.4875 48.9849 14.6065 49.0408Z" fill="#2C665A"/>
<path fill-rule="evenodd" clip-rule="evenodd" d="M24.5312 22.7505L27.3844 22.7241L27.3581 25.6037H24.5578L24.5312 22.7505Z" stroke="#2C665A" stroke-width="0.466772" stroke-miterlimit="22.9256"/>
<path fill-rule="evenodd" clip-rule="evenodd" d="M24.545 24.1773L23.0788 24.224L20.998 26.608L21.596 29.4975L24.5016 29.0993L26.1251 27.1145L25.9584 24.1641L24.545 24.1773Z" stroke="#2C665A" stroke-width="0.466772" stroke-miterlimit="22.9256"/>
<path fill-rule="evenodd" clip-rule="evenodd" d="M24.5577 25.6038L23.4788 25.7945L22.6729 26.7708L22.7239 27.8142L23.8455 27.6873L24.5371 26.7241L24.5577 25.6038Z" stroke="#2C665A" stroke-width="0.466772" stroke-miterlimit="22.9256"/>
<path fill-rule="evenodd" clip-rule="evenodd" d="M20.2135 29.7913L18.786 30.1287L17.2207 32.8787L18.3813 35.5916L21.2124 34.5044L22.3462 32.3557L21.596 29.4973L20.2135 29.7913Z" stroke="#2C665A" stroke-width="0.466772" stroke-miterlimit="22.9256"/>
<path fill-rule="evenodd" clip-rule="evenodd" d="M19.9277 28.3797L22.7245 27.8142L23.2856 30.5091L20.4932 31.1763L19.9277 28.3797Z" stroke="#2C665A" stroke-width="0.466772" stroke-miterlimit="22.9256"/>
<path fill-rule="evenodd" clip-rule="evenodd" d="M20.5255 31.1794L19.5507 31.5523L18.8691 32.8865L19.1281 33.8281L20.1414 33.5568L20.7691 32.2733L20.5255 31.1794Z" stroke="#2C665A" stroke-width="0.466772" stroke-miterlimit="22.9256"/>
<path fill-rule="evenodd" clip-rule="evenodd" d="M17.5901 37.554L16.5132 37.942L16.0869 39.4912L16.6306 40.2654L17.6611 39.9296L18.1821 38.537L17.5901 37.554Z" stroke="#2C665A" stroke-width="0.466772" stroke-miterlimit="22.9256"/>
<path fill-rule="evenodd" clip-rule="evenodd" d="M16.4941 34.9254L19.1278 33.8279L20.3105 36.4094L17.592 37.5592L16.4941 34.9254Z" stroke="#2C665A" stroke-width="0.466772" stroke-miterlimit="22.9256"/>
<path fill-rule="evenodd" clip-rule="evenodd" d="M17.0815 36.1476L15.7461 36.7547L14.5508 39.9231L16.4131 42.2727L18.9346 40.7077L19.6697 38.2512L18.3812 35.5918L17.0815 36.1476Z" stroke="#2C665A" stroke-width="0.466772" stroke-miterlimit="22.9256"/>
<path fill-rule="evenodd" clip-rule="evenodd" d="M14.418 42.0673L16.6303 40.2654L18.4074 42.5313L16.2199 44.2796L14.418 42.0673Z" stroke="#2C665A" stroke-width="0.466772" stroke-miterlimit="22.9256"/>
<path fill-rule="evenodd" clip-rule="evenodd" d="M76.6832 22.7505L73.8301 22.7241L73.8565 25.6037H76.6567L76.6832 22.7505Z" stroke="#2C665A" stroke-width="0.466772" stroke-miterlimit="22.9256"/>
<path fill-rule="evenodd" clip-rule="evenodd" d="M76.67 24.1773L78.1362 24.224L80.217 26.608L79.6189 29.4975L76.7133 29.0993L75.0898 27.1145L75.2566 24.1641L76.67 24.1773Z" stroke="#2C665A" stroke-width="0.466772" stroke-miterlimit="22.9256"/>
<path fill-rule="evenodd" clip-rule="evenodd" d="M76.6562 25.6038L77.7351 25.7945L78.5411 26.7708L78.49 27.8142L77.3684 27.6873L76.6768 26.7241L76.6562 25.6038Z" stroke="#2C665A" stroke-width="0.466772" stroke-miterlimit="22.9256"/>
<path fill-rule="evenodd" clip-rule="evenodd" d="M81.0018 29.7913L82.4292 30.1287L83.9945 32.8787L82.8339 35.5916L80.0028 34.5044L78.8691 32.3557L79.6191 29.4973L81.0018 29.7913Z" stroke="#2C665A" stroke-width="0.466772" stroke-miterlimit="22.9256"/>
<path fill-rule="evenodd" clip-rule="evenodd" d="M81.2874 28.3797L78.4908 27.8142L77.9297 30.5091L80.722 31.1763L81.2874 28.3797Z" stroke="#2C665A" stroke-width="0.466772" stroke-miterlimit="22.9256"/>
<path fill-rule="evenodd" clip-rule="evenodd" d="M80.6898 31.1794L81.6647 31.5523L82.3464 32.8865L82.0873 33.8281L81.074 33.5568L80.4463 32.2733L80.6898 31.1794Z" stroke="#2C665A" stroke-width="0.466772" stroke-miterlimit="22.9256"/>
<path fill-rule="evenodd" clip-rule="evenodd" d="M83.6252 37.554L84.7021 37.942L85.1284 39.4912L84.5847 40.2654L83.5542 39.9296L83.0332 38.537L83.6252 37.554Z" stroke="#2C665A" stroke-width="0.466772" stroke-miterlimit="22.9256"/>
<path fill-rule="evenodd" clip-rule="evenodd" d="M84.7208 34.9254L82.087 33.8279L80.9043 36.4094L83.6228 37.5592L84.7208 34.9254Z" stroke="#2C665A" stroke-width="0.466772" stroke-miterlimit="22.9256"/>
<path fill-rule="evenodd" clip-rule="evenodd" d="M84.1332 36.1476L85.4686 36.7547L86.6639 39.9231L84.8016 42.2727L82.2801 40.7077L81.5449 38.2512L82.8336 35.5918L84.1332 36.1476Z" stroke="#2C665A" stroke-width="0.466772" stroke-miterlimit="22.9256"/>
<path fill-rule="evenodd" clip-rule="evenodd" d="M86.7971 42.0673L84.5847 40.2654L82.8076 42.5313L84.9951 44.2796L86.7971 42.0673Z" stroke="#2C665A" stroke-width="0.466772" stroke-miterlimit="22.9256"/>
<path fill-rule="evenodd" clip-rule="evenodd" d="M48.9392 41.0613L48.9393 41.0612C49.2476 40.7417 49.7613 40.7325 50.0808 41.0408L51.3155 42.2321C51.6351 42.5404 51.6442 43.0541 51.3359 43.3736V43.3737C51.0277 43.6931 50.5139 43.7024 50.1943 43.3941L48.9596 42.2028C48.6401 41.8945 48.6309 41.3808 48.9392 41.0613Z" fill="#2C665A" stroke="#2C665A" stroke-width="0.288" stroke-miterlimit="22.9256"/>
<path d="M48.6306 42.0006C48.1643 41.5506 47.5352 41.446 47.2256 41.7669C46.916 42.0878 47.0431 42.7127 47.5095 43.1626L48.8 44.4078C49.2664 44.8578 49.8954 44.9624 50.205 44.6416C50.5146 44.3207 50.3876 43.6958 49.9212 43.2458L48.6306 42.0006Z" fill="#2C665A" stroke="#2C665A" stroke-width="0.130775" stroke-miterlimit="22.9256"/>
<path fill-rule="evenodd" clip-rule="evenodd" d="M46.1716 43.1315H46.1718C46.4801 42.812 46.9938 42.8028 47.3132 43.1111L48.9775 44.7167C49.297 45.0251 49.3062 45.5388 48.9979 45.8583L48.9977 45.8584C48.6895 46.1778 48.1758 46.1871 47.8563 45.8788L46.1921 44.2731C45.8725 43.9648 45.8634 43.4511 46.1716 43.1315Z" fill="#2C665A" stroke="#2C665A" stroke-width="0.288" stroke-miterlimit="22.9256"/>
<path fill-rule="evenodd" clip-rule="evenodd" d="M45.2448 44.6188L45.245 44.6187C45.5532 44.2993 46.067 44.2901 46.3865 44.5984L47.8294 45.9904C48.1489 46.2987 48.1581 46.8126 47.8498 47.132V47.1322C47.5414 47.4516 47.0278 47.4609 46.7082 47.1525L45.2654 45.7604C44.9458 45.452 44.9365 44.9384 45.2448 44.6188Z" fill="#2C665A" stroke="#2C665A" stroke-width="0.288" stroke-miterlimit="22.9256"/>
<path fill-rule="evenodd" clip-rule="evenodd" d="M61.9685 52.1821C61.7384 51.9732 61.192 51.5264 60.7435 51.104C61.4765 48.3418 61.6514 45.315 61.5234 41.8458C56.8132 41.1406 53.621 40.1806 50.5186 37.9962C47.4162 40.1806 44.224 41.1406 39.5137 41.8458C39.3605 45.9948 39.6401 49.5104 40.8019 52.7036C41.7703 51.7925 42.7276 50.8767 43.6848 49.9609C44.3759 49.2563 44.6445 48.4732 44.6007 47.6324C44.4548 46.7914 44.5186 46.0508 44.9266 45.4748C47.0043 44.2547 50.2895 41.5708 51.1598 41.8146C51.8935 42.3723 52.597 42.9799 53.3066 43.5688C53.8778 44.6279 54.4491 45.6871 55.0205 46.7463C54.9906 47.4246 54.9609 48.103 54.9311 48.7814C54.1279 49.8109 53.3244 50.8402 52.5211 51.8697C52.063 51.9353 51.6047 52.0007 51.1466 52.0662C51.0519 52.0454 50.9573 52.0247 50.8626 52.004C50.5345 52.2584 50.207 52.264 49.8235 52.3105C49.0346 52.347 48.5587 52.403 47.9419 53.1093C47.2262 53.9347 43.5808 57.9271 42.6997 58.9852C38.5556 53.7169 37.5953 48.0107 37.8722 40.5104C43.2849 39.7002 46.9534 38.5971 50.5186 36.0867C54.0837 38.5971 57.7521 39.7002 63.165 40.5104C63.3281 44.934 63.0633 48.7307 61.9685 52.1821Z" stroke="#2C665A" stroke-width="0.7" stroke-miterlimit="22.9256"/>
<path fill-rule="evenodd" clip-rule="evenodd" d="M43.252 59.6613C43.7458 59.0534 43.7282 59.118 44.2076 58.5246C44.7152 59.1254 45.2572 59.7023 45.8681 60.2947C46.6756 61.0779 49.64 63.5531 50.5196 63.5982C51.399 63.5531 54.3634 61.0779 55.1709 60.2947C56.2254 59.2722 57.1205 58.2412 57.858 57.2126C56.8358 56.1513 55.049 54.2849 54.0449 53.1985C53.5145 52.4625 52.6685 52.8175 51.9803 52.6272C51.5577 52.4912 51.1783 52.3481 50.8635 52.004C52.5567 50.9363 54.0966 49.4822 54.6064 47.7435C54.9416 46.6005 53.3884 45.4759 53.0667 44.7324C52.5181 43.3219 53.5022 42.6285 54.0092 43.0831C54.8677 43.8741 55.6497 44.6999 56.5847 45.456C57.9421 46.7524 57.303 47.6821 57.5767 48.745C57.8359 49.4696 58.1371 49.8229 58.5787 50.2915C59.5229 51.2707 60.7463 52.2812 61.6141 53.2115C60.4741 56.2477 58.6552 59.0056 55.8648 61.7114C54.9368 62.6113 51.5302 65.4558 50.5196 65.5077C49.5088 65.4558 46.1022 62.6113 45.1742 61.7114C44.4197 60.9796 43.8682 60.4023 43.252 59.6613Z" fill="#2C665A"/>
</svg>
