<?xml version="1.0" encoding="UTF-8"?>
<!DOCTYPE svg PUBLIC "-//W3C//DTD SVG 1.1//EN" "http://www.w3.org/Graphics/SVG/1.1/DTD/svg11.dtd">
<!-- Creator: CorelDRAW -->
<svg xmlns="http://www.w3.org/2000/svg" xml:space="preserve" width="16.814mm" height="16.6134mm" version="1.1" style="shape-rendering:geometricPrecision; text-rendering:geometricPrecision; image-rendering:optimizeQuality; fill-rule:evenodd; clip-rule:evenodd"
viewBox="0 0 1681.4 1661.34"
 xmlns:xlink="http://www.w3.org/1999/xlink"
 xmlns:xodm="http://www.corel.com/coreldraw/odm/2003">
 <defs>
  <style type="text/css">
   <![CDATA[
    .str1 {stroke:#366F64;stroke-width:24.99;stroke-miterlimit:10}
    .str0 {stroke:#366F64;stroke-width:25;stroke-miterlimit:10}
    .fil0 {fill:#366F64;fill-rule:nonzero}
   ]]>
  </style>
 </defs>
 <g id="Слой_x0020_1">
  <metadata id="CorelCorpID_0Corel-Layer"/>
  <g id="_2289883009104">
   <path class="fil0 str0" d="M206.15 526.97l747.98 0 0 725.33 -200.8 0c-9.61,0 -17.31,7.74 -17.31,17.31l0 192.94 -529.87 0 0 -935.58zm564.44 912.23l0 -152.34 158 0 -158 152.34zm-598.97 -929.55l0 970.21c0,9.57 7.72,17.32 17.26,17.32l564.45 0 6.53 -1.4 2.87 -1.84 2.54 -1.71 0.24 -0.12 217.84 -210.13 5.32 -12.37 0 -759.96c0,-9.5 -7.77,-17.24 -17.26,-17.24l-782.53 0c-9.54,0 -17.26,7.74 -17.26,17.24z"/>
   <path class="fil0 str1" d="M1616.68 342.05l-1566.17 0 0 -283.86 1566.17 0 0 283.86zm0 1262.17l-1566.17 0 0 -1216.93 1566.17 0 0 1216.93zm22.56 -1591.19l-1611.35 0c-12.42,0 -22.53,10.12 -22.53,22.63l0 1591.09c0,12.51 10.11,22.62 22.53,22.62l1611.35 0c12.41,0 22.53,-10.11 22.53,-22.62l0 -1591.09c0,-12.51 -10.12,-22.63 -22.53,-22.63z"/>
   <path class="fil0" d="M185.59 173.2c16.1,0 29.08,13.07 29.08,29.07 0,16.1 -12.98,29.15 -29.08,29.15 -16.01,0 -28.99,-13.05 -28.99,-29.15 0,-16 12.98,-29.07 28.99,-29.07zm0 103.31c41.02,0 74.32,-33.3 74.32,-74.24 0,-40.86 -33.3,-74.14 -74.32,-74.14 -40.93,0 -74.23,33.28 -74.23,74.14 0,40.94 33.3,74.24 74.23,74.24z"/>
   <path class="fil0" d="M373.25 173.2c16.08,0 29.15,13.07 29.15,29.07 0,16.1 -13.07,29.15 -29.15,29.15 -16.1,0 -29.08,-13.05 -29.08,-29.15 0,-16 12.98,-29.07 29.08,-29.07zm0 103.31c40.93,0 74.23,-33.3 74.23,-74.24 0,-40.86 -33.3,-74.14 -74.23,-74.14 -40.86,0 -74.17,33.28 -74.17,74.14 0,40.94 33.31,74.24 74.17,74.24z"/>
   <path class="fil0" d="M560.89 173.2c16.01,0 29.08,13.07 29.08,29.07 0,16.1 -13.07,29.15 -29.08,29.15 -16.01,0 -29.06,-13.05 -29.06,-29.15 0,-16 13.05,-29.07 29.06,-29.07zm0 103.31c40.95,0 74.16,-33.3 74.16,-74.24 0,-40.86 -33.21,-74.14 -74.16,-74.14 -40.93,0 -74.24,33.28 -74.24,74.14 0,40.94 33.31,74.24 74.24,74.24z"/>
   <g>
    <path class="fil0" d="M838.89 651.34l-536.33 0c-10.59,0 -19.74,-9.79 -19.74,-21.81 0,-12.1 9.15,-21.89 19.74,-21.89l536.33 0c11.27,0 19.74,9.79 19.74,21.89 0,12.02 -8.47,21.81 -19.74,21.81z"/>
    <path id="_1" class="fil0" d="M302.56 641.34l536.33 0 0 20 -536.33 0 0 0 0 -20zm-28.88 -11.81l18.28 0 0 0 0.02 0.58 0.05 0.66 0.06 0.58 0.08 0.5 0.13 0.59 0.15 0.57 0.15 0.48 0.21 0.56 0.22 0.53 0.26 0.53 0.27 0.53 0.27 0.46 0.29 0.45 0.32 0.43 0.38 0.47 0.39 0.45 0.37 0.39 0.38 0.36 0.42 0.37 0.43 0.34 0.42 0.29 0.43 0.27 0.5 0.28 0.47 0.24 0.49 0.21 0.47 0.19 0.49 0.15 0.48 0.13 0.49 0.1 0.48 0.07 0.51 0.04 0.52 0.01 0 20 -1.46 -0.05 -1.45 -0.12 -1.44 -0.21 -1.43 -0.28 -1.4 -0.37 -1.35 -0.43 -1.35 -0.51 -1.29 -0.57 -1.27 -0.64 -1.2 -0.68 -1.23 -0.77 -1.18 -0.85 -1.13 -0.88 -1.08 -0.93 -1.06 -1 -1.01 -1.07 -0.93 -1.07 -0.88 -1.11 -0.88 -1.21 -0.83 -1.27 -0.77 -1.3 -0.69 -1.31 -0.64 -1.35 -0.58 -1.39 -0.53 -1.42 -0.49 -1.54 -0.39 -1.51 -0.33 -1.51 -0.28 -1.64 -0.18 -1.6 -0.11 -1.56 -0.04 -1.66 0 0zm28.88 -31.89l0 20 0 0 -0.52 0.01 -0.51 0.04 -0.48 0.07 -0.49 0.1 -0.48 0.13 -0.49 0.15 -0.47 0.19 -0.49 0.21 -0.47 0.24 -0.47 0.26 -0.43 0.28 -0.45 0.31 -0.43 0.34 -0.42 0.37 -0.38 0.36 -0.37 0.39 -0.39 0.45 -0.36 0.45 -0.32 0.44 -0.31 0.47 -0.27 0.46 -0.26 0.51 -0.26 0.54 -0.22 0.54 -0.21 0.55 -0.16 0.51 -0.14 0.57 -0.14 0.6 -0.08 0.5 -0.06 0.59 -0.05 0.67 -0.02 0.59 -18.28 0 0.04 -1.67 0.11 -1.55 0.18 -1.61 0.28 -1.64 0.32 -1.52 0.4 -1.51 0.48 -1.53 0.53 -1.45 0.58 -1.38 0.64 -1.36 0.7 -1.33 0.77 -1.3 0.81 -1.25 0.88 -1.22 0.9 -1.13 0.93 -1.07 1.01 -1.07 1.06 -1 1.08 -0.93 1.13 -0.88 1.15 -0.83 1.23 -0.78 1.23 -0.7 1.27 -0.64 1.29 -0.57 1.35 -0.51 1.35 -0.43 1.4 -0.37 1.43 -0.28 1.44 -0.21 1.45 -0.12 1.46 -0.05 0 0zm536.33 20l-536.33 0 0 -20 536.33 0 0 0 0 20zm28.88 11.89l-18.28 0 0 0 -0.01 -0.64 -0.05 -0.62 -0.06 -0.63 -0.1 -0.61 -0.12 -0.59 -0.14 -0.57 -0.18 -0.6 -0.18 -0.54 -0.19 -0.48 -0.25 -0.55 -0.25 -0.49 -0.25 -0.45 -0.29 -0.46 -0.31 -0.44 -0.33 -0.44 -0.35 -0.41 -0.34 -0.36 -0.36 -0.35 -0.41 -0.36 -0.41 -0.32 -0.42 -0.3 -0.43 -0.28 -0.45 -0.25 -0.45 -0.23 -0.51 -0.21 -0.48 -0.19 -0.49 -0.15 -0.54 -0.14 -0.52 -0.1 -0.55 -0.07 -0.57 -0.05 -0.61 -0.01 0 -20 1.49 0.05 1.49 0.11 1.47 0.21 1.46 0.28 1.42 0.36 1.41 0.43 1.36 0.51 1.31 0.57 1.31 0.65 1.25 0.71 1.23 0.78 1.18 0.84 1.13 0.9 1.07 0.94 1.06 1.01 1.02 1.1 0.93 1.11 0.89 1.14 0.85 1.22 0.79 1.26 0.75 1.31 0.67 1.35 0.61 1.35 0.57 1.44 0.5 1.46 0.42 1.44 0.38 1.51 0.3 1.53 0.24 1.53 0.18 1.57 0.11 1.6 0.03 1.62 0 0zm-28.88 31.81l0 -20 0 0 0.61 -0.01 0.57 -0.05 0.55 -0.07 0.52 -0.1 0.54 -0.14 0.49 -0.15 0.48 -0.19 0.51 -0.21 0.45 -0.23 0.48 -0.27 0.43 -0.27 0.39 -0.28 0.41 -0.32 0.41 -0.36 0.36 -0.35 0.34 -0.36 0.35 -0.41 0.35 -0.46 0.3 -0.43 0.28 -0.44 0.25 -0.45 0.26 -0.51 0.25 -0.53 0.18 -0.48 0.19 -0.55 0.17 -0.57 0.14 -0.57 0.12 -0.58 0.1 -0.6 0.06 -0.63 0.05 -0.61 0.01 -0.63 18.28 0 -0.03 1.61 -0.11 1.61 -0.18 1.55 -0.24 1.54 -0.3 1.52 -0.38 1.51 -0.43 1.45 -0.49 1.43 -0.58 1.44 -0.61 1.35 -0.66 1.33 -0.75 1.31 -0.8 1.28 -0.86 1.21 -0.87 1.12 -0.93 1.11 -1.02 1.1 -1.06 1.01 -1.07 0.94 -1.13 0.9 -1.21 0.86 -1.23 0.77 -1.22 0.69 -1.31 0.65 -1.31 0.57 -1.36 0.51 -1.41 0.43 -1.42 0.36 -1.46 0.28 -1.47 0.21 -1.49 0.11 -1.49 0.05 0 0z"/>
   </g>
   <g>
    <path class="fil0" d="M838.89 819.19l-536.33 0c-10.59,0 -19.74,-9.79 -19.74,-21.81 0,-12.1 9.15,-21.89 19.74,-21.89l536.33 0c11.27,0 19.74,9.79 19.74,21.89 0,12.02 -8.47,21.81 -19.74,21.81z"/>
    <path id="_1_0" class="fil0" d="M302.56 809.19l536.33 0 0 20 -536.33 0 0 0 0 -20zm-28.88 -11.81l18.28 0 0 0 0.02 0.58 0.05 0.66 0.06 0.58 0.08 0.5 0.13 0.59 0.15 0.57 0.15 0.48 0.21 0.56 0.22 0.53 0.26 0.53 0.27 0.53 0.27 0.46 0.29 0.45 0.32 0.43 0.38 0.47 0.39 0.45 0.37 0.39 0.38 0.36 0.42 0.37 0.43 0.34 0.42 0.29 0.43 0.27 0.5 0.28 0.47 0.24 0.49 0.21 0.47 0.19 0.49 0.15 0.48 0.13 0.49 0.1 0.48 0.07 0.51 0.04 0.52 0.01 0 20 -1.46 -0.05 -1.45 -0.12 -1.44 -0.21 -1.43 -0.28 -1.4 -0.37 -1.35 -0.43 -1.35 -0.51 -1.29 -0.57 -1.27 -0.64 -1.2 -0.68 -1.23 -0.77 -1.18 -0.85 -1.13 -0.88 -1.08 -0.93 -1.06 -1 -1.01 -1.07 -0.93 -1.07 -0.88 -1.11 -0.88 -1.21 -0.83 -1.27 -0.77 -1.3 -0.69 -1.31 -0.64 -1.35 -0.58 -1.39 -0.53 -1.42 -0.49 -1.54 -0.39 -1.51 -0.33 -1.51 -0.28 -1.64 -0.18 -1.6 -0.11 -1.56 -0.04 -1.66 0 0zm28.88 -31.89l0 20 0 0 -0.52 0.01 -0.51 0.04 -0.48 0.07 -0.49 0.1 -0.48 0.13 -0.49 0.15 -0.47 0.19 -0.49 0.21 -0.47 0.24 -0.47 0.26 -0.43 0.28 -0.45 0.31 -0.43 0.34 -0.42 0.37 -0.38 0.36 -0.37 0.39 -0.39 0.45 -0.36 0.45 -0.32 0.44 -0.31 0.47 -0.27 0.46 -0.26 0.51 -0.26 0.54 -0.22 0.54 -0.21 0.55 -0.16 0.51 -0.14 0.57 -0.14 0.6 -0.08 0.5 -0.06 0.59 -0.05 0.67 -0.02 0.59 -18.28 0 0.04 -1.67 0.11 -1.55 0.18 -1.61 0.28 -1.64 0.32 -1.52 0.4 -1.51 0.48 -1.53 0.53 -1.45 0.58 -1.38 0.64 -1.36 0.7 -1.33 0.77 -1.3 0.81 -1.25 0.88 -1.22 0.9 -1.13 0.93 -1.07 1.01 -1.07 1.06 -1 1.08 -0.93 1.13 -0.88 1.15 -0.83 1.23 -0.78 1.23 -0.7 1.27 -0.64 1.29 -0.57 1.35 -0.51 1.35 -0.43 1.4 -0.37 1.43 -0.28 1.44 -0.21 1.45 -0.12 1.46 -0.05 0 0zm536.33 20l-536.33 0 0 -20 536.33 0 0 0 0 20zm28.88 11.89l-18.28 0 0 0 -0.01 -0.64 -0.05 -0.62 -0.06 -0.63 -0.1 -0.61 -0.12 -0.59 -0.14 -0.57 -0.18 -0.6 -0.18 -0.54 -0.19 -0.48 -0.25 -0.55 -0.25 -0.49 -0.25 -0.45 -0.29 -0.46 -0.31 -0.44 -0.33 -0.44 -0.35 -0.41 -0.34 -0.36 -0.36 -0.35 -0.41 -0.36 -0.41 -0.32 -0.42 -0.3 -0.43 -0.28 -0.45 -0.25 -0.45 -0.23 -0.51 -0.21 -0.48 -0.19 -0.49 -0.15 -0.54 -0.14 -0.52 -0.1 -0.55 -0.07 -0.57 -0.05 -0.61 -0.01 0 -20 1.49 0.05 1.49 0.11 1.47 0.21 1.46 0.28 1.42 0.36 1.41 0.43 1.36 0.51 1.31 0.57 1.31 0.65 1.25 0.71 1.23 0.78 1.18 0.84 1.13 0.9 1.07 0.94 1.06 1.01 1.02 1.1 0.93 1.11 0.89 1.14 0.85 1.22 0.79 1.26 0.75 1.31 0.67 1.35 0.61 1.35 0.57 1.44 0.5 1.46 0.42 1.44 0.38 1.51 0.3 1.53 0.24 1.53 0.18 1.57 0.11 1.6 0.03 1.62 0 0zm-28.88 31.81l0 -20 0 0 0.61 -0.01 0.57 -0.05 0.55 -0.07 0.52 -0.1 0.54 -0.14 0.49 -0.15 0.48 -0.19 0.51 -0.21 0.45 -0.23 0.48 -0.27 0.43 -0.27 0.39 -0.28 0.41 -0.32 0.41 -0.36 0.36 -0.35 0.34 -0.36 0.35 -0.41 0.35 -0.46 0.3 -0.43 0.28 -0.44 0.25 -0.45 0.26 -0.51 0.25 -0.53 0.18 -0.48 0.19 -0.55 0.17 -0.57 0.14 -0.57 0.12 -0.58 0.1 -0.6 0.06 -0.63 0.05 -0.61 0.01 -0.63 18.28 0 -0.03 1.61 -0.11 1.61 -0.18 1.55 -0.24 1.54 -0.3 1.52 -0.38 1.51 -0.43 1.45 -0.49 1.43 -0.58 1.44 -0.61 1.35 -0.66 1.33 -0.75 1.31 -0.8 1.28 -0.86 1.21 -0.87 1.12 -0.93 1.11 -1.02 1.1 -1.06 1.01 -1.07 0.94 -1.13 0.9 -1.21 0.86 -1.23 0.77 -1.22 0.69 -1.31 0.65 -1.31 0.57 -1.36 0.51 -1.41 0.43 -1.42 0.36 -1.46 0.28 -1.47 0.21 -1.49 0.11 -1.49 0.05 0 0z"/>
   </g>
   <g>
    <path class="fil0" d="M838.89 1001.8l-536.33 0c-10.59,0 -19.74,-9.79 -19.74,-21.81 0,-12.1 9.15,-21.89 19.74,-21.89l536.33 0c11.27,0 19.74,9.79 19.74,21.89 0,12.02 -8.47,21.81 -19.74,21.81z"/>
    <path id="_1_1" class="fil0" d="M302.56 991.8l536.33 0 0 20 -536.33 0 0 0 0 -20zm-28.88 -11.81l18.28 0 0 0 0.02 0.58 0.05 0.66 0.06 0.58 0.08 0.5 0.13 0.59 0.15 0.57 0.15 0.48 0.21 0.56 0.22 0.53 0.26 0.53 0.27 0.53 0.27 0.46 0.29 0.45 0.32 0.43 0.38 0.47 0.39 0.45 0.37 0.39 0.38 0.36 0.42 0.37 0.43 0.34 0.42 0.29 0.43 0.27 0.5 0.28 0.47 0.24 0.49 0.21 0.47 0.19 0.49 0.15 0.48 0.13 0.49 0.1 0.48 0.07 0.51 0.04 0.52 0.01 0 20 -1.46 -0.05 -1.45 -0.12 -1.44 -0.21 -1.43 -0.28 -1.4 -0.37 -1.35 -0.43 -1.35 -0.51 -1.29 -0.57 -1.27 -0.64 -1.2 -0.68 -1.23 -0.77 -1.18 -0.85 -1.13 -0.88 -1.08 -0.93 -1.06 -1 -1.01 -1.07 -0.93 -1.07 -0.88 -1.11 -0.88 -1.21 -0.83 -1.27 -0.77 -1.3 -0.69 -1.31 -0.64 -1.35 -0.58 -1.39 -0.53 -1.42 -0.49 -1.54 -0.39 -1.51 -0.33 -1.51 -0.28 -1.64 -0.18 -1.6 -0.11 -1.56 -0.04 -1.66 0 0zm28.88 -31.89l0 20 0 0 -0.52 0.01 -0.51 0.04 -0.48 0.07 -0.49 0.1 -0.48 0.13 -0.49 0.15 -0.47 0.19 -0.49 0.21 -0.47 0.24 -0.47 0.26 -0.43 0.28 -0.45 0.31 -0.43 0.34 -0.42 0.37 -0.38 0.36 -0.37 0.39 -0.39 0.45 -0.36 0.45 -0.32 0.44 -0.31 0.47 -0.27 0.46 -0.26 0.51 -0.25 0.53 -0.23 0.56 -0.21 0.55 -0.16 0.5 -0.14 0.57 -0.14 0.6 -0.08 0.5 -0.06 0.59 -0.05 0.67 -0.02 0.59 -18.28 0 0.04 -1.67 0.11 -1.55 0.18 -1.61 0.28 -1.64 0.32 -1.52 0.4 -1.51 0.48 -1.54 0.53 -1.43 0.57 -1.38 0.65 -1.37 0.7 -1.33 0.77 -1.3 0.81 -1.25 0.88 -1.22 0.9 -1.13 0.93 -1.07 1.01 -1.07 1.06 -1 1.08 -0.93 1.13 -0.88 1.15 -0.83 1.23 -0.78 1.23 -0.7 1.27 -0.64 1.29 -0.57 1.35 -0.51 1.35 -0.43 1.4 -0.37 1.43 -0.28 1.44 -0.21 1.45 -0.12 1.46 -0.05 0 0zm536.33 20l-536.33 0 0 -20 536.33 0 0 0 0 20zm28.88 11.89l-18.28 0 0 0 -0.01 -0.64 -0.05 -0.62 -0.06 -0.63 -0.1 -0.61 -0.12 -0.59 -0.14 -0.57 -0.17 -0.58 -0.19 -0.55 -0.2 -0.51 -0.24 -0.53 -0.25 -0.49 -0.25 -0.45 -0.29 -0.46 -0.31 -0.44 -0.33 -0.44 -0.35 -0.41 -0.34 -0.36 -0.36 -0.35 -0.41 -0.36 -0.41 -0.32 -0.42 -0.3 -0.43 -0.28 -0.45 -0.25 -0.45 -0.23 -0.51 -0.21 -0.48 -0.19 -0.49 -0.15 -0.54 -0.14 -0.52 -0.1 -0.55 -0.07 -0.57 -0.05 -0.61 -0.01 0 -20 1.49 0.05 1.49 0.11 1.47 0.21 1.46 0.28 1.42 0.36 1.41 0.43 1.36 0.51 1.31 0.57 1.31 0.65 1.25 0.71 1.23 0.78 1.18 0.84 1.13 0.9 1.07 0.94 1.06 1.01 1.02 1.1 0.93 1.11 0.89 1.14 0.85 1.22 0.79 1.26 0.75 1.31 0.67 1.35 0.62 1.37 0.56 1.43 0.49 1.43 0.43 1.46 0.38 1.51 0.3 1.53 0.24 1.53 0.18 1.57 0.11 1.6 0.03 1.62 0 0zm-28.88 31.81l0 -20 0 0 0.61 -0.01 0.57 -0.05 0.55 -0.07 0.52 -0.1 0.54 -0.14 0.49 -0.15 0.48 -0.19 0.51 -0.21 0.45 -0.23 0.48 -0.27 0.43 -0.27 0.39 -0.28 0.41 -0.32 0.41 -0.36 0.36 -0.35 0.34 -0.36 0.35 -0.41 0.35 -0.46 0.3 -0.43 0.28 -0.44 0.25 -0.45 0.26 -0.51 0.25 -0.53 0.18 -0.48 0.19 -0.55 0.17 -0.57 0.14 -0.57 0.12 -0.58 0.1 -0.6 0.06 -0.63 0.05 -0.61 0.01 -0.63 18.28 0 -0.03 1.61 -0.11 1.61 -0.18 1.55 -0.24 1.54 -0.3 1.52 -0.38 1.51 -0.43 1.45 -0.49 1.43 -0.58 1.44 -0.61 1.35 -0.66 1.33 -0.75 1.31 -0.8 1.28 -0.86 1.21 -0.87 1.12 -0.93 1.11 -1.02 1.1 -1.06 1.01 -1.07 0.94 -1.13 0.9 -1.21 0.86 -1.23 0.77 -1.22 0.69 -1.31 0.65 -1.31 0.57 -1.36 0.51 -1.41 0.43 -1.42 0.36 -1.46 0.28 -1.47 0.21 -1.49 0.11 -1.49 0.05 0 0z"/>
   </g>
   <g>
    <path class="fil0" d="M838.89 1180.72l-536.33 0c-10.59,0 -19.74,-9.79 -19.74,-21.81 0,-12.1 9.15,-21.89 19.74,-21.89l536.33 0c11.27,0 19.74,9.79 19.74,21.89 0,12.02 -8.47,21.81 -19.74,21.81z"/>
    <path id="_1_2" class="fil0" d="M302.56 1170.72l536.33 0 0 20 -536.33 0 0 0 0 -20zm-28.88 -11.81l18.28 0 0 0 0.02 0.58 0.05 0.66 0.06 0.58 0.08 0.5 0.13 0.59 0.15 0.57 0.15 0.48 0.21 0.56 0.22 0.53 0.26 0.53 0.27 0.53 0.27 0.46 0.29 0.45 0.32 0.43 0.38 0.47 0.39 0.45 0.37 0.39 0.38 0.36 0.42 0.37 0.43 0.34 0.42 0.29 0.43 0.27 0.5 0.28 0.47 0.24 0.49 0.21 0.47 0.19 0.49 0.15 0.48 0.13 0.49 0.1 0.48 0.07 0.51 0.04 0.52 0.01 0 20 -1.46 -0.05 -1.45 -0.12 -1.44 -0.21 -1.43 -0.28 -1.4 -0.37 -1.35 -0.43 -1.35 -0.51 -1.29 -0.57 -1.27 -0.64 -1.2 -0.68 -1.23 -0.77 -1.18 -0.85 -1.13 -0.88 -1.08 -0.93 -1.06 -1 -1.01 -1.07 -0.93 -1.07 -0.88 -1.11 -0.88 -1.21 -0.83 -1.27 -0.77 -1.3 -0.69 -1.31 -0.64 -1.35 -0.58 -1.39 -0.53 -1.42 -0.49 -1.54 -0.39 -1.51 -0.33 -1.51 -0.28 -1.64 -0.18 -1.6 -0.11 -1.56 -0.04 -1.66 0 0zm28.88 -31.89l0 20 0 0 -0.52 0.01 -0.51 0.04 -0.48 0.07 -0.49 0.1 -0.48 0.13 -0.49 0.15 -0.47 0.19 -0.49 0.21 -0.47 0.24 -0.47 0.26 -0.43 0.28 -0.45 0.31 -0.43 0.34 -0.42 0.37 -0.38 0.36 -0.37 0.39 -0.39 0.45 -0.36 0.45 -0.32 0.44 -0.31 0.47 -0.27 0.46 -0.26 0.51 -0.25 0.53 -0.23 0.56 -0.21 0.55 -0.16 0.5 -0.14 0.57 -0.14 0.6 -0.08 0.5 -0.06 0.59 -0.05 0.67 -0.02 0.59 -18.28 0 0.04 -1.67 0.11 -1.55 0.18 -1.61 0.28 -1.64 0.32 -1.52 0.4 -1.51 0.48 -1.54 0.53 -1.43 0.57 -1.38 0.65 -1.37 0.7 -1.33 0.77 -1.3 0.81 -1.25 0.88 -1.22 0.9 -1.13 0.93 -1.07 1.01 -1.07 1.06 -1 1.08 -0.93 1.13 -0.88 1.15 -0.83 1.23 -0.78 1.23 -0.7 1.27 -0.64 1.29 -0.57 1.35 -0.51 1.35 -0.43 1.4 -0.37 1.43 -0.28 1.44 -0.21 1.45 -0.12 1.46 -0.05 0 0zm536.33 20l-536.33 0 0 -20 536.33 0 0 0 0 20zm28.88 11.89l-18.28 0 0 0 -0.01 -0.64 -0.05 -0.62 -0.06 -0.63 -0.1 -0.61 -0.12 -0.59 -0.14 -0.57 -0.17 -0.58 -0.19 -0.55 -0.2 -0.51 -0.24 -0.53 -0.25 -0.49 -0.25 -0.45 -0.29 -0.46 -0.31 -0.44 -0.33 -0.44 -0.35 -0.41 -0.34 -0.36 -0.36 -0.35 -0.41 -0.36 -0.41 -0.32 -0.42 -0.3 -0.43 -0.28 -0.45 -0.25 -0.45 -0.23 -0.51 -0.21 -0.48 -0.19 -0.49 -0.15 -0.54 -0.14 -0.52 -0.1 -0.55 -0.07 -0.57 -0.05 -0.61 -0.01 0 -20 1.49 0.05 1.49 0.11 1.47 0.21 1.46 0.28 1.42 0.36 1.41 0.43 1.36 0.51 1.31 0.57 1.31 0.65 1.25 0.71 1.23 0.78 1.18 0.84 1.13 0.9 1.07 0.94 1.06 1.01 1.02 1.1 0.93 1.11 0.89 1.14 0.85 1.22 0.79 1.26 0.75 1.31 0.67 1.35 0.62 1.37 0.56 1.43 0.49 1.43 0.43 1.46 0.38 1.51 0.3 1.53 0.24 1.53 0.18 1.57 0.11 1.6 0.03 1.62 0 0zm-28.88 31.81l0 -20 0 0 0.61 -0.01 0.57 -0.05 0.55 -0.07 0.52 -0.1 0.54 -0.14 0.49 -0.15 0.48 -0.19 0.51 -0.21 0.45 -0.23 0.48 -0.27 0.43 -0.27 0.39 -0.28 0.41 -0.32 0.41 -0.36 0.36 -0.35 0.34 -0.36 0.35 -0.41 0.35 -0.46 0.3 -0.43 0.28 -0.44 0.25 -0.45 0.26 -0.51 0.25 -0.53 0.18 -0.48 0.19 -0.55 0.17 -0.57 0.14 -0.57 0.12 -0.58 0.1 -0.6 0.06 -0.63 0.05 -0.61 0.01 -0.63 18.28 0 -0.03 1.61 -0.11 1.61 -0.18 1.55 -0.24 1.54 -0.3 1.52 -0.38 1.51 -0.43 1.45 -0.49 1.43 -0.58 1.44 -0.61 1.35 -0.66 1.33 -0.75 1.31 -0.8 1.28 -0.86 1.21 -0.87 1.12 -0.93 1.11 -1.02 1.1 -1.06 1.01 -1.07 0.94 -1.13 0.9 -1.21 0.86 -1.23 0.77 -1.22 0.69 -1.31 0.65 -1.31 0.57 -1.36 0.51 -1.41 0.43 -1.42 0.36 -1.46 0.28 -1.47 0.21 -1.49 0.11 -1.49 0.05 0 0z"/>
   </g>
   <g>
    <path class="fil0" d="M630.72 1366.98l-335.55 0c-6.63,0 -12.35,-9.79 -12.35,-21.81 0,-12.1 5.72,-21.89 12.35,-21.89l335.55 0c7.05,0 12.35,9.79 12.35,21.89 0,12.02 -5.3,21.81 -12.35,21.81z"/>
    <path id="_1_3" class="fil0" d="M295.17 1357.01l335.55 0 0 19.94 -335.55 0 0 0 0 -19.94zm-18.11 -11.84l11.52 0 0 0 0.01 0.58 0.03 0.64 0.05 0.6 0.06 0.58 0.07 0.56 0.09 0.55 0.1 0.5 0.13 0.56 0.14 0.54 0.16 0.53 0.16 0.49 0.17 0.46 0.21 0.51 0.18 0.4 0.23 0.46 0.26 0.49 0.22 0.37 0.23 0.35 0.26 0.36 0.28 0.34 0.26 0.3 0.27 0.26 0.31 0.29 0.28 0.23 0.3 0.2 0.29 0.19 0.3 0.15 0.32 0.13 0.28 0.09 0.31 0.07 0.31 0.04 0.32 0.02 0 19.94 -0.92 -0.04 -0.91 -0.12 -0.91 -0.21 -0.9 -0.29 -0.86 -0.37 -0.86 -0.43 -0.85 -0.51 -0.82 -0.58 -0.8 -0.65 -0.75 -0.67 -0.77 -0.78 -0.74 -0.84 -0.7 -0.88 -0.68 -0.94 -0.67 -1.01 -0.64 -1.09 -0.56 -1.03 -0.57 -1.12 -0.56 -1.24 -0.49 -1.21 -0.49 -1.3 -0.44 -1.35 -0.4 -1.35 -0.36 -1.38 -0.33 -1.42 -0.3 -1.52 -0.25 -1.53 -0.21 -1.54 -0.16 -1.56 -0.11 -1.58 -0.07 -1.58 -0.03 -1.66 0 0zm18.11 -31.86l0 19.94 0 0 -0.32 0.02 -0.31 0.04 -0.31 0.07 -0.28 0.09 -0.32 0.13 -0.3 0.15 -0.29 0.19 -0.3 0.2 -0.28 0.23 -0.29 0.27 -0.27 0.27 -0.28 0.32 -0.28 0.34 -0.26 0.36 -0.23 0.35 -0.22 0.37 -0.26 0.49 -0.22 0.43 -0.18 0.42 -0.22 0.53 -0.17 0.46 -0.15 0.47 -0.16 0.53 -0.14 0.56 -0.14 0.56 -0.1 0.52 -0.09 0.55 -0.07 0.57 -0.06 0.58 -0.05 0.62 -0.03 0.64 -0.01 0.59 -11.52 0 0.03 -1.67 0.07 -1.58 0.11 -1.58 0.16 -1.56 0.21 -1.55 0.25 -1.53 0.3 -1.52 0.32 -1.42 0.36 -1.38 0.4 -1.37 0.45 -1.37 0.49 -1.3 0.48 -1.19 0.56 -1.24 0.58 -1.15 0.56 -1.03 0.64 -1.09 0.67 -1.01 0.68 -0.94 0.7 -0.88 0.72 -0.82 0.77 -0.79 0.77 -0.69 0.8 -0.65 0.82 -0.58 0.85 -0.51 0.86 -0.43 0.86 -0.37 0.9 -0.29 0.91 -0.21 0.91 -0.12 0.92 -0.04 0 0zm335.55 19.94l-335.55 0 0 -19.94 335.55 0 0 0 0 19.94zm18.11 11.92l-11.52 0 0 0 -0.02 -0.67 -0.02 -0.64 -0.04 -0.61 -0.06 -0.66 -0.06 -0.5 -0.11 -0.62 -0.1 -0.58 -0.11 -0.49 -0.15 -0.62 -0.15 -0.53 -0.12 -0.4 -0.17 -0.45 -0.2 -0.52 -0.2 -0.46 -0.21 -0.42 -0.2 -0.39 -0.22 -0.37 -0.24 -0.38 -0.25 -0.35 -0.24 -0.31 -0.26 -0.29 -0.25 -0.26 -0.29 -0.25 -0.31 -0.25 -0.29 -0.2 -0.28 -0.18 -0.32 -0.14 -0.34 -0.15 -0.32 -0.09 -0.33 -0.08 -0.35 -0.04 -0.38 -0.02 0 -19.94 0.94 0.04 0.93 0.12 0.93 0.2 0.92 0.29 0.88 0.35 0.88 0.44 0.88 0.52 0.83 0.58 0.79 0.63 0.79 0.71 0.79 0.8 0.74 0.85 0.72 0.91 0.67 0.95 0.64 0.98 0.64 1.09 0.6 1.13 0.55 1.16 0.52 1.2 0.48 1.2 0.47 1.31 0.46 1.44 0.37 1.37 0.33 1.32 0.33 1.49 0.26 1.46 0.23 1.46 0.2 1.62 0.14 1.48 0.12 1.59 0.06 1.58 0.02 1.59 0 0zm-18.11 31.78l0 -19.94 0 0 0.38 -0.02 0.35 -0.04 0.33 -0.08 0.32 -0.09 0.34 -0.15 0.32 -0.14 0.28 -0.18 0.29 -0.2 0.31 -0.25 0.31 -0.27 0.25 -0.25 0.24 -0.27 0.24 -0.31 0.25 -0.35 0.24 -0.38 0.22 -0.37 0.2 -0.39 0.22 -0.45 0.2 -0.44 0.19 -0.5 0.17 -0.45 0.13 -0.42 0.15 -0.53 0.15 -0.6 0.1 -0.48 0.1 -0.58 0.11 -0.61 0.06 -0.49 0.06 -0.65 0.04 -0.61 0.02 -0.63 0.02 -0.66 11.52 0 -0.02 1.58 -0.06 1.59 -0.12 1.57 -0.14 1.49 -0.2 1.61 -0.23 1.47 -0.26 1.44 -0.34 1.5 -0.33 1.32 -0.37 1.35 -0.45 1.42 -0.47 1.31 -0.49 1.22 -0.52 1.2 -0.54 1.13 -0.6 1.13 -0.64 1.09 -0.64 0.98 -0.67 0.95 -0.72 0.91 -0.76 0.87 -0.79 0.79 -0.77 0.69 -0.79 0.63 -0.83 0.58 -0.88 0.52 -0.88 0.44 -0.88 0.35 -0.92 0.29 -0.93 0.2 -0.93 0.12 -0.94 0.04 0 0z"/>
   </g>
   <g>
    <path class="fil0" d="M1471.4 1366.98l-335.55 0c-6.63,0 -12.35,-9.79 -12.35,-21.81 0,-12.1 5.72,-21.89 12.35,-21.89l335.55 0c7.05,0 12.35,9.79 12.35,21.89 0,12.02 -5.3,21.81 -12.35,21.81z"/>
    <path id="_1_4" class="fil0" d="M1135.85 1357.01l335.55 0 0 19.94 -335.55 0 0 0 0 -19.94zm-18.11 -11.84l11.52 0 0 0 0.01 0.58 0.03 0.64 0.05 0.6 0.06 0.58 0.07 0.56 0.09 0.55 0.1 0.5 0.13 0.56 0.14 0.54 0.16 0.53 0.16 0.49 0.17 0.46 0.21 0.51 0.18 0.4 0.23 0.46 0.26 0.49 0.22 0.37 0.23 0.35 0.26 0.36 0.28 0.34 0.26 0.3 0.27 0.26 0.31 0.29 0.28 0.23 0.3 0.2 0.29 0.19 0.3 0.15 0.32 0.13 0.28 0.09 0.31 0.07 0.31 0.04 0.32 0.02 0 19.94 -0.92 -0.04 -0.91 -0.12 -0.91 -0.21 -0.9 -0.29 -0.86 -0.37 -0.86 -0.43 -0.85 -0.51 -0.82 -0.58 -0.8 -0.65 -0.75 -0.67 -0.77 -0.78 -0.74 -0.84 -0.7 -0.88 -0.68 -0.94 -0.67 -1.01 -0.64 -1.09 -0.56 -1.03 -0.57 -1.12 -0.56 -1.24 -0.49 -1.21 -0.49 -1.3 -0.44 -1.35 -0.4 -1.35 -0.36 -1.38 -0.33 -1.42 -0.3 -1.52 -0.25 -1.53 -0.21 -1.54 -0.16 -1.56 -0.11 -1.58 -0.07 -1.58 -0.03 -1.66 0 0zm18.11 -31.86l0 19.94 0 0 -0.32 0.02 -0.31 0.04 -0.31 0.07 -0.28 0.09 -0.32 0.13 -0.3 0.15 -0.29 0.19 -0.3 0.2 -0.28 0.23 -0.29 0.27 -0.27 0.27 -0.28 0.32 -0.28 0.34 -0.26 0.36 -0.23 0.35 -0.22 0.37 -0.26 0.49 -0.22 0.43 -0.18 0.42 -0.22 0.53 -0.17 0.46 -0.15 0.47 -0.16 0.53 -0.14 0.56 -0.14 0.56 -0.1 0.52 -0.09 0.55 -0.07 0.57 -0.06 0.58 -0.05 0.62 -0.03 0.64 -0.01 0.59 -11.52 0 0.03 -1.67 0.07 -1.58 0.11 -1.58 0.16 -1.56 0.21 -1.55 0.25 -1.53 0.3 -1.52 0.32 -1.42 0.36 -1.38 0.4 -1.37 0.45 -1.37 0.49 -1.3 0.48 -1.19 0.56 -1.24 0.58 -1.15 0.56 -1.03 0.64 -1.09 0.67 -1.01 0.68 -0.94 0.7 -0.88 0.72 -0.82 0.77 -0.79 0.77 -0.69 0.8 -0.65 0.82 -0.58 0.85 -0.51 0.86 -0.43 0.86 -0.37 0.9 -0.29 0.91 -0.21 0.91 -0.12 0.92 -0.04 0 0zm335.55 19.94l-335.55 0 0 -19.94 335.55 0 0 0 0 19.94zm18.11 11.92l-11.52 0 0 0 -0.02 -0.67 -0.02 -0.64 -0.04 -0.61 -0.06 -0.66 -0.06 -0.5 -0.11 -0.62 -0.1 -0.58 -0.11 -0.49 -0.15 -0.62 -0.15 -0.53 -0.12 -0.4 -0.17 -0.45 -0.2 -0.52 -0.2 -0.46 -0.21 -0.42 -0.2 -0.39 -0.22 -0.37 -0.24 -0.38 -0.25 -0.35 -0.24 -0.31 -0.26 -0.29 -0.25 -0.26 -0.29 -0.25 -0.31 -0.25 -0.29 -0.2 -0.28 -0.18 -0.32 -0.14 -0.34 -0.15 -0.32 -0.09 -0.33 -0.08 -0.35 -0.04 -0.38 -0.02 0 -19.94 0.94 0.04 0.93 0.12 0.93 0.2 0.92 0.29 0.88 0.35 0.88 0.44 0.88 0.52 0.83 0.58 0.79 0.63 0.79 0.71 0.79 0.8 0.74 0.85 0.72 0.91 0.67 0.95 0.64 0.98 0.64 1.09 0.6 1.13 0.55 1.16 0.52 1.2 0.48 1.2 0.47 1.31 0.46 1.44 0.37 1.37 0.33 1.32 0.33 1.49 0.26 1.46 0.23 1.46 0.2 1.62 0.14 1.48 0.12 1.59 0.06 1.58 0.02 1.59 0 0zm-18.11 31.78l0 -19.94 0 0 0.38 -0.02 0.35 -0.04 0.33 -0.08 0.32 -0.09 0.34 -0.15 0.32 -0.14 0.28 -0.18 0.29 -0.2 0.31 -0.25 0.31 -0.27 0.25 -0.25 0.24 -0.27 0.24 -0.31 0.25 -0.35 0.24 -0.38 0.22 -0.37 0.2 -0.39 0.22 -0.45 0.2 -0.44 0.19 -0.5 0.17 -0.45 0.13 -0.42 0.15 -0.53 0.15 -0.6 0.1 -0.48 0.1 -0.58 0.11 -0.61 0.06 -0.49 0.06 -0.65 0.04 -0.61 0.02 -0.63 0.02 -0.66 11.52 0 -0.02 1.58 -0.06 1.59 -0.12 1.57 -0.14 1.49 -0.2 1.61 -0.23 1.47 -0.26 1.44 -0.34 1.5 -0.33 1.32 -0.37 1.35 -0.45 1.42 -0.47 1.31 -0.49 1.22 -0.52 1.2 -0.54 1.13 -0.6 1.13 -0.64 1.09 -0.64 0.98 -0.67 0.95 -0.72 0.91 -0.76 0.87 -0.79 0.79 -0.77 0.69 -0.79 0.63 -0.83 0.58 -0.88 0.52 -0.88 0.44 -0.88 0.35 -0.92 0.29 -0.93 0.2 -0.93 0.12 -0.94 0.04 0 0z"/>
   </g>
   <g>
    <path class="fil0" d="M1471.4 1210.78l-335.55 0c-6.63,0 -12.35,-9.79 -12.35,-21.81 0,-12.1 5.72,-21.89 12.35,-21.89l335.55 0c7.05,0 12.35,9.79 12.35,21.89 0,12.02 -5.3,21.81 -12.35,21.81z"/>
    <path id="_1_5" class="fil0" d="M1135.85 1200.81l335.55 0 0 19.94 -335.55 0 0 0 0 -19.94zm-18.11 -11.84l11.52 0 0 0 0.01 0.58 0.03 0.64 0.05 0.6 0.06 0.58 0.07 0.56 0.09 0.55 0.1 0.5 0.13 0.56 0.14 0.54 0.16 0.53 0.16 0.49 0.17 0.46 0.21 0.51 0.18 0.4 0.23 0.46 0.26 0.49 0.22 0.37 0.23 0.35 0.26 0.36 0.28 0.34 0.26 0.3 0.27 0.26 0.31 0.29 0.28 0.23 0.3 0.2 0.29 0.19 0.3 0.15 0.32 0.13 0.28 0.09 0.31 0.07 0.31 0.04 0.32 0.02 0 19.94 -0.92 -0.04 -0.91 -0.12 -0.91 -0.21 -0.9 -0.29 -0.86 -0.37 -0.86 -0.43 -0.85 -0.51 -0.82 -0.58 -0.8 -0.65 -0.75 -0.67 -0.77 -0.78 -0.74 -0.84 -0.7 -0.88 -0.68 -0.94 -0.67 -1.01 -0.64 -1.09 -0.56 -1.03 -0.57 -1.12 -0.56 -1.24 -0.49 -1.21 -0.49 -1.3 -0.44 -1.35 -0.4 -1.35 -0.36 -1.38 -0.33 -1.42 -0.3 -1.52 -0.25 -1.53 -0.21 -1.54 -0.16 -1.56 -0.11 -1.58 -0.07 -1.58 -0.03 -1.66 0 0zm18.11 -31.86l0 19.94 0 0 -0.32 0.02 -0.31 0.04 -0.31 0.07 -0.28 0.09 -0.32 0.13 -0.3 0.15 -0.29 0.19 -0.3 0.2 -0.28 0.23 -0.29 0.27 -0.27 0.27 -0.28 0.32 -0.28 0.34 -0.26 0.36 -0.23 0.35 -0.22 0.37 -0.26 0.49 -0.22 0.43 -0.18 0.42 -0.22 0.53 -0.17 0.46 -0.15 0.47 -0.16 0.53 -0.14 0.56 -0.14 0.56 -0.1 0.52 -0.09 0.55 -0.07 0.57 -0.06 0.58 -0.05 0.62 -0.03 0.64 -0.01 0.59 -11.52 0 0.03 -1.67 0.07 -1.58 0.11 -1.58 0.16 -1.56 0.21 -1.55 0.25 -1.53 0.3 -1.52 0.32 -1.42 0.36 -1.38 0.4 -1.37 0.45 -1.37 0.49 -1.3 0.48 -1.19 0.56 -1.24 0.58 -1.15 0.56 -1.03 0.64 -1.09 0.67 -1.01 0.68 -0.94 0.7 -0.88 0.72 -0.82 0.77 -0.79 0.77 -0.69 0.8 -0.65 0.82 -0.58 0.85 -0.51 0.86 -0.43 0.86 -0.37 0.9 -0.29 0.91 -0.21 0.91 -0.12 0.92 -0.04 0 0zm335.55 19.94l-335.55 0 0 -19.94 335.55 0 0 0 0 19.94zm18.11 11.92l-11.52 0 0 0 -0.02 -0.67 -0.02 -0.64 -0.04 -0.61 -0.06 -0.66 -0.06 -0.5 -0.11 -0.62 -0.1 -0.58 -0.11 -0.49 -0.15 -0.62 -0.15 -0.53 -0.12 -0.4 -0.17 -0.45 -0.2 -0.52 -0.2 -0.46 -0.21 -0.42 -0.2 -0.39 -0.22 -0.37 -0.24 -0.38 -0.25 -0.35 -0.24 -0.31 -0.26 -0.29 -0.25 -0.26 -0.29 -0.25 -0.31 -0.25 -0.29 -0.2 -0.28 -0.18 -0.32 -0.14 -0.34 -0.15 -0.32 -0.09 -0.33 -0.08 -0.35 -0.04 -0.38 -0.02 0 -19.94 0.94 0.04 0.93 0.12 0.93 0.2 0.92 0.29 0.88 0.35 0.88 0.44 0.88 0.52 0.83 0.58 0.79 0.63 0.79 0.71 0.79 0.8 0.74 0.85 0.72 0.91 0.67 0.95 0.64 0.98 0.64 1.09 0.6 1.13 0.55 1.16 0.52 1.2 0.48 1.2 0.47 1.31 0.46 1.44 0.37 1.37 0.33 1.32 0.33 1.49 0.26 1.46 0.23 1.46 0.2 1.62 0.14 1.48 0.12 1.59 0.06 1.58 0.02 1.59 0 0zm-18.11 31.78l0 -19.94 0 0 0.38 -0.02 0.35 -0.04 0.33 -0.08 0.32 -0.09 0.34 -0.15 0.32 -0.14 0.28 -0.18 0.29 -0.2 0.31 -0.25 0.31 -0.27 0.25 -0.25 0.24 -0.27 0.24 -0.31 0.25 -0.35 0.24 -0.38 0.22 -0.37 0.2 -0.39 0.22 -0.45 0.2 -0.44 0.19 -0.5 0.17 -0.45 0.13 -0.42 0.15 -0.53 0.15 -0.6 0.1 -0.48 0.1 -0.58 0.11 -0.61 0.06 -0.49 0.06 -0.65 0.04 -0.61 0.02 -0.63 0.02 -0.66 11.52 0 -0.02 1.58 -0.06 1.59 -0.12 1.57 -0.14 1.49 -0.2 1.61 -0.23 1.47 -0.26 1.44 -0.34 1.5 -0.33 1.32 -0.37 1.35 -0.45 1.42 -0.47 1.31 -0.49 1.22 -0.52 1.2 -0.54 1.13 -0.6 1.13 -0.64 1.09 -0.64 0.98 -0.67 0.95 -0.72 0.91 -0.76 0.87 -0.79 0.79 -0.77 0.69 -0.79 0.63 -0.83 0.58 -0.88 0.52 -0.88 0.44 -0.88 0.35 -0.92 0.29 -0.93 0.2 -0.93 0.12 -0.94 0.04 0 0z"/>
   </g>
   <g>
    <path class="fil0" d="M1471.4 1038.62l-335.55 0c-6.63,0 -12.35,-9.79 -12.35,-21.81 0,-12.1 5.72,-21.89 12.35,-21.89l335.55 0c7.05,0 12.35,9.79 12.35,21.89 0,12.02 -5.3,21.81 -12.35,21.81z"/>
    <path id="_1_6" class="fil0" d="M1135.85 1028.65l335.55 0 0 19.94 -335.55 0 0 0 0 -19.94zm-18.11 -11.84l11.52 0 0 0 0.01 0.58 0.03 0.64 0.05 0.6 0.06 0.58 0.07 0.56 0.09 0.55 0.1 0.5 0.13 0.56 0.14 0.54 0.16 0.53 0.16 0.49 0.17 0.46 0.21 0.51 0.18 0.4 0.23 0.46 0.26 0.49 0.22 0.37 0.23 0.35 0.26 0.36 0.28 0.34 0.26 0.3 0.27 0.26 0.31 0.29 0.28 0.23 0.3 0.2 0.29 0.19 0.3 0.15 0.32 0.13 0.28 0.09 0.31 0.07 0.31 0.04 0.32 0.02 0 19.94 -0.92 -0.04 -0.91 -0.12 -0.91 -0.21 -0.9 -0.29 -0.86 -0.37 -0.86 -0.43 -0.85 -0.51 -0.82 -0.58 -0.8 -0.65 -0.75 -0.67 -0.77 -0.78 -0.74 -0.84 -0.7 -0.88 -0.68 -0.94 -0.67 -1.01 -0.64 -1.09 -0.56 -1.03 -0.57 -1.12 -0.56 -1.24 -0.49 -1.21 -0.49 -1.3 -0.44 -1.35 -0.4 -1.35 -0.36 -1.38 -0.33 -1.42 -0.3 -1.52 -0.25 -1.53 -0.21 -1.54 -0.16 -1.56 -0.11 -1.58 -0.07 -1.58 -0.03 -1.66 0 0zm18.11 -31.86l0 19.94 0 0 -0.32 0.02 -0.31 0.04 -0.31 0.07 -0.28 0.09 -0.32 0.13 -0.3 0.15 -0.29 0.19 -0.3 0.2 -0.28 0.23 -0.29 0.27 -0.27 0.27 -0.28 0.32 -0.28 0.34 -0.26 0.36 -0.23 0.35 -0.22 0.37 -0.26 0.49 -0.22 0.43 -0.18 0.42 -0.22 0.53 -0.17 0.46 -0.15 0.47 -0.16 0.53 -0.14 0.56 -0.14 0.56 -0.1 0.52 -0.09 0.55 -0.07 0.57 -0.06 0.58 -0.05 0.62 -0.03 0.64 -0.01 0.59 -11.52 0 0.03 -1.67 0.07 -1.58 0.11 -1.58 0.16 -1.56 0.21 -1.55 0.25 -1.53 0.3 -1.52 0.32 -1.42 0.36 -1.38 0.4 -1.37 0.45 -1.37 0.49 -1.3 0.48 -1.19 0.56 -1.24 0.58 -1.15 0.56 -1.03 0.64 -1.09 0.67 -1.01 0.68 -0.94 0.7 -0.88 0.72 -0.82 0.77 -0.79 0.77 -0.69 0.8 -0.65 0.82 -0.58 0.85 -0.51 0.86 -0.43 0.86 -0.37 0.9 -0.29 0.91 -0.21 0.91 -0.12 0.92 -0.04 0 0zm335.55 19.94l-335.55 0 0 -19.94 335.55 0 0 0 0 19.94zm18.11 11.92l-11.52 0 0 0 -0.02 -0.67 -0.02 -0.64 -0.04 -0.61 -0.06 -0.66 -0.06 -0.5 -0.11 -0.62 -0.1 -0.58 -0.11 -0.49 -0.15 -0.62 -0.15 -0.53 -0.12 -0.4 -0.17 -0.45 -0.2 -0.52 -0.2 -0.46 -0.21 -0.42 -0.2 -0.39 -0.22 -0.37 -0.24 -0.38 -0.25 -0.35 -0.24 -0.31 -0.26 -0.29 -0.25 -0.26 -0.29 -0.25 -0.31 -0.25 -0.29 -0.2 -0.28 -0.18 -0.32 -0.14 -0.34 -0.15 -0.32 -0.09 -0.33 -0.08 -0.35 -0.04 -0.38 -0.02 0 -19.94 0.94 0.04 0.93 0.12 0.93 0.2 0.92 0.29 0.88 0.35 0.88 0.44 0.88 0.52 0.83 0.58 0.79 0.63 0.79 0.71 0.79 0.8 0.74 0.85 0.72 0.91 0.67 0.95 0.64 0.98 0.64 1.09 0.6 1.13 0.55 1.16 0.52 1.2 0.48 1.2 0.47 1.31 0.46 1.44 0.37 1.37 0.33 1.32 0.33 1.49 0.26 1.46 0.23 1.46 0.2 1.62 0.14 1.48 0.12 1.59 0.06 1.58 0.02 1.59 0 0zm-18.11 31.78l0 -19.94 0 0 0.38 -0.02 0.35 -0.04 0.33 -0.08 0.32 -0.09 0.34 -0.15 0.32 -0.14 0.28 -0.18 0.29 -0.2 0.31 -0.25 0.31 -0.27 0.25 -0.25 0.24 -0.27 0.24 -0.31 0.25 -0.35 0.24 -0.38 0.22 -0.37 0.2 -0.39 0.22 -0.45 0.2 -0.44 0.19 -0.5 0.17 -0.45 0.13 -0.42 0.15 -0.53 0.15 -0.6 0.1 -0.48 0.1 -0.58 0.11 -0.61 0.06 -0.49 0.06 -0.65 0.04 -0.61 0.02 -0.63 0.02 -0.66 11.52 0 -0.02 1.58 -0.06 1.59 -0.12 1.57 -0.14 1.49 -0.2 1.61 -0.23 1.47 -0.26 1.44 -0.34 1.5 -0.33 1.32 -0.37 1.35 -0.45 1.42 -0.47 1.31 -0.49 1.22 -0.52 1.2 -0.54 1.13 -0.6 1.13 -0.64 1.09 -0.64 0.98 -0.67 0.95 -0.72 0.91 -0.76 0.87 -0.79 0.79 -0.77 0.69 -0.79 0.63 -0.83 0.58 -0.88 0.52 -0.88 0.44 -0.88 0.35 -0.92 0.29 -0.93 0.2 -0.93 0.12 -0.94 0.04 0 0z"/>
   </g>
   <g>
    <path class="fil0" d="M1471.4 864.36l-335.55 0c-6.63,0 -12.35,-9.79 -12.35,-21.81 0,-12.1 5.72,-21.89 12.35,-21.89l335.55 0c7.05,0 12.35,9.79 12.35,21.89 0,12.02 -5.3,21.81 -12.35,21.81z"/>
    <path id="_1_7" class="fil0" d="M1135.85 854.39l335.55 0 0 19.94 -335.55 0 0 0 0 -19.94zm-18.11 -11.84l11.52 0 0 0 0.01 0.58 0.03 0.64 0.05 0.6 0.06 0.58 0.07 0.56 0.09 0.55 0.1 0.5 0.13 0.56 0.14 0.54 0.16 0.53 0.16 0.49 0.17 0.46 0.21 0.51 0.18 0.4 0.23 0.46 0.26 0.49 0.22 0.37 0.23 0.35 0.26 0.36 0.28 0.34 0.26 0.3 0.27 0.26 0.31 0.29 0.28 0.23 0.3 0.2 0.29 0.19 0.3 0.15 0.32 0.13 0.28 0.09 0.31 0.07 0.31 0.04 0.32 0.02 0 19.94 -0.92 -0.04 -0.91 -0.12 -0.91 -0.21 -0.9 -0.29 -0.86 -0.37 -0.86 -0.43 -0.85 -0.51 -0.82 -0.58 -0.8 -0.65 -0.75 -0.67 -0.77 -0.78 -0.74 -0.84 -0.7 -0.88 -0.68 -0.94 -0.67 -1.01 -0.64 -1.09 -0.56 -1.03 -0.57 -1.12 -0.56 -1.24 -0.49 -1.21 -0.49 -1.3 -0.44 -1.35 -0.4 -1.35 -0.36 -1.38 -0.33 -1.42 -0.3 -1.52 -0.25 -1.53 -0.21 -1.54 -0.16 -1.56 -0.11 -1.58 -0.07 -1.58 -0.03 -1.66 0 0zm18.11 -31.86l0 19.94 0 0 -0.32 0.02 -0.31 0.04 -0.31 0.07 -0.28 0.09 -0.32 0.13 -0.3 0.15 -0.29 0.19 -0.3 0.2 -0.28 0.23 -0.29 0.27 -0.27 0.27 -0.28 0.32 -0.28 0.34 -0.26 0.36 -0.23 0.35 -0.22 0.37 -0.26 0.49 -0.22 0.43 -0.18 0.42 -0.22 0.53 -0.17 0.46 -0.15 0.47 -0.16 0.53 -0.14 0.56 -0.14 0.56 -0.1 0.52 -0.09 0.55 -0.07 0.57 -0.06 0.58 -0.05 0.62 -0.03 0.64 -0.01 0.59 -11.52 0 0.03 -1.67 0.07 -1.58 0.11 -1.58 0.16 -1.56 0.21 -1.55 0.25 -1.53 0.3 -1.52 0.32 -1.42 0.36 -1.38 0.4 -1.37 0.45 -1.37 0.49 -1.3 0.48 -1.19 0.56 -1.24 0.58 -1.15 0.56 -1.03 0.64 -1.09 0.67 -1.01 0.68 -0.94 0.7 -0.88 0.72 -0.82 0.77 -0.79 0.77 -0.69 0.8 -0.65 0.82 -0.58 0.85 -0.51 0.86 -0.43 0.86 -0.37 0.9 -0.29 0.91 -0.21 0.91 -0.12 0.92 -0.04 0 0zm335.55 19.94l-335.55 0 0 -19.94 335.55 0 0 0 0 19.94zm18.11 11.92l-11.52 0 0 0 -0.02 -0.67 -0.02 -0.64 -0.04 -0.61 -0.06 -0.66 -0.06 -0.5 -0.11 -0.62 -0.1 -0.58 -0.11 -0.49 -0.15 -0.62 -0.15 -0.53 -0.12 -0.4 -0.17 -0.45 -0.2 -0.52 -0.2 -0.46 -0.21 -0.42 -0.2 -0.39 -0.22 -0.37 -0.24 -0.38 -0.25 -0.35 -0.24 -0.31 -0.26 -0.29 -0.25 -0.26 -0.29 -0.25 -0.31 -0.25 -0.29 -0.2 -0.28 -0.18 -0.32 -0.14 -0.34 -0.15 -0.32 -0.09 -0.33 -0.08 -0.35 -0.04 -0.38 -0.02 0 -19.94 0.94 0.04 0.93 0.12 0.93 0.2 0.92 0.29 0.88 0.35 0.88 0.44 0.88 0.52 0.83 0.58 0.79 0.63 0.79 0.71 0.79 0.8 0.74 0.85 0.72 0.91 0.67 0.95 0.64 0.98 0.64 1.09 0.6 1.13 0.55 1.16 0.52 1.2 0.48 1.2 0.47 1.31 0.46 1.44 0.37 1.37 0.33 1.32 0.33 1.49 0.26 1.46 0.23 1.46 0.2 1.62 0.14 1.48 0.12 1.59 0.06 1.58 0.02 1.59 0 0zm-18.11 31.78l0 -19.94 0 0 0.38 -0.02 0.35 -0.04 0.33 -0.08 0.32 -0.09 0.34 -0.15 0.32 -0.14 0.28 -0.18 0.29 -0.2 0.31 -0.25 0.31 -0.27 0.25 -0.25 0.24 -0.27 0.24 -0.31 0.25 -0.35 0.24 -0.38 0.22 -0.37 0.2 -0.39 0.22 -0.45 0.2 -0.44 0.19 -0.5 0.17 -0.45 0.13 -0.42 0.15 -0.53 0.15 -0.6 0.1 -0.48 0.1 -0.58 0.11 -0.61 0.06 -0.49 0.06 -0.65 0.04 -0.61 0.02 -0.63 0.02 -0.66 11.52 0 -0.02 1.58 -0.06 1.59 -0.12 1.57 -0.14 1.49 -0.2 1.61 -0.23 1.47 -0.26 1.44 -0.34 1.5 -0.33 1.32 -0.37 1.35 -0.45 1.42 -0.47 1.31 -0.49 1.22 -0.52 1.2 -0.54 1.13 -0.6 1.13 -0.64 1.09 -0.64 0.98 -0.67 0.95 -0.72 0.91 -0.76 0.87 -0.79 0.79 -0.77 0.69 -0.79 0.63 -0.83 0.58 -0.88 0.52 -0.88 0.44 -0.88 0.35 -0.92 0.29 -0.93 0.2 -0.93 0.12 -0.94 0.04 0 0z"/>
   </g>
   <g>
    <path class="fil0" d="M1471.4 703.12l-335.55 0c-6.63,0 -12.35,-9.79 -12.35,-21.81 0,-12.1 5.72,-21.89 12.35,-21.89l335.55 0c7.05,0 12.35,9.79 12.35,21.89 0,12.02 -5.3,21.81 -12.35,21.81z"/>
    <path id="_1_8" class="fil0" d="M1135.85 693.15l335.55 0 0 19.94 -335.55 0 0 0 0 -19.94zm-18.11 -11.84l11.52 0 0 0 0.01 0.58 0.03 0.64 0.05 0.6 0.06 0.58 0.07 0.56 0.09 0.55 0.1 0.5 0.13 0.56 0.14 0.54 0.16 0.53 0.16 0.49 0.17 0.46 0.21 0.51 0.18 0.4 0.23 0.46 0.26 0.49 0.22 0.37 0.23 0.35 0.26 0.36 0.28 0.34 0.26 0.3 0.27 0.26 0.31 0.29 0.28 0.23 0.3 0.2 0.29 0.19 0.3 0.15 0.32 0.13 0.28 0.09 0.31 0.07 0.31 0.04 0.32 0.02 0 19.94 -0.92 -0.04 -0.91 -0.12 -0.91 -0.21 -0.9 -0.29 -0.86 -0.37 -0.86 -0.43 -0.85 -0.51 -0.82 -0.58 -0.8 -0.65 -0.75 -0.67 -0.77 -0.78 -0.74 -0.84 -0.7 -0.88 -0.68 -0.94 -0.67 -1.01 -0.64 -1.09 -0.56 -1.03 -0.57 -1.12 -0.56 -1.24 -0.49 -1.21 -0.49 -1.3 -0.44 -1.35 -0.4 -1.35 -0.36 -1.38 -0.33 -1.42 -0.3 -1.52 -0.25 -1.53 -0.21 -1.54 -0.16 -1.56 -0.11 -1.58 -0.07 -1.58 -0.03 -1.66 0 0zm18.11 -31.86l0 19.94 0 0 -0.32 0.02 -0.31 0.04 -0.31 0.07 -0.28 0.09 -0.32 0.13 -0.3 0.15 -0.29 0.19 -0.3 0.2 -0.28 0.23 -0.29 0.27 -0.27 0.27 -0.28 0.32 -0.28 0.34 -0.26 0.36 -0.23 0.35 -0.22 0.37 -0.26 0.49 -0.22 0.43 -0.18 0.42 -0.22 0.53 -0.17 0.46 -0.15 0.47 -0.17 0.55 -0.13 0.53 -0.13 0.56 -0.11 0.53 -0.09 0.55 -0.07 0.57 -0.06 0.58 -0.05 0.62 -0.03 0.64 -0.01 0.59 -11.52 0 0.03 -1.67 0.07 -1.58 0.11 -1.58 0.16 -1.56 0.21 -1.55 0.25 -1.53 0.29 -1.51 0.33 -1.44 0.37 -1.39 0.39 -1.35 0.45 -1.37 0.49 -1.3 0.48 -1.19 0.56 -1.24 0.58 -1.15 0.56 -1.03 0.64 -1.09 0.67 -1.01 0.68 -0.94 0.7 -0.88 0.72 -0.82 0.77 -0.79 0.77 -0.69 0.8 -0.65 0.82 -0.58 0.85 -0.51 0.86 -0.43 0.86 -0.37 0.9 -0.29 0.91 -0.21 0.91 -0.12 0.92 -0.04 0 0zm335.55 19.94l-335.55 0 0 -19.94 335.55 0 0 0 0 19.94zm18.11 11.92l-11.52 0 0 0 -0.02 -0.67 -0.02 -0.64 -0.04 -0.61 -0.06 -0.66 -0.06 -0.5 -0.11 -0.62 -0.1 -0.6 -0.11 -0.48 -0.15 -0.6 -0.15 -0.54 -0.12 -0.4 -0.17 -0.45 -0.2 -0.52 -0.2 -0.46 -0.21 -0.42 -0.2 -0.39 -0.22 -0.37 -0.24 -0.38 -0.25 -0.35 -0.24 -0.31 -0.26 -0.29 -0.25 -0.26 -0.29 -0.25 -0.31 -0.25 -0.29 -0.2 -0.28 -0.18 -0.32 -0.14 -0.34 -0.15 -0.32 -0.09 -0.33 -0.08 -0.35 -0.04 -0.38 -0.02 0 -19.94 0.94 0.04 0.93 0.12 0.93 0.2 0.92 0.29 0.88 0.35 0.88 0.44 0.88 0.52 0.83 0.58 0.79 0.63 0.79 0.71 0.79 0.8 0.74 0.85 0.72 0.91 0.67 0.95 0.64 0.98 0.64 1.09 0.6 1.13 0.55 1.16 0.52 1.2 0.48 1.2 0.47 1.31 0.46 1.44 0.37 1.36 0.33 1.32 0.33 1.52 0.26 1.44 0.23 1.46 0.2 1.62 0.14 1.48 0.12 1.59 0.06 1.58 0.02 1.59 0 0zm-18.11 31.78l0 -19.94 0 0 0.38 -0.02 0.35 -0.04 0.33 -0.08 0.32 -0.09 0.34 -0.15 0.32 -0.14 0.28 -0.18 0.29 -0.2 0.31 -0.25 0.31 -0.27 0.25 -0.25 0.24 -0.27 0.24 -0.31 0.25 -0.35 0.24 -0.38 0.22 -0.37 0.2 -0.39 0.22 -0.45 0.2 -0.44 0.19 -0.5 0.17 -0.45 0.13 -0.42 0.15 -0.53 0.15 -0.6 0.1 -0.48 0.1 -0.58 0.11 -0.61 0.06 -0.49 0.06 -0.65 0.04 -0.61 0.02 -0.63 0.02 -0.66 11.52 0 -0.02 1.58 -0.06 1.59 -0.12 1.57 -0.14 1.49 -0.2 1.61 -0.23 1.47 -0.26 1.44 -0.34 1.5 -0.33 1.32 -0.37 1.35 -0.45 1.42 -0.47 1.31 -0.49 1.22 -0.52 1.2 -0.54 1.13 -0.6 1.13 -0.64 1.09 -0.64 0.98 -0.67 0.95 -0.72 0.91 -0.76 0.87 -0.79 0.79 -0.77 0.69 -0.79 0.63 -0.83 0.58 -0.88 0.52 -0.88 0.44 -0.88 0.35 -0.92 0.29 -0.93 0.2 -0.93 0.12 -0.94 0.04 0 0z"/>
   </g>
   <g>
    <path class="fil0" d="M1471.4 528.86l-335.55 0c-6.63,0 -12.35,-9.79 -12.35,-21.81 0,-12.1 5.72,-21.89 12.35,-21.89l335.55 0c7.05,0 12.35,9.79 12.35,21.89 0,12.02 -5.3,21.81 -12.35,21.81z"/>
    <path id="_1_9" class="fil0" d="M1135.85 518.89l335.55 0 0 19.94 -335.55 0 0 0 0 -19.94zm-18.11 -11.84l11.52 0 0 0 0.01 0.58 0.03 0.64 0.05 0.6 0.06 0.58 0.07 0.56 0.09 0.55 0.1 0.5 0.13 0.56 0.14 0.54 0.16 0.53 0.16 0.49 0.17 0.46 0.21 0.51 0.18 0.4 0.23 0.46 0.26 0.49 0.22 0.37 0.23 0.35 0.26 0.36 0.28 0.34 0.26 0.3 0.27 0.26 0.31 0.29 0.28 0.23 0.3 0.2 0.29 0.19 0.3 0.15 0.32 0.13 0.28 0.09 0.31 0.07 0.31 0.04 0.32 0.02 0 19.94 -0.92 -0.04 -0.91 -0.12 -0.91 -0.21 -0.9 -0.29 -0.86 -0.37 -0.86 -0.43 -0.85 -0.51 -0.82 -0.58 -0.8 -0.65 -0.75 -0.67 -0.77 -0.78 -0.74 -0.84 -0.7 -0.88 -0.68 -0.94 -0.67 -1.01 -0.64 -1.09 -0.56 -1.03 -0.57 -1.12 -0.56 -1.24 -0.49 -1.21 -0.49 -1.3 -0.44 -1.35 -0.4 -1.35 -0.36 -1.38 -0.33 -1.42 -0.3 -1.52 -0.25 -1.53 -0.21 -1.54 -0.16 -1.56 -0.11 -1.58 -0.07 -1.58 -0.03 -1.66 0 0zm18.11 -31.86l0 19.94 0 0 -0.32 0.02 -0.31 0.04 -0.31 0.07 -0.28 0.09 -0.32 0.13 -0.3 0.15 -0.29 0.19 -0.3 0.2 -0.28 0.23 -0.29 0.27 -0.27 0.27 -0.28 0.32 -0.28 0.34 -0.26 0.36 -0.23 0.35 -0.22 0.37 -0.26 0.49 -0.22 0.43 -0.18 0.42 -0.22 0.53 -0.17 0.46 -0.15 0.47 -0.17 0.55 -0.13 0.53 -0.13 0.56 -0.11 0.53 -0.09 0.55 -0.07 0.57 -0.06 0.58 -0.05 0.62 -0.03 0.64 -0.01 0.59 -11.52 0 0.03 -1.67 0.07 -1.58 0.11 -1.58 0.16 -1.56 0.21 -1.55 0.25 -1.53 0.29 -1.51 0.33 -1.44 0.37 -1.39 0.39 -1.35 0.45 -1.37 0.49 -1.3 0.48 -1.19 0.56 -1.24 0.58 -1.15 0.56 -1.03 0.64 -1.09 0.67 -1.01 0.68 -0.94 0.7 -0.88 0.72 -0.82 0.77 -0.79 0.77 -0.69 0.8 -0.65 0.82 -0.58 0.85 -0.51 0.86 -0.43 0.86 -0.37 0.9 -0.29 0.91 -0.21 0.91 -0.12 0.92 -0.04 0 0zm335.55 19.94l-335.55 0 0 -19.94 335.55 0 0 0 0 19.94zm18.11 11.92l-11.52 0 0 0 -0.02 -0.67 -0.02 -0.64 -0.04 -0.61 -0.06 -0.66 -0.06 -0.5 -0.11 -0.62 -0.1 -0.6 -0.11 -0.48 -0.15 -0.6 -0.15 -0.54 -0.12 -0.4 -0.17 -0.45 -0.2 -0.52 -0.2 -0.46 -0.21 -0.42 -0.2 -0.39 -0.22 -0.37 -0.24 -0.38 -0.25 -0.35 -0.24 -0.31 -0.26 -0.29 -0.25 -0.26 -0.29 -0.25 -0.31 -0.25 -0.29 -0.2 -0.28 -0.18 -0.32 -0.14 -0.34 -0.15 -0.32 -0.09 -0.33 -0.08 -0.35 -0.04 -0.38 -0.02 0 -19.94 0.94 0.04 0.93 0.12 0.93 0.2 0.92 0.29 0.88 0.35 0.88 0.44 0.88 0.52 0.83 0.58 0.79 0.63 0.79 0.71 0.79 0.8 0.74 0.85 0.72 0.91 0.67 0.95 0.64 0.98 0.64 1.09 0.6 1.13 0.55 1.16 0.52 1.2 0.48 1.2 0.47 1.31 0.46 1.44 0.37 1.36 0.33 1.32 0.33 1.52 0.26 1.44 0.23 1.46 0.2 1.62 0.14 1.48 0.12 1.59 0.06 1.58 0.02 1.59 0 0zm-18.11 31.78l0 -19.94 0 0 0.38 -0.02 0.35 -0.04 0.33 -0.08 0.32 -0.09 0.34 -0.15 0.32 -0.14 0.28 -0.18 0.29 -0.2 0.31 -0.25 0.31 -0.27 0.25 -0.25 0.24 -0.27 0.24 -0.31 0.25 -0.35 0.24 -0.38 0.22 -0.37 0.2 -0.39 0.22 -0.45 0.2 -0.44 0.19 -0.5 0.17 -0.45 0.13 -0.42 0.15 -0.53 0.15 -0.6 0.1 -0.48 0.1 -0.58 0.11 -0.61 0.06 -0.49 0.06 -0.65 0.04 -0.61 0.02 -0.63 0.02 -0.66 11.52 0 -0.02 1.58 -0.06 1.59 -0.12 1.57 -0.14 1.49 -0.2 1.61 -0.23 1.47 -0.26 1.44 -0.34 1.5 -0.33 1.32 -0.37 1.35 -0.45 1.42 -0.47 1.31 -0.49 1.22 -0.52 1.2 -0.54 1.13 -0.6 1.13 -0.64 1.09 -0.64 0.98 -0.67 0.95 -0.72 0.91 -0.76 0.87 -0.79 0.79 -0.77 0.69 -0.79 0.63 -0.83 0.58 -0.88 0.52 -0.88 0.44 -0.88 0.35 -0.92 0.29 -0.93 0.2 -0.93 0.12 -0.94 0.04 0 0z"/>
   </g>
  </g>
 </g>
</svg>
