<?xml version="1.0" encoding="UTF-8"?>
<!DOCTYPE svg PUBLIC "-//W3C//DTD SVG 1.1//EN" "http://www.w3.org/Graphics/SVG/1.1/DTD/svg11.dtd">
<!-- Creator: CorelDRAW -->
<svg xmlns="http://www.w3.org/2000/svg" xml:space="preserve" width="16.814mm" height="16.6134mm" version="1.1" style="shape-rendering:geometricPrecision; text-rendering:geometricPrecision; image-rendering:optimizeQuality; fill-rule:evenodd; clip-rule:evenodd"
viewBox="0 0 1681.4 1661.34"
 xmlns:xlink="http://www.w3.org/1999/xlink"
 xmlns:xodm="http://www.corel.com/coreldraw/odm/2003">
 <defs>
  <style type="text/css">
   <![CDATA[
    .str0 {stroke:#366F64;stroke-width:24.99;stroke-miterlimit:10}
    .str2 {stroke:#086351;stroke-width:20;stroke-miterlimit:10}
    .str1 {stroke:#086351;stroke-width:20;stroke-miterlimit:10}
    .fil1 {fill:#086351;fill-rule:nonzero}
    .fil0 {fill:#366F64;fill-rule:nonzero}
   ]]>
  </style>
 </defs>
 <g id="Слой_x0020_1">
  <metadata id="CorelCorpID_0Corel-Layer"/>
  <path class="fil0 str0" d="M1616.68 342.05l-1566.17 0 0 -283.86 1566.17 0 0 283.86zm0 1262.17l-1566.17 0 0 -1216.93 1566.17 0 0 1216.93zm22.56 -1591.19l-1611.35 0c-12.42,0 -22.53,10.12 -22.53,22.63l0 1591.09c0,12.51 10.11,22.62 22.53,22.62l1611.35 0c12.41,0 22.53,-10.11 22.53,-22.62l0 -1591.09c0,-12.51 -10.12,-22.63 -22.53,-22.63z"/>
  <path class="fil0" d="M185.59 173.2c16.1,0 29.08,13.07 29.08,29.07 0,16.1 -12.98,29.15 -29.08,29.15 -16.01,0 -28.99,-13.05 -28.99,-29.15 0,-16 12.98,-29.07 28.99,-29.07zm0 103.31c41.02,0 74.32,-33.3 74.32,-74.24 0,-40.86 -33.3,-74.14 -74.32,-74.14 -40.93,0 -74.23,33.28 -74.23,74.14 0,40.94 33.3,74.24 74.23,74.24z"/>
  <path class="fil0" d="M373.25 173.2c16.08,0 29.15,13.07 29.15,29.07 0,16.1 -13.07,29.15 -29.15,29.15 -16.1,0 -29.08,-13.05 -29.08,-29.15 0,-16 12.98,-29.07 29.08,-29.07zm0 103.31c40.93,0 74.23,-33.3 74.23,-74.24 0,-40.86 -33.3,-74.14 -74.23,-74.14 -40.86,0 -74.17,33.28 -74.17,74.14 0,40.94 33.31,74.24 74.17,74.24z"/>
  <path class="fil0" d="M560.89 173.2c16.01,0 29.08,13.07 29.08,29.07 0,16.1 -13.07,29.15 -29.08,29.15 -16.01,0 -29.06,-13.05 -29.06,-29.15 0,-16 13.05,-29.07 29.06,-29.07zm0 103.31c40.95,0 74.16,-33.3 74.16,-74.24 0,-40.86 -33.21,-74.14 -74.16,-74.14 -40.93,0 -74.24,33.28 -74.24,74.14 0,40.94 33.31,74.24 74.24,74.24z"/>
  <path class="fil1 str1" d="M941.05 839.77l366.83 0 0 133.62c0,6.62 5.34,11.98 11.99,11.98l139.01 0 0 502.14 -517.83 0 0 -647.74zm390.77 16.16l109.38 105.47 -109.38 0 0 -105.47zm139.03 655.51c6.57,0 11.95,-5.36 11.95,-11.98l0 -526.07 -3.69 -8.62 -150.8 -145.39 0 -0.04 -0.17 -0.12 -1.76 -1.14 -1.99 -1.27 -4.52 -0.97 -390.77 0c-6.6,0 -11.95,5.36 -11.95,11.99l0 671.63c0,6.62 5.35,11.98 11.95,11.98l541.75 0z"/>
  <path class="fil1 str1" d="M1286.73 1111.52l-146.48 146.45 -25.6 -37.56c-3.71,-5.45 -11.11,-6.85 -16.6,-3.13 -5.45,3.71 -6.89,11.14 -3.14,16.58l33.72 49.51 8.76 5.16 1.13 0.03 8.46 -3.5 156.64 -156.66c4.66,-4.65 4.66,-12.24 0,-16.88 -4.66,-4.68 -12.25,-4.68 -16.89,0z"/>
  <path class="fil1 str2" d="M806.11 474.56l-531.56 1.63c-5.51,0.03 -9.99,4.51 -9.95,10.01 0,5.58 4.51,10.02 10.02,10.02l521.51 -1.62 -1.63 604.8 -613.23 0 0 -513.22 526.56 0 0 433.25c0,5.54 4.48,10.02 9.98,10.02 5.54,0 10.02,-4.48 10.02,-10.02l0 -433.53c0,-10.87 -8.82,-19.69 -19.72,-19.69l-528.92 0c-9.88,0 -17.89,8.01 -17.89,17.93l0 515.37c0,11.01 8.89,19.9 19.87,19.9l613.48 0c10.9,0 19.79,-8.86 19.82,-19.83l1.66 -615c0,-5.54 -4.48,-10.05 -10.02,-10.02z"/>
  <path class="fil1 str2" d="M441.23 825.44l-179.98 0 0 -151.84 179.98 0 0 151.84zm19.97 5.11l0 -162.1c0,-8.18 -6.63,-14.85 -14.82,-14.85l-192.23 0 0 0.07c-8.04,0.25 -14.46,6.91 -14.39,14.96l1.38 162.03c0.07,8.15 6.7,14.74 14.85,14.74l190.39 0c8.19,0 14.82,-6.63 14.82,-14.85z"/>
  <path class="fil1 str2" d="M655.33 654.94l-151.23 0c-5.51,0 -9.99,4.48 -9.99,10.02 0,5.5 4.48,9.98 9.99,9.98l151.23 0c5.54,0 10.02,-4.48 10.02,-9.98 0,-5.54 -4.48,-10.02 -10.02,-10.02z"/>
  <path class="fil1 str2" d="M276.66 944.85l384.92 0c5.5,0 9.98,-4.48 9.98,-9.98 0,-5.51 -4.48,-9.99 -9.98,-9.99l-384.92 0c-5.5,0 -9.98,4.48 -9.98,9.99 0,5.5 4.48,9.98 9.98,9.98z"/>
  <path class="fil1 str2" d="M277.93 1034.84l389.89 0c5.54,0 10.02,-4.48 10.02,-9.98 0,-5.5 -4.48,-9.98 -10.02,-9.98l-389.89 0c-5.54,0 -10.02,4.48 -10.02,9.98 0,5.5 4.48,9.98 10.02,9.98z"/>
  <path class="fil1 str2" d="M505.37 747.44c-5.54,0 -10.02,4.48 -10.02,9.98 0,5.5 4.48,9.98 10.02,9.98l151.23 0c5.51,0 9.99,-4.48 9.99,-9.98 0,-5.5 -4.48,-9.98 -9.99,-9.98l-151.23 0z"/>
  <path class="fil1 str2" d="M501.63 856.16l151.2 0c5.5,0 9.98,-4.48 9.98,-10.05 0,-5.5 -4.48,-9.99 -9.98,-9.99l-151.2 0c-5.5,0 -9.99,4.49 -9.99,9.99 0,5.57 4.49,10.05 9.99,10.05z"/>
 </g>
</svg>
