<svg width="28" height="16" viewBox="0 0 28 16" fill="none" xmlns="http://www.w3.org/2000/svg">
<g id="&#208;&#161;&#208;&#187;&#208;&#190;&#208;&#185;_x0020_1">
<path id="Vector" fill-rule="evenodd" clip-rule="evenodd" d="M22.9954 2.11616C22.9954 3.28517 23.9429 4.23232 25.1116 4.23232C26.2802 4.23232 27.2277 3.28517 27.2277 2.11616C27.2277 0.947528 26.2802 0 25.1116 0C23.9429 0 22.9954 0.947528 22.9954 2.11616ZM17.2467 7.8652C17.2467 9.03383 18.1939 9.98135 19.3625 9.98135C20.5315 9.98135 21.4787 9.03383 21.4787 7.8652C21.4787 6.69657 20.5315 5.74904 19.3625 5.74904C18.1939 5.74904 17.2467 6.69657 17.2467 7.8652ZM17.2467 2.11616C17.2467 3.28517 18.1939 4.23232 19.3625 4.23232C20.5315 4.23232 21.4787 3.28517 21.4787 2.11616C21.4787 0.947528 20.5315 0 19.3625 0C18.1939 0 17.2467 0.947528 17.2467 2.11616ZM11.4977 13.6139C11.4977 14.7829 12.4452 15.7304 13.6139 15.7304C14.7825 15.7304 15.73 14.7829 15.73 13.6139C15.73 12.4452 14.7825 11.4977 13.6139 11.4977C12.4452 11.4977 11.4977 12.4452 11.4977 13.6139ZM11.4977 7.8652C11.4977 9.03383 12.4452 9.98135 13.6139 9.98135C14.7825 9.98135 15.73 9.03383 15.73 7.8652C15.73 6.69657 14.7825 5.74904 13.6139 5.74904C12.4452 5.74904 11.4977 6.69657 11.4977 7.8652ZM11.4977 2.11616C11.4977 3.28517 12.4452 4.23232 13.6139 4.23232C14.7825 4.23232 15.73 3.28517 15.73 2.11616C15.73 0.947528 14.7825 0 13.6139 0C12.4452 0 11.4977 0.947528 11.4977 2.11616ZM5.74866 7.8652C5.74866 9.03383 6.69619 9.98135 7.8652 9.98135C9.03383 9.98135 9.98098 9.03383 9.98098 7.8652C9.98098 6.69657 9.03383 5.74904 7.8652 5.74904C6.69619 5.74904 5.74866 6.69657 5.74866 7.8652ZM5.74866 2.11616C5.74866 3.28517 6.69619 4.23232 7.8652 4.23232C9.03383 4.23232 9.98098 3.28517 9.98098 2.11616C9.98098 0.947528 9.03383 0 7.8652 0C6.69619 0 5.74866 0.947528 5.74866 2.11616ZM0 2.11616C0 3.28517 0.947527 4.23232 2.11616 4.23232C3.28479 4.23232 4.23232 3.28517 4.23232 2.11616C4.23232 0.947528 3.28479 0 2.11616 0C0.947527 0 0 0.947528 0 2.11616Z" fill="url(#paint0_linear_106_327)"/>
</g>
<defs>
<linearGradient id="paint0_linear_106_327" x1="27.3369" y1="13.8372" x2="1.35874" y2="10.938" gradientUnits="userSpaceOnUse">
<stop stop-color="#2C665A"/>
<stop offset="1" stop-color="#019985"/>
</linearGradient>
</defs>
</svg>
