<svg width="110" height="128" viewBox="0 0 110 128" fill="none" xmlns="http://www.w3.org/2000/svg">
<g id="&#208;&#161;&#208;&#187;&#208;&#190;&#208;&#185;_x0020_1">
<g id="_2729865796592">
<path id="Vector" fill-rule="evenodd" clip-rule="evenodd" d="M55 10.2992L78.0403 23.6014L101.081 36.9041V63.509V90.1139L78.0403 103.417L55 116.719L31.9597 103.417L8.91887 90.1139V63.509V36.9041L31.9597 23.6014L55 10.2992ZM55 0L82.4998 15.8775L110 31.755V63.509V95.2635L82.4998 111.141L55 127.018L27.5002 111.141L0 95.2635V63.509V31.755L27.5002 15.8775L55 0ZM55 5.49302L80.1224 19.9974L105.243 34.5017V63.509V92.5172L80.1224 107.022L55 121.525L29.8776 107.022L4.75708 92.5172V63.509V34.5017L29.8776 19.9974L55 5.49302Z" fill="url(#paint0_linear_108_26)"/>
<path id="Vector_2" d="M23.645 92.2061L32.9232 66.7754L53.1994 93.5811L63.1654 49.2488L88.2517 67.4627L92.9447 45.3885" stroke="#FEFEFE" stroke-width="2.00013" stroke-miterlimit="22.9256" stroke-linecap="round"/>
<path id="Vector_3" d="M32.923 70.9579C35.2329 70.9579 37.1055 69.0853 37.1055 66.7754C37.1055 64.4655 35.2329 62.5929 32.923 62.5929C30.613 62.5929 28.7405 64.4655 28.7405 66.7754C28.7405 69.0853 30.613 70.9579 32.923 70.9579Z" fill="#FEFEFE"/>
<path id="Vector_4" d="M53.1993 97.7637C55.5093 97.7637 57.3818 95.8911 57.3818 93.5812C57.3818 91.2712 55.5093 89.3987 53.1993 89.3987C50.8894 89.3987 49.0168 91.2712 49.0168 93.5812C49.0168 95.8911 50.8894 97.7637 53.1993 97.7637Z" fill="#FEFEFE"/>
<path id="Vector_5" d="M63.1649 53.4313C65.4748 53.4313 67.3474 51.5587 67.3474 49.2488C67.3474 46.9389 65.4748 45.0663 63.1649 45.0663C60.855 45.0663 58.9824 46.9389 58.9824 49.2488C58.9824 51.5587 60.855 53.4313 63.1649 53.4313Z" fill="#FEFEFE"/>
<path id="Vector_6" d="M88.2513 71.6452C90.5613 71.6452 92.4338 69.7726 92.4338 67.4627C92.4338 65.1528 90.5613 63.2802 88.2513 63.2802C85.9414 63.2802 84.0688 65.1528 84.0688 67.4627C84.0688 69.7726 85.9414 71.6452 88.2513 71.6452Z" fill="#FEFEFE"/>
<path id="Vector_7" fill-rule="evenodd" clip-rule="evenodd" d="M38.3249 24.8879H40.7365C41.5711 24.8879 42.2536 25.5708 42.2536 26.4055V28.5704C44.814 28.9702 46.9861 29.9917 48.7706 31.6351L46.0036 35.2781C44.9031 34.2614 43.6532 33.5476 42.2536 33.1373V38.0648C42.3644 38.0986 42.4761 38.1327 42.5884 38.1679C43.7443 38.5301 44.8183 38.9385 45.811 39.3937C46.8031 39.8493 47.6325 40.5616 48.2981 41.5307C48.9632 42.4997 49.296 43.6614 49.296 45.0158C49.296 47.2578 48.4965 49.0672 46.8966 50.4452C45.7305 51.4494 44.183 52.088 42.2536 52.3602V53.4357C42.2536 54.2703 41.5711 54.9533 40.7365 54.9533H38.3249C37.4903 54.9533 36.8073 54.2703 36.8073 53.4357V52.2489C34.0948 51.7654 31.8475 50.6152 30.0654 48.799L32.7626 45.0158C33.9483 46.2564 35.2964 47.1306 36.8073 47.6392V42.0581C35.912 41.7657 35.072 41.444 34.2865 41.0929C33.2943 40.6488 32.4649 39.9485 31.7993 38.991C31.1342 38.0335 30.8014 36.8661 30.8014 35.4881C30.8014 33.4797 31.6071 31.7925 33.2182 30.4266C34.2108 29.5852 35.4072 29.0029 36.8073 28.6798V26.4055C36.8073 25.5708 37.4903 24.8879 38.3249 24.8879ZM42.2536 43.503V47.8771C42.6047 47.7591 42.9144 47.605 43.1836 47.4152C43.896 46.9134 44.2519 46.3003 44.2519 45.5764C44.2519 44.9459 43.9196 44.4205 43.254 44C42.9539 43.8107 42.6206 43.6446 42.2536 43.503ZM36.8073 36.4441V33.3155L36.7563 33.3516C36.172 33.7716 35.8802 34.3437 35.8802 35.0676C35.8802 35.608 36.1894 36.0665 36.8073 36.4441Z" stroke="#FEFEFE" stroke-width="1.33342" stroke-miterlimit="22.9256"/>
</g>
</g>
<defs>
<linearGradient id="paint0_linear_108_26" x1="85.3029" y1="117.494" x2="77.6911" y2="15.26" gradientUnits="userSpaceOnUse">
<stop stop-color="#2C665A"/>
<stop offset="1" stop-color="#019985"/>
</linearGradient>
</defs>
</svg>
