<svg width="110" height="128" viewBox="0 0 110 128" fill="none" xmlns="http://www.w3.org/2000/svg">
<g id="&#208;&#161;&#208;&#187;&#208;&#190;&#208;&#185;_x0020_1">
<g id="_2766126541968">
<path id="Vector" fill-rule="evenodd" clip-rule="evenodd" d="M55 10.2992L78.0403 23.6014L101.081 36.9041V63.509V90.1139L78.0403 103.417L55 116.719L31.9597 103.417L8.91887 90.1139V63.509V36.9041L31.9597 23.6014L55 10.2992ZM55 0L82.4998 15.8775L110 31.755V63.509V95.263L82.4998 111.141L55 127.018L27.5002 111.141L0 95.263V63.509V31.755L27.5002 15.8775L55 0ZM55 5.49302L80.1224 19.9974L105.243 34.5012V63.509V92.5172L80.1224 107.021L55 121.525L29.8776 107.021L4.75708 92.5172V63.509V34.5012L29.8776 19.9974L55 5.49302Z" fill="url(#paint0_linear_108_19)"/>
<path id="Vector_2" d="M42.79 37.5635C45.2059 35.1148 48.5638 33.5963 52.2763 33.5963C56.0633 33.5963 59.4815 35.1765 61.9075 37.7128" stroke="#FEFEFE" stroke-width="2.00013" stroke-miterlimit="22.9256" stroke-linecap="round"/>
<path id="Vector_3" fill-rule="evenodd" clip-rule="evenodd" d="M77.1744 69.9807C78.7195 69.605 80.422 70.0491 81.577 71.2907L90.0918 80.4355C91.7915 82.2614 91.6884 85.1449 89.8625 86.8446H89.862C88.0362 88.5447 85.1526 88.4417 83.4534 86.6163L74.9391 77.4701C73.7832 76.2294 73.461 74.4998 73.947 72.9851L66.0627 64.5161C62.2645 67.4959 57.478 69.2732 52.2764 69.2732C39.9327 69.2732 29.9263 59.2663 29.9263 46.9225C29.9263 34.5788 39.9327 24.5719 52.2764 24.5719C64.6202 24.5719 74.627 34.5788 74.627 46.9225C74.627 52.4767 72.6003 57.5575 69.2472 61.4664L77.1744 69.9807ZM52.2764 27.7671C62.8555 27.7671 71.4319 36.3435 71.4319 46.9225C71.4319 57.5016 62.8555 66.078 52.2764 66.078C41.6974 66.078 33.1209 57.5016 33.1209 46.9225C33.1209 36.3435 41.6974 27.7671 52.2764 27.7671Z" fill="#FEFEFE"/>
<path id="Vector_4" fill-rule="evenodd" clip-rule="evenodd" d="M46.5 73.6319H48.9115C49.7462 73.6319 50.4292 74.3144 50.4292 75.1491V77.3145C52.989 77.7143 55.1612 78.7358 56.9461 80.3791L54.1787 84.0217C53.0781 83.005 51.8283 82.2917 50.4292 81.8813V86.8089C50.5399 86.8422 50.6512 86.8763 50.7634 86.9115C51.9193 87.2737 52.9934 87.6821 53.986 88.1377C54.9787 88.5929 55.8075 89.3052 56.4732 90.2743C57.1388 91.2433 57.4711 92.4055 57.4711 93.7598C57.4711 96.0014 56.6716 97.8113 55.0721 99.1893C53.9061 100.193 52.3581 100.832 50.4292 101.104V102.179C50.4292 103.014 49.7462 103.697 48.9115 103.697H46.5C45.6653 103.697 44.9824 103.014 44.9824 102.179V100.993C42.2703 100.509 40.023 99.3593 38.241 97.5426L40.9381 93.7598C42.1234 95.0005 43.4715 95.8747 44.9824 96.3828V90.8021C44.0875 90.5093 43.2471 90.1876 42.462 89.8365C41.4693 89.3929 40.6405 88.6926 39.9748 87.7346C39.3092 86.7771 38.9764 85.6097 38.9764 84.2322C38.9764 82.2238 39.7822 80.5366 41.3933 79.1702C42.3859 78.3288 43.5823 77.747 44.9824 77.4234V75.1491C44.9824 74.3144 45.6653 73.6319 46.5 73.6319ZM50.4292 92.2465V96.6207C50.7798 96.5027 51.09 96.3491 51.3587 96.1593C52.071 95.657 52.4274 95.0439 52.4274 94.32C52.4274 93.6895 52.0946 93.1641 51.429 92.7441C51.129 92.5543 50.7957 92.3886 50.4292 92.2465ZM44.9824 85.1877V82.0595L44.9313 82.0952C44.3476 82.5156 44.0552 83.0878 44.0552 83.8117C44.0552 84.3516 44.3644 84.8106 44.9824 85.1877Z" stroke="#FEFEFE" stroke-width="1.33342" stroke-miterlimit="22.9256"/>
</g>
</g>
<defs>
<linearGradient id="paint0_linear_108_19" x1="85.3029" y1="117.494" x2="77.6911" y2="15.26" gradientUnits="userSpaceOnUse">
<stop stop-color="#2C665A"/>
<stop offset="1" stop-color="#019985"/>
</linearGradient>
</defs>
</svg>
