<svg width="110" height="128" viewBox="0 0 110 128" fill="none" xmlns="http://www.w3.org/2000/svg">
<path fill-rule="evenodd" clip-rule="evenodd" d="M55 10.2987L78.0403 23.6014L101.081 36.9036V63.5085V90.1134L78.0403 103.416L55 116.718L31.9592 103.416L8.91887 90.1134V63.5085V36.9036L31.9592 23.6014L55 10.2987ZM55 0L82.4998 15.8775L110 31.7545V63.5085V95.263L82.4998 111.14L55 127.017L27.5002 111.14L0 95.263V63.5085V31.7545L27.5002 15.8775L55 0ZM55 5.49302L80.1224 19.9969L105.243 34.5012V63.5085V92.5167L80.1224 107.021L55 121.524L29.8771 107.021L4.7566 92.5167V63.5085V34.5012L29.8771 19.9969L55 5.49302Z" fill="url(#paint0_linear_108_3)"/>
<path d="M55 89.2537C69.219 89.2537 80.7457 77.727 80.7457 63.508C80.7457 49.2891 69.219 37.7624 55 37.7624C40.7811 37.7624 29.2544 49.2891 29.2544 63.508C29.2544 77.727 40.7811 89.2537 55 89.2537Z" stroke="#FEFEFE" stroke-width="2.00013" stroke-miterlimit="22.9256"/>
<path d="M54.9998 37.7624V63.508L73.3986 81.5168" stroke="#FEFEFE" stroke-width="2.00013" stroke-miterlimit="22.9256"/>
<path d="M63.953 60.336C64.6815 60.336 65.2722 59.7454 65.2722 59.0168C65.2722 58.2883 64.6815 57.6976 63.953 57.6976C63.2244 57.6976 62.6338 58.2883 62.6338 59.0168C62.6338 59.7454 63.2244 60.336 63.953 60.336Z" fill="#EBECEC"/>
<path d="M67.2948 59.523C67.5743 59.523 67.801 59.2964 67.801 59.0168C67.801 58.7373 67.5743 58.5106 67.2948 58.5106C67.0152 58.5106 66.7886 58.7373 66.7886 59.0168C66.7886 59.2964 67.0152 59.523 67.2948 59.523Z" fill="#EBECEC"/>
<path d="M70.6366 59.523C70.9161 59.523 71.1428 59.2964 71.1428 59.0168C71.1428 58.7373 70.9161 58.5106 70.6366 58.5106C70.357 58.5106 70.1304 58.7373 70.1304 59.0168C70.1304 59.2964 70.357 59.523 70.6366 59.523Z" fill="#EBECEC"/>
<path d="M51.6203 68.6658H42.4664C41.9342 68.6658 41.5027 69.0972 41.5027 69.6293C41.5027 70.1615 41.9342 70.5928 42.4664 70.5928H51.6203C52.1526 70.5928 52.5841 70.1615 52.5841 69.6293C52.5841 69.0972 52.1526 68.6658 51.6203 68.6658Z" fill="#EBECEC"/>
<path d="M47.1113 72.9418H42.0368C41.7418 72.9418 41.5027 73.3732 41.5027 73.9053C41.5027 74.4374 41.7418 74.8688 42.0368 74.8688H47.1113C47.4063 74.8688 47.6454 74.4374 47.6454 73.9053C47.6454 73.3732 47.4063 72.9418 47.1113 72.9418Z" fill="#EBECEC"/>
<path d="M77.1274 85.7773L79.17 88.6439H83.5784" stroke="#FEFEFE" stroke-width="2.00013" stroke-miterlimit="22.9256" stroke-linecap="round"/>
<path d="M76.0063 40.7408L78.0489 37.8746H82.4578" stroke="#FEFEFE" stroke-width="2.00013" stroke-miterlimit="22.9256" stroke-linecap="round"/>
<path d="M67.2948 60.336C68.0233 60.336 68.614 59.7454 68.614 59.0168C68.614 58.2883 68.0233 57.6976 67.2948 57.6976C66.5662 57.6976 65.9756 58.2883 65.9756 59.0168C65.9756 59.7454 66.5662 60.336 67.2948 60.336Z" fill="#EBECEC"/>
<path d="M70.6368 60.336C71.3654 60.336 71.956 59.7454 71.956 59.0168C71.956 58.2883 71.3654 57.6976 70.6368 57.6976C69.9082 57.6976 69.3176 58.2883 69.3176 59.0168C69.3176 59.7454 69.9082 60.336 70.6368 60.336Z" fill="#EBECEC"/>
<defs>
<linearGradient id="paint0_linear_108_3" x1="85.3024" y1="117.494" x2="77.6911" y2="15.26" gradientUnits="userSpaceOnUse">
<stop stop-color="#2C665A"/>
<stop offset="1" stop-color="#019985"/>
</linearGradient>
</defs>
</svg>
