<svg width="69" height="61" viewBox="0 0 69 61" fill="none" xmlns="http://www.w3.org/2000/svg">
<g id="&#208;&#161;&#208;&#187;&#208;&#190;&#208;&#185;_x0020_1">
<path id="Vector" fill-rule="evenodd" clip-rule="evenodd" d="M34.0157 60.6554C38.3006 60.6554 42.5858 60.6554 46.8703 60.6554C50.6971 60.3375 53.3352 58.6972 55.2918 55.4438C59.0808 48.8969 62.8702 42.3496 66.6588 35.8027C67.5923 34.1473 67.9174 32.976 68.0315 30.3277C67.9174 27.6794 67.5923 26.5081 66.6588 24.8527C62.8702 18.3058 59.0808 11.7585 55.2918 5.21159C53.3352 1.95817 50.6971 0.317858 46.8703 0C42.5858 0 38.3006 0 34.0157 0C29.7309 0 25.446 0 21.1608 0C17.3348 0.317858 14.6963 1.95817 12.7397 5.21159C8.95068 11.7585 5.1617 18.3058 1.37272 24.8527C0.439181 26.5081 0.114142 27.6794 0 30.3277C0.114142 32.976 0.439181 34.1473 1.37272 35.8027C5.1617 42.3496 8.95068 48.8969 12.7397 55.4438C14.6963 58.6972 17.3348 60.3375 21.1608 60.6554C25.446 60.6554 29.7309 60.6554 34.0157 60.6554ZM34.0157 58.515C37.9982 58.515 41.9811 58.515 45.9636 58.515C49.5197 58.2202 51.9723 56.6956 53.7906 53.6712C57.3124 47.5865 60.8341 41.5015 64.3555 35.4164C65.2233 33.8774 65.5253 32.7889 65.6311 30.3277C65.5253 27.8665 65.2233 26.7776 64.3555 25.2389C60.8341 19.1535 57.3124 13.0689 53.7906 6.98381C51.9723 3.95981 49.5197 2.43515 45.9636 2.13997C41.9811 2.13997 37.9982 2.13997 34.0157 2.13997C30.0333 2.13997 26.0504 2.13997 22.0679 2.13997C18.5117 2.43515 16.0596 3.95981 14.2409 6.98381C10.7191 13.0689 7.19735 19.1535 3.67597 25.2389C2.80857 26.7776 2.5062 27.8665 2.4 30.3277C2.5062 32.7889 2.80857 33.8774 3.67597 35.4164C7.19735 41.5015 10.7191 47.5865 14.2409 53.6712C16.0596 56.6956 18.5117 58.2202 22.0679 58.515C26.0504 58.515 30.0333 58.515 34.0157 58.515Z" fill="#FEFEFE"/>
<path id="Vector_2" fill-rule="evenodd" clip-rule="evenodd" d="M21.7005 45.0561C21.1502 45.2508 21.3184 45.3487 20.7213 45.0675C20.3728 44.4435 20.3618 44.7092 20.7213 44.0723C21.5233 43.7832 21.8389 44.129 21.7005 45.0561ZM37.3085 28.464C37.3361 28.5105 37.3761 28.5672 37.389 28.6042C37.6603 29.3752 37.6105 32.7129 37.3493 33.3925L33.4602 33.47C32.7882 33.4549 32.7504 33.6129 32.5209 33.2134L32.5002 28.5044L37.3085 28.464ZM30.9162 34.8231L38.9042 34.8518V26.8645L30.8942 26.8932L30.9162 34.8231ZM49.2643 45.1162C47.6001 45.4961 47.6126 43.6592 49.316 44.0273L49.2643 45.1162ZM42.9679 39.1767C42.7026 39.4651 43.3867 39.3528 42.4418 39.4726L26.338 39.4435C26.3116 39.151 26.0402 23.1783 26.4499 22.3177L43.5462 22.4247V35.4962C43.5462 37.471 43.8822 38.8426 42.9679 39.1767ZM16.3117 38.0757C15.4658 38.4344 14.6846 37.9759 15.2307 37.1841C15.5633 36.7026 16.4723 36.8874 16.3117 38.0757ZM15.7448 27.6888C16.588 27.6121 16.0237 27.7448 16.2244 27.8392C16.902 29.4319 14.637 29.3034 15.2795 27.8676C15.5191 27.733 14.9851 27.7572 15.7448 27.6888ZM48.2982 16.4462C49.3591 16.2225 49.5466 16.5978 49.1905 17.585L48.268 17.5094C47.9645 16.8869 47.9524 17.0434 48.2982 16.4462ZM27.9628 11.0642C28.1246 10.7584 29.0861 10.3106 29.0804 11.867L28.1068 11.7815C28.0993 11.7683 27.6529 11.6477 27.9628 11.0642ZM24.7533 20.7413C24.7533 21.6219 24.8806 22.6224 24.5994 23.4319C23.9316 23.5381 22.8983 23.6542 22.303 23.3201C20.4476 22.1401 20.8762 23.2747 19.1376 23.4198C17.8961 23.5238 16.3453 23.3768 14.9975 23.4342L14.976 25.931C14.5497 26.7723 13.1229 26.8199 13.5473 28.8869C13.7601 29.9255 14.8581 30.7586 16.1204 30.5669C17.2789 30.3912 18.1837 29.3148 17.9747 27.9424C17.6878 26.047 16.5804 27.2999 16.5804 25.1323C20.0837 24.7253 20.0636 25.4468 20.8267 25.6275C22.2444 25.962 21.2784 24.8145 24.6716 25.1206V30.113C21.4171 30.381 22.6243 29.7339 21.2772 29.5725C20.0595 29.4278 19.5129 30.4532 19.83 31.5708C20.595 33.4152 21.5819 31.5587 24.6716 31.8667V36.861C21.2795 37.1048 22.58 36.4706 21.2863 36.3247C19.923 36.1716 21.3184 36.8988 17.8314 36.8988C17.0275 34.6363 13.4986 35.0676 13.4933 37.6906C13.4872 40.1106 16.7728 40.8971 17.8651 38.5043C21.7557 38.5043 19.6059 39.2353 21.2931 39.0762C22.6292 38.9507 21.2077 38.3161 24.666 38.5357L24.6716 41.0854L27.6363 41.1564L27.4681 43.6082C26.7473 44.1812 24.401 43.8467 23.2569 43.8467C22.0426 41.5037 18.9018 42.1708 18.8863 44.6653C18.8708 47.054 21.7546 47.8454 23.2978 45.5048C24.1398 45.5048 25.957 45.4016 26.685 45.5089C27.9696 45.6998 27.1491 46.5003 29.1303 46.2248C29.7411 45.5376 30.1444 45.1914 29.661 44.1067C29.0944 42.8334 29.3046 42.8122 29.2736 41.2437C29.3159 41.2195 29.3696 41.1817 29.4009 41.1708L34.3774 41.1693C34.4685 41.8541 34.5925 43.0825 34.252 43.6849C32.9616 45.9662 35.0256 46.958 36.1795 45.9746C37.542 44.8146 35.4837 44.2507 36.1398 41.1473H41.0132C41.3397 42.8062 41.1039 43.183 40.6545 44.2843C40.2172 45.3574 40.7694 46.2493 41.8526 46.2992C42.9763 46.351 43.6237 45.5006 43.2729 44.4389C41.8227 40.0433 43.3678 41.7562 44.6321 40.2788C46.0637 38.6056 43.8346 38.3785 47.9036 38.716L47.9225 42.4706C47.1394 43.1868 46.2123 43.5893 46.5887 45.2304C47.1077 47.4951 50.8611 47.6084 51.0293 44.849C51.1427 43.0106 50.0186 43.0911 49.6086 42.2714C49.6086 41.3046 49.4279 39.8302 49.7114 38.97C50.146 37.6505 50.5478 38.4166 49.883 36.6248C47.277 35.647 49.7666 37.0802 45.2546 36.875V31.8501C47.599 31.6966 47.0785 32.0799 48.4641 32.3524C50.9352 32.8388 50.6619 28.7221 48.2139 29.6969C47.3348 30.0469 48.2793 30.2891 45.2546 30.1277V25.1036C45.7183 25.0768 46.597 25.0216 47.0355 25.0745C47.5351 25.1354 50.3365 26.6975 50.208 24.1519C50.1581 23.1591 49.2831 22.5521 48.2328 22.9466C46.8525 23.4637 47.198 23.5083 45.2546 23.3877V20.7239H42.8024C42.7381 19.8089 42.5775 18.514 43.076 17.8409L46.4273 17.8148C47.1904 18.3946 47.2535 19.5349 49.1996 19.1996C51.6454 18.7778 51.5588 15.0142 48.9982 14.7455C47.5226 14.5905 47.1133 15.5531 46.4273 16.1533C45.4692 16.156 43.985 16.3351 43.1407 16.0528C41.8454 15.62 42.5231 15.2084 40.7683 15.8865C39.8117 18.5303 41.3344 16.0392 41.0219 20.7179H36.0223C35.8806 19.1562 35.8481 18.8761 36.3836 17.6655C37.4846 15.1756 33.2519 14.7666 33.7482 17.2853C33.97 18.4112 34.5422 17.6254 34.2712 20.7179H29.2755C29.0733 18.1671 29.7184 18.3054 29.8227 17.1247C29.898 16.289 29.5105 16.2036 29.3446 15.6915C28.4031 12.7831 30.9989 13.525 30.6334 11.0408C30.2396 8.36258 26.3153 8.59843 26.1388 11.2127C26.0224 12.9328 27.044 12.822 27.5747 13.7764C27.9878 15.3615 26.8142 16.2867 27.0172 17.2615C27.3139 18.686 27.7448 18.2483 27.5293 20.7156L24.7533 20.7413Z" fill="#FEFEFE"/>
</g>
</svg>
