<svg width="69" height="61" viewBox="0 0 69 61" fill="none" xmlns="http://www.w3.org/2000/svg">
<g id="&#208;&#161;&#208;&#187;&#208;&#190;&#208;&#185;_x0020_1">
<path id="Vector" fill-rule="evenodd" clip-rule="evenodd" d="M43.9242 40.3778C44.0239 40.2055 46.4149 38.829 46.6575 38.7976L47.5102 38.2454C47.5393 38.242 47.6425 38.1196 47.8526 38.3535L48.4207 38.6517L48.6969 38.8158L49.3149 39.1748C49.6135 39.2787 49.6826 39.2965 49.8452 39.5271C50.0855 39.5614 49.892 39.4753 50.1797 39.6287L50.3781 39.8037C50.8267 39.9628 51.5354 40.4164 51.8891 40.6609L51.8941 45.6132L49.0696 47.2929C48.7729 47.4618 47.8605 48.0968 47.5895 48.0669L46.5101 47.4746C46.2607 47.3216 46.3022 47.3696 46.1514 47.1761C45.9462 47.1507 45.8117 47.1318 45.7021 46.947L44.2243 46.08C44.2122 46.069 44.1887 46.0467 44.1721 46.029C43.9347 45.9999 43.7163 45.8528 43.6161 45.7206C43.2027 45.6064 43.3712 44.0927 43.3697 43.302C43.3682 42.4131 43.3519 41.5011 43.381 40.6148L43.9242 40.3778ZM16.2387 27.8404C16.306 27.7312 16.2172 27.8166 16.3918 27.6798C16.8227 27.3422 19.3912 25.9257 19.5398 25.9049C19.6229 25.8115 19.5851 25.8471 19.6966 25.7533C20.0349 25.4683 20.369 25.2306 20.6192 25.5651C20.8792 25.6018 21.0626 25.6849 21.1963 25.8856C21.4972 25.9733 21.3351 25.8418 21.5172 26.0939C21.7448 26.1222 22.0003 26.2224 22.1458 26.4246C22.4716 26.5497 22.3888 26.4537 22.5861 26.716C23.0264 26.7866 24.1225 27.5785 24.6331 27.8098L24.6346 28.9901L24.6357 32.8528C23.9505 33.157 20.6366 35.2339 20.4306 35.2585C20.1513 35.2913 19.2193 34.6836 19.0552 34.4602C18.7238 34.4281 18.7559 34.3744 18.336 34.1318L16.4557 32.9745C15.9458 32.7598 16.1102 32.5414 16.1159 31.835L16.1431 28.0316C16.21 27.7708 16.0929 28.0082 16.2387 27.8404ZM43.9242 14.7662C44.0685 14.5591 46.3586 13.2178 46.6473 13.1921L47.1961 12.7873C47.4327 12.6531 47.619 12.483 47.7332 12.6743C47.9664 12.7056 47.9444 12.7 48.1693 12.8357C48.1761 12.8394 48.3148 12.9385 48.3164 12.9396C48.4097 13.0125 48.4192 13.0352 48.4271 13.0443C48.7185 13.1546 48.6391 13.0908 48.7941 13.2983C49.0503 13.324 49.2404 13.4203 49.3814 13.6101C49.6267 13.6815 49.5198 13.5802 49.6796 13.7696C50.0617 13.9268 50.705 14.2454 50.9344 14.5406C51.0629 14.5546 51.2096 14.5266 51.453 14.8169C52.0581 15.0282 51.905 15.1366 51.8963 15.8317L51.8948 19.9945L48.5571 21.978C47.5381 22.5657 47.8447 22.6322 46.8567 22.0588C46.5695 21.8918 46.3381 21.7591 46.0165 21.572C45.642 21.3536 45.453 21.3007 45.2564 21.0459C45.0327 21.0149 44.7919 20.9121 44.6355 20.7088C44.2995 20.5837 43.8066 20.3615 43.6229 20.1078L43.3705 20.044L43.3829 15.0093L43.9242 14.7662ZM21.5951 24.0559C21.1038 23.8518 20.7077 23.37 20.0961 23.5586C19.6248 23.7041 19.1856 24.1931 18.7518 24.2385C18.542 24.5344 17.0188 25.341 16.6001 25.5791L14.4771 26.8898C14.4076 28.7312 14.4227 30.7136 14.4117 32.6351C14.4038 33.9995 14.5591 33.8963 15.5225 34.458L19.2246 36.6198C20.1521 37.1482 20.1865 37.398 21.2357 36.7922C22.5048 36.0597 23.7317 35.3647 24.94 34.6277C25.7601 34.1272 25.6381 34.3094 27.0289 34.8661C27.7183 35.142 28.4281 35.4232 29.1239 35.6988L39.5947 39.8959C40.1934 40.1348 41.1795 40.4678 41.6602 40.7573C41.7044 41.6855 41.5775 46.1106 41.7713 46.5241C41.9747 46.958 44.866 48.4743 45.3793 48.7801C48.1009 50.4 47.274 50.3494 50.5406 48.4063C54.1463 46.2618 53.5824 47.3613 53.5956 43.6577C53.6005 42.3315 53.6096 40.9928 53.5929 39.6673L47.9206 36.3666C47.2819 36.1565 44.7213 37.8807 44.0527 38.2753C43.0832 38.8467 42.6527 39.2935 41.986 39.0217C41.2615 38.7266 38.0651 37.5273 37.7465 37.2813C36.9094 37.0904 35.3344 36.3477 34.5668 36.0416C34.0384 35.8307 33.4896 35.6031 32.9794 35.4021C32.5096 35.2173 31.7998 35.0494 31.4895 34.7339C31.1928 34.7278 31.1112 34.6594 30.8564 34.5309C30.4524 34.4164 29.4958 34.0849 29.2747 33.843C28.9629 33.8358 28.5842 33.6465 28.4905 33.5648C28.0698 33.4647 27.7735 33.3237 27.3955 33.1684C27.2772 33.1196 27.1034 33.0516 26.8819 32.9647C26.8059 32.9352 26.6975 32.8944 26.6362 32.8611L26.459 32.725L26.3497 27.933C26.8414 27.696 27.676 27.3396 28.2403 27.1963C28.4349 27.0489 29.6311 26.5368 29.9769 26.5368C30.1391 26.3834 30.0163 26.4722 30.2585 26.3528C30.2623 26.3509 30.4989 26.2556 30.5053 26.253C30.7291 26.1657 30.8776 26.1097 31.1233 26.0466C31.3572 25.8312 32.3811 25.4498 32.6956 25.4555C32.7133 25.4389 32.7386 25.4196 32.7523 25.4098L33.1782 25.1819C33.4103 25.0885 33.5354 25.0428 33.7901 24.9706L39.1238 22.8401C39.2969 22.6541 40.4281 22.2304 40.6889 22.2527L41.0529 22.0229C41.1496 21.9802 41.2679 21.9428 41.37 21.9016C41.8178 21.7206 42.6728 21.1329 43.3916 22.091C43.598 22.1133 43.7375 22.1375 43.8361 22.317C44.3856 22.5328 45.1291 23.0075 45.6643 23.3363C48.0643 24.8111 47.2411 24.6928 51.0331 22.4965C53.8322 20.8755 53.5918 21.3139 53.5956 19.5674C53.5994 17.7188 53.61 15.8604 53.5929 14.013L51.1627 12.5741C50.3161 12.2721 48.4105 10.8287 47.7986 10.7244C47.2142 10.625 43.7862 12.8345 42.8115 13.3882C42.1179 13.782 41.6803 13.8361 41.6685 14.8524C41.6493 16.5305 41.7026 18.2226 41.6682 19.9L36.5643 21.984C33.1461 23.2834 29.7664 24.7555 26.2881 26.1067C25.5575 26.3909 25.584 26.4306 24.9267 26.0323C24.5265 25.79 24.2147 25.6139 23.8042 25.3746C23.1371 24.9865 22.1337 24.4573 21.5951 24.0559Z" fill="#FEFEFE"/>
<path id="Vector_2" fill-rule="evenodd" clip-rule="evenodd" d="M34.0157 60.6554C38.3006 60.6554 42.5858 60.6554 46.8703 60.6554C50.6971 60.3375 53.3352 58.6972 55.2918 55.4438C59.0808 48.8969 62.8702 42.3496 66.6588 35.8027C67.5923 34.1473 67.9174 32.976 68.0315 30.3277C67.9174 27.6794 67.5923 26.5081 66.6588 24.8527C62.8702 18.3058 59.0808 11.7585 55.2918 5.21159C53.3352 1.95817 50.6971 0.317858 46.8703 0C42.5858 0 38.3006 0 34.0157 0C29.7309 0 25.446 0 21.1608 0C17.3348 0.317858 14.6963 1.95817 12.7397 5.21159C8.95068 11.7585 5.1617 18.3058 1.37272 24.8527C0.439181 26.5081 0.114142 27.6794 0 30.3277C0.114142 32.976 0.439181 34.1473 1.37272 35.8027C5.1617 42.3496 8.95068 48.8969 12.7397 55.4438C14.6963 58.6972 17.3348 60.3375 21.1608 60.6554C25.446 60.6554 29.7309 60.6554 34.0157 60.6554ZM34.0157 58.515C37.9982 58.515 41.9811 58.515 45.9636 58.515C49.5197 58.2198 51.9723 56.6956 53.7906 53.6712C57.3124 47.5865 60.8341 41.5015 64.3555 35.4164C65.2233 33.8774 65.5253 32.7889 65.6311 30.3277C65.5253 27.8665 65.2233 26.7776 64.3555 25.2389C60.8341 19.1535 57.3124 13.0689 53.7906 6.98381C51.9723 3.95981 49.5197 2.43515 45.9636 2.13997C41.9811 2.13997 37.9982 2.13997 34.0157 2.13997C30.0333 2.13997 26.0504 2.13997 22.0679 2.13997C18.5117 2.43515 16.0596 3.95981 14.2409 6.98381C10.7191 13.0689 7.19735 19.1535 3.67597 25.2389C2.80857 26.7776 2.5062 27.8665 2.4 30.3277C2.5062 32.7889 2.80857 33.8774 3.67597 35.4164C7.19735 41.5015 10.7191 47.5865 14.2409 53.6712C16.0596 56.6956 18.5117 58.2198 22.0679 58.515C26.0504 58.515 30.0333 58.515 34.0157 58.515Z" fill="#FEFEFE"/>
</g>
</svg>
