<svg width="69" height="61" viewBox="0 0 69 61" fill="none" xmlns="http://www.w3.org/2000/svg">
<g id="&#208;&#161;&#208;&#187;&#208;&#190;&#208;&#185;_x0020_1">
<path id="Vector" fill-rule="evenodd" clip-rule="evenodd" d="M22.7788 49.2726C22.5645 47.8791 23.3314 47.9633 24.426 47.9698L43.7057 47.9713C44.6287 47.9709 46.0207 47.6825 46.2002 48.6248C46.5403 50.4117 44.5485 49.9087 41.3382 49.9087H25.2741C24.4615 49.9087 22.924 50.2156 22.7788 49.2726ZM30.1682 43.3644H38.8018L39.6514 46.5407L29.3325 46.5604L30.1682 43.3644ZM17.4093 38.6925C18.2661 38.4873 50.7137 38.4873 51.5705 38.6925C51.5705 39.642 51.8332 41.0804 51.315 41.8265C50.5761 42.1138 18.4105 42.116 17.6648 41.8273C17.1462 41.082 17.4093 39.6412 17.4093 38.6925ZM23.5831 13.2537H31.2533C31.2533 15.411 30.9732 22.5547 31.4649 23.9924L33.7141 24.0779C33.5407 24.5269 32.5489 25.7734 32.1883 26.2571L29.0188 30.5291C28.5105 31.2227 27.8914 31.9805 27.4757 32.694L21.0788 24.0937C22.4202 23.9932 23.5597 24.4985 23.5597 22.8934L23.5831 13.2537ZM18.8659 23.0192C18.8954 23.9607 19.9472 25.0534 20.7205 26.0999C21.4768 27.123 26.7058 34.5354 27.3143 34.6023C27.998 34.6779 28.9504 33.0021 29.6908 32.0447C30.3655 31.1717 35.9992 23.6598 35.9271 23.2312C35.3972 22.2607 33.9795 22.6103 32.6842 22.6103L32.6918 18.861C35.3136 18.861 50.3501 18.5393 51.4299 19.0556C51.885 20.5349 51.5705 34.4583 51.5705 37.1754H17.3265C17.4093 34.4141 17.0838 20.592 17.5476 19.0534C18.3088 18.6954 20.9545 18.861 22.0762 18.861L22.1152 22.6103C20.9378 22.6103 19.6826 22.3691 18.8659 23.0192ZM40.6503 17.3129C39.7232 15.1291 42.72 13.1282 44.5644 14.931C44.8751 15.2345 45.1506 15.713 45.21 16.3053C45.3097 17.3046 45.2383 17.4331 44.3962 17.4478C43.4211 17.4652 41.4119 17.6417 40.6503 17.3129ZM42.133 8.48844C42.2404 8.4189 43.0908 8.34671 43.3123 8.41739C43.728 8.54967 43.6834 8.66721 43.7265 9.18161C43.982 12.2256 43.604 10.7036 45.6639 11.9713C46.2546 12.3349 46.2935 12.5824 46.9183 12.8957C48.1493 12.8663 48.4653 11.9822 49.6241 12.0639C50.0591 12.5692 50.1218 12.5639 50.1411 13.2994L48.0892 14.6997C48.0839 15.6306 48.3776 16.4239 48.1742 17.4161L46.6352 17.4274C46.588 15.8498 46.5623 15.0981 45.7493 14.0829C44.3679 12.3594 39.106 11.5616 39.1136 17.4365C38.1396 17.4365 37.5458 17.7419 37.4838 16.811C37.3387 14.6336 38.6559 15.1578 35.5631 13.3368C35.6349 12.6266 35.7233 12.5889 36.0964 12.0726C37.3259 11.9467 37.5761 12.9267 38.9862 12.8878C39.3044 12.6183 39.6227 12.2464 40.0713 11.9826C42.6353 10.4765 41.5487 12.2045 42.133 8.48844ZM38.4635 11.3393C36.8175 10.5479 35.658 9.83282 34.5283 11.8586C34.1117 12.6047 34.0135 13.3395 34.4258 14.0833C34.7048 14.5863 35.5941 14.99 36.1217 15.453L36.0646 17.4365L32.7031 17.4369L32.598 11.9917C31.5523 11.5805 26.64 11.7944 24.7669 11.7944C20.4397 11.7936 22.7596 12.4074 22.0517 17.4365C20.6925 17.4365 17.6893 17.1099 16.8272 17.8326C15.6136 18.8489 15.9795 20.6457 15.9795 22.5551V39.2957C15.9795 41.0559 15.7123 42.9562 17.5226 43.3213L28.6828 43.3682L27.8653 46.5611C26.3263 46.5611 23.1557 46.213 22.1416 46.9894C20.8214 48 21.2115 50.5833 22.5577 51.1404C23.1832 51.3993 45.7055 51.5093 46.5369 51.0879C47.791 50.4529 48.1308 47.8435 46.7384 46.9183C45.8256 46.3113 42.4687 46.5611 41.1182 46.56L40.3124 43.3644C43.7843 43.3644 47.356 43.4476 50.8146 43.3686C52.8034 43.3232 53.0052 42.1361 53.0007 40.3102C52.992 36.8485 53.1511 20.934 52.9912 19.3436C52.9213 18.6455 52.4682 17.9989 51.9606 17.6863C51.36 17.3167 50.4476 17.4455 49.6845 17.4259L49.621 15.453C49.7749 15.0429 52.69 14.2103 51.2175 11.8299C49.9045 9.70696 48.9865 10.6681 47.2566 11.3333C46.6896 10.9383 45.9946 10.4678 45.2024 10.2093C45.0932 8.18079 45.055 6.97776 42.8598 6.98343C40.577 6.98948 40.7524 8.2235 40.5343 10.2217C39.6779 10.5116 39.0879 10.9826 38.4635 11.3393Z" fill="#FEFEFE"/>
<path id="Vector_2" fill-rule="evenodd" clip-rule="evenodd" d="M34.0157 60.6554C38.3006 60.6554 42.5858 60.6554 46.8703 60.6554C50.6971 60.3375 53.3352 58.6972 55.2918 55.4438C59.0808 48.8969 62.8702 42.3496 66.6588 35.8027C67.5923 34.1473 67.9174 32.976 68.0315 30.3277C67.9174 27.6794 67.5923 26.5081 66.6588 24.8527C62.8702 18.3058 59.0808 11.7585 55.2918 5.21159C53.3352 1.95817 50.6971 0.317858 46.8703 0C42.5858 0 38.3006 0 34.0157 0C29.7309 0 25.446 0 21.1608 0C17.3348 0.317858 14.6963 1.95817 12.7397 5.21159C8.95068 11.7585 5.1617 18.3058 1.37272 24.8527C0.439181 26.5081 0.114142 27.6794 0 30.3277C0.114142 32.976 0.439181 34.1473 1.37272 35.8027C5.1617 42.3496 8.95068 48.8969 12.7397 55.4438C14.6963 58.6972 17.3348 60.3375 21.1608 60.6554C25.446 60.6554 29.7309 60.6554 34.0157 60.6554ZM34.0157 58.515C37.9982 58.515 41.9811 58.515 45.9636 58.515C49.5197 58.2202 51.9723 56.6956 53.7906 53.6712C57.3124 47.5865 60.8341 41.5015 64.3555 35.4164C65.2233 33.8774 65.5253 32.7889 65.6311 30.3277C65.5253 27.8665 65.2233 26.7776 64.3555 25.2389C60.8341 19.1535 57.3124 13.0689 53.7906 6.98381C51.9723 3.95981 49.5197 2.43515 45.9636 2.13997C41.9811 2.13997 37.9982 2.13997 34.0157 2.13997C30.0333 2.13997 26.0504 2.13997 22.0679 2.13997C18.5117 2.43515 16.0596 3.95981 14.2409 6.98381C10.7191 13.0689 7.19735 19.1535 3.67597 25.2389C2.80857 26.7776 2.5062 27.8665 2.4 30.3277C2.5062 32.7889 2.80857 33.8774 3.67597 35.4164C7.19735 41.5015 10.7191 47.5865 14.2409 53.6712C16.0596 56.6956 18.5117 58.2202 22.0679 58.515C26.0504 58.515 30.0333 58.515 34.0157 58.515Z" fill="#FEFEFE"/>
</g>
</svg>
