<svg width="69" height="61" viewBox="0 0 69 61" fill="none" xmlns="http://www.w3.org/2000/svg">
<g id="&#208;&#161;&#208;&#187;&#208;&#190;&#208;&#185;_x0020_1">
<path id="Vector" fill-rule="evenodd" clip-rule="evenodd" d="M34.0157 60.6554C38.3006 60.6554 42.5858 60.6554 46.8703 60.6554C50.6971 60.3375 53.3352 58.6972 55.2918 55.4438C59.0808 48.8969 62.8702 42.3496 66.6588 35.8027C67.5923 34.1473 67.9174 32.976 68.0315 30.3277C67.9174 27.6794 67.5923 26.5081 66.6588 24.8527C62.8702 18.3058 59.0808 11.7585 55.2918 5.21159C53.3352 1.95817 50.6971 0.317858 46.8703 0C42.5858 0 38.3006 0 34.0157 0C29.7309 0 25.446 0 21.1608 0C17.3348 0.317858 14.6963 1.95817 12.7397 5.21159C8.95068 11.7585 5.1617 18.3058 1.37272 24.8527C0.439181 26.5081 0.114142 27.6794 0 30.3277C0.114142 32.976 0.439181 34.1473 1.37272 35.8027C5.1617 42.3496 8.95068 48.8969 12.7397 55.4438C14.6963 58.6972 17.3348 60.3375 21.1608 60.6554C25.446 60.6554 29.7309 60.6554 34.0157 60.6554ZM34.0157 58.515C37.9982 58.515 41.9811 58.515 45.9636 58.515C49.5197 58.2202 51.9723 56.6956 53.7906 53.6712C57.3124 47.5865 60.8341 41.5015 64.3555 35.4164C65.2233 33.8774 65.5253 32.7889 65.6311 30.3277C65.5253 27.8665 65.2233 26.7776 64.3555 25.2389C60.8341 19.1535 57.3124 13.0689 53.7906 6.98381C51.9723 3.95981 49.5197 2.43515 45.9636 2.13997C41.9811 2.13997 37.9982 2.13997 34.0157 2.13997C30.0333 2.13997 26.0504 2.13997 22.0679 2.13997C18.5117 2.43515 16.0596 3.95981 14.2409 6.98381C10.7191 13.0689 7.19735 19.1535 3.67597 25.2389C2.80857 26.7776 2.5062 27.8665 2.4 30.3277C2.5062 32.7889 2.80857 33.8774 3.67597 35.4164C7.19735 41.5015 10.7191 47.5865 14.2409 53.6712C16.0596 56.6956 18.5117 58.2202 22.0679 58.515C26.0504 58.515 30.0333 58.515 34.0157 58.515Z" fill="#FEFEFE"/>
<path id="Vector_2" fill-rule="evenodd" clip-rule="evenodd" d="M32.1048 31.3327C33.4001 31.6414 34.0312 31.8006 35.3722 31.3368C35.4051 31.381 35.4429 31.403 35.4557 31.4797L36.3368 32.9484C33.6529 33.8366 33.7092 33.8857 31.0318 32.88C31.4585 32.0186 31.2918 32.948 31.9654 31.6293L32.1048 31.3327ZM44.5002 32.4359L45.3494 31.5367C45.374 31.5008 45.4106 31.4373 45.4326 31.4045C45.4549 31.3716 45.5032 31.3013 45.521 31.2745C45.5392 31.2472 45.5766 31.1841 45.611 31.1441C46.6927 31.4271 47.8348 31.4154 48.8787 31.1845C49.0605 31.471 49.0243 31.5277 49.2499 31.8342L49.7892 32.4359C48.4365 33.5705 46.2531 33.6091 44.982 32.8547C44.2537 32.4223 44.812 32.7897 44.5002 32.4359ZM21.8801 31.3882L22.3914 31.0802L22.5574 31.7204L22.9735 32.2061C22.9992 32.2345 23.0585 32.2987 23.0804 32.3225C23.1024 32.3459 23.1557 32.3966 23.1912 32.4359C21.648 34.015 19.6456 33.2213 17.8904 32.7069L19.0341 31.1478L21.8801 31.3882ZM27.9398 26.3902L28.2595 25.8697L28.4292 26.3694C28.6454 27.1325 29.6958 28.679 30.0408 29.526C29.1198 29.582 28.3706 29.4875 27.9591 28.7323L27.9398 26.3902ZM32.7337 21.6847C34.4663 21.2776 34.7494 21.3804 35.4626 22.7671C36.5873 24.9547 37.4491 31.8644 32.8535 30.596C31.1308 30.1206 30.4456 28.2527 29.941 27.1884C29.6776 26.6336 29.3303 26.4559 29.1651 25.996C28.7837 24.9354 29.2936 25.3776 30.3175 23.246C31.206 21.3963 31.025 22.0864 32.7337 21.6847ZM44.2122 21.0055C45.0138 20.8184 46.1919 20.9216 47.1458 20.914C48.5518 20.9027 48.251 20.7254 49.3671 20.3554C50.4888 21.4813 50.4321 21.476 50.5209 22.2081C50.7428 24.0408 51.0701 23.4678 51.9099 24.1576C51.6937 25.2008 51.4768 24.5473 51.2118 26.2813C51.1102 26.948 50.8392 27.8596 50.5516 28.4466C49.0968 31.4147 44.886 31.0843 43.494 28.2421C43.2503 27.7444 42.342 24.4082 42.3462 23.9399C42.8723 23.591 43.4914 23.4864 43.7507 22.9406C44.0447 22.3207 43.8546 21.792 44.2122 21.0055ZM17.5725 20.9609C20.7281 20.6079 19.612 21.4583 22.7373 20.3633C23.1009 20.7621 22.8832 20.8641 23.8235 21.3052C23.949 22.8181 23.8583 23.2498 24.6516 23.7608L25.3225 24.1576C25.084 25.1894 25.1014 24.4399 24.8126 25.1418C24.4762 25.9589 24.6119 28.766 22.6583 29.9637C20.7538 31.1312 18.037 30.4925 16.9062 28.2338C16.6409 27.7039 15.744 24.4959 15.7361 23.9399C18.2033 22.2516 16.54 23.4966 17.5725 20.9609ZM28.2694 24.5363C28.3725 22.5812 29.2445 19.2688 30.7756 18.689C31.5806 18.384 31.7734 18.7071 32.4253 18.7907C33.3415 18.9078 35.0139 17.5019 36.7918 19.2506C37.8913 20.332 38.7783 23.317 39.1646 25.1898C39.5773 27.1895 40.4084 29.339 36.9445 30.3817C36.782 28.4511 38.298 23.4059 35.1156 20.9318C34.1783 20.2031 31.2896 20.6098 30.5102 21.2579C29.6958 21.9352 29.3469 23.5744 28.2694 24.5363ZM42.4229 19.2132C42.8341 18.8648 42.8171 18.8855 43.4377 18.7211C45.5218 18.1682 43.1856 17.1968 46.4825 17.1968C52.0721 17.1968 52.1964 16.2882 51.8823 23.0426C51.1363 22.6341 51.3524 21.9674 51.2825 21.0149C50.1744 20.1789 50.6619 20.6721 50.3679 19.1887C48.3538 19.0707 50.5285 20.0126 45.3861 20.022C44.2946 20.0239 43.7019 20.0307 43.3209 20.7919C42.7661 21.9005 43.5182 22.3053 42.5613 22.8408L42.4229 19.2132ZM15.7138 20.2367C15.7138 18.0215 16.7875 19.324 17.5945 18.3625C18.1228 17.7332 17.2626 17.1968 19.9053 17.1968C23.4051 17.1968 25.2816 16.6772 25.3251 19.1339C25.3444 20.2224 25.5832 22.2516 25.1335 23.0143C24.3126 22.2338 25.0957 21.8861 24.4543 20.9061C24.2502 20.5939 24.1538 20.7711 23.9358 20.1615C23.7112 19.5337 24.0828 19.8807 23.6088 19.1641C22.461 19.2873 22.0074 19.9442 20.7848 20.0296C19.6551 20.1086 18.2706 19.8255 17.2913 20.177C15.919 20.8702 17.1133 22.0959 15.984 22.8351C15.8007 22.6114 15.7138 23.1677 15.7138 21.9795V20.2367ZM17.8583 30.9109C17.605 31.7038 15.8865 32.4979 15.0471 33.0289C12.7011 34.512 9.94356 34.4213 9.88233 38.3093C9.8434 40.7777 9.49342 42.5832 10.5286 42.83C11.5521 41.3639 9.92807 37.8066 11.6194 35.9112C12.2324 35.2244 13.0666 34.981 14.1797 34.5607C15.1102 34.2093 15.8585 33.5066 16.8556 33.0637C18.0541 33.549 18.8417 34.2418 20.5603 34.2365C22.6292 34.23 23.0423 33.3834 24.3137 32.9253L26.1041 34.1261C25.293 34.8865 23.7067 35.2191 23.1504 37.4423C22.9096 38.4045 22.9304 42.2498 23.1897 43.0579L23.8038 43.0707C24.4985 40.9599 23.0786 38.0923 24.8062 36.2487C25.6936 35.3012 25.9899 35.3424 27.3146 34.8465C28.0876 34.5573 29.2037 33.7372 29.9263 33.3169C31.1392 33.6174 31.7552 34.4579 33.6272 34.4954C35.661 34.5358 36.2306 33.5841 37.5507 33.2685C38.4359 33.733 39.3245 34.4795 40.2028 34.8121C41.3836 35.2596 42.2302 35.5797 42.8402 36.2997C43.8459 37.4876 43.6471 39.7829 43.6226 41.5937C43.6059 42.8217 43.3501 42.9294 44.3615 43.0938C44.6468 42.2846 44.6487 38.6117 44.4132 37.5417C44.0784 36.0166 42.9456 34.8918 41.5922 34.4935C41.9856 33.6522 42.6762 33.459 43.4324 33.0659C44.7156 33.5252 45.2821 34.2248 47.1364 34.235C49.1395 34.2455 49.4729 33.5021 50.8392 32.9949C51.8665 33.4356 52.5305 34.1424 53.5408 34.5366C57.3581 36.0261 57.0059 36.8054 56.9813 41.3798C56.9756 42.4615 56.7704 42.5956 57.5924 42.7967C58.0309 42.0926 57.8143 39.3162 57.8135 38.3127C57.8094 34.4062 55.0696 34.6008 50.6593 31.7461C49.9245 31.2703 50.3902 31.7269 49.9306 31.1289C50.174 29.924 51.1185 30.1606 51.8922 27.3955C52.1998 26.2961 51.9931 26.1078 52.5335 25.1985C53.0287 24.3655 52.8465 23.5506 52.845 22.4149C52.837 16.4194 53.2169 16.3362 47.1356 16.3181C42.9608 16.3053 44.6392 17.0918 43.0088 17.862C40.8858 18.8651 41.4149 19.5488 41.4066 22.1972C41.3851 28.7641 44.4412 30.6777 44.4627 30.9109C44.5259 31.6059 40.4451 33.8011 40.1647 33.7531L36.6452 31.6173C39.3695 29.828 41.3427 30.6788 40.0252 24.7351C37.9132 15.2069 34.9595 17.9271 31.6509 17.6719C26.6185 17.2842 26.9809 29.1621 27.0777 29.3862C28.2384 30.6867 29.0918 30.3772 30.9558 30.5446C31.1637 31.9627 30.5095 31.8516 29.5181 32.4658C26.7458 34.1832 28.0052 34.1337 24.3345 31.9272L23.3212 31.1289C23.5128 30.1485 24.7986 29.2808 25.2956 27.3691C25.57 26.3127 25.3882 26.0704 25.9264 25.1682C26.4174 24.3454 26.2337 23.537 26.2326 22.4152C26.225 16.4874 26.6018 16.3351 20.5587 16.3181C19.6913 16.3158 18.7022 16.235 17.9603 16.5456C16.8042 17.0294 17.4448 17.3488 16.4224 17.8496C14.2466 18.9158 14.8082 19.4185 14.7987 22.1972C14.7904 24.6066 15.3143 27.3282 16.4776 29.3291C16.992 30.2132 17.4682 30.2411 17.8583 30.9109Z" fill="#FEFEFE"/>
<path id="Vector_3" fill-rule="evenodd" clip-rule="evenodd" d="M27.9398 26.3902L28.4292 26.3694L28.2595 25.8697L27.9398 26.3902Z" fill="#656A9E"/>
</g>
</svg>
