<svg width="13" height="13" viewBox="0 0 13 13" fill="none" xmlns="http://www.w3.org/2000/svg">
<g id="&#208;&#161;&#208;&#187;&#208;&#190;&#208;&#185;_x0020_1">
<path id="Vector" fill-rule="evenodd" clip-rule="evenodd" d="M7.99666 9.91893C7.0378 10.7346 6.07931 11.5502 5.12044 12.3658C4.90161 12.5181 4.80825 12.4561 4.80976 12.2346C4.82186 11.6072 4.83433 10.9798 4.84718 10.3528C4.80674 10.0792 4.63213 9.94652 4.35773 9.91893H2.12517C1.50646 9.91893 1 9.41247 1 8.79339V2.12517C1 1.50646 1.50646 1 2.12517 1H11.2134C11.8317 1 12.3386 1.50646 12.3386 2.12517V8.79339C12.3386 9.41247 11.8317 9.91893 11.2134 9.91893H7.99666Z" stroke="#FEFEFE" stroke-width="1.00006" stroke-miterlimit="22.9256"/>
<path id="Vector_2" fill-rule="evenodd" clip-rule="evenodd" d="M3.84749 4.71191C4.24661 4.71191 4.56938 5.03506 4.56938 5.43343C4.56938 5.83179 4.24661 6.15532 3.84749 6.15532C3.44951 6.15532 3.12636 5.83179 3.12636 5.43343C3.12636 5.03506 3.44951 4.71191 3.84749 4.71191Z" fill="#F5FEFC"/>
<path id="Vector_3" fill-rule="evenodd" clip-rule="evenodd" d="M6.67572 4.71191C7.07484 4.71191 7.39761 5.03506 7.39761 5.43343C7.39761 5.83179 7.07484 6.15532 6.67572 6.15532C6.27736 6.15532 5.95459 5.83179 5.95459 5.43343C5.95459 5.03506 6.27736 4.71191 6.67572 4.71191Z" fill="#F5FEFC"/>
<path id="Vector_4" fill-rule="evenodd" clip-rule="evenodd" d="M9.47483 4.71191C9.87395 4.71191 10.1967 5.03506 10.1967 5.43343C10.1967 5.83179 9.87395 6.15532 9.47483 6.15532C9.07685 6.15532 8.75407 5.83179 8.75407 5.43343C8.75407 5.03506 9.07685 4.71191 9.47483 4.71191Z" fill="#F5FEFC"/>
</g>
</svg>
