<?xml version="1.0" encoding="UTF-8"?>
<!DOCTYPE svg PUBLIC "-//W3C//DTD SVG 1.1//EN" "http://www.w3.org/Graphics/SVG/1.1/DTD/svg11.dtd">
<!-- Creator: CorelDRAW -->
<svg xmlns="http://www.w3.org/2000/svg" xml:space="preserve" width="16.4342mm" height="18.7854mm" version="1.1" style="shape-rendering:geometricPrecision; text-rendering:geometricPrecision; image-rendering:optimizeQuality; fill-rule:evenodd; clip-rule:evenodd"
viewBox="0 0 1643.42 1878.54"
 xmlns:xlink="http://www.w3.org/1999/xlink"
 xmlns:xodm="http://www.corel.com/coreldraw/odm/2003">
 <defs>
  <style type="text/css">
   <![CDATA[
    .fil1 {fill:#FEFEFE}
    .fil2 {fill:#FEFEFE}
    .fil0 {fill:url(#id0)}
   ]]>
  </style>
  <linearGradient id="id0" gradientUnits="userSpaceOnUse" x1="1236.41" y1="1720.32" x2="1130.58" y2="212.2">
   <stop offset="0" style="stop-opacity:1; stop-color:#2C665A"/>
   <stop offset="1" style="stop-opacity:1; stop-color:#019985"/>
  </linearGradient>
 </defs>
 <g id="Слой_x0020_1">
  <metadata id="CorelCorpID_0Corel-Layer"/>
  <path class="fil0" d="M814.59 152.84l344.22 196.75 344.23 196.73 0 393.48 0 393.48 -344.23 196.74 -344.22 196.73 -344.24 -196.73 -344.23 -196.74 0 -393.48 0 -393.48 344.23 -196.73 344.24 -196.75zm0 -152.31l410.84 234.82 410.86 234.82 0 469.63 0 469.64 -410.86 234.82 -410.84 234.81 -410.86 -234.81 -410.86 -234.82 0 -469.64 0 -469.63 410.86 -234.82 410.86 -234.82zm0 81.24l375.33 214.51 375.3 214.51 0 429.01 0 429.02 -375.3 214.52 -375.33 214.49 -375.35 -214.49 -375.3 -214.52 0 -429.02 0 -429.01 375.3 -214.51 375.35 -214.51z"/>
  <path class="fil1" d="M1200.52 1089.27c0,9.87 8.2,13 17.88,13l206.43 0 0 17.88 -230.81 0c-27.64,0 -24.38,-16.63 -24.38,-40.64 0,-13.87 7.26,-21.13 21.13,-21.13l234.06 0 0 17.88 -211.31 0c-7.86,0 -13,5.15 -13,13.01zm-234.06 -112.16l24.38 0c16.75,0 16.18,-24.38 0,-24.38l-24.38 0c-16.18,0 -16.75,24.38 0,24.38zm73.14 -156.04c0,15.33 20.14,11.38 37.39,11.38 16.33,0 15.27,-24.38 -1.63,-24.38 -17.38,0 -35.76,-3.66 -35.76,13zm-170.67 -3.25c0,18.29 7.75,14.63 37.39,14.63 4.05,0 4.77,-0.29 7.35,-2.4 7.4,-6.05 4.92,-21.98 -8.98,-21.98 -10.4,0 -35.76,-3 -35.76,9.75zm-86.14 147.92c0,14.93 22.92,11.37 37.38,11.37 16.35,0 16.35,-24.38 0,-24.38 -16.5,0 -37.38,-4.27 -37.38,13.01zm86.14 -3.26c0,18.85 12.51,14.63 39.01,14.63 12.96,0 12.96,-24.38 0,-24.38 -13.8,0 -39.01,-3.74 -39.01,9.75zm170.67 0c0,18.85 12.5,14.63 39.01,14.63 12.96,0 12.96,-24.38 0,-24.38 -13.8,0 -39.01,-3.74 -39.01,9.75zm97.53 -130.03c16.02,0 37.38,3.97 37.38,-11.38 0,-16.95 -22.14,-13 -39.01,-13 -11.57,0 -17.09,24.38 1.63,24.38zm-354.34 -11.38c0,15.35 21.36,11.38 37.38,11.38 18.72,0 13.2,-24.38 1.63,-24.38 -16.87,0 -39.01,-3.95 -39.01,13zm180.42 11.38c19.95,0 41.58,4.49 40.18,-12.79 -1.25,-15.55 -21.56,-11.59 -38.56,-11.59 -13.24,0 -14.27,24.38 -1.62,24.38zm-136.54 203.18c0,17.57 17.77,14.63 32.51,14.63 22.32,0 22.32,-26.01 0,-26.01 -8.51,0 -32.51,-2.5 -32.51,11.38zm86.15 -143.04c0,16.1 16,13.01 32.51,13.01 20.07,0 19.57,-17.82 10.29,-23.3 -2.91,-1.71 -42.8,-10.3 -42.8,10.29zm-86.15 -1.62c0,18.18 17.52,14.63 35.76,14.63 16.35,0 20.46,-26.01 -3.25,-26.01 -8.08,0 -20.26,-0.99 -26.54,2.71 -2.76,1.63 -5.97,5.14 -5.97,8.67zm256.82 1.62c0,16.5 17.12,13.01 35.76,13.01 16.42,0 20.33,-26.01 -4.88,-26.01 -12.27,0 -30.88,-2.29 -30.88,13zm-328.34 13.01c9.24,0 35.76,3.03 35.76,-11.38 0,-17.28 -20.19,-14.63 -32.5,-14.63 -24.33,0 -20.16,26.01 -3.26,26.01zm157.67 128.4c0,18.49 8.48,16.26 34.13,16.26 19.47,0 19.47,-26.01 0,-26.01 -9.63,0 -34.13,-2.39 -34.13,9.75zm170.67 3.25c0,16.1 18.13,13.01 34.13,13.01 19.57,0 19.57,-26.01 0,-26.01 -16,0 -34.13,-3.09 -34.13,13zm-86.15 -144.66c0,16.36 22.17,13.01 35.76,13.01 16.99,0 21.34,-26.01 -3.25,-26.01 -10.12,0 -32.51,-2.15 -32.51,13zm-238.93 157.67c14.74,0 32.5,2.94 32.5,-14.63 0,-13.88 -23.99,-11.38 -32.5,-11.38 -23.19,0 -23.19,26.01 0,26.01zm238.93 -13.01c0,15.94 20.72,13.01 32.51,13.01 23.19,0 23.19,-26.01 0,-26.01 -11.79,0 -32.51,-2.94 -32.51,13zm-92.65 82.9c81.27,0 162.55,0 243.82,0 -2.45,-10.52 -3.25,-4.86 -3.25,-19.5l-411.24 0c0,9.49 1.63,11.35 1.63,19.5l169.04 0zm0 24.38c-13.01,0 -148.87,0.32 -162.53,0.68 -17.3,0.45 -30.66,-5.22 -34.19,-46.14 -2.82,-32.75 -21.08,-173.62 -21.08,-196.73 -20.13,0 -46.39,3.52 -56.43,-6.96 -11.13,-11.62 -6.96,-45.78 -6.96,-69.43 0,-8.78 8.08,-19.19 15.66,-21.72 9.85,-3.28 25.23,-1.04 36.35,-1.04 -0.46,-5.48 -0.97,-6.28 -1.48,-13.15 -1.23,-16.85 -13.89,-2.99 -32.54,-9.72 -14.73,-5.32 -22.29,-18.05 -24.5,-31.77l0 -17.85c1.66,-10.62 6.19,-20.13 12.7,-25.34 13.32,-10.68 11.86,-4.53 27.93,-7.83 7.58,-1.56 3.95,-5.16 6.26,-13.25 1.47,-5.14 3.5,-7.55 6.06,-11.81l39.38 -69.53c13.4,-22.62 18.7,-20.8 52.34,-20.8 8.05,-16.78 6.99,-42.47 19.59,-53.55 9.77,-8.59 88.64,-27.73 92.56,-27.73 24.62,0 25.69,19.51 35.76,19.51 2.21,0 67.24,-29.21 126.8,12.99 13.39,9.48 40.07,32.49 43.87,48.78 27.01,0 38.34,-0.65 32.51,24.38 10.63,0 27.34,-1.01 37.25,0.12 18.5,2.11 15.84,17.21 18.01,19.38l29.76 9.25c15.87,6.61 33.34,21.25 42.3,35.73 6.17,9.98 7.88,13.84 10.84,26.54 19.94,0 26.48,-0.51 37.06,10.08 22.27,22.3 12.03,74.44 -22.43,74.44l-22.76 0 -1.62 21.13 29.25 0c27.19,0 21.13,39.87 21.13,56.89l107.28 0c15.65,0 26.35,2.94 35.32,10.19 10.54,8.52 14.05,18.23 15.07,29.61l0 31.72c0,12.43 -3.32,14.27 -4.92,19.49 -1.73,5.63 -1.93,0.11 2.11,7.53 1.39,2.55 2.27,7.4 2.81,13.5l0 61.88c0,6.41 -1.15,7.42 -1.15,11.38 0,3.96 1.15,4.97 1.15,11.38l0 65.02c0,13.53 -9.23,22.75 -22.76,22.75l-521.76 0zm264.95 -258.44l235.68 0c22.7,0 19.51,21.11 19.51,37.38 0,43.86 -47.27,7.59 -55.72,32.26 -3.25,9.49 5.76,16.51 10.21,16.51l45.51 0 0 17.88 -211.31 0c-16.23,0 -20.78,26 4.88,26l206.43 0 0 17.88 -230.81 0c-27.62,0 -24.38,-18.03 -24.38,-40.63 0,-22.17 14.09,-21.15 35.76,-21.13l113.4 -0.38c11.58,-2.8 17.86,-25.63 -11,-25.63l-138.16 0 0 -16.25 206.43 0c24.99,0 21.81,-26.01 4.87,-26.01l-211.3 0 0 -17.88zm-520.14 -58.52l29.26 0c0,10.31 0.84,16.01 1.92,25.72 0.68,6.19 2.81,18.19 2.96,24.67l-34.14 0 0 -50.39zm588.41 0l29.25 0 0 32.51 -32.51 0c0,-12.36 2.37,-21.82 3.26,-32.51zm-596.53 -84.52c0,-25.09 6.12,-21.13 39.01,-21.13 3.89,0 34.65,34.11 35.75,35.76 -9.03,0 -59.4,1.08 -65.8,-0.84 -5.75,-1.73 -8.96,-7.26 -8.96,-13.79zm554.26 -21.13c15.17,0 30.35,0.01 45.52,0 30.52,-0.01 32.5,-1.77 32.5,22.76 0,16.85 -20.87,13 -40.63,13 -4.79,0 -35.03,-32.24 -37.39,-35.76zm-95.9 0l48.85 -0.08c8.12,-0.08 8.61,-1.14 13.45,2.8 4.67,3.81 29.22,28.93 31.98,33.04l-48.85 0.08c-8.12,0.08 -8.61,1.14 -13.45,-2.8 -4.67,-3.8 -29.22,-28.92 -31.98,-33.04zm-94.27 0l48.88 -0.11c13.58,0 10.35,1.64 28.73,20.02 5.23,5.23 13.03,9.96 15.04,17.48 -12.78,3.41 -8.78,22.75 4.88,22.75l113.77 0c0,23.1 -8.12,58.99 -8.12,78.02 -74.63,0 -63.39,-3.49 -63.39,92.65 -7.69,0 -23.51,-0.33 -19.86,15.02 2.38,10.02 9.58,9.36 21.48,9.36 -4.07,8.5 -1.78,27.58 -1.69,39.08 0.12,15.82 4.12,20.77 11.44,29.19 -5.81,8.69 -11.37,14.53 -11.37,29.26l-414.49 0c-0.18,-8.43 -2.5,-20 -3.29,-29.21l-9.86 -90.92c-2.57,-26.86 -12.85,-101.91 -12.85,-122.06l27.63 0c8.36,0 13.51,-14.83 4.05,-21.92 -6.79,-5.09 -24.63,-2.46 -34.93,-2.46 -0.61,-7.22 -3.09,-18.63 -3.26,-26.01l346.22 0c9.76,0 14.37,-9.28 11.85,-16.53 -3.82,-10.99 -12.94,-4.6 -20.5,-10.58 -6.79,-5.39 -25.67,-26.02 -30.36,-33.03zm-95.9 0c13.21,0 53.35,-3.48 61.41,1.98 6.02,4.09 26.94,27.36 31.24,33.78l-47.22 0.08c-8.12,0.08 -8.61,1.14 -13.45,-2.8 -4.67,-3.8 -29.23,-28.92 -31.98,-33.04zm-95.9 0l48.85 -0.08c8.12,-0.08 8.61,-1.14 13.45,2.8 4.67,3.81 29.22,28.93 31.97,33.04l-48.84 0.08c-8.12,0.08 -8.61,1.14 -13.45,-2.8 -4.67,-3.8 -29.23,-28.92 -31.98,-33.04zm-95.9 0l48.85 -0.08c8.12,-0.08 8.61,-1.14 13.45,2.8 4.67,3.81 29.22,28.93 31.97,33.04l-48.84 0.08c-8.12,0.08 -8.61,1.14 -13.45,-2.8 -4.67,-3.8 -29.23,-28.92 -31.98,-33.04zm450.24 -69.89c8.69,4.17 48.8,10.79 56.89,45.51l-56.89 0 0 -45.51zm-303.95 -4.88l0 50.39 -107.28 0c3.62,-15.53 27.13,-32.23 40.61,-39.03 20.42,-10.3 43.64,-13.27 66.67,-11.36zm24.38 45.51l0 -60.14 45.51 0c4.36,0 6.17,4.49 10.42,10.72l17.85 26.03c20.15,27.69 44.22,-15.15 54.63,-22.12 2.46,4.66 23.17,30.89 34.13,30.89 8.82,0 10.83,-0.95 16.68,-7.7 4.3,-4.96 24.31,-33.05 25.58,-37.82l48.77 0 0 65.02 -248.69 0c-3.75,0 -4.88,-1.13 -4.88,-4.88zm-164.17 4.88c-53.35,0 -40.61,6.47 -14.62,-43.88 4.09,-7.92 8.6,-15.36 12.91,-22.85 4.37,-7.59 8.36,-15.61 13.09,-22.67l92.65 0c-2.39,28.68 -16.53,7.84 -58.53,37.37 -14.03,9.87 -27,22.41 -35.22,37.93 -2.56,4.85 -4.9,14.1 -10.28,14.1zm225.94 -91.02l131.65 0 -29.25 42.26c-6.21,-4.16 -11.77,-10.34 -16.26,-16.26 -17.26,-22.78 -29.25,-12.21 -41.04,-0.4 -2.92,2.92 -5.5,5.11 -8.1,8.15 -4.49,5.24 -2.51,6.67 -9.37,8.51l-13.46 -20.68c-5.15,-6.84 -10.27,-14.21 -14.17,-21.58zm-34.14 -9.76c0,4.96 1.56,6.56 3.25,9.76 -11.29,0 -23,-0.32 -34.23,-0.1 -17.21,0.35 -18.08,8.57 -21.03,14.73l-13.01 0c5.61,-11.68 0.39,-6 12.45,-28.2l17.98 -24.27c49.05,-49.08 133.2,-40.76 169.5,13.46 -12.55,0 -118.73,-2.68 -127.49,2.54 -3.51,2.1 -7.42,7.58 -7.42,12.08zm-76.39 -13c-14.6,-3.4 -34.87,-1.62 -50.39,-1.62 0.17,-7.85 4.41,-20.85 6.39,-27.74 2.9,-10.07 6.8,-8.68 22.87,-12.89 9.03,-2.37 19.45,-5.48 27.96,-7.8 25.56,-6.97 29.71,-11.3 37.05,-0.34 -3.12,4.66 -7.4,6.6 -12.34,10.42 -4.1,3.18 -9.07,8.14 -12.43,11.94 -7.78,8.81 -13.54,17.5 -19.11,28.03z"/>
  <path class="fil2" d="M302.02 988.24l140.2 0 0 56.08 -140.2 0 0 -56.08zm-68.35 0l40.3 0 0 70.1c0,8.48 5.55,14.02 14.03,14.02l168.25 0c8.47,0 14.02,-5.54 14.02,-14.02l0 -70.1 40.31 0c0,19.48 -3.95,56.83 -6.53,88.31 -2.7,32.86 -39.18,27.89 -44.53,40.09 -4.24,9.69 0.9,39.85 0.9,39.85l-214.49 0 -9.02 -125.93c-1.27,-11.62 -3.24,-29.53 -3.24,-42.32zm-15.78 -84.13l308.46 0 0 56.09 -308.46 0 0 -56.09zm154.23 -112.16c20.39,0 37.83,10.41 50.4,23.2 5.63,5.73 7.85,7.28 13.93,12.37 4.8,4.01 7.71,8.08 12.36,12.17 5.28,4.65 7.88,6.04 13.14,11.4 8.46,8.64 19.49,15.5 25.84,24.98l-231.34 0c6.37,-9.51 16.67,-15.61 24.98,-24.09l52.58 -47.31c9.21,-6.63 23.03,-12.72 38.11,-12.72zm-182.27 98.14l0 84.13c0,9.17 5.39,13.3 14.02,14.02l7.75 104.41c2.5,16.65 1.97,36.75 4.04,52.05 2.31,17.05 -2.87,39.83 16.25,39.83l238.94 0c0.34,-11.07 -2.22,-38.58 -3.25,-57.76 -0.91,-16.85 25.59,-25.54 36.14,-46.4l31.67 -25.16 3.11 -40.78c0.36,-4.54 -0.15,-9.28 0.19,-13.83 0.42,-5.52 1.53,-6.32 1.66,-12.36 8.63,-0.72 14.02,-4.85 14.02,-14.02 0,-119.66 4.06,-89.13 -21.87,-99.07l-78.45 -70.51c-17.68,-17.99 -46.03,-40.73 -73.19,-40.73 -40.48,0 -50.29,5.34 -78.44,30.21 -4.29,3.79 -6.19,4.44 -10.53,8.75l-68.5 62.95c-1.54,1.24 -10.29,8.66 -10.5,8.77 -8.48,4.41 -23.06,-2.28 -23.06,15.5z"/>
  <path class="fil2" d="M538.59 1186.91l110.9 0 0 44.36 -110.9 0 0 -44.36zm-54.06 0l31.88 0 0 55.45c0,6.71 4.38,11.09 11.09,11.09l133.08 0c6.71,0 11.09,-4.38 11.09,-11.09l0 -55.45 31.89 0c0,22.62 -6.72,75.74 -6.91,99.83l-2.8 33.25 -199.62 0 -7.14 -99.61c-1,-9.19 -2.56,-23.35 -2.56,-33.47zm-12.48 -66.54l243.98 0 0 44.36 -243.98 0 0 -44.36zm121.99 -88.72c16.13,0 29.92,8.23 39.87,18.36 4.44,4.52 6.2,5.75 11.01,9.77 3.8,3.18 6.1,6.39 9.78,9.63 4.18,3.68 6.23,4.78 10.39,9.02 6.7,6.84 15.42,12.26 20.44,19.76l-182.98 0c5.04,-7.53 13.18,-12.35 19.76,-19.06l41.59 -37.42c7.28,-5.24 18.21,-10.06 30.14,-10.06zm-144.17 77.63l0 66.54c0,7.25 4.27,10.52 11.09,11.09l6.13 82.59c1.98,13.16 1.56,29.06 3.19,41.17 1.83,13.48 -2.27,31.5 12.86,31.5l221.8 0c15.13,0 11.03,-18.02 12.86,-31.5l7.86 -103.04c0.28,-3.59 -0.12,-7.35 0.15,-10.94 0.33,-4.37 1.2,-5 1.31,-9.78 6.82,-0.57 11.09,-3.84 11.09,-11.09 0,-94.64 3.21,-70.5 -17.29,-78.36l-62.06 -55.77c-13.99,-14.23 -36.41,-32.22 -57.89,-32.22 -32.02,0 -39.78,4.23 -62.04,23.9 -3.39,3 -4.9,3.51 -8.34,6.92l-54.17 49.79c-1.22,0.98 -8.15,6.85 -8.31,6.94 -6.71,3.48 -18.24,-1.81 -18.24,12.26z"/>
 </g>
</svg>
