<?xml version="1.0" encoding="UTF-8"?>
<!DOCTYPE svg PUBLIC "-//W3C//DTD SVG 1.1//EN" "http://www.w3.org/Graphics/SVG/1.1/DTD/svg11.dtd">
<!-- Creator: CorelDRAW -->
<svg xmlns="http://www.w3.org/2000/svg" xml:space="preserve" width="21mm" height="24mm" version="1.1" style="shape-rendering:geometricPrecision; text-rendering:geometricPrecision; image-rendering:optimizeQuality; fill-rule:evenodd; clip-rule:evenodd"
viewBox="0 0 2100 2400"
 xmlns:xlink="http://www.w3.org/1999/xlink"
 xmlns:xodm="http://www.corel.com/coreldraw/odm/2003">
 <defs>
  <style type="text/css">
   <![CDATA[
    .fil0 {fill:#FEFEFE}
    .fil1 {fill:#049982}
   ]]>
  </style>
 </defs>
 <g id="Слой_x0020_1">
  <metadata id="CorelCorpID_0Corel-Layer"/>
  <path class="fil0" d="M1046.93 163.45c677.29,0 1022.98,362.33 1022.98,1039.62 0,677.29 -345.69,1039.62 -1022.98,1039.62 -677.29,0 -1022.98,-362.33 -1022.98,-1039.62 0,-677.29 345.69,-1039.62 1022.98,-1039.62z"/>
  <g id="_2202389980272">
   <path class="fil1" d="M1368.11 770.96c2.45,114.86 0.98,196.92 -68.85,268.37 -135.15,138.26 -390.93,121.61 -507.19,5.66 -69.26,-69.07 -68.19,-156.89 -72.96,-272.84 -395.92,116.42 -168.81,650.82 323.14,650.85 133.65,0 284.13,-52.4 382.46,-132.79 231.35,-189.14 169.59,-453.24 -56.6,-519.25z"/>
   <path class="fil1" d="M828.12 576.02c-74.38,18.29 -55.08,50.26 -55.28,193.68 -0.16,116.28 -15.81,144.67 70.53,186.47 104.15,50.43 305.19,54.72 407.64,-2.66 71.76,-40.19 65.44,-78.68 65.16,-171.22 -0.82,-278 -9.66,-204.65 -261.16,-196.69 -76.81,2.44 -150.55,-28.35 -226.89,-9.58z"/>
   <path class="fil1" d="M1177.93 2003.1c53.81,-19.54 84.02,-44.3 134.01,-71.29l252.22 -136.2c34.19,-19.74 83.38,-50.43 115.05,-76.73l-351.89 -198.77c0.18,133.93 -102.47,315.21 -149.39,482.99z"/>
   <path class="fil1" d="M407.28 1721.43c40.34,31.68 448.9,268.77 502.69,283.61 -35.05,-154.71 -153.77,-315.72 -152.49,-484.73l-350.2 201.12z"/>
   <path class="fil1" d="M1291.77 1422.6c-23.39,64.51 -63.93,87.37 -107.96,130.44 -38.47,37.63 -33.54,80.52 -135.05,77.79 15.6,-51.46 12,33 13.03,-32.46 0.68,-44.23 -18.48,-35.01 -11,-126.08l240.98 -49.69zm70.24 -63.11c-298.9,104.34 -340.64,98.26 -634.32,-1.3 23.62,74.71 177.88,304.56 314.53,305.4 128.94,0.78 134.43,-71.5 186.78,-116.34 53.63,-45.94 107.4,-120.74 133.01,-187.76z"/>
   <path class="fil1" d="M1046.93 21.83l511.49 295.31 511.49 295.31 0 590.62 0 590.62 -511.49 295.31 -511.49 295.31 -511.49 -295.31 -511.49 -295.31 0 -590.62 0 -590.62 511.49 -295.31 511.49 -295.31zm0 141.62l450.17 259.91 450.17 259.9 0 519.81 0 519.81 -450.17 259.9 -450.17 259.91 -450.17 -259.91 -450.17 -259.9 0 -519.81 0 -519.81 450.17 -259.9 450.17 -259.91z"/>
  </g>
 </g>
</svg>
