<?xml version="1.0" encoding="UTF-8"?>
<!DOCTYPE svg PUBLIC "-//W3C//DTD SVG 1.1//EN" "http://www.w3.org/Graphics/SVG/1.1/DTD/svg11.dtd">
<!-- Creator: CorelDRAW -->
<svg xmlns="http://www.w3.org/2000/svg" xml:space="preserve" width="21mm" height="24mm" version="1.1" style="shape-rendering:geometricPrecision; text-rendering:geometricPrecision; image-rendering:optimizeQuality; fill-rule:evenodd; clip-rule:evenodd"
viewBox="0 0 2100 2400"
 xmlns:xlink="http://www.w3.org/1999/xlink"
 xmlns:xodm="http://www.corel.com/coreldraw/odm/2003">
 <defs>
  <style type="text/css">
   <![CDATA[
    .fil0 {fill:#FEFEFE}
    .fil2 {fill:url(#id0)}
    .fil1 {fill:url(#id1)}
   ]]>
  </style>
  <linearGradient id="id0" gradientUnits="userSpaceOnUse" x1="1041" y1="2381.98" x2="1041" y2="20.02">
   <stop offset="0" style="stop-opacity:1; stop-color:#2B685B"/>
   <stop offset="1" style="stop-opacity:1; stop-color:#019884"/>
  </linearGradient>
  <linearGradient id="id1" gradientUnits="userSpaceOnUse" xlink:href="#id0" x1="1041.26" y1="1743.93" x2="1041.26" y2="659.44">
  </linearGradient>
 </defs>
 <g id="Слой_x0020_1">
  <metadata id="CorelCorpID_0Corel-Layer"/>
  <g id="_2431765899680">
   <polygon class="fil0" points="1041.67,125.92 1507.74,395.01 1973.82,664.09 1973.82,1202.27 1973.82,1740.45 1507.74,2009.53 1041.67,2278.62 575.6,2009.53 109.52,1740.45 109.52,1202.27 109.52,664.09 575.6,395.01 "/>
   <path class="fil1" d="M636.47 760.72c9.4,22.51 6.73,35.02 6.34,70.89l-2.52 153.29 -187.7 0c-4.67,-4.67 -3.99,-200.22 -1.85,-213.8 6.32,-40.27 56.35,-71.44 96.93,-70.69 38.55,0.72 73.87,24.54 88.8,60.31zm179.31 225.19c31.77,0 90.03,5.81 103.22,-7.99 9.74,-10.19 11.41,-38.21 -22.28,-38.21 -16.12,0 -92.61,-3.57 -103.3,3.64 -6.86,4.62 -8.85,11.54 -8.69,19.75 0.39,19.75 12.47,22.81 31.05,22.81zm0 615.21l136.58 0c20.13,0 32.78,-2.86 32.4,-23.34 -0.35,-19.1 -14.33,-22.86 -32.4,-22.86l-137.21 0c-18.69,0 -30.13,3.15 -30.43,22.76 -0.31,20.48 11.04,23.44 31.06,23.44zm287.42 -515.51c-47.33,-4.3 -107.21,-1.21 -155.9,-1.21 -45.19,0 -110.05,-3.75 -152.87,1.74 -14.6,8.03 -19.29,41.58 23.71,42.24l258.22 -0.06c15.33,0.07 23.98,-2.49 34.96,-8.53 2.4,-17.91 4.35,-27.75 -8.12,-34.18zm5.99 -248.97c1.69,-7.44 2.96,-15.19 1.95,-22.92 -1.62,-12.37 -2.32,-8.46 -7.9,-16.48 -39.01,-4.56 -197.48,-1.04 -257.11,-1.05 -28.09,0 -65.21,-7.84 -61.18,27.79 1.59,14.1 10.09,18.15 25.6,18.48l215.15 -0.09c25.9,0 65.03,5.12 83.49,-5.73zm-13.63 701.55c1.08,-16.22 31.3,-123.68 40.15,-144.11 17.12,4.76 67.22,60.55 83.13,76.47 8.5,8.49 20.74,15.9 22.11,28.75l-87.8 26.16c-14.36,3.26 -40.4,13.87 -57.59,12.73zm204.32 -68.13l-6.51 8.36c-8.7,-1.19 -13.03,-7.54 -19.51,-14.56l-50.71 -50.73c-78.11,-78.12 -76.46,-63.52 -47.39,-92.56l147.95 -147.95c28.94,-28.95 55.95,-55.95 84.72,-84.73 14.63,-14.62 27.09,-27.09 41.73,-41.73 7.8,-7.79 13.65,-13.62 21.5,-21.5 7.48,-7.51 11.43,-15.43 24.45,-17.37 4.96,3.98 1.76,0.59 6.12,5.7 4.36,5.11 -0.83,-2.23 3.99,6l119.17 120.82c-13.83,24.74 -306.3,303.56 -325.51,330.25zm376.98 -311.25c4.84,-32.81 1.98,-27.38 -35.7,-65.06 -17.59,-17.58 -33.06,-33.06 -50.58,-50.58 -17.31,-17.31 -33.28,-33.27 -50.59,-50.58 -35.8,-35.81 -31.02,-39.05 -62.05,-34.54 -6.16,2.93 -26.24,24.38 -32.32,30.46l-306.09 305.95c-23.4,23.31 -38.91,33.66 -42.04,60.65l-46.49 156.8c-2.74,18.03 -26.71,62.6 -12.1,80.44 16.48,20.14 49.65,-2.22 75.37,-6.66l106.87 -29.98c113.39,-34.66 58.05,1.91 184.29,-124.33 16.1,-16.11 264.56,-261.87 271.43,-272.57zm-1270.96 -382.91c-0.16,64.94 -0.32,129.88 -0.47,194.81 0,23.17 -5.91,58.35 16.13,61.35 31.75,-0.23 202.52,-1.83 219.72,1.59 4.43,55.28 0.85,287.9 0.85,361.95 -0.03,105.43 -0.07,210.86 -0.1,316.29 -0.01,19.64 2.68,16.96 11.89,30.47 30.33,4.52 653.3,0.82 753.74,1.44 20.76,0.13 24.42,-0.16 36.41,-11.83 4.16,-8.02 2.48,-214.51 -0.18,-221.27 -7.68,-19.53 -37.48,-16.04 -42.37,4.57 -4.21,17.73 -0.73,122.14 -0.66,148.42 0.14,46.41 16.78,35.4 -114.66,35.4 -193.11,0.05 -386.22,0.1 -579.33,0.15 -2.81,-0.02 -7.13,0.01 -9.79,-0.44 -12.13,-2.04 -10.5,-5.48 -10.32,-27.5 2.45,-297.62 -3.64,-601.2 -0.24,-897.84 -0.09,-17.45 -12.12,-35.11 -20.98,-49.46 -7.19,-10.92 -11.76,-10.42 -8.91,-25.91 53.4,-4.14 121.83,-0.54 176.86,-0.54 147.53,0.02 295.06,0.04 442.59,0.06 14.96,-0.01 30.03,-1.1 42.9,2.2 54.16,13.89 80.48,37.17 84.26,104.7 0.24,22.44 -0.42,38.39 2.59,124.99 7.24,15.27 38.33,14.94 41.38,-3.54 0.08,-45.34 -0.26,-97.15 -0.19,-142.5 -3.67,-59.01 -42.29,-91.59 -78.41,-109.3 -0.53,-0.27 -1.17,-0.6 -1.72,-0.85 -4.27,-1.94 -0.14,-0.3 -5.5,-2.16 -44.11,-15.29 -65.73,-10.57 -118.19,-10.57 -170.29,0 -340.58,0 -510.88,0 -64.07,0.06 -128.14,0.11 -192.21,0.16 -80.64,0.99 -129.47,59.9 -134.21,115.16z"/>
   <path class="fil2" d="M1041.67 21.03l511.49 295.31 511.49 295.31 0 590.62 0 590.62 -511.49 295.31 -511.49 295.31 -511.49 -295.31 -511.49 -295.31 0 -590.62 0 -590.62 511.49 -295.31 511.49 -295.31zm0 141.62l450.17 259.91 450.17 259.9 0 519.81 0 519.81 -450.17 259.9 -450.17 259.91 -450.17 -259.91 -450.17 -259.9 0 -519.81 0 -519.81 450.17 -259.9 450.17 -259.91z"/>
  </g>
 </g>
</svg>
