<?xml version="1.0" encoding="UTF-8"?>
<!DOCTYPE svg PUBLIC "-//W3C//DTD SVG 1.1//EN" "http://www.w3.org/Graphics/SVG/1.1/DTD/svg11.dtd">
<!-- Creator: CorelDRAW -->
<svg xmlns="http://www.w3.org/2000/svg" xml:space="preserve" width="20.4596mm" height="23.6248mm" version="1.1" style="shape-rendering:geometricPrecision; text-rendering:geometricPrecision; image-rendering:optimizeQuality; fill-rule:evenodd; clip-rule:evenodd"
viewBox="0 0 2045.96 2362.48"
 xmlns:xlink="http://www.w3.org/1999/xlink"
 xmlns:xodm="http://www.corel.com/coreldraw/odm/2003">
 <defs>
  <style type="text/css">
   <![CDATA[
    .fil0 {fill:#FEFEFE}
    .fil2 {fill:url(#id0)}
    .fil1 {fill:url(#id1)}
   ]]>
  </style>
  <linearGradient id="id0" gradientUnits="userSpaceOnUse" x1="1083.11" y1="1694" x2="1083.11" y2="519.57">
   <stop offset="0" style="stop-opacity:1; stop-color:#2B685B"/>
   <stop offset="1" style="stop-opacity:1; stop-color:#019884"/>
  </linearGradient>
  <linearGradient id="id1" gradientUnits="userSpaceOnUse" xlink:href="#id0" x1="1015.18" y1="2360.49" x2="1015.18" y2="-0.49">
  </linearGradient>
 </defs>
 <g id="Слой_x0020_1">
  <metadata id="CorelCorpID_0Corel-Layer"/>
  <polygon class="fil0" points="1015.85,105.42 1481.92,374.51 1948,643.59 1948,1181.77 1948,1719.95 1481.92,1989.03 1015.85,2258.12 549.78,1989.03 83.7,1719.95 83.7,1181.77 83.7,643.59 549.78,374.51 "/>
  <path class="fil1" d="M1015.85 0.53l511.49 295.31 511.49 295.31 0 590.62 0 590.62 -511.49 295.31 -511.49 295.31 -511.49 -295.31 -511.49 -295.31 0 -590.62 0 -590.62 511.49 -295.31 511.49 -295.31zm0 141.62l450.17 259.91 450.17 259.9 0 519.81 0 519.81 -450.17 259.9 -450.17 259.91 -450.17 -259.91 -450.17 -259.9 0 -519.81 0 -519.81 450.17 -259.9 450.17 -259.91z"/>
  <path class="fil2" d="M392.01 865.89l0 651.23 1.23 3.33c0.11,0.43 0.36,1.79 0.44,2.25 0.28,1.54 0.37,3 0.59,4.55 9.12,64.23 52.22,121.16 110.96,148.15 37.86,17.39 61.21,14.64 70.75,18.47l523.39 0c13.64,-4.84 60.67,-1.03 110.09,-41.57 14.67,-12.03 25.94,-22.78 37.37,-38.64 7.27,-10.08 22.89,-34.75 25.81,-49.18l-53.64 -12.17c-11.77,20.29 -15.27,31.07 -34.59,48.28 -41.27,36.76 -73.98,37.37 -128.14,37.08l-412.16 0.05c-56.68,-0.01 -99.22,3.1 -138.55,-26.71 -28.22,-21.38 -55.46,-55.8 -57.62,-107.88 -2.22,-53.31 -0.15,-111.55 -0.15,-165.4l0 -329.46c0.02,-27.56 0.13,-55.14 0.08,-82.7 -0.05,-25.66 -2.02,-54.29 4.63,-78.12 12.15,-43.53 40.57,-73.41 75.33,-90.12 22.73,-10.93 40.85,-13.48 69.59,-13.5l410.83 -0.02c54.97,0.39 104.61,-6.74 148.72,17.03 31.75,17.12 61.37,50.44 69.87,94.1l54.24 -11.15c-0.89,-15.31 -15.14,-46.93 -21.99,-58.33 -30.28,-50.4 -80.05,-88.57 -145.5,-96.08 -25.15,-2.88 -54.15,-1.24 -80,-1.43 -39.21,-0.29 -218.24,1.74 -239.53,-0.36 3.53,-29.17 26.59,-60.65 41.28,-73.65 20.21,-17.88 43.03,-32.49 79.44,-36.83 17.5,-2.08 39.27,-0.87 57.45,-0.9 19.12,-0.02 38.26,0.1 57.36,-0.01 38.66,-0.22 77.37,0 116.04,-0.06 38.38,-0.05 72.94,-3.09 106.53,9.34 27.45,10.16 51.63,31.9 64.82,51.38 30.03,44.38 24.92,90.59 24.53,148.66 -0.09,12.21 -1.48,46.92 0.7,56.69l55.21 6c-0.5,-42.62 0,-85.41 -0.12,-128.05 -0.21,-70.53 -31.35,-129.11 -86.57,-166.44 -12.07,-8.17 -26.82,-16.1 -42.34,-21.58 -22.31,-7.87 -47.76,-10.39 -51.52,-12.06l-296.7 0c-3.93,1.56 -29.64,4.48 -37.31,6.39 -21.92,5.46 -43.43,15.2 -60.96,27.34 -7.45,5.16 -19.43,14.14 -24.39,19.65 -18.16,20.18 -21.2,19.69 -38.19,49.87 -12.08,21.46 -15.61,38.2 -21.61,64.76 -43.35,0.55 -87.57,0.37 -130.95,0.03 -79.04,-0.63 -132.99,21.32 -178.75,82.69 -32.72,43.87 -31.67,85.64 -36,95.08zm1212.76 224.79c-4.08,-6.1 -38.59,-88.91 -95.63,-137.76 -23.47,-18.08 -23.68,-20 -53.01,-37.35 -42.06,-24.88 -101.24,-42.49 -149.67,-42.49 -39.16,0 -59.52,0.91 -97.57,10.35 -10.52,2.62 -20.37,5.76 -30.03,9.46l-28.45 11.9c-8.71,3.53 -17.72,8.91 -25.74,13.75 -24.85,15.01 -47.19,32.17 -67.61,52.59 -10.05,10.06 -19.34,20.42 -27.86,31.81 -20.54,27.46 -38.32,57.51 -49.23,90.27 -1.67,4.99 -3.63,9.45 -5.17,15.01 -19.98,72.25 -19.31,135.72 4.5,206.97 7.99,23.92 19.39,47.59 33.41,68.36l25.53 35.01c3.29,3.87 6.11,6.91 9.63,10.55 2.19,2.28 2.59,3.46 4.79,5.74 14.8,15.38 31.35,30.13 49.18,42.06 25.15,16.82 51.5,31.79 80.35,41.61 72.52,24.69 150.52,25.49 222.65,-0.44 3.1,-1.12 6.01,-2.46 8.79,-3.49l26.78 -11.83c4.95,-2.48 12.08,-7.35 16.96,-8.48 6.81,4.56 42.12,42.1 54.4,53.52 18.62,17.31 36.2,35.76 54.18,53.74 8.13,8.13 69.62,71.86 81.63,79.81 23.09,15.29 53.03,19 78.23,5.9 3.72,-1.93 8.91,-5.38 12.34,-7.83 8.85,-6.31 23.17,-22.96 28.35,-32.19 13.69,-24.39 10.34,-56.84 -4.84,-79.09 -8.2,-12.02 -113.99,-115.63 -132.1,-133.75l-44.88 -44.61c-13.49,-11.45 -11.06,-3.72 8.99,-43.48 18.44,-36.6 31.28,-87.93 31.28,-129.28 0,-41.92 -1.71,-63.55 -12.46,-103.36 -1.91,-7.08 -4.4,-16.07 -7.72,-22.98zm-57.69 57.24c8.47,38.49 8.94,84.77 -2.27,123.19 -13.34,45.72 -28.05,71.89 -57.35,106.73 -1.61,1.92 -1.66,2.42 -3.53,4.37l-15.41 15.29c-1.96,1.64 -2.4,1.64 -4.36,3.54 -16.43,16 -41.11,31.24 -62.08,40.58 -70.33,31.33 -148.62,32.38 -219.04,-0.28 -27.87,-12.92 -53.4,-31.32 -73.77,-51.69l-14.77 -15.95c-28.46,-36.42 -40.34,-56.75 -53.79,-103.25 -4.06,-14.03 -8,-37.57 -8,-55.18 0.54,-42.13 5.48,-66.26 13.37,-92.34 5.81,-28.61 38.39,-77.43 57.92,-96.96 9.1,-9.09 16.86,-16.76 26.85,-24.92 2.32,-1.89 4.61,-3.45 7.02,-5.26 38.65,-29.03 94.65,-50.76 144.02,-50.76 30.69,0 47.8,0.79 77.74,8.24 30.8,7.67 59.9,21.57 84.72,39.88 3.19,2.36 5.76,4.32 8.91,6.88 71.15,70.51 80.36,103.68 93.82,147.89zm-987.37 -29.33l285.46 -0.01 0.59 -41.69 -285.52 -0.19 -0.53 41.89zm-0.06 186.2l286.04 0.02 0.09 -41.69 -285.8 -0.14 -0.33 41.81zm0.06 186.2l371.17 0.04 0.43 -41.74 -371.55 -0.08 -0.05 41.78zm-0.01 -558.63l371.27 -0.04 0.32 -41.76 -371.47 -0.06 -0.12 41.86z"/>
 </g>
</svg>
